<?xml version="1.0" encoding="UTF-8"?>
<svg xmlns="http://www.w3.org/2000/svg" xmlns:xlink="http://www.w3.org/1999/xlink" viewBox="0 0 3575 1300">
  <defs>
    <style>
      .cls-1 {
        fill: url(#_113);
      }

      .cls-1, .cls-2, .cls-3, .cls-4, .cls-5, .cls-6, .cls-7, .cls-8, .cls-9, .cls-10, .cls-11, .cls-12, .cls-13, .cls-14, .cls-15, .cls-16, .cls-17, .cls-18, .cls-19, .cls-20, .cls-21, .cls-22, .cls-23, .cls-24, .cls-25, .cls-26, .cls-27, .cls-28, .cls-29, .cls-30 {
        fill-rule: evenodd;
      }

      .cls-1, .cls-6, .cls-9, .cls-31, .cls-19, .cls-23, .cls-26, .cls-28, .cls-29, .cls-30 {
        mix-blend-mode: screen;
      }

      .cls-2 {
        fill: #4a64ab;
      }

      .cls-3 {
        fill: url(#_194-8);
      }

      .cls-32, .cls-8, .cls-12, .cls-15, .cls-33, .cls-16, .cls-17, .cls-22, .cls-24, .cls-25 {
        mix-blend-mode: multiply;
      }

      .cls-32, .cls-24 {
        fill: #5c1a5c;
        opacity: .7;
      }

      .cls-4 {
        fill: #5770b1;
      }

      .cls-5 {
        fill: #4b419e;
      }

      .cls-34 {
        fill: url(#_194-7);
      }

      .cls-6 {
        fill: url(#_113-4);
      }

      .cls-35 {
        isolation: isolate;
      }

      .cls-7 {
        fill: #4e3087;
      }

      .cls-8 {
        fill: #912774;
      }

      .cls-8, .cls-12, .cls-15, .cls-16, .cls-17, .cls-22, .cls-25 {
        opacity: .5;
      }

      .cls-36 {
        fill: url(#_77-11);
      }

      .cls-9 {
        fill: url(#_113-2);
      }

      .cls-10 {
        fill: #311d85;
      }

      .cls-11 {
        fill: url(#_194-2);
      }

      .cls-12 {
        fill: url(#_77-2);
      }

      .cls-13 {
        fill: #111238;
      }

      .cls-37 {
        fill: url(#_77-7);
      }

      .cls-14 {
        fill: #39247d;
      }

      .cls-38 {
        fill: url(#_77-12);
      }

      .cls-15 {
        fill: url(#_77-9);
      }

      .cls-33 {
        opacity: .3;
      }

      .cls-39 {
        fill: url(#_77-4);
      }

      .cls-16 {
        fill: url(#_77-3);
      }

      .cls-17 {
        fill: url(#_77-8);
      }

      .cls-31, .cls-29 {
        fill: #7db0e3;
        opacity: .09;
      }

      .cls-40 {
        clip-path: url(#clippath);
      }

      .cls-18 {
        fill: url(#_194-6);
      }

      .cls-41 {
        fill: none;
      }

      .cls-42 {
        fill: url(#_194-3);
      }

      .cls-19 {
        fill: url(#_113-6);
      }

      .cls-20 {
        fill: url(#_194);
      }

      .cls-21 {
        fill: url(#_194-5);
      }

      .cls-22 {
        fill: url(#_77);
      }

      .cls-43 {
        fill: #150f3d;
      }

      .cls-44 {
        fill: url(#_77-13);
      }

      .cls-23 {
        fill: url(#_113-3);
      }

      .cls-25 {
        fill: url(#_77-10);
      }

      .cls-45 {
        fill: url(#_77-6);
      }

      .cls-26 {
        fill: url(#_113-7);
      }

      .cls-27 {
        fill: url(#_194-4);
      }

      .cls-28 {
        fill: url(#_113-5);
      }

      .cls-46 {
        fill: url(#_77-5);
      }

      .cls-47 {
        fill: url(#_77-14);
      }

      .cls-30 {
        fill: url(#_113-8);
      }

      .cls-48 {
        fill: #abc5ff;
        mix-blend-mode: soft-light;
      }
    </style>
    <clipPath id="clippath">
      <rect class="cls-41" width="3575" height="1300"/>
    </clipPath>
    <linearGradient id="_194" data-name="  194" x1="80.28" y1="1100.63" x2="416.54" y2="1100.63" gradientUnits="userSpaceOnUse">
      <stop offset="0" stop-color="#312461"/>
      <stop offset="1" stop-color="#503557"/>
    </linearGradient>
    <linearGradient id="_77" data-name="  77" x1="-116.28" y1="1106.17" x2="-58.66" y2="1106.17" gradientTransform="translate(66.9) rotate(-180) scale(1 -1)" gradientUnits="userSpaceOnUse">
      <stop offset="0" stop-color="#ae429a"/>
      <stop offset="1" stop-color="#e08368"/>
    </linearGradient>
    <linearGradient id="_77-2" data-name="  77" x1="-177.07" y1="1109.53" x2="-164.19" y2="1109.53" xlink:href="#_77"/>
    <linearGradient id="_77-3" data-name="  77" x1="-282.91" y1="1108.4" x2="-232.66" y2="1108.4" xlink:href="#_77"/>
    <linearGradient id="_77-4" data-name="  77" x1="-120.1" y1="1214.52" x2="-120.1" y2="995.47" xlink:href="#_77"/>
    <linearGradient id="_77-5" data-name="  77" x1="-208.46" y1="1176.64" x2="-208.46" y2="1000.58" xlink:href="#_77"/>
    <linearGradient id="_77-6" data-name="  77" x1="-218.13" y1="1231.09" x2="-218.13" y2="1122.08" xlink:href="#_77"/>
    <linearGradient id="_77-7" data-name="  77" x1="-289.3" y1="1231.1" x2="-289.3" y2="1002.2" xlink:href="#_77"/>
    <linearGradient id="_194-2" data-name="  194" x1="-358.52" y1="1034.59" x2="-4.41" y2="1034.59" gradientTransform="translate(66.9) rotate(-180) scale(1 -1)" xlink:href="#_194"/>
    <linearGradient id="_194-3" data-name="  194" x1="154.33" y1="978.73" x2="361.76" y2="978.73" xlink:href="#_194"/>
    <linearGradient id="_194-4" data-name="  194" x1="-324.26" y1="1191.7" x2="-22.19" y2="1191.7" gradientTransform="translate(66.9) rotate(-180) scale(1 -1)" xlink:href="#_194"/>
    <linearGradient id="_113" data-name="  113" x1="-838.78" y1="1230.52" x2="-838.78" y2="1214.6" gradientTransform="translate(1309.64 3.69) rotate(-.1)" gradientUnits="userSpaceOnUse">
      <stop offset="0" stop-color="#0052d7"/>
      <stop offset="1" stop-color="#000"/>
    </linearGradient>
    <linearGradient id="_113-2" data-name="  113" x1="-854.74" y1="1216.8" x2="-854.74" y2="1202.65" xlink:href="#_113"/>
    <linearGradient id="_113-3" data-name="  113" x1="-859.53" y1="1203.45" x2="-859.53" y2="1189.35" xlink:href="#_113"/>
    <linearGradient id="_113-4" data-name="  113" x1="-929.46" y1="1234.26" x2="-929.46" y2="1218.29" xlink:href="#_113"/>
    <linearGradient id="_113-5" data-name="  113" x1="-917.36" y1="1217.67" x2="-917.36" y2="1201.8" xlink:href="#_113"/>
    <linearGradient id="_113-6" data-name="  113" x1="-755.57" y1="1493.41" x2="-755.57" y2="1477.8" gradientTransform="translate(1375.35 -200.22) rotate(5.71)" xlink:href="#_113"/>
    <linearGradient id="_113-7" data-name="  113" x1="-820.42" y1="1192.84" x2="-820.42" y2="1181.97" gradientTransform="translate(1316.94 20.59) rotate(-1.25)" xlink:href="#_113"/>
    <linearGradient id="_113-8" data-name="  113" x1="-1171.37" y1="1208.98" x2="-1171.37" y2="1198.12" gradientTransform="translate(1316.94 20.59) rotate(-1.25)" xlink:href="#_113"/>
    <linearGradient id="_194-5" data-name="  194" x1="120.48" y1="860.9" x2="388.94" y2="860.9" xlink:href="#_194"/>
    <linearGradient id="_77-8" data-name="  77" x1="-103.69" y1="863.4" x2="-65.78" y2="863.4" gradientTransform="translate(118.27 55.32) rotate(179.87) scale(1.14 -.94) skewX(2.57)" xlink:href="#_77"/>
    <linearGradient id="_77-9" data-name="  77" x1="-147.02" y1="864.26" x2="-130.7" y2="864.26" gradientTransform="translate(118.27 55.32) rotate(179.87) scale(1.14 -.94) skewX(2.57)" xlink:href="#_77"/>
    <linearGradient id="_77-10" data-name="  77" x1="-221.73" y1="863.35" x2="-174.21" y2="863.35" gradientTransform="translate(118.27 55.32) rotate(179.87) scale(1.14 -.94) skewX(2.57)" xlink:href="#_77"/>
    <linearGradient id="_77-11" data-name="  77" x1="-110.3" y1="959.97" x2="-110.3" y2="754.76" gradientTransform="translate(118.27 55.32) rotate(179.87) scale(1.14 -.94) skewX(2.57)" xlink:href="#_77"/>
    <linearGradient id="_77-12" data-name="  77" x1="-160.36" y1="912.27" x2="-160.36" y2="753.65" gradientTransform="translate(118.27 55.32) rotate(179.87) scale(1.14 -.94) skewX(2.57)" xlink:href="#_77"/>
    <linearGradient id="_77-13" data-name="  77" x1="-181.48" y1="983.55" x2="-181.48" y2="852.6" gradientTransform="translate(118.27 55.32) rotate(179.87) scale(1.14 -.94) skewX(2.57)" xlink:href="#_77"/>
    <linearGradient id="_77-14" data-name="  77" x1="-224.91" y1="986.84" x2="-224.91" y2="748.26" gradientTransform="translate(118.27 55.32) rotate(179.87) scale(1.14 -.94) skewX(2.57)" xlink:href="#_77"/>
    <linearGradient id="_194-6" data-name="  194" x1="-263.12" y1="779.84" x2="-38.59" y2="779.84" gradientTransform="translate(118.27 55.32) rotate(179.87) scale(1.14 -.94) skewX(2.57)" xlink:href="#_194"/>
    <linearGradient id="_194-7" data-name="  194" x1="179.52" y1="746.35" x2="317.15" y2="746.35" xlink:href="#_194"/>
    <linearGradient id="_194-8" data-name="  194" x1="-277.71" y1="933.23" x2="-36.1" y2="933.23" gradientTransform="translate(118.27 55.32) rotate(179.87) scale(1.14 -.94) skewX(2.57)" xlink:href="#_194"/>
  </defs>
  <g class="cls-35">
    <g id="Layer_2" data-name="Layer 2">
      <g id="Pirate">
        <g class="cls-40">
          <g>
            <g>
              <g>
                <path class="cls-20" d="m392.82,980.7s34.54,66.05,20.25,139.28c-13.97,71.6-74.44,111.13-74.44,111.13l-194.34-.03s-55.13-38.42-62.68-140.33c-7.99-107.83,22.81-120.59,22.81-120.59,0,0,170.9,39.54,288.41,10.54Z"/>
                <path class="cls-4" d="m240.95,954.35c120.05.53,151.88,26.34,151.88,26.34,0,0-34.28,18.44-144.33,11.37-126.13-8.1-144.09-21.91-144.09-21.91,0,0,32.32-16.26,136.54-15.8Z"/>
                <path class="cls-22" d="m144.52,981.25s-17.51,15.08-18.93,100.6c-1.37,82.33,53.76,149.23,53.76,149.23h3.84s-38.45-53.73-47.19-118.52c-10.09-74.75,8.52-131.31,8.52-131.31Z"/>
                <path class="cls-12" d="m243.97,987.97l-9.3,3.15s-6.43,148.38-2.06,239.97h2.19s3.24-78.74,4.24-123.9c1.46-65.94,1.75-115.63,1.75-115.63l3.18-3.58Z"/>
                <path class="cls-16" d="m308.98,985.7s15.73,7.34,17.84,7.21c2.11-.13,28.89,40.09,21.8,113.83-6.88,71.52-46.93,124.36-46.93,124.36h-2.12s26.69-45.01,35.94-87.89c9.36-43.39,11.61-81.88-14.99-148.62l-11.53-8.89Z"/>
                <path class="cls-13" d="m307.62,984.91l14.22,8.26s21.67,38.63,20.93,106.48c-.71,65.53-43.22,131.45-43.22,131.45h-3.89s42.38-65.19,44.56-133.98c2.25-71.23-24.11-103.8-24.11-103.8l-11.86-8.36,3.36-.05Z"/>
                <path class="cls-13" d="m169.05,977.08l-24.53,4.17s-16.61,51.11-12.17,117.75c4.29,64.3,50.84,132.08,50.84,132.08h6.6s-36.84-42.99-51.1-120.41c-16.54-89.84,13.73-128.31,13.73-128.31l21.71-4.54-5.07-.74Z"/>
                <path class="cls-13" d="m249.37,984.05l-5.97,7.28s-4.31,96.68-5.64,165.65c-1.29,66.72-.04,74.1-.04,74.1h-2.93s2.69-51.53,2.13-124.15c-.58-75.43,3.86-115.39,3.86-115.39l6.75-7.61,1.83.11Z"/>
                <path class="cls-31" d="m135.07,1001.36s-22.94,48.4-15.06,106.86c7.6,56.42,54.36,116.28,54.36,116.28,0,0-36.06-51.44-46.16-111.39-10.51-62.41,6.86-111.75,6.86-111.75Z"/>
                <path class="cls-31" d="m335.14,1006.32s20.77,33.36,13.48,100.41c-7.1,65.28-37.62,112.94-37.62,112.94,0,0,34.97-43.94,41.25-109.43,6.46-67.35-17.11-103.93-17.11-103.93Z"/>
                <path class="cls-31" d="m234.22,1002.48s-3.66,125.8-1.65,188.81c0,0-8.56-30.45-7.44-83.15,1.15-54.05,9.09-105.66,9.09-105.66Z"/>
                <g class="cls-33">
                  <path class="cls-39" d="m175.91,1022.19c39.45,54.44-.01,96.39,13.54,131.67,13.12,34.16,41.89,35.52,41.89,35.52l-.81,24.81s-39.16,6.78-55.16-41.21c-16.7-50.09,24.1-66.92,11.64-119.2-6.81-28.59-44.36-51.44-44.36-51.44l2.66-6.87s12.42,1.65,30.59,26.73Z"/>
                  <path class="cls-46" d="m242,1045.68s52.59-26.03,58.84,11.02c6.09,36.1-63.06,112.64-63.06,112.64l-.35,7.3s102.41-114.7,69.27-144.27c-35.04-31.26-63.7-31.78-63.7-31.78l-1,45.09Z"/>
                  <path class="cls-45" d="m237.73,1231.09l-.41-8.76s27.47-63.68,57.82-91.19c29.7-26.91,37.61,14.64,37.61,14.64l-11.17,33.59s4.23-41.74-24.82-37.39c-30.03,4.5-59.04,89.1-59.04,89.1Z"/>
                  <path class="cls-37" d="m338.73,1013.64l6.81,17.4s56.32-27.5,55.75,18.23c-1.13,89.68-96.88,181.84-96.88,181.84h6.01s55.12-63.91,80.48-119.66c25.33-55.69,18.7-88.69,4.72-101.56-20.9-19.24-56.89,3.76-56.89,3.76Z"/>
                </g>
                <path class="cls-11" d="m80.83,1037.39c170.34,24.96,337.68,27.55,337.68,27.55,4.05-6.32,6.92-12.77,6.92-12.77-2.06-1.76-7.23-20.74-8.82-20.6-166.26,14.78-339.2-27.33-339.2-27.33l-6.09,19.93,9.51,13.21Z"/>
                <path class="cls-43" d="m375.54,977.7s-125.6-39.79-238.14-5.96c0,0,60.95,12.49,139.94,13.26,86.2.83,98.2-7.29,98.2-7.29Z"/>
                <path class="cls-42" d="m361.76,981.26s-85.63-16-207.43-6.54c0,0,26.29,5.8,105.81,9.93,72.82,3.78,101.62-3.38,101.62-3.38Z"/>
                <path class="cls-2" d="m71.31,1024.17s82.32,21.96,214.48,28.48c114.14,5.64,139.63-.49,139.63-.49-2.06-1.76-7.23-20.74-8.82-20.6-166.26,14.78-339.2-27.33-339.2-27.33l-6.09,19.93Z"/>
                <polygon class="cls-29" points="382.88 1033.82 400.92 1054.46 357.28 1055.01 354.4 1034.64 382.88 1033.82"/>
                <path class="cls-8" d="m322.33,965.57l1.36,10.62s-53.88-4.11-72.61-4.3l.48-13.48s42.33,1.54,70.77,7.16Z"/>
                <path class="cls-29" d="m411.58,1071.4s-23.76-4.36-49.48,10.08c0,0-10.58,50.43-5.91,94.91,0,0,29.7-.15,43.3-28.31,13.57-28.11,12.09-76.69,12.09-76.69Z"/>
                <path class="cls-24" d="m416.29,1071.84s-42.41-3.06-66.58,1.43l-7.17,10.51-3.16-17.43s-54.5-6.24-98.88-2.63l-3.51,10.17.5-14.95s-71.68-9.45-103.77-3.19l-2.1,16.75-5.85-15.97s-10.04-1.49-27.56,3.84c0,0-1.44,40.2,26.83,92.63l18.5,12.84,13.62,18.13,6.17,3.57-2.06-4.43s22.68,5.6,70.03,2.81l5.27,3.45.72-2.44s40.31,3.92,81.21-.09l1.88,2.29,7.64-3.47s32.2,7.84,55.86.28c0,0-22.42,28.88-45.26,45.14l-194.34-.03s-41.43-30.49-55.23-93.95c-14.44-66.41-8.23-99.74-8.23-99.74l-9.51-13.21s-1.93,7.34,169.09,25.02c142.11,14.69,182.63,7.85,182.63,7.85l-4.53,7.89-2.65-.16.44,7.07Z"/>
                <path class="cls-27" d="m89.09,1175.91s.79,5.18,12.42,25.78c0,0,160.23,36.05,274.62,4.77l15.03-14.23-2.09-13.66-7.41,10.57s-52.88,4.75-146.73,2.22c-105.64-2.84-130.84-12.85-130.84-12.85l-6.31-14.33-8.68,11.73Z"/>
                <path class="cls-2" d="m89.09,1175.91c29.28,12.64,72.8,19.27,148.31,20.82,69.28,1.43,145-.85,153.77-4.51l-2.09-13.66-7.41,10.57s-52.88,4.75-146.73,2.22c-105.64-2.84-130.84-12.85-130.84-12.85l-6.31-14.33-8.68,11.73Z"/>
                <path class="cls-29" d="m364.06,1190.3l6.99,4.54s-44.86,3.6-70.4,2.23l3.9-5.03,59.51-1.74Z"/>
                <path class="cls-24" d="m335.49,985.03s-51.15-15.64-134.43-4.37c0,0-44.24-3.09-63.66-8.93,0,0,84.68-17.29,151.14-6.44,61.45,10.03,77.89,15.13,77.89,15.13l-30.94,4.61Z"/>
                <polygon class="cls-48" points="294.59 993.72 258.8 992.67 263.94 984.83 283.54 985.54 294.59 993.72"/>
                <polygon class="cls-31" points="224.13 958.43 210.74 954.73 199.6 955.15 213.05 958.93 224.13 958.43"/>
              </g>
              <g>
                <g>
                  <path class="cls-14" d="m403.15,1221.31l1.48,12.04s11.19,4.57,43.69,4.51c14.79-.03,27.97-3.37,27.97-3.37l.59-15.49-73.73,2.32Z"/>
                  <path class="cls-10" d="m403.45,1220.94c-3.29,1.65,21.19,6.54,50.2,4.22,14.77-1.18,23.31-5.09,23.23-6.17-.18-2.7-53.77-7.91-73.43,1.96Z"/>
                  <path class="cls-1" d="m469.63,1235.64l.68-13.95s.97.87,5.94-1.99l-2,15.16s-2.94.53-4.63.77Z"/>
                  <path class="cls-7" d="m430.77,1225.77s23.53-.68,32.16-2.08c8.63-1.4,12.5-3.52,12.5-3.52,0,0-6.68,3.98-18.46,5.3-11.79,1.32-26.2.3-26.2.3Z"/>
                </g>
                <g>
                  <path class="cls-14" d="m387.34,1209.37l1.44,11.99s11.16,4.55,43.62,4.5c14.77-.02,27.61-5.89,27.61-5.89l.96-12.89-73.62,2.3Z"/>
                  <path class="cls-10" d="m387.63,1209.01c-3.29,1.64,21.14,6.52,50.11,4.21,14.75-1.18,23.28-5.07,23.21-6.15-.17-2.69-53.67-7.89-73.33,1.94Z"/>
                  <path class="cls-9" d="m453.57,1221.96l.83-12.19s.97.87,5.94-1.98l-1.93,12.18s-3.15,1.75-4.84,1.99Z"/>
                  <path class="cls-7" d="m414.9,1213.82s23.49-.68,32.12-2.07c8.62-1.39,12.49-3.5,12.49-3.5,0,0-6.68,3.96-18.45,5.28-11.78,1.32-26.16.29-26.16.29Z"/>
                </g>
                <g>
                  <path class="cls-14" d="m382.67,1196.06l1.43,11.94s11.14,4.53,43.52,4.49c14.74-.02,27.56-5.86,27.56-5.86l.96-12.84-73.47,2.27Z"/>
                  <path class="cls-10" d="m382.97,1195.7c-3.28,1.63,21.09,6.5,50.01,4.2,14.72-1.17,23.24-5.05,23.17-6.12-.17-2.68-53.55-7.86-73.18,1.91Z"/>
                  <path class="cls-23" d="m448.76,1208.61l.84-12.14s.97.87,5.93-1.97l-1.94,12.12s-3.15,1.74-4.83,1.98Z"/>
                  <path class="cls-7" d="m410.17,1200.5s23.44-.67,32.06-2.05c8.6-1.39,12.47-3.49,12.47-3.49,0,0-6.67,3.95-18.41,5.25-11.75,1.31-26.11.29-26.11.29Z"/>
                </g>
                <g>
                  <path class="cls-7" d="m312.34,1225.17l1.3,12.07s11.16,4.58,43.77,4.51c14.84-.03,28.11-3.38,28.11-3.38l.82-15.53-74,2.33Z"/>
                  <path class="cls-5" d="m312.64,1224.81c-3.32,1.65,21.16,6.56,50.3,4.23,14.83-1.19,23.46-5.11,23.4-6.19-.14-2.71-53.83-7.92-73.7,1.97Z"/>
                  <path class="cls-24" d="m320.29,1227.64s3.83,1.44,4.35,2.05c.52.61.58,7.04.34,7.99-.24.95-5.54,1.11-5.54,1.11l11.23,1.71,11.12.65s-2.7-1.64-2.75-2.71c-.05-1.06,1.11-8.04,1.11-8.04l4.63-.78s-16.17-.66-24.5-1.99Z"/>
                  <path class="cls-29" d="m322.34,1227.93l26.06-8.91s16.08.21,21.93.81l-25.54,9.8s-14.97-.22-22.44-1.7Z"/>
                  <path class="cls-10" d="m377.96,1222.85c.01.28-1.17.75-3.24,1.25-.26.06-.54.13-.82.18-5.03,1.11-14.18,2.38-24.09,2.47-2.03.02-4.08.02-6.09,0-.53,0-1.06,0-1.59-.01-9.59-.14-18.23-.7-21.5-1.57-.55-.15-.95-.31-1.16-.46-.13-.1-.22-.2-.22-.31-.04-.97,5.32-2.52,22.56-3.61,17.24-1.1,36.1,1.14,36.15,2.07Z"/>
                  <path class="cls-7" d="m374.72,1224.1c-.26.06-.54.13-.82.18-5.03,1.11-14.18,2.38-24.09,2.47-2.03.02-4.07,0-6.09,0-.53,0-1.06,0-1.59-.01-9.59-.14-18.23-.7-21.5-1.57-.55-.15-.95-.31-1.16-.46,5.89-.91,16.09-1.92,31.94-1.77,11.27.09,18.58.59,23.31,1.18Z"/>
                  <path class="cls-29" d="m324.22,1228.26s3.38-.22,6.05-.01c2.67.21,10.34,1.27,10.34,1.27,0,0-3.93.92-9.13.13-5.2-.78-7.26-1.4-7.26-1.4Z"/>
                  <path class="cls-6" d="m378.82,1239.54l.89-13.98s.96.88,5.99-1.99l-2.23,15.2s-2.96.53-4.65.77Z"/>
                  <path class="cls-7" d="m339.98,1229.64s23.61-.68,32.3-2.09c8.68-1.4,12.59-3.53,12.59-3.53,0,0-6.76,3.99-18.6,5.32-11.85,1.33-26.29.3-26.29.3Z"/>
                </g>
                <g>
                  <path class="cls-7" d="m324.61,1208.63l1.32,12s11.14,4.55,43.65,4.5c14.8-.02,28.02-3.36,28.02-3.36l.79-15.44-73.77,2.3Z"/>
                  <path class="cls-5" d="m324.91,1208.27c-3.31,1.64,21.11,6.52,50.15,4.21,14.78-1.18,23.38-5.07,23.32-6.15-.15-2.69-53.68-7.89-73.47,1.94Z"/>
                  <path class="cls-24" d="m332.55,1211.09s3.82,1.43,4.34,2.04c.52.61.59,7,.36,7.95-.24.95-5.52,1.11-5.52,1.11l11.2,1.71,11.09.65s-2.7-1.64-2.75-2.69c-.05-1.06,1.09-8,1.09-8l4.62-.77s-16.12-.66-24.43-1.99Z"/>
                  <path class="cls-29" d="m334.59,1211.38l25.96-8.85s16.03.21,21.86.81l-25.45,9.74s-14.92-.22-22.38-1.69Z"/>
                  <path class="cls-10" d="m390.03,1206.34c.02.28-1.16.74-3.22,1.24-.26.06-.54.13-.82.18-5.01,1.1-14.13,2.36-24.01,2.45-2.03.02-4.07.02-6.07,0-.53,0-1.06,0-1.59-.01-9.56-.14-18.18-.7-21.44-1.57-.55-.15-.94-.31-1.16-.46-.13-.1-.22-.2-.22-.31-.04-.97,5.3-2.51,22.48-3.58,17.19-1.09,36,1.14,36.05,2.07Z"/>
                  <path class="cls-7" d="m386.8,1207.58c-.26.06-.54.13-.82.18-5.01,1.1-14.13,2.36-24.01,2.45-2.03.02-4.06,0-6.07,0-.53,0-1.06,0-1.59-.01-9.56-.14-18.18-.7-21.44-1.57-.55-.15-.94-.31-1.16-.46,5.87-.91,16.04-1.9,31.84-1.76,11.24.1,18.53.59,23.24,1.17Z"/>
                  <path class="cls-29" d="m336.47,1211.7s3.37-.22,6.03,0c2.66.21,10.31,1.27,10.31,1.27,0,0-3.92.91-9.1.13-5.18-.78-7.24-1.39-7.24-1.39Z"/>
                  <path class="cls-28" d="m390.92,1222.93l.86-13.9s.96.87,5.97-1.98l-2.19,15.12s-2.95.53-4.64.77Z"/>
                  <path class="cls-7" d="m352.18,1213.08s23.54-.68,32.19-2.07c8.65-1.39,12.55-3.51,12.55-3.51,0,0-6.73,3.97-18.53,5.28-11.81,1.32-26.21.29-26.21.29Z"/>
                </g>
                <g>
                  <path class="cls-7" d="m406.77,1188.88l.36,11.94s10.72,5.7,43.12,9.21c14.76,1.6,28.21-.22,28.21-.22l2.02-15.11-73.71-5.82Z"/>
                  <path class="cls-5" d="m407.09,1188.56c-3.42,1.25,20.5,8.72,49.63,9.64,14.84.47,23.72-2.43,23.75-3.49.07-2.66-52.89-13.64-73.38-6.14Z"/>
                  <path class="cls-24" d="m414.47,1192.16s3.69,1.82,4.16,2.48c.47.66.03,6.95-.28,7.85-.31.91-5.58.48-5.58.48l11.02,2.91,10.99,1.86s-2.56-1.9-2.52-2.95c.03-1.05,1.73-7.74,1.73-7.74l4.66-.25s-16.01-2.42-24.17-4.63Z"/>
                  <path class="cls-29" d="m416.49,1192.67l26.57-5.86s15.96,1.96,21.73,3.19l-26.14,6.79s-14.85-1.85-22.16-4.12Z"/>
                  <path class="cls-10" d="m472.14,1193.79c0,.28-1.22.61-3.32.87-.26.03-.54.07-.83.09-5.09.53-14.28.78-24.13-.22-2.02-.21-4.06-.43-6.05-.67-.53-.06-1.06-.11-1.58-.19-9.51-1.19-18.05-2.68-21.23-3.89-.53-.21-.92-.41-1.12-.58-.13-.11-.2-.22-.19-.33.03-.96,5.48-1.88,22.68-1.06,17.22.81,35.8,5.07,35.77,5.98Z"/>
                  <path class="cls-7" d="m468.82,1194.66c-.26.03-.54.07-.83.09-5.09.53-14.28.78-24.13-.22-2.02-.21-4.04-.44-6.05-.67-.53-.06-1.06-.11-1.58-.19-9.51-1.19-18.05-2.68-21.23-3.89-.53-.21-.92-.41-1.12-.58,5.91-.25,16.12-.12,31.86,1.76,11.19,1.33,18.43,2.61,23.08,3.7Z"/>
                  <path class="cls-29" d="m418.32,1193.2s3.37.15,6.01.65c2.64.5,10.17,2.38,10.17,2.38,0,0-3.98.47-9.07-.87-5.1-1.34-7.1-2.16-7.1-2.16Z"/>
                  <path class="cls-19" d="m471.7,1210.21l1.97-13.58s.89.96,6.11-1.29l-3.39,14.63s-2.98.2-4.69.25Z"/>
                  <path class="cls-7" d="m433.86,1196.27s23.52,1.92,32.26,1.49c8.74-.42,12.8-2.07,12.8-2.07,0,0-7.03,3.16-18.91,3.16-11.88,0-26.15-2.58-26.15-2.58Z"/>
                </g>
                <g>
                  <path class="cls-7" d="m475.14,1222.43l1.25,8.18s7.69,2.94,29.76,2.42c10.05-.24,18.93-2.71,18.93-2.71l.12-10.57-50.07,2.69Z"/>
                  <path class="cls-5" d="m475.33,1222.18c-2.2,1.17,14.53,4.14,34.2,2.13,10.01-1.03,15.75-3.82,15.68-4.56-.17-1.84-36.71-4.59-49.87,2.44Z"/>
                  <path class="cls-24" d="m480.6,1223.99s2.64.92,3.01,1.33c.37.41.6,4.78.47,5.43s-3.72.84-3.72.84l7.65,1,7.55.28s-1.88-1.08-1.94-1.8c-.06-.72.52-5.48.52-5.48l3.11-.6s-10.97-.21-16.65-.99Z"/>
                  <path class="cls-29" d="m482,1224.16l17.39-6.45s10.9-.1,14.88.22l-17.02,7.04s-10.14.07-15.25-.82Z"/>
                  <path class="cls-10" d="m519.53,1219.87c.02.19-.77.53-2.16.9-.17.04-.36.1-.55.14-3.38.83-9.54,1.83-16.25,2.04-1.38.04-2.76.07-4.13.09-.36,0-.72.02-1.08.02-6.5.05-12.37-.21-14.61-.75-.38-.1-.65-.2-.8-.3-.09-.07-.15-.13-.16-.21-.06-.66,3.53-1.79,15.17-2.79,11.65-1,24.5.24,24.56.87Z"/>
                  <path class="cls-7" d="m517.37,1220.77c-.17.04-.36.1-.55.14-3.38.83-9.54,1.83-16.25,2.04-1.38.04-2.76.07-4.13.09-.36,0-.72.02-1.08.02-6.5.05-12.37-.21-14.61-.75-.38-.1-.65-.2-.8-.3,3.96-.71,10.84-1.54,21.59-1.68,7.64-.1,12.61.13,15.83.45Z"/>
                  <path class="cls-29" d="m483.28,1224.35s2.28-.2,4.1-.1c1.82.1,7.04.71,7.04.71,0,0-2.64.68-6.18.23-3.54-.46-4.96-.84-4.96-.84Z"/>
                  <path class="cls-26" d="m520.58,1231.2l.21-9.52s.68.58,4-1.44l-1.08,10.37s-1.99.41-3.13.59Z"/>
                  <path class="cls-7" d="m494,1225.06s15.97-.82,21.82-1.9c5.84-1.08,8.43-2.59,8.43-2.59,0,0-4.47,2.82-12.45,3.89-7.99,1.08-17.8.6-17.8.6Z"/>
                </g>
                <g>
                  <path class="cls-7" d="m124.61,1246.26l1.25,8.18s7.69,2.94,29.76,2.42c10.05-.24,18.93-2.71,18.93-2.71l.12-10.57-50.07,2.69Z"/>
                  <path class="cls-5" d="m124.8,1246.01c-2.2,1.17,14.53,4.14,34.2,2.13,10.01-1.03,15.75-3.82,15.68-4.56-.17-1.84-36.71-4.59-49.87,2.44Z"/>
                  <path class="cls-24" d="m130.07,1247.82s2.64.92,3.01,1.33c.37.41.6,4.78.47,5.43-.13.65-3.72.84-3.72.84l7.65,1,7.55.28s-1.88-1.08-1.94-1.8c-.06-.72.52-5.48.52-5.48l3.11-.6s-10.97-.21-16.65-.99Z"/>
                  <path class="cls-29" d="m131.47,1247.99l17.39-6.45s10.9-.1,14.88.22l-17.02,7.04s-10.14.08-15.25-.82Z"/>
                  <path class="cls-10" d="m169,1243.7c.02.19-.77.53-2.16.9-.17.04-.36.09-.55.14-3.38.83-9.54,1.83-16.25,2.04-1.38.04-2.76.08-4.13.09-.36,0-.72.02-1.08.02-6.5.05-12.37-.21-14.61-.75-.38-.1-.65-.2-.8-.3-.09-.07-.15-.13-.16-.21-.06-.66,3.53-1.79,15.17-2.79,11.65-1,24.5.24,24.56.87Z"/>
                  <path class="cls-7" d="m166.84,1244.6c-.17.04-.36.09-.55.14-3.38.83-9.54,1.83-16.25,2.04-1.38.04-2.76.07-4.13.09-.36,0-.72.02-1.08.02-6.5.05-12.37-.21-14.61-.75-.38-.1-.65-.2-.8-.3,3.96-.71,10.84-1.54,21.59-1.68,7.64-.1,12.61.13,15.83.45Z"/>
                  <path class="cls-29" d="m132.75,1248.18s2.28-.2,4.1-.1c1.82.1,7.04.71,7.04.71,0,0-2.64.68-6.18.23-3.54-.46-4.96-.84-4.96-.84Z"/>
                  <path class="cls-30" d="m170.05,1255.04l.21-9.52s.68.58,4-1.44l-1.08,10.37s-1.99.41-3.13.59Z"/>
                  <path class="cls-7" d="m143.46,1248.89s15.97-.82,21.82-1.9c5.84-1.08,8.43-2.59,8.43-2.59,0,0-4.47,2.82-12.45,3.89-7.99,1.08-17.8.6-17.8.6Z"/>
                </g>
              </g>
            </g>
            <g>
              <path class="cls-21" d="m339.41,741.06s40.68,44.32,48.36,108.38c9.56,79.69-42.97,131.31-42.97,131.31l-192.1-7.59s-40.9-46.97-30.55-141.79c8.02-73.4,27.48-82.22,27.48-82.22,0,0,109.35,16.54,189.77-8.09Z"/>
              <path class="cls-4" d="m233.89,733.4c79.19-6.21,105.53,7.66,105.53,7.66,0,0-22.06,13.66-99.58,14.5-80.46.87-90.19-6.41-90.19-6.41,0,0,20.32-10.74,84.24-15.75Z"/>
              <path class="cls-17" d="m173.14,753.8s-11.79,9.94-19.63,69.43c-9.64,73.19,31.22,151.19,31.22,151.19l3.57.14s-29.39-64.42-30.12-126.39c-.67-57.31,14.96-94.38,14.96-94.38Z"/>
              <path class="cls-15" d="m236.69,753.22l-6.09,2.41s-1.7,115.77,4.88,220.81l2.14.08s-.15-92.45-.9-135.12c-.92-52.42-2.05-85.79-2.05-85.79l2.02-2.39Z"/>
              <path class="cls-25" d="m280.61,748.59s11.7,3.86,13.18,3.67c1.48-.19,26.48,25.97,33.13,86.15,8.17,73.89-21.55,140.77-21.55,140.77l-2.22-.09s18.46-57.67,18.92-105.17c.4-41.64-4.11-73.93-32.57-120.27l-8.9-5.07Z"/>
              <path class="cls-13" d="m279.61,748.17l10.7,4.51s20.49,25.22,30.38,79.52c11.88,65.2-17.53,146.9-17.53,146.9l-4.06-.16s29.8-80.73,19.01-148.92c-8.91-56.29-31.82-76.96-31.82-76.96l-9-4.69,2.31-.2Z"/>
              <path class="cls-13" d="m188.55,750.18l-15.4,3.62s-13.9,33.26-16.4,83.03c-2.95,58.69,31.56,137.73,31.56,137.73l6.17.24s-29.77-52.93-34.15-128.3c-3.89-66.94,17.65-92.41,17.65-92.41l13.72-3.73-3.14-.2Z"/>
              <path class="cls-13" d="m240.16,750.53l-3.75,4.81s-.26,69.73.99,133.48c1.53,77.88,3.09,87.8,3.09,87.8l-2.87-.11s.4-63.41-2.57-135.29c-2.44-58.99-.37-85.62-.37-85.62l4.27-5.05,1.22-.02Z"/>
              <path class="cls-31" d="m166.04,766.52s-18.65,33.2-19.07,78.27c-.48,52.1,33.59,120.92,33.59,120.92,0,0-26.45-60.13-28.14-116.91-1.44-48.59,13.61-82.28,13.61-82.28Z"/>
              <path class="cls-31" d="m301.28,760.63s20.18,22.49,25.65,77.79c6.59,66.68-14.01,125.36-14.01,125.36,0,0,25.75-54.38,17.81-122.23-6.57-56.16-29.45-80.92-29.45-80.92Z"/>
              <path class="cls-31" d="m230.52,762.85s.02,97.81,3.51,163.59c0,0-8.26-33.58-8.2-83.91.05-43.64,4.69-79.68,4.69-79.68Z"/>
              <g class="cls-33">
                <path class="cls-36" d="m191.4,778.32c26.72,38.23-3.75,74.4,5.6,107.55,10.28,36.47,35.87,38.35,35.87,38.35l.03,30.01s-36.54,7.51-48.34-48.61c-10.25-48.76,21.47-64.33,13.48-105.56-3.86-19.89-27.25-33.24-27.25-33.24l2.08-4.41s7.76.48,18.55,15.91Z"/>
                <path class="cls-38" d="m237,792.12s36.35-20.58,44.29,6.02c8.68,29.06-43.42,103.74-43.42,103.74l-.02,7.97s74.42-109.1,45.46-129.94c-27.35-19.68-46.92-18.68-46.92-18.68l.61,30.89Z"/>
                <path class="cls-44" d="m240.49,976.63l-.81-11.7s21.25-74.46,44.93-102.5c21.68-25.67,35.44,14.2,35.44,14.2l-4.25,36.86s-3.43-45.09-28.48-40.38c-25.64,4.82-46.82,103.53-46.82,103.53Z"/>
                <path class="cls-47" d="m304.81,765.4l7.41,11.87s38.06-21.82,47.08,11.17c21.95,80.33-51.08,190.86-51.08,190.86l6.33.25s41.12-79.89,50.58-137.8c7.98-48.87-4.97-73.37-18.37-81.68-18.89-11.72-41.96,5.32-41.96,5.32Z"/>
              </g>
              <path class="cls-18" d="m128.45,792.21c115.85,12.04,248.9,7.96,248.9,7.96,1.79-5.26,2.53-10.49,2.53-10.49-2.16-1.29-10.96-15.42-12.2-15.24-124.63,17.85-237.56-3.7-237.56-3.7l-6.06,12.99,4.39,8.48Z"/>
              <path class="cls-43" d="m326.47,740.12s-87.35-16.36-157.14,8.41c0,0,37.57,4.56,89.6,1.21,60.14-3.87,67.54-9.62,67.54-9.62Z"/>
              <path class="cls-34" d="m317.15,743.08s-60.13-5.21-137.63,6.39c0,0,16.17,2.21,67.83.9,50.29-1.27,69.8-7.29,69.8-7.29Z"/>
              <path class="cls-2" d="m124.06,783.72s51.33,11.98,145.5,11.9c90.66-.07,110.32-5.95,110.32-5.95-2.16-1.29-10.96-15.42-12.2-15.24-124.63,17.85-237.56-3.7-237.56-3.7l-6.06,12.99Z"/>
              <polygon class="cls-29" points="341.45 777.63 360.16 792.5 325.03 794.67 319.51 779.49 341.45 777.63"/>
              <path class="cls-8" d="m287.9,735.61l1.97,6.34s-36.67.3-48.98,1.14l-.12-7.92s27.64-1.34,47.14.45Z"/>
              <path class="cls-29" d="m373.11,805.75s-20.99-2.7-39.46,10.15c0,0,.73,46.42,15.21,94.33,0,0,29.67,0,34.51-31.79,4.41-28.99-10.26-72.69-10.26-72.69Z"/>
              <path class="cls-24" d="m377.24,805.94s-36.29-.96-55.25,3.56l-4.14,8.97-5.27-14.2s-43.11-2.93-76.11,1.41l-2.31,8.04-.04-11.58s-50.62-4.45-72.82,1.18l-2.78,12.54-2.65-11.71s-6.58-.75-18.78,3.68c0,0-5.73,31.1,8.74,77.52l13.23,12.78,9.54,19.26,4.91,4-1.4-4.91s18.95,6.44,60.62,3.77l4.87,4.03.55-2.81s37.49,5.06,76.07.78l2.26,2.77,6.8-4.07s34.13,10,56.24.97c0,0-14.66,36.89-34.7,58.82l-192.1-7.59s-31.17-37.94-31.9-102.5c-.62-54.49,7.64-78.45,7.64-78.45l-4.39-8.48s-2.11,4.93,111.9,11.03c111.11,5.95,143.17-1.12,143.17-1.12l-1.79,6.53-2.29-.03,2.18,5.8Z"/>
              <path class="cls-3" d="m114.67,908.35s-.26,5.41,5.58,28.09c0,0,144.77,50.39,257.7,11.51l11.21-18.13-6.68-16.83-4.27,12.82s-52.5,5.1-142.04.72c-91.18-4.45-110.14-15.41-110.14-15.41l-2.75-14.7-8.61,11.92Z"/>
              <path class="cls-2" d="m114.67,908.35c21.38,13.67,57.02,21.61,123.97,24.56,66.01,2.91,142.52,1.41,150.53-3.09l-6.68-16.83-4.27,12.82s-52.5,5.1-142.04.72c-91.18-4.45-110.14-15.41-110.14-15.41l-2.75-14.7-8.61,11.92Z"/>
              <path class="cls-29" d="m360.44,927.02l8.52,5.79s-44.88,3.73-70.38,1.57l2.99-6.08,58.88-1.28Z"/>
              <path class="cls-24" d="m299.03,746.82s-36.34-6.93-90.36,3.98c0,0-27.74.24-39.34-2.27,0,0,52.67-14.1,95.89-11.29,42.83,2.79,55.14,5.07,55.14,5.07l-21.33,4.52Z"/>
              <polygon class="cls-48" points="271.31 754.38 246.79 755.45 249.9 750.3 263.17 749.77 271.31 754.38"/>
              <polygon class="cls-31" points="223.32 736.59 214.92 735.17 208 735.98 216.36 737.44 223.32 736.59"/>
            </g>
            <path class="cls-32" d="m316.76,734.68l-9.32,2.76v4.47l-48.52,7.83-43.27.79-21.19,5.43-3.07,22.36-20.63-1.88-7.54,13.4,19.96,6.89-18.75,122.73,22.56,3.59-13.29,4.11,9.48,25.49,34.98,5.77s14.12,6.85,57.19,3.31l14.64,25.41-65.88-3.18-29.66,5.33v35.46l-18.56-2.55-12.17,19.13,27.95,9.47,61.85,6.55s-40.59,48.46-78.03,130.15l47.8,2.81-15.31,7.62,3.86,19.72,90.52,2.11-6.71,11.36L0,1272.11v-407.5l39.81-59.09,84.25-21.79,6.06-12.99,4.65,1.34,14.87-22.92s66.98-29.32,167.12-14.47Z"/>
          </g>
        </g>
      </g>
    </g>
  </g>
</svg>