<?xml version="1.0" encoding="UTF-8"?>
<svg xmlns="http://www.w3.org/2000/svg" xmlns:xlink="http://www.w3.org/1999/xlink" viewBox="0 0 3575 1300">
  <defs>
    <style>
      .cls-1 {
        fill: #5c1a5c;
        mix-blend-mode: multiply;
        opacity: .7;
      }

      .cls-2 {
        isolation: isolate;
      }

      .cls-3 {
        fill: url(#_387);
      }

      .cls-4 {
        clip-path: url(#clippath);
      }

      .cls-5 {
        fill: #1c0c47;
      }

      .cls-6 {
        fill: none;
      }

      .cls-7 {
        fill: url(#_370);
      }
    </style>
    <clipPath id="clippath">
      <rect class="cls-6" width="3575" height="1300"/>
    </clipPath>
    <linearGradient id="_370" data-name="  370" x1="3233.56" y1="1202.36" x2="3539.74" y2="574.4" gradientUnits="userSpaceOnUse">
      <stop offset="0" stop-color="#545153"/>
      <stop offset=".26" stop-color="#573f62"/>
      <stop offset=".73" stop-color="#5c2479"/>
      <stop offset="1" stop-color="#5f1a82"/>
    </linearGradient>
    <linearGradient id="_387" data-name="  387" x1="3563.26" y1="851.5" x2="3130.31" y2="1415.11" gradientUnits="userSpaceOnUse">
      <stop offset="0" stop-color="#54394c"/>
      <stop offset=".52" stop-color="#512d5b"/>
      <stop offset="1" stop-color="#502666"/>
    </linearGradient>
  </defs>
  <g class="cls-2">
    <g id="Layer_2" data-name="Layer 2">
      <g id="Pirate">
        <g class="cls-4">
          <g>
            <g>
              <polygon class="cls-5" points="3575 454.83 3470.08 1249.19 3397.27 1249.19 3575 140.95 3575 454.83"/>
              <polygon class="cls-7" points="3383.88 1243.4 3397.27 1249.19 3575 154.34 3575 119.5 3383.88 1243.4"/>
            </g>
            <g>
              <polygon class="cls-1" points="3357.27 1277.16 3410.82 1300 3537.51 1300 3364.81 1265.28 3357.27 1277.16"/>
              <polygon class="cls-5" points="3575 908.14 3357.27 1277.16 3309.87 1251.43 3575 795.83 3575 908.14"/>
              <polygon class="cls-3" points="3309.87 1251.43 3298.96 1237.16 3575 766.13 3575 795.83 3309.87 1251.43"/>
            </g>
          </g>
        </g>
      </g>
    </g>
  </g>
</svg>