<?xml version="1.0" encoding="UTF-8"?>
<svg xmlns="http://www.w3.org/2000/svg" xmlns:xlink="http://www.w3.org/1999/xlink" viewBox="0 0 3575 1300">
  <defs>
    <style>
      .cls-1 {
        fill: #fff;
      }

      .cls-2 {
        fill: #1a6aba;
      }

      .cls-2, .cls-3, .cls-4 {
        opacity: .09;
      }

      .cls-2, .cls-3, .cls-4, .cls-5 {
        mix-blend-mode: screen;
      }

      .cls-6, .cls-7, .cls-8, .cls-9, .cls-10, .cls-11 {
        mix-blend-mode: multiply;
      }

      .cls-6, .cls-8 {
        fill: #912774;
      }

      .cls-6, .cls-8, .cls-5 {
        opacity: .5;
      }

      .cls-7 {
        fill: #704786;
        opacity: .4;
      }

      .cls-7, .cls-8, .cls-12, .cls-13, .cls-14, .cls-15, .cls-16, .cls-10, .cls-17, .cls-4, .cls-5 {
        fill-rule: evenodd;
      }

      .cls-18 {
        isolation: isolate;
      }

      .cls-19 {
        fill: url(#_452);
      }

      .cls-20 {
        fill: url(#_104-4);
      }

      .cls-21 {
        fill: url(#_104-2);
      }

      .cls-12 {
        fill: #7090db;
      }

      .cls-12, .cls-15, .cls-22 {
        mix-blend-mode: soft-light;
      }

      .cls-9 {
        fill: #1f0042;
        opacity: .7;
      }

      .cls-13 {
        fill: #36092d;
      }

      .cls-23 {
        fill: url(#_104-3);
      }

      .cls-24, .cls-14 {
        fill: #403396;
      }

      .cls-15, .cls-22 {
        fill: #abc5ff;
      }

      .cls-16 {
        fill: url(#_452-2);
      }

      .cls-10 {
        fill: url(#_18);
        opacity: .6;
      }

      .cls-17 {
        fill: #16051f;
      }

      .cls-11 {
        fill: #d463b8;
        opacity: .3;
      }

      .cls-25 {
        fill: #4b419e;
      }

      .cls-3, .cls-4 {
        fill: #7db0e3;
      }

      .cls-26 {
        clip-path: url(#clippath);
      }

      .cls-27 {
        fill: none;
      }

      .cls-28 {
        fill: url(#_452-3);
      }

      .cls-29 {
        fill: url(#_452-4);
      }

      .cls-30 {
        fill: #150f3d;
      }

      .cls-31 {
        fill: #ccc7ff;
        opacity: .12;
      }

      .cls-32 {
        fill: url(#_104);
      }

      .cls-5 {
        fill: url(#_282);
      }

      .cls-33 {
        fill: #3f3fa6;
      }
    </style>
    <clipPath id="clippath">
      <rect class="cls-27" width="3575" height="1300"/>
    </clipPath>
    <linearGradient id="_452" data-name="  452" x1="5479.37" y1="218.75" x2="5479.37" y2="318.73" gradientTransform="translate(-292.87 -4304.84) rotate(59.18)" gradientUnits="userSpaceOnUse">
      <stop offset="0" stop-color="#351252"/>
      <stop offset="1" stop-color="#1c1336"/>
    </linearGradient>
    <linearGradient id="_452-2" data-name="  452" x1="3720.88" y1="563.28" x2="4051.49" y2="563.28" gradientTransform="translate(-412.61 -2122.24) rotate(36.76)" xlink:href="#_452"/>
    <linearGradient id="_18" data-name="  18" x1="3882.11" y1="557.78" x2="4051.49" y2="557.78" gradientTransform="translate(-412.61 -2122.24) rotate(36.76)" gradientUnits="userSpaceOnUse">
      <stop offset="0" stop-color="#97c4c0"/>
      <stop offset=".99" stop-color="#90609a"/>
    </linearGradient>
    <linearGradient id="_282" data-name="  282" x1="3837.26" y1="515.43" x2="3850.66" y2="609.19" gradientTransform="translate(-412.61 -2122.24) rotate(36.76)" gradientUnits="userSpaceOnUse">
      <stop offset="0" stop-color="#403dd7"/>
      <stop offset="1" stop-color="#000"/>
    </linearGradient>
    <linearGradient id="_452-3" data-name="  452" x1="2261.88" y1="748.77" x2="2261.88" y2="1034.31" gradientTransform="matrix(1, 0, 0, 1, 0, 0)" xlink:href="#_452"/>
    <linearGradient id="_104" data-name="  104" x1="2274.82" y1="910.03" x2="2363.69" y2="910.03" gradientUnits="userSpaceOnUse">
      <stop offset="0" stop-color="#280d4a"/>
      <stop offset="1" stop-color="#121740"/>
    </linearGradient>
    <linearGradient id="_104-2" data-name="  104" x1="2189.49" y1="981.73" x2="2303.95" y2="981.73" xlink:href="#_104"/>
    <linearGradient id="_104-3" data-name="  104" x1="2044.09" y1="1038.36" x2="2271.65" y2="1038.36" xlink:href="#_104"/>
    <linearGradient id="_104-4" data-name="  104" x1="2267.01" y1="1042.98" x2="2363.93" y2="1042.98" xlink:href="#_104"/>
    <linearGradient id="_452-4" data-name="  452" x1="2044.09" y1="1032.56" x2="2363.93" y2="1032.56" gradientTransform="matrix(1, 0, 0, 1, 0, 0)" xlink:href="#_452"/>
  </defs>
  <g class="cls-18">
    <g id="Layer_2" data-name="Layer 2">
      <g id="Pirate">
        <g class="cls-26">
          <g>
            <path class="cls-1" d="m2152.05,762.89v-36.31l3.84-2.61s-1.26-8.42,0-9.02c1.26-.6,7.51-4.24,9.59-10.87,0,0-8.68-15.38-3.95-31,4.73-15.61,13.93-32.71,13.93-32.71l.68,104.46,30.48,20.57s32.16-19.12,26.29-38.82c-5.87-19.7-11.98-23.69-11.98-23.69l27.38-10.46s-33.89-16.72-38.63-25.35-19.26-46.57-19.83-66.8c-.05-1.62,14.01-16.05,49-13.55,34.99,2.5,53.39,3.16,53.39,3.16,0,0-13.29-7.31-19.58-30.96-6.29-23.65-1.42-21.2-1.42-21.2,0,0-47.77-43.83-58.5-54.99s-11.37-20.91-11.37-20.91l8.32,1.36s-15.76-11.37-13.84-10.86c1.92.51,21.65-3.74,53.56,15.07,31.91,18.81,65.68,123.46,65.68,123.46,0,0,16.61-4.55,39.68-16.25,23.07-11.7,41.1-6.2,41.1-6.2l-37.13,50.87s40.4,13.18,43.89,11.56c3.49-1.62,31.46-33.8,35.84-45.83,0,0,11.2,31.17-1.15,66.29-12.35,35.11-38.11,81.52-38.11,81.52l-104.97-42.18-45.51,25.31-40.9,74.46-55.77-27.51Z"/>
            <g>
              <path class="cls-13" d="m2279.07,704.68c21.51,9.23,56.59,18.6,87.85,59.83,0,0,18.04,6.83,11.93-15.98s-83.68-77.94-99.17-67.5c-15.48,10.44-.62,23.64-.62,23.64Z"/>
              <path class="cls-17" d="m2331.84,625.23c64.19-18.33,83.67-8.51,85.5,19.68s-15.29,69.06-15.29,69.06c0,0-47.19-2.31-68.91-27.11-21.71-24.8-1.31-61.63-1.31-61.63Z"/>
              <g>
                <path class="cls-19" d="m2299.97,668.77l-5.04-.9c11.93-32.64,11.08-66.97,11.08-66.97,0,0-16.66-13.13-27.01-35.41-6.86-14.76-6.11-21.46-4.82-24.31.66-1.45,1.45-1.9,1.45-1.9l11.66,9.48c-11.47-18.79-37.91-40.31-56.26-56.8-9.06-8.13-17.32-17.36-23.86-25.87,0,0,13.71,1.43,15.99,2.81-1.56-1-3.72-2.35-6.14-3.93-6.45-4.21-14.78-10.05-18.78-15.07,0,0,18.66-2.54,23.68-2.51,28.4.17,44.4,13.13,56.39,25.04h0c5.14,5.11,8.03,8.73,8.03,8.73,0,0-3.56-17.07,8.7-15.03,0,0,25.89,57.36,23.15,119.73,0,.19-.01.38-.03.57-1.27,27.6-6.49,56.44-18.2,82.34Z"/>
                <path class="cls-8" d="m2286.88,521.04s-44.07-48.3-69.2-55.87c-.22-.07-.44-.13-.66-.2-6.45-4.21-14.78-10.05-18.78-15.07,48.68,24.8,64.08,22.49,88.64,71.14Z"/>
                <path class="cls-8" d="m2287.29,548.77c-11.47-18.79-37.91-40.31-56.26-56.8,0,0,50.36,21.38,67.48,60.9,7.72,17.82,9.89,34.3,10,35.21-.3-1.07-6.92-24.35-21.22-39.31Z"/>
                <path class="cls-8" d="m2299.97,668.77l-5.04-.9c11.93-32.64,11.08-66.97,11.08-66.97,0,0-16.66-13.13-27.01-35.41-6.86-14.76-6.11-21.46-4.82-24.31,0,0,17.62,37.82,35.74,56.39,0,0,7.66-3.05,8.24-11.14-1.27,27.6-6.49,56.44-18.2,82.34Z"/>
                <path class="cls-8" d="m2278.32,472.44c5.14,5.1,8.03,8.72,8.03,8.72,0,0-3.56-17.07,8.7-15.03-4.42,16.88,9.35,78.99,11.08,86.69-1.54-6.62-12.84-53.74-27.81-80.38Z"/>
              </g>
              <path class="cls-13" d="m2224.06,593.05l3.81,6.99s-4.49,1.38.14,6.81c4.63,5.43,12.22,3.71,12.22,3.71,0,0-9.22,16.1-19.74,6.85-10.52-9.25-5.65-20,3.57-24.36Z"/>
              <path class="cls-13" d="m2481.31,743.74l-8.93-6.67s-3.73,5.24-10.8,2.96c-7.07-2.28-6.24,1.89-6.24,1.89,0,0,6.35,9.48,16.77,8.18,10.41-1.29,9.21-6.37,9.21-6.37Z"/>
              <path class="cls-16" d="m2481.31,743.74s-11.93,4.73-18.26-1.58c-6.33-6.31,4.52-16.43,4.52-16.43,0,0-15.37-16.58-20.57-36.02-5.2-19.44,23.82-85.77-8.1-101.12,0,0-20.53,40.17-50.47,63.34-17.18,13.31-31.74,18.22-38.32,14.76-3.8-32.86,45.79-86.04,45.79-86.04,0,0,3.94-6.69,4.6-11.45-.29-.09-9.81-2.95-24.39,1.32-11.29,3.3-61,29.56-81.11,24.8-14.64-3.47-39.93-4.44-62.1-3,2.85,2.33,7.25,6.69,5.89,10.64-.54,1.58-2,3.08-4.83,4.37-6.86,3.12-13.19,2.33-14.58-1.89-.9-2.74.27-6.91,4.68-12.4-5,.49-9.72,1.12-13.98,1.88-10.58,1.9-15.91,10.73-15.91,10.73,0,0-.63,3.6.21,10.21,1.34,10.58,6.46,28.89,24.02,52.44,1.81,2.43,58.57,33.83,60.66,36.37,0,0,2.14-20.33,41.61,2.35,8.01,4.6,15.31,9.79,21.26,15.6,32.18,31.42,24.98,41.89,24.98,41.89,0,0,30.63,27.51,44.81,28.03,15.89.59,37.27-1.22,56.47-11.54.01,0,.02,0,.03-.02,0-.01.02-.02.03-.02,5.63-3.02,11.07-6.79,16.12-11.43,0,0,1.21-9.36-3.08-25.79Z"/>
              <path class="cls-7" d="m2411.73,792.54c-14.18-.52-44.81-28.03-44.81-28.03,0,0,3.57-3.99-29.54-30.01-25.35-19.92-58.32-29.82-58.32-29.82-2.09-2.54-58.85-33.93-60.66-36.37,35.89,12.61,72.95,7.94,121.67,32.5,0,0-15.33-15.39-55.18-28.59,0,0,41.97-.21,110.72,50.35,0,0-40.18-15.68-36.81-10.93,11.91,16.79,20.95,23.54,52.92,80.9Z"/>
              <path class="cls-14" d="m2219.38,605.45c-8.99,2.03-17.3,5.37-24.99,10.43-.84-6.61-.21-10.21-.21-10.21,0,0,5.33-8.83,15.91-10.73,4.25-.76,8.98-1.39,13.98-1.88-4.41,5.49-5.58,9.66-4.68,12.4Z"/>
              <path class="cls-10" d="m2484.39,769.53c-5.05,4.64-10.49,8.41-16.12,11.43-.01,0-.03.01-.03.02,0,.01-.02.01-.03.02-19.2,10.32-40.58,12.13-56.47,11.54-14.18-.52-44.81-28.03-44.81-28.03,0,0,7.2-10.47-24.98-41.89-5.95-5.81-13.25-11-21.26-15.6,3.24-12.09,19.4-6.22,19.4-6.22-7.09-5.3,11.82-6.07,11.82-6.07,0,0-5.67-13.78-1.8-28.04,6.57,3.45,21.13-1.45,38.32-14.76,29.93-23.17,50.47-63.34,50.47-63.34,31.93,15.35,2.9,81.67,8.1,101.12,5.21,19.44,20.57,36.02,20.57,36.02,0,0-10.85,10.12-4.52,16.43,6.33,6.31,18.26,1.58,18.26,1.58,4.29,16.44,3.08,25.79,3.08,25.79Z"/>
              <path class="cls-14" d="m2468.27,780.96c.74-.51,10.96-18.95-3.39-30.68-23.02-18.82-38.08-60.45-29.79-86.87,14.58-46.45,4.61-57.58,4.61-57.58,0,0-26.89,35.75-45.18,50.64-32.2,26.21-53.07,19.3-53.07,19.3-10.51-38.22,32.45-89.76,32.45-89.76-13.51-.92-65.46,24.44-65.46,24.44-22.89-3.4-51.8-8.28-69.64-7.49,1.37-3.94-3.03-8.31-5.89-10.64,22.17-1.43,47.46-.47,62.1,3,20.11,4.76,69.82-21.5,81.11-24.8,14.58-4.27,24.1-1.42,24.39-1.32-16.67,9.65-42.11,53.75-49.69,76.04-9.99,29.38,7.68,29.86,37.61,6.68,29.93-23.17,50.47-63.34,50.47-63.34,31.93,15.35,2.9,81.67,8.1,101.12,5.21,19.44,20.57,36.02,20.57,36.02,0,0-10.85,10.12-4.52,16.43,6.33,6.31,18.26,1.58,18.26,1.58,4.29,16.44,3.08,25.79,3.08,25.79-5.05,4.64-10.49,8.41-16.12,11.43Z"/>
              <path class="cls-3" d="m2226.76,451.67c-11.19,2.73,21.07,12.98,23.09,11.33,2.02-1.65-6.4-15.4-23.09-11.33Z"/>
              <path class="cls-3" d="m2249.39,467.39c-4.67-1.08,2.92,10.28,6.22,8.5s5.25-5.84-6.22-8.5Z"/>
              <path class="cls-3" d="m2312.93,543.72c-4.6-9.26-6.13,14.68-2.9,19.85s11.05-3.43,2.9-19.85Z"/>
              <path class="cls-11" d="m2253.15,621.81c-27.78-7.73-34.62,12.31-27.27,17.59,0,0-3.98,2.32-9.1,12.69-5.12,10.38,17.85,25.59,30.69,13.21,0,0,.52,5.65,6.92,6.22,6.41.58,13.44-5.31,9.98-13.37,0,0,3.25-2.72.99-7.18-1.14-2.25-6.63-1.46-6.63-1.46,0,0,7.48-24.08-5.59-27.71Z"/>
              <path class="cls-11" d="m2271.69,642.38c-5.95,4.51-.34,13.41,5.06,7.45,5.4-5.96-1.91-9.84-5.06-7.45Z"/>
              <path class="cls-5" d="m2329.97,592.17c-56.96,41.66-27.47,96.67-12.25,87.37,15.22-9.3,47.88-75.73,66.81-94.73,18.93-19-32.85-8.52-54.56,7.36Z"/>
            </g>
            <g>
              <g>
                <path class="cls-25" d="m2171.16,708.03c1.62-2.12,2.87-4.72,3.23-7.83,0,0-7.87-1.96-8.91-12.27-.11-1.04-.15-2.16-.09-3.38.62-15.32,5.63-29.65,7.87-36.37.52-1.55,2.71-1.56,3.23,0,2.6,7.7,8.86,25.06,8.39,35.74-.12,2.74-.49,5.03-1.02,6.93-2.26,8.2-7.34,9.35-7.34,9.35,0,0,1.73,7.66,8.92,15.16.17.18.28.3.33.34,0,.01.02.01.02.02h0c.73.75,1.52,1.49,2.36,2.22l-27.5-2.21s6.42-2.32,10.51-7.69t.01-.01Z"/>
                <polygon class="cls-24" points="2160.64 715.73 2160.64 740.38 2176.13 740.38 2180.55 715.73 2160.64 715.73"/>
                <polygon class="cls-24" points="2188.14 717.94 2180.55 715.73 2176.13 740.38 2184.87 746.01 2188.14 717.94"/>
                <path class="cls-3" d="m2160.64,715.73s.32,1.26,7.75,1.26,12.17-1.26,12.17-1.26h-19.92Z"/>
                <path class="cls-9" d="m2176.51,700.2s1.73,7.66,8.92,15.16c-1.88-1.92-10.86-10.71-14.27-7.34,1.62-2.12,2.87-4.72,3.23-7.83,0,0-7.87-1.96-8.91-12.27,8.12,15.64,18.38,2.92,18.38,2.92-2.26,8.2-7.34,9.35-7.34,9.35Z"/>
                <path class="cls-9" d="m2185.78,715.72h0s0,0,0,0h0Z"/>
                <path class="cls-3" d="m2170.6,668.53c-.73,4.18,4.58.42,3.79-2.74-.79-3.16-2.79-2.95-3.79,2.74Z"/>
              </g>
              <g>
                <path class="cls-25" d="m2404.88,706.96c1.62-2.12,2.87-4.72,3.23-7.83,0,0-7.87-1.96-8.91-12.27-.11-1.04-.15-2.16-.09-3.38.62-15.32,5.63-29.65,7.87-36.37.52-1.55,2.71-1.56,3.23,0,2.6,7.7,8.86,25.06,8.39,35.74-.12,2.74-.49,5.03-1.02,6.93-2.26,8.2-7.34,9.35-7.34,9.35,0,0-.43,5.88,6.77,13.39.17.18,3.01,4.32,7.15,7.59l-29.79-5.44s6.42-2.32,10.51-7.69t.01-.01Z"/>
                <polygon class="cls-24" points="2394.36 714.67 2394.36 739.32 2409.85 739.32 2414.27 714.67 2394.36 714.67"/>
                <polygon class="cls-24" points="2424.14 720.11 2414.27 714.67 2409.85 739.32 2418.59 744.95 2424.14 720.11"/>
                <path class="cls-3" d="m2394.36,714.67s.32,1.26,7.75,1.26,12.17-1.26,12.17-1.26h-19.92Z"/>
                <path class="cls-9" d="m2410.23,699.14s-.43,5.88,6.77,13.39c-1.88-1.92-8.71-8.93-12.12-5.56,1.62-2.12,2.87-4.72,3.23-7.83,0,0-7.87-1.96-8.91-12.27,8.12,15.64,18.38,2.92,18.38,2.92-2.26,8.2-7.34,9.35-7.34,9.35Z"/>
                <path class="cls-3" d="m2404.32,667.47c-.73,4.18,4.58.42,3.79-2.74-.79-3.16-2.79-2.95-3.79,2.74Z"/>
              </g>
              <path class="cls-24" d="m2180.34,727.59l11.03,5.79s-1.32,20.6,18.3,24.52c0,0-21.46,9.35-31.58,0-10.11-9.35,2.24-30.31,2.24-30.31Z"/>
              <path class="cls-24" d="m2298.19,718.84c-6.52-11.39-13.91-11.69-13.91-11.69,0,0-7.28,5.59-9.8,12.33,0,0,3.79,9.71,9.8,15.92l-1.68,6.38-2.42,3.05s-13.27-11.44-19.91-27.25c0,0,6-12.96,24.02-22.12l18.02,20.86-4.11,2.53Z"/>
              <path class="cls-24" d="m2290.61,681.55s30.76,6.53,65.74,36.03c0,0-23.4,26.54,6.95,40.45l11.38,4.03s-22.12,9.72-42.03,0c-19.91-9.72-6.32-48.27-6.32-48.27l-35.71-32.24Z"/>
              <path class="cls-24" d="m2389.21,734.38s-11.37,27.68-37.29,23.02c-32.6-5.86-24.02-42.35-8.22-44.88,0,0-25.92-20.86-53.1-30.97,0,0-30.34,6.32-61.95,29.08,0,0,21.45,14.32-2.12,37.68-18.11,17.95-40.7,9.4-44.55-3.23-1.79-5.87-1.66-17.48-1.66-17.48,0,0-12.04-.85-23.1,3.26,0,0-13.27,116.94-24.02,303.41l3.79,21.47h201.01l79.24-319.22s-12.94-6.7-28.05-2.13Zm-122.2-15.54s7.16-10.54,17.28-18.12c0,0,10.54,10.11,13.91,18.12,0,0-5.9,12.22-18.12,19.39l-13.06-19.39Z"/>
              <path class="cls-30" d="m2425.76,739.56l-8.5-3.05s-48.27,139.73-79.25,319.22h-62.58l-5.69,12.88h-7.58l-7.58,129.24h6.64s4.74-49.3,13.27-83.43c0,0,24.65-20.86,52.15,0l4.74,26.67,3.79,51.83h10.43l3.77-122.09,9.22-.31,1.23-13.85-8.98.07s27.91-155.05,74.92-317.19Z"/>
              <path class="cls-4" d="m2180.34,727.59s-15.52-2.43-23.1,3.26l-23.24,290.14h26.65l19.7-293.4Z"/>
              <g>
                <path class="cls-28" d="m2313.89,978.01c-15.68,43.93-26.13,75.13-26.13,75.13l-12.25.02-75.42.71s-12.68-9.68-15.84-23.09c-5.83-24.75,6.43-52.62,6.43-52.62,0,0-20.66-27.73-28.16-72.67-12.95-77.7,29.4-140.81,29.4-140.81,112.43-15.31,171.56,2.25,171.56,2.25l.04.29c.43,4.78,3.46,62.05-49.63,210.8Z"/>
                <path class="cls-32" d="m2313.89,978.01c-15.68,43.93-26.13,75.13-26.13,75.13l-12.25.02c-5.96-29.59,28.44-74.61,28.44-74.61,0,0,3.42-180.87,59.53-211.63l.04.29c.43,4.78,3.46,62.05-49.63,210.8Z"/>
                <path class="cls-3" d="m2195.16,770.04c-21.19,32.75,30.97,44.25,65.11,41.72,34.13-2.53,66.37-36.46,63.21-45.94-3.16-9.48-121.36-6.53-128.32,4.22Z"/>
                <path class="cls-11" d="m2172.19,906.13c-9.26,17.72,20.76,65.99,47.31,74.09,26.55,8.1,68.65,4.35,74.9-8.23,7.9-15.9,15.42-49.55,1.68-56.35-13.74-6.81-117.34-22.03-123.89-9.51Z"/>
                <path class="cls-6" d="m2182.68,1016.82c6.47,11.44,36.28,13.97,59.46,12.39s42.56-18.89,42.56-18.89c0,0-13.61,20.95-9.19,42.83h-86.03s-5.05-17.93-6.8-25.84c-1.75-7.9,0-10.49,0-10.49Z"/>
                <path class="cls-6" d="m2161.52,901.34c18.26,49.69,78.52,59.81,105.49,56.86,26.97-2.95,92.54-170.44,94.39-153.39,7.76,71.43-70.2,238.17-70.2,238.17l8.72-58.79s-71.9,9.31-109.24-6.03c0,0-15.08-21.94-20.79-42.93-5.71-20.99-8.37-33.88-8.37-33.88Z"/>
                <path class="cls-31" d="m2207.17,771.1c5.77,6.93,29.9-3.34,23.18-4.72-6.72-1.37-27.39-.34-23.18,4.72Z"/>
                <path class="cls-31" d="m2241.3,769.65c5.64,3.03,10.12-2.8,4.21-3.83-5.9-1.02-9.27,1.11-4.21,3.83Z"/>
                <path class="cls-21" d="m2190.68,978.15c60.33,13.34,113.27.39,113.27.39l-4.03,5.64s-85.98,3.94-110.44-3.02l1.2-3.02Z"/>
                <path class="cls-2" d="m2316.94,860.99c-2.89,11.86,22.4-7.27,27.17-30.89,22.35-110.62-24.33,19.2-27.17,30.89Z"/>
                <path class="cls-2" d="m2197.48,984.5c-12.29-.67-17.41,26.38-7.23,31.01,10.18,4.64,83.96-3.79,84.58-13.48.61-9.69-58.8-16.51-77.35-17.53Z"/>
              </g>
              <path class="cls-6" d="m2363.52,767.2c8.63,66.05-54.67,289.04-54.67,289.04l-37.21-.61s32.63-58.98,45.39-107.18c12.76-48.2,46.48-181.25,46.48-181.25Z"/>
              <g>
                <path class="cls-23" d="m2052.3,1055.73s-6.32-14.51-8.22-34.74c0,0,37.87,11.65,135.74,19.68,58.09,4.77,91.82,2.3,91.82,2.3l-4.63,12.75h-214.71Z"/>
                <path class="cls-20" d="m2363.93,1029.21s-4.7,17.79-13.09,27.54l-83.83-1.02,4.63-12.75s46.87-11.36,92.29-13.77Z"/>
                <path class="cls-29" d="m2044.09,1020.99s130.85,12.01,201.01,12.01,118.84-3.79,118.84-3.79l-92.29,13.77s-141.59,8.77-227.56-21.99Z"/>
                <path class="cls-3" d="m2170.19,1037.87c74.62,4.52,101.45,5.11,101.45,5.11,0,0-57.21,4.42-130.53-2.71-73.32-7.13-89.71-16.8-89.71-16.8,0,0,72.92,11.62,118.79,14.4Z"/>
                <path class="cls-3" d="m2333.43,1038.36c-47.89,3.65-62.57,13.13-57.91,14.79s69.14,5.14,71.98-1.82-3.63-13.77-14.07-12.97Z"/>
                <path class="cls-6" d="m2361.95,1035.51c-16.25,17.3-94.94,18.35-94.94,18.35l-32.03,1.64,115.85,1.25s2.86-4.45,6.71-10.62c3.85-6.17,4.4-10.62,4.4-10.62Z"/>
              </g>
              <polygon class="cls-12" points="2235.56 705.9 2248.3 759.26 2261.88 759.26 2256.97 693.83 2235.56 705.9"/>
              <g>
                <path class="cls-30" d="m2171.77,1192.92h-12.01s-3.81-68.99-7.59-94.86v-11.34l30.98,4.42-11.38,101.77Z"/>
                <polygon class="cls-30" points="2082.85 1197.85 2090.23 1197.85 2094.6 1086.4 2148.59 1082.1 2084.12 1082.1 2082.85 1197.85"/>
                <path class="cls-30" d="m2242.14,1083.78h-44.67s29.92,14.33,44.67,36.66l-71.67-31.1,3.4-11.46,68.27,5.9Z"/>
                <path class="cls-33" d="m2044.09,1055.73l2.95,12.88h7.16c6.74,43.83,19.39,129.25,19.39,129.25h9.27l2.53-74.46c30.76-20.65,76.14-28.44,76.14-28.44,37.5,5.47,81.47,32.66,81.47,32.66,2.1,40.89,4.21,70.25,4.21,70.25h7.38l7.59-129.25h7.59l5.69-12.88s-99.88-7.38-231.36,0Zm40.03,56.28v-29.92h64.47s-41.3,11.8-64.47,29.92Zm158.03,8.43s-31.61-27.81-58.99-38.34l58.99,1.68v36.66Z"/>
                <polygon class="cls-30" points="2047.04 1068.61 2269.75 1068.61 2261.88 1071.88 2054.7 1071.88 2047.04 1068.61"/>
                <polygon class="cls-9" points="2054.2 1068.61 2269.75 1068.61 2349.37 1070.83 2261.73 1076.13 2055.62 1077.88 2054.2 1068.61"/>
                <path class="cls-22" d="m2076.64,1053.86l-3.48,10.53,152.97,2.11,12.62-12.65c-90.16-3.79-162.12,0-162.12,0Z"/>
                <polygon class="cls-22" points="2054.7 1071.88 2059.26 1071.56 2079.06 1197.85 2073.59 1197.85 2054.7 1071.88"/>
              </g>
              <path class="cls-15" d="m2368.36,872.45c-23.32,108.88-23.18,144.38-23.18,144.38,0,0,23.18-123.52,56.5-231.06,0,0-23.82,42.31-33.32,86.68Z"/>
              <path class="cls-31" d="m2181.91,782.89c-21.85,88.92-19.39,122.59-19.39,122.59,0,0-6.87-33.98,1.48-69.1,8.11-34.15,17.91-53.49,17.91-53.49Z"/>
            </g>
          </g>
        </g>
      </g>
    </g>
  </g>
</svg>