<?xml version="1.0" encoding="UTF-8"?>
<svg xmlns="http://www.w3.org/2000/svg" xmlns:xlink="http://www.w3.org/1999/xlink" viewBox="0 0 3575 1300">
  <defs>
    <style>
      .cls-1 {
        fill: url(#_113-20);
      }

      .cls-1, .cls-2, .cls-3, .cls-4, .cls-5, .cls-6, .cls-7, .cls-8, .cls-9, .cls-10, .cls-11, .cls-12, .cls-13, .cls-14, .cls-15, .cls-16, .cls-17, .cls-18, .cls-19, .cls-20, .cls-21, .cls-22, .cls-23, .cls-24, .cls-25, .cls-26, .cls-27, .cls-28, .cls-29, .cls-30, .cls-31, .cls-32, .cls-33, .cls-34, .cls-35, .cls-36, .cls-37, .cls-38, .cls-39, .cls-40, .cls-41, .cls-42, .cls-43, .cls-44, .cls-45, .cls-46, .cls-47, .cls-48, .cls-49, .cls-50, .cls-51, .cls-52, .cls-53 {
        fill-rule: evenodd;
      }

      .cls-1, .cls-3, .cls-7, .cls-10, .cls-12, .cls-13, .cls-15, .cls-17, .cls-18, .cls-19, .cls-24, .cls-26, .cls-27, .cls-28, .cls-30, .cls-33, .cls-34, .cls-37, .cls-40, .cls-43, .cls-46, .cls-47, .cls-49, .cls-51, .cls-52, .cls-53 {
        mix-blend-mode: screen;
      }

      .cls-2 {
        fill: url(#_452-4);
      }

      .cls-54 {
        fill: #0c042b;
      }

      .cls-3 {
        fill: url(#_113-10);
      }

      .cls-4 {
        fill: #1f0042;
      }

      .cls-4, .cls-55, .cls-56, .cls-20, .cls-57, .cls-58, .cls-29, .cls-31, .cls-35, .cls-41, .cls-44 {
        mix-blend-mode: multiply;
      }

      .cls-4, .cls-56, .cls-20, .cls-41, .cls-44 {
        opacity: .7;
      }

      .cls-55 {
        fill: #912774;
      }

      .cls-55, .cls-57 {
        opacity: .5;
      }

      .cls-5 {
        fill: url(#_105);
      }

      .cls-6 {
        fill: #5e65cc;
      }

      .cls-7 {
        fill: url(#_113);
      }

      .cls-8 {
        fill: #4a64ab;
      }

      .cls-9 {
        fill: #5479f0;
      }

      .cls-10 {
        fill: url(#_113-24);
      }

      .cls-56, .cls-41 {
        fill: #5c1a5c;
      }

      .cls-11 {
        fill: #4b419e;
      }

      .cls-59 {
        fill: url(#_452-2);
      }

      .cls-12 {
        fill: url(#_113-13);
      }

      .cls-13 {
        fill: url(#_113-4);
      }

      .cls-60 {
        fill: #444bab;
      }

      .cls-61 {
        isolation: isolate;
      }

      .cls-14 {
        fill: #4635a1;
      }

      .cls-62 {
        fill: url(#_452);
      }

      .cls-15 {
        fill: url(#_113-11);
      }

      .cls-16, .cls-63 {
        fill: #2f074d;
      }

      .cls-17 {
        fill: url(#_113-2);
      }

      .cls-18 {
        fill: url(#_113-15);
      }

      .cls-19 {
        fill: url(#_113-9);
      }

      .cls-20 {
        fill: #d886e3;
      }

      .cls-21 {
        fill: #311d85;
      }

      .cls-22 {
        fill: #3c217a;
      }

      .cls-23 {
        fill: url(#_194-2);
      }

      .cls-24 {
        fill: url(#_113-16);
      }

      .cls-57 {
        fill: #834f9e;
      }

      .cls-25, .cls-64 {
        fill: #39247d;
      }

      .cls-26 {
        fill: url(#_113-22);
      }

      .cls-27 {
        fill: url(#_113-21);
      }

      .cls-28 {
        fill: url(#_113-14);
      }

      .cls-58 {
        fill: #d46baa;
        opacity: .8;
      }

      .cls-29 {
        fill: url(#_77-3);
      }

      .cls-29, .cls-31, .cls-35 {
        opacity: .3;
      }

      .cls-30 {
        fill: url(#_113-17);
      }

      .cls-31 {
        fill: url(#_77-2);
      }

      .cls-65 {
        clip-path: url(#clippath);
      }

      .cls-32 {
        fill: #21215c;
      }

      .cls-33 {
        fill: url(#_113-23);
      }

      .cls-34 {
        fill: url(#_113-25);
      }

      .cls-66 {
        fill: none;
      }

      .cls-35 {
        fill: url(#_77);
      }

      .cls-36 {
        fill: url(#_452-3);
      }

      .cls-37 {
        fill: url(#_113-6);
      }

      .cls-38 {
        fill: url(#_194);
      }

      .cls-67, .cls-45 {
        fill: #150f3d;
      }

      .cls-68 {
        fill: #5443c4;
      }

      .cls-39 {
        fill: #271f7d;
      }

      .cls-40 {
        fill: url(#_113-3);
      }

      .cls-42 {
        fill: url(#_452-6);
      }

      .cls-43 {
        fill: url(#_113-7);
      }

      .cls-44 {
        fill: #6f3cab;
      }

      .cls-46 {
        fill: url(#_113-12);
      }

      .cls-47 {
        fill: url(#_113-18);
      }

      .cls-48 {
        fill: url(#_452-5);
      }

      .cls-49 {
        fill: url(#_113-5);
      }

      .cls-50 {
        fill: url(#_105-2);
      }

      .cls-51 {
        fill: #7db0e3;
        opacity: .09;
      }

      .cls-52 {
        fill: url(#_113-19);
      }

      .cls-53 {
        fill: url(#_113-8);
      }
    </style>
    <clipPath id="clippath">
      <rect class="cls-66" width="3575" height="1300"/>
    </clipPath>
    <linearGradient id="_452" data-name="  452" x1="1908.47" y1="1125.31" x2="1941.36" y2="1125.31" gradientTransform="translate(956.78)" gradientUnits="userSpaceOnUse">
      <stop offset="0" stop-color="#351252"/>
      <stop offset="1" stop-color="#1c1336"/>
    </linearGradient>
    <linearGradient id="_452-2" data-name="  452" x1="3659.4" y1="1121.92" x2="3702.25" y2="1121.92" gradientTransform="translate(6746.51) rotate(-180) scale(1 -1)" xlink:href="#_452"/>
    <linearGradient id="_77" data-name="  77" x1="3248.6" y1="1171.74" x2="3248.6" y2="1060.77" gradientTransform="translate(6495.44) rotate(-180) scale(1 -1)" gradientUnits="userSpaceOnUse">
      <stop offset="0" stop-color="#ae429a"/>
      <stop offset="1" stop-color="#e08368"/>
    </linearGradient>
    <linearGradient id="_77-2" data-name="  77" x1="3391.01" x2="3391.01" y2="1074.78" xlink:href="#_77"/>
    <linearGradient id="_77-3" data-name="  77" x1="3234.82" y1="1172.68" x2="3234.82" y2="1116.95" xlink:href="#_77"/>
    <linearGradient id="_105" data-name="  105" x1="3010.95" y1="898.06" x2="3389.05" y2="898.06" gradientUnits="userSpaceOnUse">
      <stop offset="0" stop-color="#503557"/>
      <stop offset="1" stop-color="#312461"/>
    </linearGradient>
    <linearGradient id="_113" data-name="  113" x1="3258.41" y1="1018.99" x2="3258.41" y2="1006.3" gradientTransform="translate(6496.64 3.69) rotate(-179.9) scale(1 -1)" gradientUnits="userSpaceOnUse">
      <stop offset="0" stop-color="#0052d7"/>
      <stop offset="1" stop-color="#000"/>
    </linearGradient>
    <linearGradient id="_113-2" data-name="  113" x1="3389.98" y1="1036.75" x2="3389.98" y2="1019.05" xlink:href="#_113"/>
    <linearGradient id="_113-3" data-name="  113" x1="3390.77" y1="1019.84" x2="3390.77" y2="1004.03" xlink:href="#_113"/>
    <linearGradient id="_113-4" data-name="  113" x1="3381.86" y1="1004.94" x2="3381.86" y2="989.13" xlink:href="#_113"/>
    <linearGradient id="_113-5" data-name="  113" x1="3348.78" y1="989.19" x2="3348.78" y2="975.98" xlink:href="#_113"/>
    <linearGradient id="_113-6" data-name="  113" x1="3357.04" y1="973.73" x2="3357.04" y2="960.52" xlink:href="#_113"/>
    <linearGradient id="_113-7" data-name="  113" x1="3278.77" y1="1029.72" x2="3278.77" y2="1016.5" xlink:href="#_113"/>
    <linearGradient id="_113-8" data-name="  113" x1="3293.55" y1="1000.56" x2="3293.55" y2="987.35" xlink:href="#_113"/>
    <linearGradient id="_113-9" data-name="  113" x1="3202.29" y1="1036.37" x2="3202.29" y2="1023.15" xlink:href="#_113"/>
    <linearGradient id="_113-10" data-name="  113" x1="3442.1" y1="1026.93" x2="3442.1" y2="1013.72" xlink:href="#_113"/>
    <linearGradient id="_113-11" data-name="  113" x1="3427.65" y1="1011.76" x2="3427.65" y2="998.55" xlink:href="#_113"/>
    <linearGradient id="_113-12" data-name="  113" x1="3319.44" y1="1038.84" x2="3319.44" y2="1021.13" xlink:href="#_113"/>
    <linearGradient id="_113-13" data-name="  113" x1="3322.64" y1="1024.25" x2="3322.64" y2="1006.55" xlink:href="#_113"/>
    <linearGradient id="_113-14" data-name="  113" x1="3217.22" y1="1023.69" x2="3217.22" y2="1005.98" xlink:href="#_113"/>
    <linearGradient id="_113-15" data-name="  113" x1="3318.65" y1="1008.12" x2="3318.65" y2="990.41" xlink:href="#_113"/>
    <linearGradient id="_113-16" data-name="  113" x1="3386.91" y1="1022.14" x2="3386.91" y2="1004.44" xlink:href="#_113"/>
    <linearGradient id="_113-17" data-name="  113" x1="3451.39" y1="867.93" x2="3451.39" y2="850.34" gradientTransform="translate(6430.92 -200.22) rotate(174.29) scale(1 -1)" xlink:href="#_113"/>
    <linearGradient id="_113-18" data-name="  113" x1="3307.03" y1="-53.02" x2="3307.03" y2="-69.32" gradientTransform="translate(5511.66 -1266.02) rotate(134.96) scale(1 -1)" xlink:href="#_113"/>
    <linearGradient id="_113-19" data-name="  113" x1="2549.03" y1="1870.45" x2="2549.03" y2="1853.27" gradientTransform="translate(6315.74 1606.02) rotate(-132.26) scale(1 -1)" xlink:href="#_113"/>
    <linearGradient id="_113-20" data-name="  113" x1="3362.69" y1="1091.48" x2="3362.69" y2="1073.76" gradientTransform="translate(6489.34 20.59) rotate(-178.75) scale(1 -1)" xlink:href="#_113"/>
    <linearGradient id="_113-21" data-name="  113" x1="3433.64" y1="1084.52" x2="3433.64" y2="1072.43" gradientTransform="translate(6489.34 20.59) rotate(-178.75) scale(1 -1)" xlink:href="#_113"/>
    <linearGradient id="_105-2" data-name="  105" x1="3001.31" y1="1110.09" x2="3334.41" y2="1110.09" xlink:href="#_105"/>
    <linearGradient id="_194" data-name="  194" x1="3339.14" y1="868.21" x2="3333.94" y2="933.45" gradientTransform="translate(6495.44) rotate(-180) scale(1 -1)" gradientUnits="userSpaceOnUse">
      <stop offset="0" stop-color="#312461"/>
      <stop offset="1" stop-color="#503557"/>
    </linearGradient>
    <linearGradient id="_452-3" data-name="  452" x1="3261.99" y1="858.79" x2="3277.82" y2="900.33" gradientTransform="translate(6495.44) rotate(-180) scale(1 -1)" xlink:href="#_452"/>
    <linearGradient id="_452-4" data-name="  452" x1="3339.79" y1="957.53" x2="3344.4" y2="935.11" gradientTransform="translate(6495.44) rotate(-180) scale(1 -1)" xlink:href="#_452"/>
    <linearGradient id="_194-2" data-name="  194" x1="3395.52" y1="1116.95" x2="3338.16" y2="1071.88" xlink:href="#_194"/>
    <linearGradient id="_452-5" data-name="  452" x1="3289.87" y1="1118.02" x2="3292.29" y2="1092.66" gradientTransform="translate(6495.44) rotate(-180) scale(1 -1)" xlink:href="#_452"/>
    <linearGradient id="_452-6" data-name="  452" x1="3401.07" y1="973.17" x2="3365.58" y2="952.76" gradientTransform="translate(6495.44) rotate(-180) scale(1 -1)" xlink:href="#_452"/>
    <linearGradient id="_113-22" data-name="  113" x1="3533.1" y1="1204.86" x2="3533.1" y2="1191.64" xlink:href="#_113"/>
    <linearGradient id="_113-23" data-name="  113" x1="3523.62" y1="1194.15" x2="3523.62" y2="1180.94" xlink:href="#_113"/>
    <linearGradient id="_113-24" data-name="  113" x1="3495.7" y1="1215.26" x2="3495.7" y2="1197.56" xlink:href="#_113"/>
    <linearGradient id="_113-25" data-name="  113" x1="3333.68" y1="1219.46" x2="3333.68" y2="1201.75" xlink:href="#_113"/>
  </defs>
  <g class="cls-61">
    <g id="Layer_2" data-name="Layer 2">
      <g id="Pirate">
        <g class="cls-65">
          <g>
            <g>
              <path class="cls-60" d="m2652.66,1145.52h389.66s18.13-13.86,22.96-35.55h.01c1.57-7.02,1.74-14.87-.55-23.32,0,0-53.11,20.42-164.71,23.06-7.74.19-15.75.28-24.05.28-127.21,0-172.87-23.35-172.87-23.35,0,0-.3.01-.86.07-6.09.63-42.76,6.56-49.6,58.8Z"/>
              <path class="cls-57" d="m2818.07,1120.75c-8.88,4.93-38.08,4.04-47.34-1.75-9.26-5.79-27.44-4.76-33.96-10.94-6.52-6.17-7.48-12.68-7.48-12.68,0,0,27.82,7.07,53.53,9.61,25.71,2.53,40.45,3.54,40.45,3.54,0,0,3.94,7.14-5.2,12.22Z"/>
              <path class="cls-57" d="m2858.97,1145.52s19.58-14.74,13.87-18.72c-5.72-3.99-14.64-8.02-31.44,0-16.81,8.02-38.08,18.28-38.08,18.28l55.65.44Z"/>
              <path class="cls-56" d="m3065.28,1109.97c-4.84,21.68-22.96,35.55-22.96,35.55h-389.67c6.84-52.24,43.52-58.17,49.61-58.8l5.06,23.28-12.12,22.89c80.81,12.63,197.65,0,197.65,0,0,0,.29-20.34-5.64-23.82,0,0,17.11,6.29,16.64,21.71,0,0,105.45,8.59,161.43-20.81Z"/>
              <path class="cls-55" d="m2900.77,1145.52h34.4s107.15,0,107.15,0c0,0,18.13-13.86,22.96-35.55h.01c1.57-7.02,1.74-14.87-.55-23.32,0,0-38.81,19.97-150.4,22.62,0,0-14.64,13.1-13.58,36.25Z"/>
              <path class="cls-58" d="m2688.17,1104.4c12.24,6.8,19.16,5.61,19.16,5.61,0,0-16.35,29.67-30.84,30.84-14.48,1.17-3.73-15.86,0-22.69,3.73-6.83,11.68-13.75,11.68-13.75Z"/>
              <path class="cls-68" d="m2703.12,1086.65c-4.44-3.04-24.53,3.74-36.69,21.59-10.88,15.97-13.77,37.28-13.77,37.28h47.89s-10.28,0-21.98-1.34c16.88-7.02,50.26-39.94,24.55-57.53Zm-42.52,46.72c-1.05-26.21,25.65-41.82,34.11-42.98,8.46-1.17,9.68,5.88,9.58,14.25-.16,13.56-25.42,42.08-30.14,32.94-7.71-14.95,14.02-33.17,14.02-33.17-10.78,5.39-22.82,29.81-19.4,38.24-7.75-1.81-7.97-4.4-8.17-9.27Z"/>
              <path class="cls-62" d="m2867.11,1109.97s4.2.62,10.97,0c4.21-.39,12.86,16.86,7.26,26.2-5.61,9.34-20.09,9.34-20.09,9.34h17.29s13.55-8.41,15.42-12.62-10.75-23.83-10.75-23.83c0,0-3.97-3.97-9.11-3.97s-12.85,4.85-12.85,4.85l1.87.02Z"/>
              <path class="cls-60" d="m3149.41,1145.52h-181.84l5.3-82.24c56.91,39.47,83.47,40.96,83.47,40.96,49.32-4.36,86.2-13.99,86.2-13.99l.06.04.93.53c6.48,3.93,41.83,27.52,5.89,54.69Z"/>
              <path class="cls-57" d="m3122.67,1095.38c16.47.33,25.73,9.72,22.98,14.29-2.74,4.56-10.98,3.81-19.9,2.99-8.92-.83-12.69,7.64-19.9,5.3-7.2-2.35-10.68-18.42-10.68-18.42l27.49-4.15Z"/>
              <path class="cls-57" d="m2992.43,1145.52c1.95-1.44,11.9-20.79,24.25-20.21s10.29,5.4,24.7,7.8,48.62,2.74,53.81,4.45c5.19,1.72,25.47,8.07,25.47,8.07l-128.23-.12Z"/>
              <path class="cls-56" d="m3065.06,1145.52h-97.48s18.33-3.74,21.14-17.41c2.8-13.67,3.66-23.24,3.66-23.24,5.45,27.44,10.01,28.55,20.87,31.33,5.96,1.52,30.88,2.78,56.57-.05,2.63-6.65,4.48-15.41-.3-21.46l-8.69-10.98,18.73-1.98s13.74,7.24,12.14,22.56c-.35,3.32-.94,6.19-1.66,8.66,13.88-2.95,26.49-7.49,34.65-14.31,25.29-21.14,18.66-27.75,17.93-28.36l.93.53c6.48,3.92,41.83,27.52,5.89,54.69h-66.98l-17.43.09s.02-.04.06-.09Z"/>
              <path class="cls-64" d="m2985.89,1136.2c-2.4,4.15-5.65,7.4-9.91,9.32h-32.71c-24.29,0-35.08-33.79-28.96-45.79,11.44-22.43,48.58-40.19,61.67-36.44,4.5,1.29,9.13,9.99,12.12,21.36,4.36,16.43,5.35,38.43-2.21,51.55Z"/>
              <path class="cls-58" d="m2985.89,1136.2l-17.33-2.83s11.62-15.42,9.74-36.21c-1.81-20.16-4.5-23.42-4.65-23.6l10.49,4.5,3.97,6.59c4.36,16.43,5.35,38.43-2.21,51.55Z"/>
              <path class="cls-58" d="m2955.42,1107.09c.7-2.01,22.37,3.26,22.37,3.26,0,0,.5,19.73-11.19,20.32-3.34.17-14.46-14.11-11.19-23.58Z"/>
              <path class="cls-68" d="m2928.44,1106.74c-1.02,8.19,6.48,33.82,16.29,38.9l10.69-.04,20.56-.08s14.66-1.44,16.24-29.4c1.58-27.96-5.78-45.3-11.04-50.56s-13.84-10.69-37.67,4.26c-18.07,11.34-31.92,22.31-33.64,36.68-1.72,14.37,1.96,22.69,10.69,30.37,8.73,7.68,14.25,8.56,22.72,8.65,0,0-18.86-3.39-25.7-21.61-6.83-18.22-1.64-29.61,9.11-38.66,15.48-13.02,42.59-25.56,49.93-18.63,18.28,17.23,11.27,61.54,5.43,70.03-2.09,3.03-26.11,14.43-37.67,1.64s-16.53-24.47-12.62-33.17c12.04-26.79,35.95-19.14,40.01-14.89,6.77,7.07,3.41,35.1-2.91,35.1-15.2,0-13.45-18.22-13.45-18.22,0,0-2.45,1.4-.35,10.16,2.1,8.76,7.71,14.89,13.49,16.12,5.78,1.23,13.21-15.6,14.43-30.5,1.17-14.36-1.64-29.07-11.1-29.6-9.46-.53-41.43,17.2-43.45,33.46Z"/>
              <path class="cls-59" d="m3053.42,1103.83l-9.15-2.34s6.71-4.4,11.85-2.69c5.14,1.72,16.77,10.48,18.19,23.07.71,6.32-.22,11.25-1.66,14.94,4.47-4.92,8.67-11.53,8.52-18.9-.23-11.28-11.72-14.97-11.72-14.97l-4.16.45s1.13-6.31,4.16-4.98c3.03,1.33,17.33,7.17,17.67,20.25.34,13.08-16.7,26.92-16.7,26.92l-3.93.03s-.05.03-.05.03l-1.44-.02-2.57.02s.04-.02.09-.06l-3.65-.06s13.52-8.09,8.8-23.65c-5.31-17.52-14.26-18.04-14.26-18.04Z"/>
            </g>
            <g>
              <g>
                <path class="cls-54" d="m3461.23,1040.57s-103.97-79.04-156.54-101.47c0,0-183.16-19.49-284.74,2.39l94.88,87.49,346.39,11.59Z"/>
                <path class="cls-67" d="m3010.95,942.41l96.29,88.2,36.54-1.02s-77.87-47.14-101.86-78.56c0,0,131.31-16.15,245.1,0l133.32,82.62s40.9,6.9,40.9,6.9c0,0-114.52-76.35-165.65-98.16,0,0-155.74-20.81-284.64,0Z"/>
                <path class="cls-32" d="m3437.45,1194.15h-107.89l4.39-160.48,127.28,6.91s4.88,65.37-23.78,153.58Z"/>
                <path class="cls-22" d="m3010.95,1033.66s172.66-6.86,323,0l-4.39,160.48h-298.77l-26.62-130.91,6.78-29.58Z"/>
                <g>
                  <path class="cls-35" d="m3292.6,1060.77c-39.85,26.34-82.8,7.3-99.82,110.97h13.16s-12.81-35.49,14.74-63.61c27.55-28.11,58-22.27,80.23-44.96l-8.31-2.4Z"/>
                  <path class="cls-31" d="m3039.43,1074.78s46.1,3.2,130,96.96l-37.38-1.42s-18.45-43.3-55.54-69.42c-37.09-26.12-34.66-14.97-34.66-14.97l-2.43-11.15Z"/>
                  <path class="cls-29" d="m3306.67,1127.75s-50.09-22.07-73.95-3.11c-23.85,18.96-17.34,47.11-17.34,47.11l17.34.94s-21.52-25.42,5.5-40.46c27.02-15.04,68.1,4.22,68.1,4.22l.35-8.69Z"/>
                </g>
                <path class="cls-32" d="m3389.25,886.17c47.57,23.31,93.27,81.01,93.27,81.01l-21.29,73.38s-110.08-76.36-165.65-98.16c0,0,31.48-86.7,93.66-56.24Z"/>
                <path class="cls-22" d="m3030.79,919.61c74.14-13.88,272.37,0,272.37,0,8.93-10.5,25.21-24.59,37.1-34.41,8.33-6.88,14.51-11.67,14.51-11.67-96.13-20.3-191.33-17.42-240.51-13.78-21.64,1.61-34.37,3.36-34.37,3.36l-49.1,56.49Z"/>
                <path class="cls-51" d="m3087.64,882.83l227.83-5.56,24.79,7.93c8.33-6.88,14.51-11.67,14.51-11.67-96.13-20.3-191.33-17.42-240.51-13.78-3.42.56-5.35.88-5.35.88l-21.27,22.19Z"/>
                <path class="cls-5" d="m3010.95,942.41s107.47-12.88,284.64,0c0,0,17.96-57.51,93.46-62.73,0,0-29.13-12.57-57.43-16,0,0-36.04,18.76-51.95,44.45,0,0-82.96-9.26-218.96-3.55,22.86-26.64,42.07-50.88,42.07-50.88l-28.81,3.46c-14.67,11.21-27.8,25.4-38.23,39.21h0l-4.96,23.24-14.75,8.27c-2.89,6.03-4.65,11.06-5.09,14.53Z"/>
                <g>
                  <g>
                    <path class="cls-14" d="m3290.65,1005.74l-.64,9.59s-8.51,3.63-33.8,3.58c-11.52-.02-21.96-2.68-21.96-2.68l-1.25-12.35,57.66,1.87Z"/>
                    <path class="cls-11" d="m3290.4,1005.45c2.63,1.32-16.23,5.21-38.96,3.35-11.58-.95-18.45-4.07-18.45-4.94,0-2.16,41.64-6.31,57.41,1.58Z"/>
                    <path class="cls-41" d="m3284.54,1007.7s-2.93,1.14-3.31,1.63c-.38.49-.23,5.59,0,6.35.22.76,4.33.88,4.33.88l-8.65,1.36-8.6.52s2.04-1.3,2.04-2.15c0-.84-1.14-6.39-1.14-6.39l-3.63-.62s12.54-.52,18.97-1.58Z"/>
                    <path class="cls-51" d="m3282.96,1007.94l-20.57-7.1s-12.51.16-17.05.64l20.23,7.81s11.62-.17,17.38-1.35Z"/>
                    <path class="cls-21" d="m3239.52,1003.88c0,.22.94.6,2.57.99.2.05.42.1.64.15,3.96.88,11.12,1.9,18.83,1.97,1.58.01,3.17.02,4.74,0,.41,0,.83,0,1.24,0,7.45-.11,14.15-.56,16.66-1.25.42-.12.73-.25.89-.37.1-.08.16-.16.16-.25,0-.78-4.22-2.01-17.66-2.88-13.46-.88-28.07.9-28.07,1.64Z"/>
                    <path class="cls-14" d="m3242.09,1004.87c.2.05.42.1.64.15,3.96.88,11.12,1.9,18.83,1.97,1.58.01,3.16,0,4.74,0,.41,0,.83,0,1.24,0,7.45-.11,14.15-.56,16.66-1.25.42-.12.73-.25.89-.37-4.6-.73-12.58-1.53-24.9-1.42-8.77.07-14.44.47-18.1.93Z"/>
                    <path class="cls-51" d="m3281.51,1008.19s-2.63-.18-4.7,0c-2.07.17-7.99,1.01-7.99,1.01,0,0,3.09.73,7.1.11,4.01-.62,5.59-1.11,5.59-1.11Z"/>
                    <path class="cls-7" d="m3239.5,1017.15l-1.24-11.11s-.72.7-4.74-1.59l2.34,12.09s2.32.42,3.64.61Z"/>
                    <path class="cls-14" d="m3269.31,1009.29s-18.38-.55-25.19-1.67c-6.81-1.12-9.94-2.81-9.94-2.81,0,0,5.42,3.18,14.68,4.24,9.26,1.06,20.45.24,20.45.24Z"/>
                  </g>
                  <g>
                    <path class="cls-25" d="m3180.43,1018.78l-.9,13.37s-11.87,5.06-47.15,4.99c-16.07-.03-30.63-3.74-30.63-3.74l-1.75-17.23,80.43,2.61Z"/>
                    <path class="cls-21" d="m3180.09,1018.37c3.67,1.84-22.64,7.27-54.35,4.68-16.16-1.32-25.74-5.68-25.74-6.89,0-3.01,58.08-8.8,80.08,2.21Z"/>
                    <path class="cls-17" d="m3109.08,1034.69l-1.73-15.5s-1,.97-6.62-2.22l3.26,16.86s3.24.59,5.08.86Z"/>
                    <path class="cls-14" d="m3150.67,1023.73s-25.64-.76-35.14-2.33c-9.5-1.56-13.87-3.92-13.87-3.92,0,0,7.56,4.44,20.48,5.91,12.92,1.47,28.53.34,28.53.34Z"/>
                  </g>
                  <g>
                    <path class="cls-25" d="m3179.67,1003.76l-.9,13.37s-11.87,5.06-47.15,4.99c-16.07-.03-30.44-6.57-30.44-6.57l-1.93-14.4,80.43,2.61Z"/>
                    <path class="cls-21" d="m3179.33,1003.36c3.67,1.84-22.64,7.27-54.35,4.68-16.16-1.32-25.74-5.68-25.74-6.89,0-3.01,58.08-8.8,80.08,2.21Z"/>
                    <path class="cls-40" d="m3108.33,1017.77l-1.73-13.61s-1,.97-6.62-2.22l2.94,13.6s3.55,1.95,5.4,2.22Z"/>
                    <path class="cls-14" d="m3149.91,1008.72s-25.64-.76-35.14-2.33c-9.5-1.56-13.87-3.92-13.87-3.92,0,0,7.56,4.44,20.48,5.91,12.92,1.47,28.53.34,28.53.34Z"/>
                  </g>
                  <g>
                    <path class="cls-25" d="m3188.6,988.88l-.9,13.37s-11.87,5.06-47.15,4.99c-16.07-.03-30.44-6.57-30.44-6.57l-1.93-14.4,80.43,2.61Z"/>
                    <path class="cls-21" d="m3188.26,988.47c3.67,1.84-22.64,7.27-54.35,4.68-16.16-1.32-25.74-5.68-25.74-6.89,0-3.01,58.08-8.8,80.08,2.21Z"/>
                    <path class="cls-13" d="m3117.26,1002.89l-1.73-13.61s-1,.97-6.62-2.22l2.94,13.6s3.55,1.95,5.4,2.22Z"/>
                    <path class="cls-14" d="m3158.84,993.83s-25.64-.76-35.14-2.33c-9.5-1.56-13.87-3.92-13.87-3.92,0,0,7.56,4.44,20.48,5.91,12.92,1.47,28.53.34,28.53.34Z"/>
                  </g>
                  <g>
                    <path class="cls-25" d="m3221.74,975.24l-.37,12.83s-11.87,5.06-47.15,4.99c-16.07-.03-30.44-6.57-30.44-6.57l-2.12-12.52,80.08,1.28Z"/>
                    <path class="cls-21" d="m3221.74,975.24c3.67,1.01-22.64,3.95-54.34,2.51-16.16-.74-25.74-3.13-25.74-3.79,0-1.65,58.07-4.76,80.08,1.28Z"/>
                    <path class="cls-49" d="m3150.74,987.2l-.77-11.11s-2.7,1.07-8.31-2.12l3.68,11.01s3.55,1.95,5.4,2.22Z"/>
                    <path class="cls-14" d="m3192.32,978.14s-25.64-.76-35.14-2.33c-9.5-1.56-15.53-1.84-15.53-1.84,0,0,8.31,2.12,22.15,3.83,12.9,1.6,28.53.34,28.53.34Z"/>
                  </g>
                  <g>
                    <path class="cls-25" d="m3213.5,959.77l-.37,12.83s-11.87,5.06-47.15,4.99c-16.07-.03-30.44-6.57-30.44-6.57l-2.12-12.52,80.09,1.28Z"/>
                    <path class="cls-21" d="m3213.5,959.77c3.67,1.01-22.64,3.95-54.34,2.51-16.16-.74-25.74-3.13-25.74-3.79,0-1.65,58.07-4.76,80.09,1.28Z"/>
                    <path class="cls-37" d="m3142.5,971.72l-.77-11.11s-2.7,1.07-8.31-2.12l3.68,11.01s3.55,1.95,5.4,2.22Z"/>
                    <path class="cls-14" d="m3184.08,962.66s-25.64-.76-35.14-2.33c-9.5-1.56-15.54-1.84-15.54-1.84,0,0,8.31,2.12,22.15,3.83,12.9,1.6,28.53.34,28.53.34Z"/>
                  </g>
                  <g>
                    <path class="cls-25" d="m3291.68,1015.89l-.37,12.83s-11.87,5.06-47.15,4.99c-16.07-.03-30.44-6.57-30.44-6.57l-2.12-12.52,80.08,1.28Z"/>
                    <path class="cls-21" d="m3291.68,1015.89c3.67,1.01-22.64,3.95-54.34,2.51-16.16-.74-25.74-3.13-25.74-3.79,0-1.65,58.07-4.76,80.08,1.28Z"/>
                    <path class="cls-43" d="m3220.68,1027.84l-.77-11.11s-2.7,1.07-8.31-2.12l3.68,11.01s3.55,1.95,5.4,2.22Z"/>
                    <path class="cls-14" d="m3262.27,1018.78s-25.64-.76-35.14-2.33c-9.5-1.56-15.53-1.84-15.53-1.84,0,0,8.31,2.12,22.15,3.83,12.9,1.6,28.53.34,28.53.34Z"/>
                  </g>
                  <g>
                    <path class="cls-25" d="m3276.94,986.71l-.37,12.83s-11.87,5.06-47.15,4.99c-16.07-.03-30.44-6.57-30.44-6.57l-2.12-12.52,80.08,1.28Z"/>
                    <path class="cls-21" d="m3276.94,986.71c3.67,1.01-22.64,3.95-54.34,2.51-16.16-.74-25.74-3.13-25.74-3.79,0-1.65,58.07-4.76,80.08,1.28Z"/>
                    <path class="cls-53" d="m3205.94,998.67l-.77-11.11s-2.7,1.07-8.31-2.12l3.68,11.01s3.55,1.95,5.4,2.22Z"/>
                    <path class="cls-14" d="m3247.53,989.61s-25.64-.76-35.14-2.33c-9.5-1.56-15.53-1.84-15.53-1.84,0,0,8.31,2.12,22.15,3.83,12.9,1.6,28.53.34,28.53.34Z"/>
                  </g>
                  <g>
                    <path class="cls-25" d="m3368.14,1022.67l-.37,12.83s-11.87,5.06-47.15,4.99c-16.07-.03-30.44-6.57-30.44-6.57l-2.12-12.52,80.08,1.28Z"/>
                    <path class="cls-21" d="m3368.14,1022.67c3.67,1.01-22.64,3.95-54.34,2.51-16.16-.74-25.74-3.13-25.74-3.79,0-1.65,58.07-4.76,80.08,1.28Z"/>
                    <path class="cls-19" d="m3297.15,1034.62l-.77-11.11s-2.7,1.07-8.31-2.12l3.68,11.01s3.55,1.95,5.4,2.22Z"/>
                    <path class="cls-14" d="m3338.73,1025.56s-25.64-.76-35.14-2.33c-9.5-1.56-15.53-1.84-15.53-1.84,0,0,8.31,2.12,22.15,3.83,12.9,1.6,28.53.34,28.53.34Z"/>
                  </g>
                  <g>
                    <path class="cls-25" d="m3128.35,1012.83l-.37,12.83s-11.87,5.06-47.15,4.99c-16.07-.03-30.44-6.57-30.44-6.57l-2.12-12.52,80.08,1.28Z"/>
                    <path class="cls-21" d="m3128.35,1012.83c3.67,1.01-22.64,3.95-54.34,2.51-16.16-.74-25.74-3.13-25.74-3.79,0-1.65,58.07-4.76,80.08,1.28Z"/>
                    <path class="cls-3" d="m3057.35,1024.78l-.77-11.11s-2.7,1.07-8.31-2.12l3.68,11.01s3.55,1.95,5.4,2.22Z"/>
                    <path class="cls-14" d="m3098.94,1015.72s-25.64-.76-35.14-2.33c-9.5-1.56-15.53-1.84-15.53-1.84,0,0,8.31,2.12,22.15,3.83,12.9,1.6,28.53.34,28.53.34Z"/>
                  </g>
                  <g>
                    <path class="cls-25" d="m3142.82,997.68l-.37,12.83s-11.87,5.06-47.15,4.99c-16.07-.03-30.44-6.57-30.44-6.57l-2.12-12.52,80.08,1.28Z"/>
                    <path class="cls-21" d="m3142.82,997.68c3.67,1.01-22.64,3.95-54.34,2.51-16.16-.74-25.74-3.13-25.74-3.79,0-1.65,58.07-4.76,80.08,1.28Z"/>
                    <path class="cls-15" d="m3071.82,1009.64l-.77-11.11s-2.7,1.07-8.31-2.12l3.68,11.01s3.55,1.95,5.4,2.22Z"/>
                    <path class="cls-14" d="m3113.41,1000.58s-25.64-.76-35.14-2.33c-9.5-1.56-15.53-1.84-15.53-1.84,0,0,8.31,2.12,22.15,3.83,12.9,1.6,28.53.34,28.53.34Z"/>
                  </g>
                  <g>
                    <path class="cls-14" d="m3250.97,1020.98l-.9,13.37s-11.87,5.06-47.15,4.99c-16.07-.03-30.63-3.74-30.63-3.74l-1.75-17.23,80.43,2.61Z"/>
                    <path class="cls-11" d="m3250.63,1020.58c3.67,1.84-22.64,7.27-54.35,4.68-16.16-1.32-25.74-5.68-25.74-6.89,0-3.01,58.08-8.8,80.08,2.21Z"/>
                    <path class="cls-41" d="m3242.46,1023.72s-4.09,1.59-4.62,2.27c-.53.68-.31,7.8-.01,8.85.3,1.06,6.04,1.23,6.04,1.23l-12.07,1.89-12,.72s2.85-1.82,2.85-2.99c0-1.18-1.58-8.91-1.58-8.91l-5.06-.86s17.5-.73,26.46-2.21Z"/>
                    <path class="cls-51" d="m3240.24,1024.05l-28.69-9.91s-17.45.22-23.78.89l28.22,10.89s16.21-.24,24.25-1.88Z"/>
                    <path class="cls-21" d="m3179.65,1018.38c0,.31,1.31.83,3.58,1.39.28.06.59.14.9.21,5.52,1.23,15.52,2.65,26.27,2.75,2.21.02,4.43.02,6.61,0,.58,0,1.15,0,1.73-.01,10.39-.15,19.74-.78,23.24-1.74.59-.17,1.01-.34,1.24-.52.14-.11.23-.22.23-.34,0-1.08-5.89-2.8-24.64-4.02-18.78-1.23-39.15,1.26-39.16,2.29Z"/>
                    <path class="cls-14" d="m3183.23,1019.77c.28.06.59.14.9.21,5.52,1.23,15.52,2.65,26.27,2.75,2.21.02,4.41,0,6.61,0,.58,0,1.15,0,1.73-.01,10.39-.15,19.74-.78,23.24-1.74.59-.17,1.01-.34,1.24-.52-6.42-1.02-17.54-2.14-34.73-1.98-12.23.1-20.15.65-25.25,1.3Z"/>
                    <path class="cls-51" d="m3238.23,1024.41s-3.67-.25-6.56-.01c-2.89.23-11.15,1.41-11.15,1.41,0,0,4.3,1.02,9.9.15,5.59-.87,7.8-1.55,7.8-1.55Z"/>
                    <path class="cls-46" d="m3179.62,1036.89l-1.73-15.5s-1,.97-6.62-2.22l3.26,16.86s3.24.59,5.08.86Z"/>
                    <path class="cls-14" d="m3221.21,1025.94s-25.64-.76-35.14-2.33c-9.5-1.56-13.87-3.92-13.87-3.92,0,0,7.56,4.44,20.48,5.91,12.92,1.47,28.53.34,28.53.34Z"/>
                  </g>
                  <g>
                    <path class="cls-14" d="m3247.8,1006.39l-.9,13.37s-11.87,5.06-47.15,4.99c-16.07-.03-30.63-3.74-30.63-3.74l-1.75-17.23,80.43,2.61Z"/>
                    <path class="cls-11" d="m3247.45,1005.99c3.67,1.84-22.64,7.27-54.35,4.68-16.16-1.32-25.74-5.68-25.74-6.89,0-3.01,58.08-8.8,80.08,2.21Z"/>
                    <path class="cls-41" d="m3239.28,1009.13s-4.09,1.59-4.62,2.27c-.53.68-.31,7.8-.01,8.85.3,1.06,6.04,1.23,6.04,1.23l-12.07,1.9-12,.72s2.85-1.82,2.85-2.99c0-1.18-1.58-8.91-1.58-8.91l-5.06-.86s17.5-.73,26.46-2.21Z"/>
                    <path class="cls-51" d="m3237.07,1009.46l-28.69-9.91s-17.45.23-23.78.89l28.22,10.89s16.21-.24,24.25-1.88Z"/>
                    <path class="cls-21" d="m3176.48,1003.8c0,.31,1.31.83,3.58,1.39.28.06.59.14.9.21,5.52,1.23,15.52,2.65,26.27,2.75,2.21.02,4.43.02,6.61,0,.58,0,1.15,0,1.73-.01,10.39-.15,19.74-.78,23.24-1.74.59-.17,1.01-.34,1.24-.52.14-.11.23-.22.23-.34,0-1.08-5.89-2.8-24.64-4.02-18.78-1.23-39.15,1.26-39.16,2.29Z"/>
                    <path class="cls-14" d="m3180.06,1005.18c.28.06.59.14.9.21,5.52,1.23,15.52,2.65,26.27,2.75,2.21.02,4.41,0,6.61,0,.58,0,1.15,0,1.73-.01,10.39-.15,19.74-.78,23.24-1.74.59-.17,1.01-.34,1.24-.52-6.42-1.02-17.54-2.14-34.73-1.98-12.23.1-20.15.65-25.25,1.3Z"/>
                    <path class="cls-51" d="m3235.05,1009.82s-3.67-.25-6.56-.01c-2.89.23-11.14,1.41-11.14,1.41,0,0,4.3,1.02,9.9.15,5.59-.87,7.8-1.55,7.8-1.55Z"/>
                    <path class="cls-12" d="m3176.45,1022.31l-1.73-15.5s-1,.97-6.62-2.22l3.26,16.86s3.24.59,5.08.86Z"/>
                    <path class="cls-14" d="m3218.04,1011.35s-25.64-.76-35.14-2.33c-9.5-1.56-13.87-3.92-13.87-3.92,0,0,7.56,4.44,20.48,5.91,12.92,1.47,28.52.34,28.52.34Z"/>
                  </g>
                  <g>
                    <path class="cls-14" d="m3353.22,1006l-.9,13.37s-11.87,5.06-47.15,4.99c-16.07-.03-30.63-3.74-30.63-3.74l-1.75-17.23,80.43,2.61Z"/>
                    <path class="cls-11" d="m3352.88,1005.6c3.67,1.84-22.64,7.27-54.35,4.68-16.16-1.32-25.74-5.68-25.74-6.89,0-3.01,58.08-8.8,80.08,2.21Z"/>
                    <path class="cls-41" d="m3344.7,1008.75s-4.09,1.59-4.62,2.27c-.53.68-.31,7.8-.01,8.86s6.04,1.23,6.04,1.23l-12.07,1.89-12,.72s2.85-1.82,2.85-2.99c0-1.18-1.58-8.91-1.58-8.91l-5.06-.86s17.5-.73,26.46-2.21Z"/>
                    <path class="cls-51" d="m3342.49,1009.07l-28.69-9.91s-17.45.23-23.78.89l28.22,10.89s16.21-.24,24.25-1.88Z"/>
                    <path class="cls-21" d="m3281.9,1003.41c0,.31,1.31.83,3.58,1.39.28.06.59.14.9.21,5.52,1.23,15.52,2.65,26.27,2.75,2.21.02,4.43.02,6.61,0,.58,0,1.15,0,1.73-.01,10.39-.15,19.74-.78,23.24-1.74.59-.17,1.01-.34,1.24-.52.14-.11.23-.22.23-.34,0-1.08-5.89-2.8-24.64-4.02-18.78-1.23-39.15,1.26-39.16,2.29Z"/>
                    <path class="cls-14" d="m3285.48,1004.8c.28.06.59.14.9.21,5.52,1.23,15.52,2.65,26.27,2.75,2.21.02,4.41,0,6.61,0,.58,0,1.15,0,1.73-.01,10.39-.15,19.74-.78,23.24-1.74.59-.17,1.01-.34,1.24-.52-6.42-1.02-17.54-2.14-34.73-1.98-12.23.1-20.15.65-25.25,1.3Z"/>
                    <path class="cls-51" d="m3340.47,1009.43s-3.67-.25-6.56-.01c-2.89.23-11.14,1.41-11.14,1.41,0,0,4.3,1.02,9.9.15,5.59-.87,7.8-1.55,7.8-1.55Z"/>
                    <path class="cls-28" d="m3281.87,1021.92l-1.73-15.5s-1,.97-6.62-2.22l3.26,16.86s3.24.59,5.08.86Z"/>
                    <path class="cls-14" d="m3323.46,1010.96s-25.64-.76-35.14-2.33c-9.5-1.56-13.87-3.92-13.87-3.92,0,0,7.56,4.44,20.48,5.91,12.92,1.47,28.52.34,28.52.34Z"/>
                  </g>
                  <g>
                    <path class="cls-14" d="m3251.81,990.26l-.9,13.37s-11.87,5.06-47.15,4.99c-16.07-.03-30.63-3.74-30.63-3.74l-1.75-17.23,80.43,2.61Z"/>
                    <path class="cls-11" d="m3251.46,989.86c3.67,1.84-22.64,7.27-54.35,4.68-16.16-1.32-25.74-5.68-25.74-6.89,0-3.01,58.08-8.8,80.08,2.21Z"/>
                    <path class="cls-41" d="m3243.29,993s-4.09,1.59-4.62,2.27c-.53.68-.31,7.8-.01,8.85.3,1.06,6.04,1.23,6.04,1.23l-12.07,1.89-12,.72s2.85-1.82,2.85-2.99c0-1.18-1.58-8.91-1.58-8.91l-5.06-.86s17.5-.73,26.46-2.21Z"/>
                    <path class="cls-51" d="m3241.08,993.33l-28.69-9.91s-17.45.22-23.78.89l28.22,10.89s16.21-.24,24.25-1.88Z"/>
                    <path class="cls-21" d="m3180.49,987.67c0,.31,1.31.83,3.58,1.39.28.06.59.14.9.21,5.52,1.23,15.52,2.65,26.27,2.75,2.21.02,4.43.02,6.61,0,.58,0,1.15,0,1.73-.01,10.39-.15,19.74-.78,23.24-1.74.59-.17,1.01-.34,1.24-.52.14-.11.23-.22.23-.34,0-1.08-5.89-2.8-24.64-4.02-18.78-1.23-39.15,1.26-39.16,2.29Z"/>
                    <path class="cls-14" d="m3184.07,989.06c.28.06.59.14.9.21,5.52,1.23,15.52,2.65,26.27,2.75,2.21.02,4.41,0,6.61,0,.58,0,1.15,0,1.73-.01,10.39-.15,19.74-.78,23.24-1.74.59-.17,1.01-.34,1.24-.52-6.42-1.02-17.54-2.14-34.73-1.98-12.23.1-20.15.65-25.25,1.3Z"/>
                    <path class="cls-51" d="m3239.06,993.69s-3.67-.25-6.56-.01c-2.89.23-11.15,1.41-11.15,1.41,0,0,4.3,1.02,9.9.15,5.6-.87,7.8-1.55,7.8-1.55Z"/>
                    <path class="cls-18" d="m3180.46,1006.18l-1.73-15.5s-1,.97-6.62-2.22l3.26,16.86s3.24.59,5.08.86Z"/>
                    <path class="cls-14" d="m3222.05,995.22s-25.64-.76-35.14-2.33c-9.5-1.56-13.87-3.92-13.87-3.92,0,0,7.56,4.44,20.48,5.91,12.92,1.47,28.53.34,28.53.34Z"/>
                  </g>
                  <g>
                    <path class="cls-14" d="m3183.53,1004.17l-.9,13.37s-11.87,5.06-47.15,4.99c-16.07-.03-30.63-3.74-30.63-3.74l-1.75-17.23,80.43,2.61Z"/>
                    <path class="cls-11" d="m3183.18,1003.77c3.67,1.84-22.64,7.27-54.35,4.68-16.16-1.32-25.74-5.68-25.74-6.89,0-3.01,58.08-8.8,80.08,2.21Z"/>
                    <path class="cls-41" d="m3175.01,1006.91s-4.09,1.59-4.62,2.27c-.53.68-.31,7.8-.01,8.86s6.04,1.23,6.04,1.23l-12.07,1.9-12,.72s2.85-1.82,2.85-2.99c0-1.18-1.58-8.91-1.58-8.91l-5.06-.86s17.5-.73,26.46-2.21Z"/>
                    <path class="cls-51" d="m3172.8,1007.24l-28.69-9.91s-17.45.23-23.78.89l28.22,10.89s16.21-.24,24.25-1.88Z"/>
                    <path class="cls-21" d="m3112.21,1001.58c0,.31,1.31.83,3.58,1.39.28.06.59.14.9.21,5.52,1.23,15.52,2.65,26.27,2.75,2.21.02,4.43.02,6.61,0,.58,0,1.15,0,1.73-.01,10.39-.15,19.74-.78,23.24-1.74.59-.17,1.01-.34,1.24-.52.14-.11.23-.22.23-.34,0-1.08-5.89-2.8-24.64-4.02-18.78-1.23-39.15,1.26-39.16,2.29Z"/>
                    <path class="cls-14" d="m3115.79,1002.97c.28.06.59.14.9.21,5.52,1.23,15.52,2.65,26.27,2.75,2.21.02,4.41,0,6.61,0,.58,0,1.15,0,1.73-.01,10.39-.15,19.74-.78,23.24-1.74.59-.17,1.01-.34,1.24-.52-6.42-1.02-17.54-2.14-34.73-1.98-12.23.1-20.15.65-25.25,1.3Z"/>
                    <path class="cls-51" d="m3170.78,1007.6s-3.67-.25-6.56-.01c-2.89.23-11.14,1.41-11.14,1.41,0,0,4.3,1.02,9.9.15,5.59-.87,7.8-1.55,7.8-1.55Z"/>
                    <path class="cls-24" d="m3112.18,1020.09l-1.73-15.5s-1,.97-6.62-2.22l3.26,16.86s3.24.59,5.08.86Z"/>
                    <path class="cls-14" d="m3153.77,1009.13s-25.64-.76-35.14-2.33c-9.5-1.56-13.87-3.92-13.87-3.92,0,0,7.56,4.44,20.48,5.91,12.92,1.47,28.53.34,28.53.34Z"/>
                  </g>
                  <g>
                    <path class="cls-14" d="m3156.77,982.48l.32,13.4s-11.35,6.37-46.46,10.29c-15.99,1.78-30.81-.26-30.81-.26l-3.3-16.94,80.25-6.49Z"/>
                    <path class="cls-11" d="m3156.39,982.12c3.82,1.41-21.87,9.79-53.64,10.79-16.19.51-26.12-2.74-26.23-3.94-.27-3,56.98-15.32,79.87-6.85Z"/>
                    <path class="cls-41" d="m3148.55,986.16s-3.92,2.05-4.39,2.78c-.47.74.39,7.79.79,8.81.39,1.02,6.12.54,6.12.54l-11.84,3.25-11.87,2.07s2.67-2.13,2.56-3.3c-.11-1.17-2.38-8.68-2.38-8.68l-5.11-.29s17.34-2.7,26.13-5.19Z"/>
                    <path class="cls-51" d="m3146.38,986.74l-29.44-6.62s-17.34,2.2-23.58,3.58l29.06,7.65s16.11-2.07,23.95-4.61Z"/>
                    <path class="cls-21" d="m3085.58,987.95c.03.31,1.37.68,3.69.98.29.03.6.07.91.1,5.61.6,15.68.88,26.38-.23,2.2-.23,4.41-.48,6.57-.75.57-.06,1.15-.13,1.72-.21,10.32-1.33,19.57-3,22.96-4.36.57-.24.98-.46,1.18-.65.13-.12.2-.24.19-.37-.1-1.08-6.11-2.12-24.88-1.21-18.79.9-38.84,5.67-38.75,6.7Z"/>
                    <path class="cls-14" d="m3089.27,988.93c.29.03.6.07.91.1,5.61.6,15.68.88,26.38-.23,2.2-.23,4.39-.49,6.57-.75.57-.06,1.15-.13,1.72-.21,10.32-1.33,19.57-3,22.96-4.36.57-.24.98-.46,1.18-.65-6.48-.29-17.64-.14-34.74,1.95-12.16,1.48-19.98,2.92-25,4.15Z"/>
                    <path class="cls-51" d="m3144.4,987.33s-3.68.17-6.53.73c-2.85.56-10.96,2.66-10.96,2.66,0,0,4.37.53,9.86-.97,5.49-1.5,7.62-2.42,7.62-2.42Z"/>
                    <path class="cls-30" d="m3087.23,1006.37l-3.12-15.23s-.91,1.08-6.78-1.46l4.77,16.41s3.27.22,5.14.28Z"/>
                    <path class="cls-14" d="m3127.61,990.77s-25.58,2.14-35.17,1.65c-9.59-.48-14.15-2.34-14.15-2.34,0,0,7.92,3.56,20.91,3.57,12.98,0,28.41-2.88,28.41-2.88Z"/>
                  </g>
                  <g>
                    <path class="cls-14" d="m3180.41,966.43l7.86,10.14s-5.16,12.96-30.09,40.82c-11.35,12.69-23.98,21.59-23.98,21.59l-12.18-10.77,58.38-61.77Z"/>
                    <path class="cls-11" d="m3179.91,966.42c3.75-1.61-11.35,23.04-35.36,46.29-12.23,11.85-21.76,16.35-22.53,15.5-1.91-2.13,35.37-52.15,57.89-61.79Z"/>
                    <path class="cls-41" d="m3176.14,975.1s-1.87,4.36-1.82,5.26c.06.9,4.73,5.75,5.62,6.26.88.51,5.04-3.91,5.04-3.91l-7.31,10.89-8.01,10s.85-3.53.11-4.36c-.75-.83-6.78-5.03-6.78-5.03l-4.12,3.39s11.88-14.35,17.26-22.49Z"/>
                    <path class="cls-51" d="m3174.79,977.08l-26.53,15.7s-12.17,13.96-16.21,19.44l26.82-14.64s11.28-12.99,15.91-20.51Z"/>
                    <path class="cls-21" d="m3128.46,1021.02c.2.22,1.45-.44,3.41-1.86.24-.18.51-.37.76-.57,4.68-3.5,12.63-10.4,20.28-18.84,1.57-1.73,3.14-3.49,4.66-5.23.41-.46.81-.91,1.21-1.38,7.23-8.32,13.43-16.16,15.28-19.61.31-.59.5-1.04.55-1.34.03-.19.02-.33-.06-.42-.69-.76-5.93,2.68-19.93,16.65-14.03,13.99-26.82,31.86-26.16,32.59Z"/>
                    <path class="cls-14" d="m3131.86,1019.16c.24-.18.51-.37.76-.57,4.68-3.5,12.63-10.4,20.28-18.84,1.57-1.73,3.12-3.49,4.66-5.23.41-.46.81-.91,1.21-1.38,7.23-8.32,13.43-16.16,15.28-19.61.31-.59.5-1.04.55-1.34-5.18,4.36-13.73,12.37-25.76,26.08-8.56,9.75-13.8,16.39-16.98,20.89Z"/>
                    <path class="cls-51" d="m3173.59,978.93s-2.75,2.73-4.63,5.18c-1.89,2.45-6.96,9.81-6.96,9.81,0,0,3.68-2.69,7.08-7.72,3.39-5.04,4.52-7.27,4.52-7.27Z"/>
                    <path class="cls-47" d="m3140.19,1034.09l-11.07-9.57s-.09,1.48-6.07,3.67l13.01,9.32s2.66-2.14,4.13-3.42Z"/>
                    <path class="cls-14" d="m3162.57,993.47s-18.57,19.74-26.26,26.15c-7.69,6.41-12.27,8.2-12.27,8.2,0,0,8.15-2.85,18.2-12.03,10.05-9.18,20.34-22.32,20.34-22.32Z"/>
                  </g>
                  <g>
                    <path class="cls-25" d="m3279.11,1029.09l-9.46,8.27s-11.35-6.38-35.08-35.51c-10.81-13.27-18.16-27.77-18.16-27.77l10.23-13.05,52.46,68.06Z"/>
                    <path class="cls-11" d="m3279.14,1028.54c1.26,4.26-20.07-13.77-39.72-41.65-10.01-14.21-13.58-25.05-12.78-25.86,2-2.03,44.97,41.95,52.5,67.51Z"/>
                    <path class="cls-41" d="m3271.56,1023.92s-3.81-2.3-4.62-2.28c-.81.02-5.38,5-5.87,5.96-.5.96,3.26,5.81,3.26,5.81l-9.39-8.68-8.56-9.41s3.12,1.12,3.9.33c.78-.79,4.83-7.31,4.83-7.31l-2.84-4.75s12.27,13.93,19.29,20.33Z"/>
                    <path class="cls-51" d="m3269.85,1022.31l-12.77-30.33s-11.91-14.24-16.62-19l11.8,30.61s11.08,13.21,17.58,18.73Z"/>
                    <path class="cls-21" d="m3232.77,968.54c-.21.21.33,1.64,1.5,3.89.15.27.3.58.47.88,2.9,5.38,8.7,14.58,15.88,23.51,1.47,1.83,2.97,3.67,4.45,5.45.39.48.78.95,1.17,1.42,7.1,8.46,13.81,15.75,16.81,17.99.51.37.91.6,1.18.67.17.04.3.04.38-.05.72-.73-2.11-6.74-13.94-23.02-11.84-16.31-27.21-31.43-27.9-30.74Z"/>
                    <path class="cls-14" d="m3234.26,972.43c.15.27.3.58.47.88,2.9,5.38,8.7,14.58,15.88,23.51,1.47,1.83,2.97,3.65,4.45,5.45.39.48.78.95,1.17,1.42,7.1,8.46,13.81,15.75,16.81,17.99.51.37.91.6,1.18.67-3.65-5.98-10.41-15.9-22.09-29.97-8.31-10.01-14.01-16.17-17.87-19.94Z"/>
                    <path class="cls-51" d="m3268.25,1020.89s-2.31-3.19-4.41-5.42c-2.1-2.22-8.44-8.24-8.44-8.24,0,0,2.22,4.24,6.57,8.26,4.35,4.03,6.28,5.39,6.28,5.39Z"/>
                    <path class="cls-52" d="m3220.49,980.99l9.1-11.87s-1.32-.17-2.99-6.95l-8.97,14.05s1.79,3.06,2.86,4.77Z"/>
                    <path class="cls-14" d="m3255.77,1007.9s-16.77-21.65-22.13-30.54c-5.37-8.88-6.74-14.08-6.74-14.08,0,0,2.16,9.22,9.88,20.86,7.73,11.64,18.99,23.75,18.99,23.75Z"/>
                  </g>
                  <g>
                    <path class="cls-14" d="m3179.25,1023.99l-1.14,13.35s-11.96,4.79-47.23,3.93c-16.07-.39-30.55-4.43-30.55-4.43l-1.44-17.26,80.36,4.41Z"/>
                    <path class="cls-11" d="m3178.91,1023.58c3.64,1.92-22.77,6.76-54.42,3.46-16.13-1.68-25.63-6.26-25.61-7.46.06-3.01,58.23-7.5,80.03,4.01Z"/>
                    <path class="cls-41" d="m3170.69,1026.54s-4.12,1.5-4.66,2.17c-.55.67-.46,7.79-.17,8.85.28,1.06,6.02,1.37,6.02,1.37l-12.1,1.62-12.01.45s2.88-1.75,2.9-2.93c.02-1.18-1.42-8.94-1.42-8.94l-5.04-.98s17.51-.34,26.5-1.61Z"/>
                    <path class="cls-51" d="m3168.47,1026.82l-28.5-10.55s-17.45-.17-23.79.36l28.02,11.53s16.21.13,24.28-1.33Z"/>
                    <path class="cls-21" d="m3107.99,1019.8c0,.31,1.29.86,3.56,1.47.28.07.59.16.9.23,5.5,1.36,15.47,3,26.22,3.34,2.21.07,4.43.12,6.61.15.58.01,1.15.03,1.73.03,10.39.08,19.75-.33,23.27-1.22.59-.16,1.02-.32,1.25-.49.14-.11.23-.21.23-.34.02-1.08-5.83-2.94-24.56-4.57-18.75-1.65-39.17.38-39.19,1.41Z"/>
                    <path class="cls-14" d="m3111.55,1021.26c.28.07.59.16.9.23,5.5,1.36,15.47,3,26.22,3.34,2.21.07,4.41.11,6.61.15.58.01,1.15.03,1.73.03,10.39.08,19.75-.33,23.27-1.22.59-.16,1.02-.32,1.25-.49-6.4-1.16-17.5-2.53-34.69-2.76-12.23-.17-20.15.2-25.27.73Z"/>
                    <path class="cls-51" d="m3166.44,1027.13s-3.67-.33-6.56-.16c-2.89.17-11.17,1.16-11.17,1.16,0,0,4.29,1.12,9.89.37,5.61-.74,7.83-1.37,7.83-1.37Z"/>
                    <path class="cls-1" d="m3107.63,1038.3l-1.45-15.54s-1.02.95-6.57-2.37l2.95,16.93s3.22.66,5.07.97Z"/>
                    <path class="cls-14" d="m3149.4,1028.28s-25.62-1.34-35.09-3.12c-9.47-1.78-13.79-4.24-13.79-4.24,0,0,7.48,4.61,20.37,6.37,12.89,1.76,28.51.98,28.51.98Z"/>
                  </g>
                  <g>
                    <path class="cls-14" d="m3084.35,1020l-.78,9.1s-8.16,3.27-32.21,2.68c-10.96-.27-20.84-3.02-20.84-3.02l-.98-11.77,54.8,3.01Z"/>
                    <path class="cls-11" d="m3084.12,1019.72c2.48,1.31-15.53,4.61-37.11,2.36-11-1.15-17.48-4.27-17.46-5.09.04-2.05,39.71-5.11,54.58,2.73Z"/>
                    <path class="cls-41" d="m3078.51,1021.74s-2.81,1.02-3.18,1.48c-.37.46-.31,5.31-.12,6.04.19.72,4.1.93,4.1.93l-8.25,1.11-8.19.31s1.96-1.2,1.98-2c.02-.8-.97-6.1-.97-6.1l-3.44-.67s11.94-.23,18.07-1.1Z"/>
                    <path class="cls-51" d="m3077,1021.93l-19.44-7.19s-11.9-.11-16.23.24l19.11,7.86s11.06.09,16.56-.91Z"/>
                    <path class="cls-21" d="m3035.75,1017.14c0,.21.88.59,2.43,1,.19.05.4.11.61.15,3.75.93,10.55,2.04,17.88,2.28,1.5.05,3.02.08,4.5.1.39,0,.79.02,1.18.02,7.09.06,13.47-.23,15.87-.83.4-.11.69-.22.85-.33.1-.07.16-.15.16-.23.01-.74-3.98-2-16.75-3.12-12.79-1.13-26.71.26-26.73.96Z"/>
                    <path class="cls-14" d="m3038.18,1018.14c.19.05.4.11.61.15,3.75.93,10.55,2.04,17.88,2.28,1.5.05,3.01.07,4.5.1.39,0,.79.02,1.18.02,7.09.06,13.47-.23,15.87-.83.4-.11.69-.22.85-.33-4.37-.79-11.93-1.73-23.66-1.88-8.34-.12-13.74.14-17.23.5Z"/>
                    <path class="cls-51" d="m3075.61,1022.14s-2.5-.22-4.47-.11-7.62.79-7.62.79c0,0,2.92.76,6.75.25,3.83-.51,5.34-.94,5.34-.94Z"/>
                    <path class="cls-27" d="m3035.5,1029.76l-.99-10.6s-.69.65-4.48-1.61l2.01,11.55s2.2.45,3.46.66Z"/>
                    <path class="cls-14" d="m3063.99,1022.93s-17.47-.91-23.93-2.13c-6.46-1.21-9.41-2.89-9.41-2.89,0,0,5.1,3.14,13.89,4.34,8.79,1.2,19.44.67,19.44.67Z"/>
                  </g>
                </g>
                <path class="cls-50" d="m3001.31,1056.71l29.48,137.44h298.77c6.94-67.39,4.39-160.49,4.39-160.49-168.63-10.97-323-6.9-323-6.9l-9.64,29.95Zm26.96,0l275.57,6.53s6.91,57.7-.84,111.08l-253.66-5.95s-14.3-81.6-21.07-111.67Z"/>
                <path class="cls-63" d="m3295.59,942.41l165.65,98.16,27.59-75.36s-30.57-60.9-99.77-85.52c-48.16-17.14-93.46,62.73-93.46,62.73Zm33.98-6.94s18.92-29.66,45.73-36.59c0,0,44.48,18.26,94.79,67.47l-20.68,43.52-119.84-74.39Z"/>
                <path class="cls-63" d="m3329.56,1194.15h107.89c33.1-80.28,23.78-153.58,23.78-153.58-56.81-17.8-127.28-6.91-127.28-6.91l-4.39,160.49Zm24.29-137.44h89.57c-.89,68.71-23.1,117.61-23.1,117.61h-66.47c-5.19-62.44,0-117.61,0-117.61Z"/>
                <path class="cls-67" d="m3131.62,858.64l-28.84-4.94-42.07,50.88h8.86s25.79-32.55,39.34-43.95l22.71-2Z"/>
                <path class="cls-45" d="m3375.29,898.88l-5.83,1.9s56.03,23.1,92.98,65.57l-18.67,40.02,5.63,3.49,20.68-43.52s-22.8-25.92-55.24-46.73c-18.37-11.79-39.55-20.74-39.55-20.74Z"/>
                <path class="cls-45" d="m3443.43,1056.71h-89.57l-.26,3.13,84.95,2.49s-7.11,71.36-25.32,111.99h7.1s15.61-38.6,20.44-73.43c4.41-31.83,2.66-44.19,2.66-44.19Z"/>
                <polygon class="cls-45" points="3252.86 1062.04 3028.27 1056.71 3049.34 1168.38 3056.94 1168.38 3038.18 1065.8 3252.86 1062.04"/>
                <path class="cls-45" d="m3300.91,1105.94l-224.39-5.04s76.07,11.98,127.78,11.98,96.61-6.94,96.61-6.94Z"/>
                <polygon class="cls-45" points="3050.54 1133.36 3243.22 1141.62 3052.81 1141.62 3050.54 1133.36"/>
                <polygon class="cls-45" points="3429.13 1121.53 3368.49 1126.75 3427.76 1127.75 3429.13 1121.53"/>
                <polygon class="cls-45" points="3060.71 904.59 3036.66 938.83 3066.65 904.59 3060.71 904.59"/>
                <polygon class="cls-45" points="3279.66 908.14 3264.15 935.62 3274.72 908.14 3279.66 908.14"/>
                <polygon class="cls-45" points="3449.4 1009.86 3441.66 1026.03 3447.41 1008.62 3449.4 1009.86"/>
                <polygon class="cls-45" points="3470.08 966.35 3478.91 949.31 3467.12 963.28 3470.08 966.35"/>
                <polygon class="cls-45" points="3028.27 1056.71 3025.5 1031.2 3032.77 1056.71 3028.27 1056.71"/>
                <polygon class="cls-45" points="3353.86 1056.71 3354.77 1033.77 3357.27 1056.71 3353.86 1056.71"/>
                <polygon class="cls-45" points="3303.84 1063.24 3303.84 1035.31 3300.91 1063.18 3303.84 1063.24"/>
                <polygon class="cls-45" points="3420.33 1174.33 3415.45 1190.26 3417.89 1174.33 3420.33 1174.33"/>
                <polygon class="cls-45" points="3353.86 1174.33 3357.27 1190.26 3357.27 1174.33 3353.86 1174.33"/>
                <polygon class="cls-45" points="3302.99 1174.33 3300.91 1190.26 3300.91 1174.33 3302.99 1174.33"/>
                <polygon class="cls-45" points="3443.43 1056.71 3441.66 1039.92 3439.43 1056.71 3443.43 1056.71"/>
                <path class="cls-41" d="m3351.55,911.43s61.19,19.39,97.85,54.91l-12.67,35.65,12.67,7.87,20.68-43.52s-22.93-29.25-55.24-46.73c-32.31-17.49-39.55-20.74-39.55-20.74-13.28,2.9-23.74,12.55-23.74,12.55Z"/>
                <path class="cls-41" d="m3429.13,1056.71h-75.28s-4.3,67.07,0,117.61h23.27s-8.98-40.97-7.67-100.43l68.05-7.93,4.97,11.89.95-21.15h-14.3Z"/>
                <polygon class="cls-45" points="3291.68 893.15 3144.4 884.34 3296.6 888.39 3291.68 893.15"/>
                <polygon class="cls-45" points="3340.47 1033.66 3333.32 1056.71 3318.24 1032.68 3333.95 1033.66 3340.47 1033.66"/>
                <path class="cls-51" d="m3303.84,1035.31s-86.32,1.28-163.64-1.21c-77.33-2.49-118.74-7.55-118.74-7.55l285.22,5.06-2.84,3.7Z"/>
                <polygon class="cls-45" points="3032.77 1080.56 3041.33 1106.89 3041.33 1127.75 3030.03 1106.89 3032.77 1080.56"/>
                <path class="cls-4" d="m3303.84,1063.24l1.87,22.53s-39.91-7.92-94.11-12.21l-5.65,26.1h-92.53l-5.78-27.83,67.24.34c-46.14-2.25-94.47-1.27-126.6,8.38l8.68,87.82h-7.61l-21.07-111.67,275.57,6.53Z"/>
                <path class="cls-51" d="m3265.57,1110.01s-59.99,4.54-93.36,1.69c0,0,31.24,6.46,58.56,3.82,27.31-2.64,34.81-5.51,34.81-5.51Z"/>
                <path class="cls-51" d="m3243.22,1141.62h-143.97s43.79,6.9,89.47,3.45c45.68-3.45,54.5-3.45,54.5-3.45Z"/>
                <polygon class="cls-16" points="3309.87 921.34 3320.23 957.02 3279.08 938.83 3309.87 921.34"/>
                <polygon class="cls-16" points="3309.87 921.34 3292.02 926.55 3290.02 932.62 3309.87 921.34"/>
                <g>
                  <path class="cls-38" d="m3107.63,869.4l-6.33,71.21,14.87,3.05,1.48,4.2h99.06l6.51-2.44-19.41-.14-3.82-7.76,11.59-63.17-5.65-3.17s-26.05-3.08-98.31-1.79Zm5.05,33.98l73.82,1.21-1.9,22.39h-76.97l5.05-23.6Z"/>
                  <polygon class="cls-36" points="3200 937.52 3207.58 944.44 3223.23 945.42 3216.73 947.86 3202.3 947.86 3194.71 939.18 3205.94 871.18 3211.59 874.35 3200 937.52"/>
                  <polygon class="cls-2" points="3111.16 903.5 3186.5 904.59 3186.34 906.45 3115.79 908.14 3113.09 926.98 3107.63 926.98 3111.16 903.5"/>
                </g>
                <g>
                  <polygon class="cls-23" points="3199.46 1060.77 3197.55 1094.75 3113.09 1094.75 3104.91 1058.53 3199.46 1060.77"/>
                  <polygon class="cls-48" points="3205.94 1060.92 3199.46 1060.77 3197.55 1094.75 3201.74 1094.75 3205.94 1060.92"/>
                  <polygon class="cls-44" points="3106.56 1064.6 3198.68 1064.6 3204.02 1073.56 3205.94 1060.92 3104.91 1058.53 3106.56 1064.6"/>
                  <polygon class="cls-44" points="3177.17 1078.77 3173.62 1094.75 3158.03 1094.75 3166.99 1078.77 3177.17 1078.77"/>
                  <path class="cls-44" d="m3133.82,1080.12c4.05,4.68-.41,14.63-.41,14.63h-16.02s4.46-13.42,9.06-15.98c4.6-2.56,7.36,1.35,7.36,1.35Z"/>
                  <path class="cls-6" d="m3175.37,1072.12s4.81,5.5-1.3,11.58c0,0-48.37-5.04-68.84-4.93,0,0-7.69-4.89-2.39-11.81,0,0,44.06-4.66,72.54,5.17Z"/>
                  <path class="cls-9" d="m3132.56,1082.85s-20.24-1.29-27.32-4.08l12.65.35,15.94,1-1.26,2.73Z"/>
                </g>
                <polygon class="cls-42" points="3194.71 939.18 3101.3 940.61 3112.21 942.85 3197.55 942.42 3194.71 939.18"/>
                <path class="cls-39" d="m3170.78,1124.44l-2.67-3.3-26.56-10.33-15.09-2.67,12.61,56.94,16.36-1.98s15.46-4.29,23.82-12.88c0,0,1.96-12.16-8.47-25.77Z"/>
                <path class="cls-6" d="m3157.09,1119.16s10.08,15.53,6.98,31.38c0,0-13.14,12.22-25,14.54l-31.06-13.38s-6.52-16.69-4.17-30.89c0,0,10.44-9.85,22.62-12.67l30.64,11.02Z"/>
                <path class="cls-4" d="m3135.52,1120.68l1.55,4.42-1.94,9.76,1.61,8.97s-3.44,5.23-10.29,8.37c0,0-3.17-11.74-2.8-12.56.44-.98,6.99-6.27,6.99-6.27l4.88-12.68Z"/>
                <path class="cls-8" d="m3170.54,1125.93h-6.62l-4-6.77s14.68-14.84,14.68-18.26c0-16.9-4.06-33.12-27.73-34.25l-10.14-.8c13.93-9.14,28.95-7.32,28.95-7.32,18.37,15.03,19.99,42.34,19.99,42.34,0,0-5.74,20.53-15.14,25.06Z"/>
                <path class="cls-9" d="m3139.67,1092.21l-10.46-1.13,2.66-11.09s4.46-1.15,11.45.88c0,0-3.05,6.03-3.65,11.34Z"/>
                <path class="cls-44" d="m3139.67,1092.21l-10.46-1.13,2.66-11.09s4.46-1.15,11.45.88c0,0-3.05,6.03-3.65,11.34Z"/>
                <path class="cls-20" d="m3185.69,1100.87c-3.85,4.82-14.64-27.66-20.58-35.02-5.94-7.35.59-7.32.59-7.32,0,0,8.77,5.71,14.78,20.24,6.02,14.53,5.21,22.1,5.21,22.1Z"/>
                <path class="cls-20" d="m3159.92,1119.16s7.38-8.64,14.87-16.05c7.49-7.41,5.42,10.1-10.87,22.82l-4-6.77Z"/>
                <path class="cls-20" d="m3146.88,1066.65c17.78,6.36,14.34,15.79,14.34,15.79l11.06,1.09s-1.74-15.92-11.37-19.88c-9.63-3.96-24.16,2.2-24.16,2.2l10.14.8Z"/>
                <path class="cls-51" d="m3159.92,1131.38c5.28,15.3-3.02,9.67-7.73,8.26-5.1-1.52-15.93-11.89-7.79-15.2,9.54-3.87,12.59-1.55,15.52,6.94Z"/>
                <path class="cls-51" d="m3125.41,1066.05c-3.96,13.3-20.53,6.7-17.79.51l17.79-.51Z"/>
                <path class="cls-51" d="m3173.21,1066.05c-9.59.75-10.59-5.28-10.59-5.28,0,0,.27-1.83,3.08-2.24l7.51,7.52Z"/>
                <path class="cls-51" d="m3196.86,870.46c3.19,14.97-57.25,22.46-71.89,14.75-14.64-7.71-17.34-15.8-17.34-15.8l89.23,1.06Z"/>
                <path class="cls-44" d="m3194.71,892.61c-6.96,9.57-21.81-15.24-8.22-18.59s20.65,1.5,8.22,18.59Z"/>
              </g>
              <path class="cls-56" d="m3309.87,921.34s25.52-46.07,73.06-44.11c47.55,1.96,105.88,87.97,105.88,87.97l86.18,172.29v127.79l-507.7-53.08-32.31-21.94,294.57,3.88,4.39-160.49,82.14-1.81,25.34,1.55,19.8,7.17-153.07-91.25,1.71-27.97Z"/>
              <g>
                <path class="cls-25" d="m3037.05,1190.6l-.37,12.83s-11.87,5.06-47.15,4.99c-16.07-.03-30.44-6.57-30.44-6.57l-2.12-12.52,80.08,1.28Z"/>
                <path class="cls-21" d="m3037.05,1190.6c3.67,1.01-22.64,3.95-54.34,2.51-16.16-.74-25.74-3.13-25.74-3.79,0-1.65,58.07-4.76,80.08,1.28Z"/>
                <path class="cls-26" d="m2966.05,1202.55l-.77-11.11s-2.7,1.07-8.31-2.12l3.68,11.01s3.55,1.95,5.4,2.22Z"/>
                <path class="cls-14" d="m3007.63,1193.49s-25.64-.76-35.14-2.33c-9.5-1.56-15.54-1.84-15.54-1.84,0,0,8.31,2.12,22.15,3.83,12.9,1.6,28.53.34,28.53.34Z"/>
              </g>
              <g>
                <path class="cls-25" d="m3046.54,1179.91l-.37,12.83s-11.87,5.06-47.15,4.99c-16.07-.03-30.44-6.57-30.44-6.57l-2.12-12.52,80.08,1.28Z"/>
                <path class="cls-21" d="m3046.54,1179.91c3.67,1.01-22.64,3.95-54.34,2.51-16.16-.74-25.74-3.13-25.74-3.79,0-1.65,58.07-4.76,80.08,1.28Z"/>
                <path class="cls-33" d="m2975.54,1191.86l-.77-11.11s-2.7,1.07-8.31-2.12l3.68,11.01s3.55,1.95,5.4,2.22Z"/>
                <path class="cls-14" d="m3017.13,1182.8s-25.64-.76-35.14-2.33c-9.5-1.56-15.54-1.84-15.54-1.84,0,0,8.31,2.12,22.15,3.83,12.9,1.6,28.53.34,28.53.34Z"/>
              </g>
              <g>
                <path class="cls-14" d="m3074.41,1197.11l-.9,13.37s-11.87,5.06-47.15,4.99c-16.07-.03-30.63-3.74-30.63-3.74l-1.75-17.23,80.43,2.61Z"/>
                <path class="cls-11" d="m3074.06,1196.7c3.67,1.84-22.64,7.27-54.35,4.68-16.16-1.32-25.74-5.68-25.74-6.89,0-3.01,58.08-8.8,80.08,2.21Z"/>
                <path class="cls-41" d="m3065.89,1199.85s-4.09,1.59-4.62,2.27c-.53.68-.31,7.8-.01,8.86s6.04,1.23,6.04,1.23l-12.07,1.89-12,.72s2.85-1.82,2.85-2.99c0-1.18-1.58-8.91-1.58-8.91l-5.06-.86s17.5-.73,26.46-2.21Z"/>
                <path class="cls-51" d="m3063.68,1200.17l-28.69-9.91s-17.45.23-23.78.89l28.22,10.89s16.21-.24,24.25-1.88Z"/>
                <path class="cls-21" d="m3003.09,1194.51c0,.31,1.31.83,3.58,1.39.28.06.59.14.9.21,5.52,1.23,15.52,2.65,26.27,2.75,2.21.02,4.43.02,6.61,0,.58,0,1.15,0,1.73-.01,10.39-.15,19.74-.78,23.24-1.74.59-.17,1.01-.34,1.24-.52.14-.11.23-.22.23-.34,0-1.08-5.89-2.8-24.64-4.02-18.78-1.23-39.15,1.26-39.16,2.29Z"/>
                <path class="cls-14" d="m3006.67,1195.9c.28.06.59.14.9.21,5.52,1.23,15.52,2.65,26.27,2.75,2.21.02,4.41,0,6.61,0,.58,0,1.15,0,1.73-.01,10.39-.15,19.74-.78,23.24-1.74.59-.17,1.01-.34,1.24-.52-6.42-1.02-17.54-2.14-34.73-1.98-12.23.1-20.15.65-25.25,1.3Z"/>
                <path class="cls-51" d="m3061.66,1200.53s-3.67-.25-6.56-.01c-2.89.23-11.14,1.41-11.14,1.41,0,0,4.3,1.02,9.9.15,5.59-.87,7.8-1.55,7.8-1.55Z"/>
                <path class="cls-10" d="m3003.06,1213.02l-1.73-15.5s-1,.97-6.62-2.22l3.26,16.86s3.24.59,5.08.86Z"/>
                <path class="cls-14" d="m3044.65,1202.06s-25.64-.76-35.14-2.33c-9.5-1.56-13.87-3.92-13.87-3.92,0,0,7.56,4.44,20.48,5.91,12.92,1.47,28.52.34,28.52.34Z"/>
              </g>
              <g>
                <path class="cls-14" d="m3236.43,1201.57l-.9,13.37s-11.87,5.06-47.15,4.99c-16.07-.03-30.63-3.74-30.63-3.74l-1.75-17.23,80.43,2.61Z"/>
                <path class="cls-11" d="m3236.08,1201.17c3.67,1.84-22.64,7.27-54.35,4.68-16.16-1.32-25.74-5.68-25.74-6.89,0-3.01,58.08-8.8,80.08,2.21Z"/>
                <path class="cls-41" d="m3227.91,1204.31s-4.09,1.59-4.62,2.27c-.53.68-.31,7.8-.01,8.86s6.04,1.23,6.04,1.23l-12.07,1.9-12,.72s2.85-1.82,2.85-2.99c0-1.18-1.58-8.91-1.58-8.91l-5.06-.86s17.5-.73,26.46-2.21Z"/>
                <path class="cls-51" d="m3225.7,1204.64l-28.69-9.91s-17.45.22-23.78.89l28.22,10.89s16.21-.24,24.25-1.88Z"/>
                <path class="cls-21" d="m3165.11,1198.98c0,.31,1.31.83,3.58,1.39.28.06.59.14.9.21,5.52,1.23,15.52,2.65,26.27,2.75,2.21.02,4.43.02,6.61,0,.58,0,1.15,0,1.73-.01,10.39-.15,19.74-.78,23.24-1.74.59-.17,1.01-.34,1.24-.52.14-.11.23-.22.23-.34,0-1.08-5.89-2.8-24.64-4.02-18.78-1.23-39.15,1.26-39.16,2.29Z"/>
                <path class="cls-14" d="m3168.69,1200.37c.28.06.59.14.9.21,5.52,1.23,15.52,2.65,26.27,2.75,2.21.02,4.41,0,6.61,0,.58,0,1.15,0,1.73-.01,10.39-.15,19.74-.78,23.24-1.74.59-.17,1.01-.34,1.24-.52-6.42-1.02-17.54-2.14-34.73-1.98-12.23.1-20.15.65-25.25,1.3Z"/>
                <path class="cls-51" d="m3223.68,1205s-3.67-.25-6.56-.01c-2.89.23-11.14,1.41-11.14,1.41,0,0,4.3,1.02,9.9.15,5.59-.87,7.8-1.55,7.8-1.55Z"/>
                <path class="cls-34" d="m3165.08,1217.49l-1.73-15.5s-1,.97-6.62-2.22l3.26,16.86s3.24.59,5.08.86Z"/>
                <path class="cls-14" d="m3206.67,1206.53s-25.64-.76-35.14-2.33c-9.5-1.56-13.87-3.92-13.87-3.92,0,0,7.56,4.44,20.48,5.91,12.92,1.47,28.52.34,28.52.34Z"/>
              </g>
            </g>
          </g>
        </g>
      </g>
    </g>
  </g>
</svg>