<?xml version="1.0" encoding="UTF-8"?>
<svg xmlns="http://www.w3.org/2000/svg" xmlns:xlink="http://www.w3.org/1999/xlink" viewBox="0 0 3149 1270.32">
  <defs>
    <style>
      .cls-1 {
        fill: #74006f;
        mix-blend-mode: multiply;
        opacity: .53;
      }

      .cls-2 {
        fill: #090c00;
      }

      .cls-3 {
        isolation: isolate;
      }

      .cls-4 {
        clip-path: url(#clippath);
      }

      .cls-5 {
        fill: #220c23;
      }

      .cls-6 {
        fill: #e068ff;
        mix-blend-mode: screen;
        opacity: .21;
      }

      .cls-7 {
        fill: none;
      }

      .cls-8 {
        fill: #2f1c3a;
      }
    </style>
    <clipPath id="clippath">
      <rect class="cls-7" width="3149" height="1270.32"/>
    </clipPath>
  </defs>
  <g class="cls-3">
    <g id="Layer_2" data-name="Layer 2">
      <g id="_Ñëîé_1" data-name="Ñëîé 1">
        <g class="cls-4">
          <g>
            <g>
              <path class="cls-8" d="m789.97,1069.52c-7.33.5-15.4.89-22.2,1.16-3.79-9.82-14.06-17.77-32.01-17.77-36.26,0-73.89,3.58-73.89,3.58-31.97,1.02-31.94,48.56.8,51.27l78.11-.31c12.46-.31,21.25-6.74,25.6-15.08,9.64.27,17.09.53,25.87.4,15.65.29,15.15-24.46-2.29-23.26Z"/>
              <path class="cls-5" d="m740.78,1107.46h-3.44c1.12.1,2.26.1,3.44,0Z"/>
              <path class="cls-6" d="m737.52,1055.25l8.05,8.15s6.25,1.32,12.3,5.2l6.17-.05c-4.54-7.23-13.17-12.68-26.52-13.3Z"/>
              <polygon class="cls-6" points="751.61 1073.5 753.39 1072.1 782.71 1071.48 779.74 1073.18 751.61 1073.5"/>
              <path class="cls-5" d="m797.37,1071.29l-.24-4.5s-5.89,1.2-5.98,1.2c-.84.01-1.59.22-2.27.55-3.36,1.66-4.91,6.65-4.89,11.78l-38.04-1.96-30.82,7.31c-3.97-15.08,1.41-32.47,20.63-32.76-18.39.28-73.89,3.58-73.89,3.58-31.97,1.02-31.94,48.56.8,51.27l62.51-.25c-2.12-1.76-5.31-5.37-7.62-12.32,0,0,6.45,10.35,19.79,12.27h3.44c12.46-.32,21.25-6.75,25.6-15.09,8.21.23,14.84.45,22.06.43.93.74,1.99,1.19,3.19,1.24,0,.01.49.01.49.01h6.48l-.28-5.19c2.32-5.24,2.16-13.14-.95-17.57Z"/>
              <path class="cls-8" d="m797.62,1066.79c12.01-.21,11.02,26.72.98,27.27-10.05.55-11.3-27.08-.98-27.27Z"/>
              <path class="cls-2" d="m798.56,1069.86c8.09.4,7.43,21.01.66,20.96-6.77-.05-7.62-21.3-.66-20.96Z"/>
            </g>
            <path class="cls-1" d="m656.76,1102.11c-44.28-1.31-73.8,10.45-11.81,11.32,61.99.87,99.77-2.81,99.77-2.81,0,0,20.6-9.43,25.58-7.67,4.98,1.77,29.36,1.13,39.37-.95,10.01-2.08-58.07-5.14-58.07-5.14l-94.85,5.24Z"/>
          </g>
        </g>
      </g>
    </g>
  </g>
</svg>