<?xml version="1.0" encoding="UTF-8"?>
<svg xmlns="http://www.w3.org/2000/svg" xmlns:xlink="http://www.w3.org/1999/xlink" viewBox="0 0 3149 1270.32">
  <defs>
    <style>
      .cls-1 {
        fill: url(#_Áåçûìÿííûé_ãðàäèåíò_7);
        opacity: .53;
      }

      .cls-1, .cls-2, .cls-3, .cls-4, .cls-5, .cls-6 {
        fill-rule: evenodd;
      }

      .cls-1, .cls-7, .cls-8, .cls-9 {
        mix-blend-mode: screen;
      }

      .cls-10 {
        fill: #3a070b;
      }

      .cls-11 {
        fill: url(#_Áåçûìÿííûé_ãðàäèåíò_79);
      }

      .cls-2 {
        fill: #d58e58;
      }

      .cls-12 {
        fill: #3f020e;
      }

      .cls-13 {
        isolation: isolate;
      }

      .cls-14 {
        fill: url(#_Áåçûìÿííûé_ãðàäèåíò_169-2);
      }

      .cls-15 {
        fill: url(#_Áåçûìÿííûé_ãðàäèåíò_170);
      }

      .cls-3 {
        fill: url(#_Áåçûìÿííûé_ãðàäèåíò_75);
      }

      .cls-3, .cls-16, .cls-17, .cls-4, .cls-18, .cls-5, .cls-19, .cls-20 {
        mix-blend-mode: multiply;
      }

      .cls-16 {
        fill: #823b47;
      }

      .cls-17 {
        fill: #ae413a;
      }

      .cls-7 {
        fill: url(#_Áåçûìÿííûé_ãðàäèåíò_153);
      }

      .cls-8 {
        fill: url(#_Áåçûìÿííûé_ãðàäèåíò_7-2);
      }

      .cls-9 {
        fill: #4b2413;
      }

      .cls-4 {
        fill: url(#_Áåçûìÿííûé_ãðàäèåíò_66);
      }

      .cls-21 {
        fill: #771339;
      }

      .cls-18 {
        opacity: .35;
      }

      .cls-22 {
        fill: url(#_Áåçûìÿííûé_ãðàäèåíò_169);
      }

      .cls-5 {
        fill: url(#_Áåçûìÿííûé_ãðàäèåíò_245);
        opacity: .78;
      }

      .cls-23 {
        clip-path: url(#clippath);
      }

      .cls-19 {
        fill: url(#_Áåçûìÿííûé_ãðàäèåíò_154);
      }

      .cls-24 {
        fill: none;
      }

      .cls-20 {
        opacity: .6;
      }

      .cls-6 {
        fill: #ffad66;
      }

      .cls-25 {
        fill: #7c2409;
      }
    </style>
    <clipPath id="clippath">
      <rect class="cls-24" width="3149" height="1270.32"/>
    </clipPath>
    <linearGradient id="_Áåçûìÿííûé_ãðàäèåíò_170" data-name="Áåçûìÿííûé ãðàäèåíò 170" x1="2300.69" y1="978.35" x2="2331.51" y2="865.45" gradientUnits="userSpaceOnUse">
      <stop offset="0" stop-color="#87251b"/>
      <stop offset=".43" stop-color="#560f15"/>
      <stop offset=".72" stop-color="#4a0b10"/>
      <stop offset="1" stop-color="#3a070b"/>
    </linearGradient>
    <linearGradient id="_Áåçûìÿííûé_ãðàäèåíò_169" data-name="Áåçûìÿííûé ãðàäèåíò 169" x1="2182.36" y1="850.25" x2="2345.03" y2="850.25" gradientUnits="userSpaceOnUse">
      <stop offset="0" stop-color="#87251b"/>
      <stop offset=".32" stop-color="#560f15"/>
      <stop offset="1" stop-color="#3a070b"/>
    </linearGradient>
    <linearGradient id="_Áåçûìÿííûé_ãðàäèåíò_79" data-name="Áåçûìÿííûé ãðàäèåíò 79" x1="2203.66" y1="839.67" x2="2410.96" y2="839.67" gradientUnits="userSpaceOnUse">
      <stop offset="0" stop-color="#f57c33"/>
      <stop offset=".12" stop-color="#e66b2a"/>
      <stop offset=".35" stop-color="#bf4013"/>
      <stop offset=".53" stop-color="#9f1b00"/>
      <stop offset=".72" stop-color="#7e1b00"/>
      <stop offset=".85" stop-color="#6f1b00"/>
    </linearGradient>
    <linearGradient id="_Áåçûìÿííûé_ãðàäèåíò_66" data-name="Áåçûìÿííûé ãðàäèåíò 66" x1="2237.64" y1="597.08" x2="2401.41" y2="760.86" gradientTransform="translate(2.34 -9.24) rotate(.29)" gradientUnits="userSpaceOnUse">
      <stop offset=".26" stop-color="#fff"/>
      <stop offset=".37" stop-color="#f5ebec"/>
      <stop offset=".6" stop-color="#dcb9be"/>
      <stop offset=".93" stop-color="#b36a73"/>
      <stop offset="1" stop-color="#ab5963"/>
    </linearGradient>
    <linearGradient id="_Áåçûìÿííûé_ãðàäèåíò_7" data-name="Áåçûìÿííûé ãðàäèåíò 7" x1="2215.3" y1="574.74" x2="2325.83" y2="685.27" gradientTransform="translate(2.34 -9.24) rotate(.29)" gradientUnits="userSpaceOnUse">
      <stop offset="0" stop-color="#ff8e4a"/>
      <stop offset="1" stop-color="#000"/>
    </linearGradient>
    <linearGradient id="_Áåçûìÿííûé_ãðàäèåíò_75" data-name="Áåçûìÿííûé ãðàäèåíò 75" x1="2215.3" y1="574.74" x2="2401.41" y2="760.86" gradientTransform="translate(2.34 -9.24) rotate(.29)" gradientUnits="userSpaceOnUse">
      <stop offset=".16" stop-color="#fff"/>
      <stop offset=".27" stop-color="#f2ebec"/>
      <stop offset=".5" stop-color="#d2b9be"/>
      <stop offset=".82" stop-color="#a06a73"/>
      <stop offset="1" stop-color="#823b47"/>
    </linearGradient>
    <linearGradient id="_Áåçûìÿííûé_ãðàäèåíò_153" data-name="Áåçûìÿííûé ãðàäèåíò 153" x1="804.89" y1="-287.06" x2="821.1" y2="-428.65" gradientTransform="translate(2211.76 83.38) rotate(131.41) scale(.44 1.02)" gradientUnits="userSpaceOnUse">
      <stop offset=".22" stop-color="#ff8e4a"/>
      <stop offset="1" stop-color="#000"/>
    </linearGradient>
    <linearGradient id="_Áåçûìÿííûé_ãðàäèåíò_7-2" data-name="Áåçûìÿííûé ãðàäèåíò 7" x1="2179.4" y1="689.08" x2="2430.76" y2="689.08" xlink:href="#_Áåçûìÿííûé_ãðàäèåíò_7"/>
    <linearGradient id="_Áåçûìÿííûé_ãðàäèåíò_154" data-name="Áåçûìÿííûé ãðàäèåíò 154" x1="2350.57" y1="607.76" x2="2422.56" y2="607.76" gradientUnits="userSpaceOnUse">
      <stop offset="0" stop-color="#823b47"/>
      <stop offset=".18" stop-color="#a06a73"/>
      <stop offset=".5" stop-color="#d2b9be"/>
      <stop offset=".73" stop-color="#f2ebec"/>
      <stop offset=".84" stop-color="#fff"/>
    </linearGradient>
    <linearGradient id="_Áåçûìÿííûé_ãðàäèåíò_169-2" data-name="Áåçûìÿííûé ãðàäèåíò 169" x1="2261.66" y1="618.34" x2="2427.45" y2="784.13" xlink:href="#_Áåçûìÿííûé_ãðàäèåíò_169"/>
    <radialGradient id="_Áåçûìÿííûé_ãðàäèåíò_245" data-name="Áåçûìÿííûé ãðàäèåíò 245" cx="2349.2" cy="711.99" fx="2384.2" fy="738.39" r="160.91" gradientTransform="translate(2.34 -9.24) rotate(.29)" gradientUnits="userSpaceOnUse">
      <stop offset="0" stop-color="#823b47"/>
      <stop offset=".11" stop-color="#85404c"/>
      <stop offset=".26" stop-color="#8f505b"/>
      <stop offset=".42" stop-color="#a06b74"/>
      <stop offset=".6" stop-color="#b89097"/>
      <stop offset=".79" stop-color="#d6bfc3"/>
      <stop offset=".98" stop-color="#fbf9f9"/>
      <stop offset="1" stop-color="#fff"/>
    </radialGradient>
  </defs>
  <g class="cls-13">
    <g id="Layer_2" data-name="Layer 2">
      <g id="_Ñëîé_1" data-name="Ñëîé 1">
        <g class="cls-23">
          <g>
            <path class="cls-12" d="m2314.33,862.98c5.02-17.07-34.6,49.66-24.94,50.27,6.72.43,12.33,17.95,20.1,36.99.01.03.3.88.79,1.99l-.77-1.95c.33.81.65,1.59.96,2.35-.06-.14-.13-.28-.19-.4l5.29,13.21,15.89.99s13.43,1.38,12.7-11.09c-.51-8.71-10.36-11.61-17.9-9.84-4.1-14.95-17.01-65.28-11.94-82.52Z"/>
            <g class="cls-18">
              <path class="cls-21" d="m2305.09,939.18s27.5,27.71,30.09,27.1c2.59-.61,4.98-1.75,4.98-1.75l-24.13-41.14-15.92,3.69,4.98,12.09Z"/>
            </g>
            <path class="cls-15" d="m2318.52,883.51c-.89-17.77-1.26-26.91-1.26-26.91h-22.32s1.63,13-.76,27.88c-2.23,13.88-18.43,51.8-42.51,75.81-3.15-8.98-17.93-9.06-22.33,1.5-3.39,8.14,2.15,12.09,5.71,13.71,1.43.65,2.99.95,4.56.95h20.35s37.12-46.46,44.69-46.82c6.72-.32,24.47,22.44,38.1,37.84.02.03.57.73,1.4,1.62l-1.37-1.58c.58.65,1.14,1.29,1.68,1.9-.1-.11-.21-.22-.31-.32l8.67,10.03h14.72c1.57,0,3.13-.3,4.56-.95,3.56-1.62,9.1-5.57,5.71-13.71-3.35-8.05-14.54-8.61-21.07-4.46-8.81-12.76-37.31-58.56-38.21-76.51Z"/>
            <g class="cls-20">
              <path class="cls-21" d="m2295.4,878.99c3.36,4.29,22.9,0,22.9,0l-1.04-22.38h-22.32l.46,22.38Z"/>
            </g>
            <g class="cls-20">
              <path class="cls-21" d="m2304.65,929.64c6.72-.32,24.47,22.44,38.1,37.84.02.03.57.73,1.4,1.62l-1.37-1.58c.58.65,1.14,1.29,1.68,1.9-.1-.11-.21-.22-.31-.32l8.67,10.03h4.08s-46.49-81.57-54.78-69.74c-8.29,11.82-47.21,67.07-52.31,67.07h10.15s37.12-46.46,44.69-46.82Z"/>
            </g>
            <path class="cls-17" d="m2252,961.93c-.83,4.99-10.08,7.1-12.5,6.11-2.42-.98.38-9.1,2.42-9.54,2.05-.44,3.64,2.79,2.42,4.2-1.21,1.41.98,1.69,2.35-1.26,1.36-2.95-.08-4.5-6.36-3.93-6.29.56-5.91,7.03-1.44,11.8,4.47,4.78,9.7,1.97,11.59-2.25,1.89-4.22,1.52-5.13,1.52-5.13Z"/>
            <path class="cls-17" d="m2355.43,966.8s-2,8.24,6.19,8.48c9.45.28,14.33-6.26,12.1-8.48-2.24-2.23-7.95-6.59-11.93-4.7-3.98,1.88-.33,7.14,1.99,7.64,2.32.5,3.81-2.16,2.57-2.76s-3.89-.5-3.23,1.73c0,0-3.47-.75-.58-3.82,2.89-3.07,7.35-2.46,9.03,2.88,1.68,5.34-4.87,7.34-7.62,6.64-2.75-.69-6.5-4.08-8.51-7.59Z"/>
            <polygon class="cls-10" points="2255.86 810.4 2259.85 810.14 2353.02 559.27 2350.57 558.22 2255.86 810.4"/>
            <path class="cls-22" d="m2410.96,838.78c-1.08-2.57-207.3,0-207.3,0,0,0-.28,12.48.61,14.46,0,6.77,46.13,9.61,103.37,9.61s103.93-2.84,103.93-9.61c0,0,.47-11.89-.61-14.46Z"/>
            <path class="cls-11" d="m2410.96,838.78c0,1.83-46.07,5.09-103.31,5.09s-103.98-3.26-103.98-5.09,46.41-3.32,103.65-3.32,103.65,1.48,103.65,3.32Z"/>
            <path class="cls-10" d="m2294.94,837.68s12.37,3.4,22.32,0v-19.57h-22.32v19.57Z"/>
            <g>
              <path class="cls-6" d="m2304.36,543.23c72.24.37,130.51,58.35,130.14,129.51-.36,71.16-59.22,128.54-131.46,128.17-72.24-.37-130.51-58.35-130.14-129.51.37-71.16,59.22-128.54,131.46-128.17h0Z"/>
              <path class="cls-2" d="m2307.96,538.73c72.68.37,131.3,59.59,130.93,132.28-.37,72.68-59.59,131.3-132.28,130.93-72.68-.37-131.3-59.59-130.93-132.28.37-72.68,59.59-131.3,132.28-130.93h0Z"/>
              <path class="cls-25" d="m2387.3,662.7c-2.85.16-5.71.31-8.56.47-3.22.18-5.49-1.44-6.79-4.97-.48-1.3-.97-2.62-1.56-3.85-.92-1.91-1.22-3.81-.65-5.98.54-2.08-.32-3.93-.98-5.83-1.14-3.28-2.21-6.6-3.17-9.96-.85-2.98-.24-5.73,1.36-8.21.84-1.3,1.7-2.61,2.41-4.01.81-1.6.14-2.85-1.45-2.74-1.38.1-2.74.45-4.11.59-1.17.12-2.36.1-2.93-1.5-.46-1.31.04-2.92,1.25-4.03,1.79-1.64,3.79-1.75,5.76-.74,1.55.81,2.68.64,3.94-.79,1.83-2.06,2.73-2.06,4.72-.26,1.86,1.68,3.99,2.19,6.22,2.34,1.59.1,2.8.79,4.01,2.14.87.97,2.37,1.42,3.63,1.55,1.77.18,3.61.03,5.37-.31,4.38-.84,7.52,1.35,9.92,5.43.9,1.52,1.72,3.13,2.37,4.82.96,2.48,2.53,3.92,4.65,4.77,3.09,1.23,5.63,3.42,7.68,6.45,1.75,2.6,2.37,5.66,2.57,8.88.39,6.35.71,12.71,1.09,19.06.25,4.1-.54,7.88-2.58,11.2-1.86,3.03-2.84,6.38-3.01,10.09-.46,10.41-4.01,19.26-9.53,27.17-1.76,2.53-3.22,5.42-5.87,6.82-.61.32-1.66.65-1.98.3-.5-.55-.82-1.72-.73-2.56.14-1.27.66-2.5,1.08-3.71.72-2.05.64-4.01-.14-6.04-.97-2.54-1.81-5.16-2.65-7.76-.5-1.54-1.3-2.57-2.68-3.02-1.78-.58-2.28-1.28-2.2-3.55.18-5.21.46-10.41.76-15.61.21-3.72.59-7.43.78-11.16.17-3.37-.68-4.63-3.45-5.2-1.49-.31-3.02-.31-4.53-.45,0,.06,0,.13,0,.19Z"/>
              <path class="cls-25" d="m2259.28,571.28c5.39.1,8.7,2.1,11.33,5.74,1.14,1.58,2.23,3.21,3.37,4.79,1.5,2.09,3.42,3.09,5.73,3.02.74-.02,1.48,0,2.21-.03,3.57-.17,6.12,1.77,7.72,5.45,1.5,3.45,2.86,6.98,4.23,10.51.63,1.61.15,3.5-1.3,4.58-1.11.83-2.38,1.44-3.65,1.86-1.37.45-2.81.57-4.22.84-1.87.36-3.62-.07-5.12-1.39-2.18-1.92-4.37-3.85-6.4-5.99-2.41-2.55-5.09-3.58-8.27-3-1.77.32-3.59.35-5.35.77-1.93.46-3.85,1.06-5.69,1.86-2.32,1.01-3.29.74-4.61-1.78-.1-.19-.21-.36-.28-.56-.77-2.12-2.05-2.97-3.98-2.44-.53.15-1.1.13-1.65.08-1.54-.14-2.56-1.19-2.32-2.97.6-4.53,1.1-9.1,4.98-11.86,2.27-1.62,4.2-3.92,6.31-5.88,2.43-2.26,5.14-3.64,6.96-3.59Z"/>
              <path class="cls-25" d="m2380.36,715.26c0-1.21.06-2.42,0-3.62-.1-2.77-.95-3.71-3.3-3.65-1.06.02-2.11.19-3.17.31-2.47.27-4.45-.69-5.71-3.32-1.26-2.62-1.31-5.37.24-7.74,1.63-2.5,1.92-5.1,1.45-8.04-.14-.9-.15-1.87-.07-2.78.19-2.11,1.14-3.24,2.91-3.56,2.95-.53,5.91-1.07,8.87-1.55,3.92-.64,7.21,4.23,6.06,8.75-.43,1.69-.74,3.55-.62,5.28.09,1.3.82,2.64,1.51,3.74.93,1.45,1.6,2.92,1.62,4.77.04,4.06.13,8.09,1.19,12.04.25.92-.2,2.48-.78,3.26-1.81,2.44-4.19,3.93-6.89,4.52-1.89.41-2.81-.39-3.04-2.67-.2-1.9-.22-3.82-.33-5.74.02,0,.03,0,.05,0Z"/>
              <path class="cls-25" d="m2257.19,789.51c-.62-3.2-2.17-5.21-4.96-5.85-1.48-.34-2.96-.86-4.36-1.52-1.57-.74-2.02-1.87-1.6-3.8.69-3.23.09-6.18-1.09-9.08-1.19-2.91-3.07-4.2-5.8-3.94-1.37.13-2.82.22-4.11-.2-1.06-.35-2.4-1.23-2.8-2.31-1.97-5.3-4.04-10.6-4.36-16.54-.22-4.17-.45-4.69-3.89-5.5-3.08-.73-5.17-2.97-7.05-5.65-1.26-1.79-1.43-3.84-.34-5.8.78-1.4,1.78-2.64,2.74-3.89,2.57-3.35,4.41-7.04,4.21-11.78-.09-2.13.03-2.32,1.78-2.16,5.57.53,11.08,1.46,16.46,3.33,1.94.68,3.64,1.86,4.99,3.67,1.32,1.76,2.54,3.64,3.95,5.28,1.96,2.28,3.01,4.82,2.37,8.13-.49,3.72.56,6.8,2.76,9.41,1.63,1.93,3.19,3.95,4.88,5.82,1,1.11,2.12,2.11,3.29,2.97,1.02.75,2.16.72,3.06-.36,2.6-3.14,5.97-4.47,9.34-5.82,2.37-.95,4.78-1.09,7.23-.42,3.51.96,7.01,1.91,10.66,1.18,1.23-.25,2,.64,2.57,1.78,1.09,2.16,2.1,4.38,3.24,6.51,1.96,3.64,3.46,4.12,6.71,2.14,1.99-1.21,4.02-2.17,6.29-2.29,1.84-.1,3.68-.3,5.52-.41,2.97-.19,3.45.27,3.92,3.72.04.27.06.54.09.82.24,2.66,1.05,4.95,2.85,6.71,1.38,1.35,2.15,3.17,2.13,5.33-.02,1.97,0,3.98-.31,5.89-.39,2.38.11,4.34,1.29,6.15.26.4.78.92,1.06.84.39-.11.71-.72.98-1.18.18-.3.2-.72.3-1.09,2.37-8.71,2.76-17.67,2.43-26.72-.13-3.54-1.03-6.83-2.97-9.56-1.54-2.17-3.2-4.23-4.85-6.29-3.04-3.81-6.58-7.2-9.07-11.46-3.15-5.4-6.95-8.74-12.45-9.34-1.93-.21-3.34-1.38-4.22-3.49-.32-.77-.78-1.53-1.32-2.09-1.73-1.82-2.33-4.03-2.2-6.76.16-3.24-1.01-5.86-3.25-7.75-1.16-.98-2.36-1.91-3.52-2.9-5.04-4.28-6.15-15.28.76-19.84,2.3-1.52,3.73-3.84,4.6-6.74,1.42-4.71,1.84-9.62,2.15-14.56.17-2.75.47-2.92,2.64-3.92,2.78-1.28,5.47-2.82,8.19-4.29.96-.52,1.84-1.25,2.81-1.74,4.17-2.1,7.57-4.95,8.44-10.78.34-2.29,1.53-3.1,3.51-3.17,1.93-.06,3.58.81,5.19,1.95.39.28,1.01.11,1.52.15.03-.62.17-1.26.06-1.84-.11-.56-.43-1.09-.72-1.57-2.13-3.42-4.93-5.09-8.57-4.88-5.98.34-11.97.65-17.96.77-3.14.06-5.81.94-7.67,4.18-.31.54-.78.94-1.14,1.44-1.77,2.43-3.68,3.17-6.36,1.75-3.67-1.93-6.01-.25-6.9,4.44-.28,1.45-.47,2.92-.85,4.33-.76,2.89-2.53,3.74-4.73,2.26-.92-.61-1.77-1.39-2.6-2.16-1.42-1.31-2.95-1.71-4.68-1.04-.44.17-.91.45-1.33.37-.72-.13-1.7-.26-2.04-.83-.39-.66-.4-1.86-.21-2.72.2-.91.83-1.69,1.26-2.53,1.14-2.22,2.69-3.29,4.97-2.95,2,.3,2.64-.66,2.48-3.08-.17-2.52-1.15-4.47-2.79-6-1.03-.96-1.13-2.04-.28-3.25.56-.8,1.17-1.58,1.61-2.47.24-.49.44-1.41.23-1.76-1.22-2.01-2.15-4.21-4.26-5.44-3.34-1.97-6.68-3.48-10.45-2.84-3.01.51-6.01,1.1-8.99,1.8-2.82.66-3.8.34-5.36-2.53-1.01-1.86-2.4-2.99-4.15-3.58-.89-.3-1.77-.62-2.66-.88-1.46-.41-2.35-1.43-2.54-3.23-.36-3.39-3.13-4.51-4.57-6.88-.07-.11-.25-.18-.38-.19-1.97-.09-2.32-1.75-2.48-3.62-.07-.76-.03-1.62-.31-2.26-.52-1.17-1.04-2.75-1.91-3.21-3.05-1.6-6.21-2.21-9.46-.29-1.77,1.05-3.46,2.23-5.1,3.5-20.43,23.06-32.9,53.33-33.07,86.56-.28,55.44,33.76,103.05,82.18,122.68-.04-.22-.1-.47-.19-.77-.21-.66-.36-1.36-.49-2.06Z"/>
              <path class="cls-25" d="m2311.47,546.37c-.11,1.22-.55,1.98-1.37,2.65-1.51,1.23-2.32,2.99-2.2,5.2.18,3.24,1.08,6.17,3.26,8.24,1.19,1.13,1.31,2.22.92,3.85-.37,1.54-.61,3.23-.47,4.8.28,3.03.93,6.01,1.31,9.04.41,3.29,2.31,5.44,5.11,5.52.55.02,1.11-.02,1.66-.09,2.93-.42,3.3,0,4.24,3.32.44,1.54,1.15,3.26,2.19,4.17,1.34,1.17,2.11,2.45,2.42,4.31.11.69.35,1.37.61,2,1.25,2.99,2.93,3.95,5.66,3.17,1.03-.29,2.05-.69,3.01-1.2,6.39-3.4,13.11-5.47,19.89-7.44,3.24-.94,5.43-.35,7.54,2.87,3.09,4.74,3.7,4.75,8.32,2.47,3.46-1.71,6.97-2.65,10.76-2.51,1.78.07,3.62-.64,5.36-1.3,2.15-.82,4.19-2,6.31-2.94,2.86-1.27,5.5-.57,7.4,2.17,1.65,2.38,3.03,5.07,4.24,7.81.95,2.14,1.95,4.06,3.68,5.4.64.5,1.25,1.18,1.65,1.94,2.63,5.09,6.43,8.65,10.52,11.92,1.19.95,2.19,2.3,3.17,3.58,1.24,1.62,2.27,3.47,3.57,5,.96,1.13,1.99.83,2.35-.44-16.22-50.29-61.9-87.41-116.8-90.9-2.46,1.34-3.98,3.81-4.29,7.37Z"/>
              <path class="cls-9" d="m2418.94,654.63c-.18-3.35-.37-6.69-.57-10.03-.18-2.99-.73-5.02-1.79-6.59-1.56-2.32-3.38-3.87-5.56-4.74-3.44-1.37-5.88-3.86-7.25-7.39-.51-1.31-1.19-2.7-2.04-4.13-2.24-3.79-4.02-3.45-5.08-3.24-2.37.46-4.62.58-6.7.37-1.59-.16-4.56-.77-6.61-3.06-.52-.59-.69-.6-.88-.61-2.13-.14-5.19-.59-8.06-2.74-.32.28-.65.53-.98.76,1.17,1.89,1.19,4.34.06,6.58-.76,1.51-1.61,2.83-2.44,4.1l-.22.33c-.99,1.53-1.23,2.9-.8,4.45.88,3.1,1.89,6.28,3.09,9.71l.24.66c.71,1.96,1.68,4.64.85,7.84-.26.99-.16,1.78.34,2.82.69,1.43,1.22,2.87,1.74,4.25.76,2.05,1.43,2.01,2.21,1.97,1.45-.08,2.91-.16,4.36-.24l.03-.76,4.87.36c.43.04.86.07,1.29.1,1.13.07,2.41.16,3.75.43,7.55,1.56,7.23,7.87,7.12,9.95-.1,2.05-.26,4.09-.42,6.14-.13,1.69-.26,3.37-.36,5.06-.32,5.53-.57,10.21-.73,14.92,1.7.8,3.61,2.41,4.64,5.59l.11.34c.81,2.51,1.57,4.88,2.46,7.2.31.82.55,1.65.7,2.47,4.71-7.3,7.18-14.85,7.54-23.01.2-4.51,1.44-8.65,3.69-12.3,1.48-2.41,2.11-5.19,1.91-8.51-.18-3.01-.35-6.01-.51-9.02Z"/>
              <path class="cls-9" d="m2264.11,590.48c.76-.14,1.61-.23,2.53-.23,2.95.02,6.54,1.02,9.91,4.6,1.92,2.03,4.04,3.89,6.09,5.69.4.35.7.43,1.21.33.48-.09.97-.17,1.46-.25.82-.13,1.59-.25,2.17-.44.71-.23,1.36-.54,1.92-.89-1.27-3.27-2.58-6.64-3.97-9.85-1.21-2.78-2.49-2.71-3.27-2.68-.49.02-.98.03-1.47.03-.28,0-.56,0-.83,0-3.87.11-7.21-1.59-9.61-4.94-.57-.79-1.12-1.59-1.68-2.39-.56-.8-1.11-1.61-1.68-2.4-1.66-2.3-3.53-3.75-7.66-3.83-.47.07-2.01.73-3.75,2.35-.66.61-1.3,1.26-1.94,1.91-1.47,1.49-3,3.03-4.83,4.34-1.68,1.19-2.27,3.21-2.74,6.24,3.09-.08,5.68,1.74,7.09,4.91,1.72-.68,3.55-1.26,5.48-1.71,1.28-.3,2.51-.44,3.61-.56.66-.07,1.33-.14,1.98-.26Z"/>
              <path class="cls-9" d="m2384.67,698.92c-.88-1.37-2.06-3.48-2.23-5.9-.14-1.99.11-4.19.75-6.73.38-1.51-.52-2.91-.98-3.08-2.53.44-5.18.91-7.83,1.39-.02.44,0,.87.06,1.22.7,4.33,0,8.02-2.14,11.29-.21.32-.86,1.31.06,3.23.39.8.48.79,1.05.73l.79-.09c.83-.1,1.77-.22,2.77-.24,2.32-.04,7.73.63,8.01,8.09.04.91.02,1.82,0,2.74l-.02,1.83c.01.27.02.54.03.8.02.46.04.9.06,1.34.63-.43,1.2-.96,1.71-1.63-1.04-4.18-1.16-8.21-1.21-12.66,0-.58-.16-1.18-.9-2.33Z"/>
              <path class="cls-9" d="m2234.33,604.46c-.49-.9-.99-1.22-1.57-1.42l-.75-.26c-.56-.19-1.13-.39-1.69-.55-3.35-.95-5.49-3.56-5.87-7.18-.05-.49-.26-.78-1.39-1.92-.42-.42-.89-.9-1.36-1.45-2.06-.73-4.27-2.65-4.68-7.41-.02-.24-.03-.48-.05-.73,0-.12,0-.24-.02-.36-.06-.14-.12-.28-.18-.42-.08-.19-.18-.43-.27-.63-2.25-1-3.36-.55-4.23-.04-1.37.81-2.77,1.76-4.29,2.91-20.24,23-31.46,52.53-31.62,83.19-.23,45.44,23.26,86.5,61.23,109.35.03-.52.1-1.08.23-1.66.42-1.93.15-3.9-.85-6.37-.35-.85-.62-1.07-.64-1.08,0,0-.15-.04-.46,0-1.78.16-3.86.28-5.98-.41-2.08-.68-4.67-2.38-5.68-5.08l-.27-.72c-1.98-5.32-4.04-10.81-4.37-17.19-.01-.24-.04-.73-.07-1.19-.08-.02-.18-.04-.28-.07-4.79-1.14-7.73-4.6-9.76-7.48-2.29-3.26-2.51-7.26-.59-10.7.85-1.52,1.86-2.83,2.75-3.98l.36-.47c2.41-3.15,3.39-5.78,3.26-8.79-.06-1.51-.16-3.79,1.69-5.53,1.82-1.72,4.06-1.51,5.14-1.4,6.85.65,12.42,1.78,17.54,3.57,2.89,1.01,5.3,2.77,7.16,5.25.47.63.93,1.27,1.39,1.92.81,1.13,1.57,2.2,2.37,3.13,3.06,3.57,4.22,7.55,3.43,11.85-.27,2.23.27,4,1.72,5.73.6.72,1.2,1.44,1.79,2.17,1.02,1.25,1.98,2.42,2.98,3.54.31.35.65.69,1,1.02,2.99-2.8,6.41-4.17,9.49-5.4,3.37-1.35,6.78-1.54,10.21-.61,3.19.87,5.95,1.63,8.53,1.11,1.16-.24,5.15-.62,7.6,4.22.44.86.86,1.74,1.28,2.61.64,1.33,1.25,2.58,1.9,3.79.08.15.15.28.22.4,2.13-1.3,4.99-2.79,8.47-2.97.97-.05,1.94-.13,2.91-.21.85-.07,1.7-.14,2.56-.2,6.72-.42,8.19,3.45,8.78,7.69.05.35.08.69.11,1.03.21,2.32.9,3.27,1.48,3.83.04.04.08.08.12.12.05-2.34.02-4.81-.07-7.44-.1-2.85-.82-5.22-2.12-7.06-1.36-1.91-2.8-3.72-4.34-5.64l-.36-.44c-.91-1.14-1.88-2.25-2.9-3.42-2.28-2.62-4.64-5.32-6.55-8.6-2.67-4.57-5.35-6.69-8.96-7.08-3.61-.4-6.44-2.63-7.97-6.3-.16-.37-.34-.62-.41-.69-2.54-2.68-3.67-6-3.46-10.16.09-1.72-.43-2.99-1.62-4-.55-.46-1.11-.92-1.67-1.37-.62-.5-1.24-1.01-1.86-1.53-3.8-3.22-6.04-8.97-5.7-14.65.32-5.29,2.83-9.87,6.9-12.56.78-.52,1.91-1.51,2.73-4.22,1.3-4.32,1.68-9.05,1.96-13.52.3-4.72,1.88-6.23,5.31-7.82,2.07-.96,4.1-2.07,6.25-3.25l1.68-.92c.32-.17.63-.39.94-.6.57-.38,1.22-.82,2-1.21,3.82-1.92,5.44-3.91,5.95-7.35.22-1.49.71-2.78,1.43-3.83-4.38.23-9.1.44-13.75.53-2.33.05-3.04.61-3.76,1.87-.42.72-.89,1.26-1.2,1.62-.07.08-.14.16-.21.24-3.18,4.37-7.61,5.52-12.16,3.16-.1.29-.2.68-.3,1.19-.08.42-.16.85-.23,1.28-.19,1.08-.38,2.19-.68,3.36-1,3.81-3.17,5.36-4.82,5.98-1.28.48-3.88.99-6.94-1.06-1.18-.79-2.21-1.72-3.17-2.6-.72.23-2.04.78-3.69.48l-.16-.03c-1.09-.19-3.64-.64-5.03-3-1.4-2.38-.92-5.24-.74-6.06.3-1.37.92-2.39,1.37-3.14.1-.17.21-.34.3-.52,1.83-3.55,4.33-4.91,6.53-5.34-.21-.44-.51-.83-.91-1.2-2.73-2.54-3.08-6.18-.91-9.27l.34-.48c.11-.15.21-.3.32-.44-.57-.98-1.08-1.79-1.65-2.12-2.86-1.68-5.09-2.65-7.34-2.27-3.13.53-5.98,1.11-8.71,1.75-4.93,1.15-7.96-.24-10.46-4.81Z"/>
              <path class="cls-9" d="m2318.75,539.02c-.45.53-.91,1.43-1.05,3.05-.21,2.42-1.21,4.32-3.05,5.82-.29.23-.56.53-.51,1.37.13,2.43.73,4.11,1.83,5.16,3.43,3.25,2.52,7.03,2.22,8.27-.4,1.65-.41,2.71-.36,3.3.15,1.58.41,3.18.69,4.88.22,1.33.44,2.67.61,4.01.13,1.02.45,1.42.53,1.47,0,0,.04.02.14.02.29,0,.58,0,.87-.05.73-.1,1.4-.15,2.01-.15,4.94.03,6.34,3.33,7.32,6.77.36,1.27.74,1.89.85,2.02,2.15,1.88,3.4,4.12,3.87,6.99.03.16.1.45.31.96.09.21.17.37.23.5.73-.21,1.41-.48,2.03-.81,6.78-3.6,13.69-5.74,20.77-7.8,5.41-1.57,9.56,0,12.68,4.78.45.69.78,1.17,1.03,1.52.52-.23,1.09-.52,1.39-.66,4.39-2.17,8.64-3.15,12.98-2.98.81,0,2.26-.51,3.53-1,1.08-.41,2.19-.96,3.37-1.55.9-.45,1.81-.9,2.72-1.3,4.41-1.95,8.88-1.01,12.02,2.45-21.67-26.71-53.82-44.32-89.02-47.03Z"/>
              <path class="cls-9" d="m2415.65,654.81c-.18-3.34-.37-6.68-.57-10.01-.14-2.37-.53-3.89-1.24-4.95-1.2-1.78-2.48-2.9-4.05-3.52-4.27-1.7-7.41-4.9-9.1-9.26-.44-1.14-1.05-2.37-1.8-3.65-.89-1.51-1.42-1.76-1.43-1.76,0,.03-.1.06-.2.08-2.67.51-5.24.65-7.65.42-1.98-.2-5.61-.95-8.37-3.75-1.1-.11-2.37-.32-3.72-.73-.15,1.22-.52,2.44-1.11,3.6-.84,1.67-1.79,3.13-2.62,4.41l-.22.33c-.57.89-.53,1.29-.39,1.76.87,3.04,1.86,6.16,3.03,9.53l.23.63c.75,2.08,2.03,5.58.94,9.78-.03.12-.03.17-.03.17,0,0,.01.1.15.39.72,1.5,1.28,2.98,1.77,4.31l.39-.02.04-1.18,8.28.61c.46.04.86.07,1.26.09,1.18.08,2.64.17,4.2.49,3.85.8,10.24,3.58,9.75,13.34-.1,2.08-.26,4.15-.42,6.22-.13,1.68-.26,3.34-.36,5-.27,4.78-.5,8.89-.66,12.93,1.67,1.24,3.39,3.23,4.41,6.38l.11.33c.26.82.52,1.63.79,2.42,2.12-4.77,3.27-9.69,3.5-14.89.22-5.08,1.63-9.75,4.17-13.88,1.13-1.84,1.58-3.93,1.43-6.58-.18-3.01-.35-6.02-.51-9.03Z"/>
              <path class="cls-9" d="m2254.48,589.01c1.07-.34,2.16-.64,3.29-.91,1.49-.35,2.88-.51,4.01-.63l.15-.02c.54-.06,1.07-.11,1.6-.21,2.82-.51,5.63-.31,8.22.58-1.57-1.02-2.98-2.38-4.17-4.04-.58-.8-1.14-1.62-1.71-2.43-.58-.83-1.11-1.6-1.65-2.35-.98-1.36-1.85-2.28-4.5-2.44-.4.2-1.15.66-2.01,1.45-.61.56-1.19,1.16-1.78,1.75-1.56,1.58-3.26,3.3-5.33,4.77-.26.19-.48.49-.68.97,1.76.69,3.32,1.88,4.55,3.49Z"/>
              <path class="cls-9" d="m2284.14,597.48c.22-.04.44-.07.66-.1.1-.02.19-.03.29-.05-.85-2.16-1.76-4.42-2.7-6.57-.14-.32-.26-.54-.35-.69-.46.02-.91.02-1.36.02-.31,0-.52,0-.73,0-1.7.05-3.34-.18-4.87-.67,1.37.85,2.66,1.91,3.85,3.17,1.61,1.7,3.42,3.32,5.2,4.89Z"/>
              <path class="cls-9" d="m2379.66,687.01c-.57.1-1.15.2-1.72.31.27,3.72-.41,7.13-2.03,10.18.32-.02.65-.04.99-.05.1,0,.2,0,.3,0,1.05,0,2.11.13,3.14.39-.58-1.33-1.06-2.87-1.18-4.59-.13-1.92.03-3.98.49-6.24Z"/>
              <path class="cls-9" d="m2293.69,631.53c-3.2,4.39-7.69,6.33-12.33,5.52-.14.75-.3,1.54-.52,2.36-1.43,5.45-4.9,7.49-6.84,8.22-1.87.71-5.65,1.47-9.94-1.4-.79-.53-1.52-1.11-2.18-1.68-.94.2-2.11.3-3.42.06l-.16-.03c-1.26-.22-5.12-.9-7.28-4.56-1.96-3.32-1.44-7.01-1.12-8.44.42-1.9,1.26-3.3,1.77-4.13.1-.17.15-.25.19-.33,1.24-2.4,2.75-4.02,4.28-5.11-1.77-3.01-1.84-6.62-.1-9.86-2.1-1.17-3.34-1.57-4.32-1.4-3.06.52-5.84,1.08-8.51,1.71-6.39,1.5-10.87-.54-14.08-6.4l-.52-.18c-.56-.19-1.04-.36-1.53-.5-4.45-1.26-7.47-4.75-8.17-9.4-.12-.13-.29-.3-.53-.55-.32-.32-.65-.66-.98-1.02-2.26-1.06-5.3-3.56-5.95-9.41-1.13.68-2.29,1.47-3.54,2.4-19.57,22.36-30.43,51.04-30.58,80.79-.18,35.75,14.45,68.7,40.03,91.94-1.53-4.27-2.9-8.74-3.32-13.84-4.7-1.81-7.68-5.43-9.59-8.14-3.04-4.32-3.32-9.63-.77-14.2.97-1.73,2.1-3.2,3.01-4.38l.36-.47c1.92-2.51,2.67-4.44,2.58-6.64-.07-1.71-.22-5.28,2.71-8.06,2.91-2.76,6.41-2.42,7.72-2.29,7.11.67,12.93,1.86,18.3,3.73,3.52,1.23,6.45,3.38,8.71,6.39.47.63.93,1.27,1.38,1.91.82,1.15,1.54,2.16,2.23,2.97,3.66,4.26,5.11,9.26,4.2,14.47-.14,1.27.13,2.12.98,3.13.6.7,1.18,1.42,1.77,2.14.64.79,1.25,1.52,1.83,2.22,2.72-1.89,5.55-3.02,7.93-3.97,4.03-1.61,8.17-1.86,12.3-.73,2.8.76,5.2,1.42,7.01,1.06,3.58-.73,8.41.46,11.19,5.96.45.88.88,1.77,1.31,2.67.19.38.37.76.55,1.13,1.94-.89,4.25-1.63,6.91-1.77.9-.05,1.8-.12,2.7-.2.99-.08,1.86-.16,2.73-.21,1.25-.08,2.37-.03,3.38.11-.57-.73-1.16-1.47-1.77-2.22l-.36-.45c-.87-1.09-1.81-2.17-2.81-3.31-2.38-2.74-4.84-5.56-6.91-9.1-2.61-4.47-4.65-5.27-6.48-5.47-4.76-.52-8.63-3.51-10.62-8.22-3-3.28-4.4-7.44-4.15-12.37.04-.83-.16-1.06-.46-1.32-.53-.45-1.07-.89-1.61-1.33-.64-.52-1.28-1.04-1.91-1.57-4.56-3.87-7.25-10.68-6.85-17.36.38-6.34,3.43-11.84,8.37-15.11.2-.13.82-.54,1.39-2.42,1.2-3.99,1.56-8.5,1.83-12.78.39-6.26,2.94-8.62,7.21-10.6,1.95-.9,3.92-1.98,6.01-3.12l1.73-.94c.19-.1.36-.22.54-.34l.16-.11c.61-.41,1.38-.92,2.34-1.41,3.09-1.55,3.82-2.73,4.15-4.71-2.75.12-5.87.24-8.98.3-.47,0-.74.04-.89.07-.03.04-.05.09-.08.14-.58,1.01-1.21,1.72-1.59,2.15h-.02Z"/>
              <path class="cls-9" d="m2373.91,584.4c4.43-2,8.77-2.91,13.21-2.75.23-.03.83-.19,2.38-.78.93-.36,1.97-.87,3.07-1.42.95-.47,1.9-.94,2.85-1.37,1.06-.47,2.13-.8,3.19-1.02-20.45-20.96-47.73-34.24-76.64-37.06-.29,2.89-1.45,5.33-3.48,7.26.17,1.54.57,2.09.75,2.26,2.19,2.08,4.51,5.75,3.16,11.42-.33,1.37-.3,2.06-.28,2.24.13,1.46.39,2.99.66,4.62.14.86.28,1.71.41,2.57,8.27-.27,10.19,6.37,10.99,9.16.11.39.21.66.29.83,1.83,1.71,3.12,3.69,3.89,5.99,6.53-3.26,13.1-5.28,19.8-7.23,6.46-1.87,11.89-.04,15.76,5.28Z"/>
              <path class="cls-9" d="m2406.43,644.2c-6.14-2.52-10.88-7.25-13.45-13.4-1.42.04-2.82,0-4.19-.14-1.55-.15-3.79-.54-6.23-1.47.54,1.71,1.12,3.46,1.76,5.3l.2.56c.61,1.68,1.66,4.57,1.84,8.24l2.43.18c.34.03.64.05.93.07,1.46.1,3.33.22,5.47.66,4.87,1.01,8.83,3.29,11.67,6.53-.1-1.81-.21-3.61-.32-5.42-.03-.53-.08-.89-.11-1.11Z"/>
              <path class="cls-9" d="m2275.23,716.86c-3.18-3.92-5.01-8.65-5.39-13.89-.34-.28-.68-.56-1.01-.84-6.64-5.64-10.42-14.98-9.86-24.39.5-8.25,4.23-15.57,10.35-20.4.24-.94.42-1.94.58-2.96-4.93.94-10.12-.16-14.62-3.18-.83-.08-1.6-.16-2.36-.3l-.16-.03c-7.4-1.31-11.23-5.41-13.13-8.63-3.51-5.95-2.65-12.21-2.11-14.63.72-3.28,2.12-5.6,2.8-6.72.46-.86.92-1.63,1.41-2.37-.19.04-.39.09-.58.13-8.92,2.09-16.47-.58-21.59-7.54-5.89-2.05-10.34-6.63-12.3-12.5-.64-.43-1.31-.94-1.97-1.54-15.03,19.79-23.3,44.01-23.43,69.02-.09,17.9,3.7,34.97,11.01,50.35,1.07-1.74,2.17-3.16,3.01-4.25l.36-.46c.5-.66.72-1.04.81-1.21-.1-2.42-.25-9.14,5.39-14.48,3.32-3.15,7.45-4.73,12.28-4.71.71,0,1.43.04,2.16.11,7.79.74,14.24,2.06,20.28,4.17,5.16,1.8,9.44,4.94,12.74,9.33.51.68,1.01,1.38,1.5,2.07.68.95,1.31,1.84,1.76,2.36,3.99,4.65,6.22,10.13,6.5,15.84.18-.07.36-.15.54-.22,5.79-2.32,11.76-2.67,17.74-1.04,1.19.33,2.76.76,3.48.84.1-.02.2-.03.3-.05-2.67-2.03-4.89-4.7-6.47-7.89Z"/>
              <path class="cls-9" d="m2384.63,569.6c-15.19-12.15-33.12-20.31-52.1-23.64,1.78,4.01,2.17,8.57,1.06,13.24,4.23,1.7,8.6,5.21,11.13,12.52,4.73-1.84,9.41-3.26,13.9-4.56,7.63-2.2,14.79-.89,20.42,3.57,1.86-.53,3.72-.91,5.6-1.13Z"/>
              <path class="cls-9" d="m2251.34,674.21c.41-6.85,2.68-13.12,6.53-18.26-2.33-.61-4.6-1.57-6.75-2.86-.5-.06-1.01-.13-1.51-.22l-.15-.03c-9.37-1.65-14.28-6.97-16.74-11.14-4.46-7.56-3.39-15.42-2.72-18.45.15-.69.33-1.34.52-1.96-6.51-.61-12.2-3.67-16.59-9-4.57-1.93-8.4-5.11-11.09-9.17-11.59,17.66-17.96,38.62-18.07,59.8-.06,12.51,1.82,24.55,5.62,35.95,1.11-3.79,3.13-7.09,6.05-9.86,4.33-4.11,9.7-6.18,15.93-6.15.88,0,1.77.05,2.66.14,8.2.78,15.04,2.19,21.49,4.44,6.17,2.15,11.29,5.9,15.22,11.15.54.72,1.06,1.44,1.58,2.17.52.73,1.17,1.65,1.46,1.98,3.21,3.74,5.48,7.96,6.71,12.44,1.82-.39,3.65-.62,5.49-.68-2.34-3.6-3.87-7.7-4.51-12.07-7.52-6.72-11.77-17.46-11.13-28.22Z"/>
              <path class="cls-9" d="m2347.54,563.26c3.41-1.17,6.68-2.14,9.62-2.99,1.53-.44,3.05-.77,4.56-.97-7.11-3.57-14.57-6.36-22.25-8.3.05,1.16.03,2.32-.08,3.5,2.84,1.78,5.8,4.52,8.15,8.77Z"/>
              <path class="cls-4" d="m2307.96,538.73c-3.44-.02-6.85.1-10.22.34,57.81,4.89,103.08,53.48,102.78,112.5-.32,62.06-50.88,112.11-112.94,111.79-59.02-.3-107.14-46.06-111.44-103.93-.28,3.37-.43,6.78-.44,10.22-.37,72.68,58.24,131.9,130.93,132.28,72.68.37,131.9-58.24,132.28-130.93.37-72.68-58.24-131.9-130.93-132.28Z"/>
              <path class="cls-1" d="m2317.4,551.56c32.06.16,76.41,26.22,99.14,45.39-23.5-34.92-63.31-57.99-108.58-58.22-72.68-.37-131.9,58.24-132.28,130.93-.21,40.62,18.01,77.03,46.82,101.32-14.23-21.15-37.52-61.08-37.38-88.49.37-72.68,59.59-131.3,132.28-130.93Z"/>
              <path class="cls-3" d="m2307.96,538.73c72.68.37,131.3,59.59,130.93,132.28-.37,72.68-59.59,131.3-132.28,130.93-72.68-.37-131.3-59.59-130.93-132.28.37-72.68,59.59-131.3,132.28-130.93h0Z"/>
              <path class="cls-7" d="m2350.4,647.27c-25.11,37.85-107.05,64.37-161.97,14.34-24.17-22.01,13.04-76.6,35.23-92.89,41.31-30.35,96.08-38.63,120.47-18.57,35.52,29.21,21.12,74.75,6.27,97.13Z"/>
              <path class="cls-16" d="m2205.53,682.53c21.06,17.47,51.4,32.67,85.42,42.82,34.02,10.14,67.73,14.03,94.92,10.95,20.14-2.28,35.08-8.24,43.58-17.15,1.65-4.03,3.12-8.17,4.39-12.43-8.84,29.66-72.48,36.88-142.13,16.11-69.65-20.77-118.95-61.65-110.1-91.31-1.27,4.26-2.31,8.53-3.14,12.8,2.23,12.11,11.46,25.27,27.07,38.22Z"/>
              <path class="cls-8" d="m2290.95,725.34c-34.02-10.14-65.62-23.92-85.42-42.82-19.89-18.98-24.84-26.1-27.07-38.22,2.23,12.11,10.21,26.08,25.81,39.03,21.06,17.47,52.01,33.68,86.03,43.82,34.02,10.14,68.37,13.35,95.56,10.26,20.14-2.28,35.08-9.37,43.58-18.28-8.5,8.92-23.43,14.87-43.58,17.15-27.19,3.08-60.9-.81-94.92-10.95Z"/>
            </g>
            <path class="cls-19" d="m2350.57,558.03c35.16,23.01,56.79,69.86,61.83,90.76,5.05,20.9,18.26.75,3.12-24.49-15.14-25.24-43.07-56.23-62.5-66.08l-2.46-.19Z"/>
            <polygon class="cls-10" points="2358.88 535.89 2350.57 558.03 2353.46 559.27 2361.65 537.22 2358.88 535.89"/>
            <path class="cls-14" d="m2353.3,526.71l-3.23,8.58c74.3,28.81,113.84,107.65,88.69,180-25.9,74.53-110.66,114.04-189.75,88.74l-3.21,8.54c95.32,30.83,194.69-8.26,222.29-87.64,26.88-77.34-24.27-164.46-114.79-198.22Z"/>
            <g class="cls-20">
              <path class="cls-21" d="m2468.09,724.92c19.77-56.89-2.7-119.03-51.97-161.37,40.43,38.64,56.85,95.37,37.35,148.71-20.98,57.39-77.62,94.59-140.52,98.65-20.87,2.02-42.59-.05-63.9-6.87l-.71,1.79-2.43,6.46c24.65,7.56,49.55,10.94,73.58,10.63,68.36-2.56,128.17-39.21,148.6-98Z"/>
            </g>
            <path class="cls-5" d="m2307.96,538.73c72.68.37,131.3,59.59,130.93,132.28-.37,72.68-59.59,131.3-132.28,130.93-72.68-.37-131.3-59.59-130.93-132.28.37-72.68,59.59-131.3,132.28-130.93h0Z"/>
          </g>
        </g>
      </g>
    </g>
  </g>
</svg>