<?xml version="1.0" encoding="UTF-8"?>
<svg xmlns="http://www.w3.org/2000/svg" xmlns:xlink="http://www.w3.org/1999/xlink" viewBox="0 0 3575 1300">
  <defs>
    <style>
      .cls-1 {
        fill: url(#_491-3);
      }

      .cls-1, .cls-2, .cls-3, .cls-4, .cls-5, .cls-6, .cls-7, .cls-8, .cls-9, .cls-10, .cls-11, .cls-12, .cls-13, .cls-14, .cls-15, .cls-16, .cls-17, .cls-18, .cls-19, .cls-20, .cls-21, .cls-22, .cls-23, .cls-24, .cls-25, .cls-26, .cls-27, .cls-28, .cls-29, .cls-30, .cls-31, .cls-32, .cls-33, .cls-34, .cls-35, .cls-36, .cls-37, .cls-38, .cls-39, .cls-40, .cls-41, .cls-42, .cls-43, .cls-44, .cls-45, .cls-46 {
        mix-blend-mode: multiply;
      }

      .cls-1, .cls-7, .cls-8, .cls-47, .cls-14, .cls-15, .cls-48, .cls-49, .cls-18, .cls-50, .cls-22, .cls-24, .cls-51, .cls-27, .cls-31, .cls-35, .cls-40, .cls-46 {
        opacity: .5;
      }

      .cls-2, .cls-4, .cls-12, .cls-16, .cls-19, .cls-25, .cls-26, .cls-41, .cls-52, .cls-45 {
        opacity: .3;
      }

      .cls-2, .cls-7, .cls-47, .cls-14, .cls-53, .cls-52 {
        fill: #912774;
      }

      .cls-3 {
        fill: url(#_584-5);
      }

      .cls-3, .cls-5, .cls-9, .cls-11, .cls-13, .cls-20, .cls-23, .cls-29, .cls-30, .cls-32, .cls-33, .cls-34, .cls-36, .cls-37, .cls-42, .cls-43, .cls-44 {
        opacity: .6;
      }

      .cls-4 {
        fill: url(#_77-2);
      }

      .cls-54, .cls-55 {
        fill: #fff;
      }

      .cls-5 {
        fill: url(#_584-8);
      }

      .cls-56 {
        fill: url(#_64);
      }

      .cls-6, .cls-57, .cls-55, .cls-14, .cls-48, .cls-17, .cls-58, .cls-59, .cls-60, .cls-61, .cls-62, .cls-63, .cls-38, .cls-39, .cls-64, .cls-65, .cls-66 {
        fill-rule: evenodd;
      }

      .cls-6, .cls-10, .cls-21, .cls-39 {
        opacity: .7;
      }

      .cls-6, .cls-21 {
        fill: #1f0042;
      }

      .cls-57 {
        fill: url(#_194-8);
      }

      .cls-8 {
        fill: url(#_491-10);
      }

      .cls-9 {
        fill: url(#_584-15);
      }

      .cls-10, .cls-39 {
        fill: #5c1a5c;
      }

      .cls-47, .cls-61, .cls-67, .cls-68 {
        mix-blend-mode: soft-light;
      }

      .cls-69 {
        fill: url(#_452-2);
      }

      .cls-70 {
        fill: #395ab1;
      }

      .cls-71 {
        fill: url(#_194-7);
      }

      .cls-11 {
        fill: url(#_584-11);
      }

      .cls-72 {
        fill: #36193b;
      }

      .cls-12 {
        fill: url(#_109);
      }

      .cls-13 {
        fill: url(#_584-9);
      }

      .cls-73 {
        fill: #444bab;
      }

      .cls-74 {
        fill: #a18ef0;
      }

      .cls-75 {
        isolation: isolate;
      }

      .cls-55, .cls-48, .cls-49, .cls-50, .cls-59, .cls-76, .cls-51, .cls-77, .cls-78, .cls-79, .cls-80, .cls-64 {
        mix-blend-mode: screen;
      }

      .cls-15 {
        fill: url(#_491);
      }

      .cls-48 {
        fill: url(#_212-2);
      }

      .cls-81 {
        fill: #3b3b9c;
      }

      .cls-16 {
        fill: url(#_109-5);
      }

      .cls-82 {
        fill: url(#_452);
      }

      .cls-17 {
        fill: url(#_18);
      }

      .cls-49 {
        fill: url(#_212-3);
      }

      .cls-18 {
        fill: url(#_491-8);
      }

      .cls-83 {
        fill: #5a208a;
      }

      .cls-84 {
        fill: url(#_24);
      }

      .cls-85 {
        fill: #36092d;
      }

      .cls-50 {
        fill: url(#_309);
      }

      .cls-19 {
        fill: url(#_109-3);
      }

      .cls-86 {
        fill: #5479f0;
      }

      .cls-58, .cls-87 {
        fill: #311d85;
      }

      .cls-20 {
        fill: url(#_584-12);
      }

      .cls-59, .cls-77 {
        fill: #4b419e;
        opacity: .49;
      }

      .cls-22 {
        fill: url(#_491-2);
      }

      .cls-23 {
        fill: url(#_584-10);
      }

      .cls-88 {
        fill: #403396;
      }

      .cls-60, .cls-89 {
        fill: #111238;
      }

      .cls-24 {
        fill: #834f9e;
      }

      .cls-76 {
        fill: url(#_351-2);
      }

      .cls-76, .cls-78, .cls-38 {
        opacity: .2;
      }

      .cls-51 {
        fill: url(#_212);
      }

      .cls-61, .cls-68 {
        fill: #abc5ff;
      }

      .cls-25 {
        fill: url(#_109-4);
      }

      .cls-26 {
        fill: url(#_109-6);
      }

      .cls-78 {
        fill: url(#_351);
      }

      .cls-27 {
        fill: url(#_491-5);
      }

      .cls-28 {
        fill: #d46baa;
        opacity: .8;
      }

      .cls-90 {
        fill: url(#_194-2);
      }

      .cls-91 {
        fill: #4a64ab;
      }

      .cls-29 {
        fill: url(#_584);
      }

      .cls-30 {
        fill: url(#_584-16);
      }

      .cls-62 {
        fill: url(#_194-10);
      }

      .cls-79, .cls-64 {
        fill: #7db0e3;
        opacity: .09;
      }

      .cls-31 {
        fill: url(#_491-7);
      }

      .cls-92 {
        clip-path: url(#clippath);
      }

      .cls-32 {
        fill: url(#_584-17);
      }

      .cls-93 {
        fill: none;
      }

      .cls-63 {
        fill: url(#_194-9);
      }

      .cls-94 {
        fill: url(#_194-4);
      }

      .cls-33 {
        fill: url(#_584-6);
      }

      .cls-34 {
        fill: url(#_584-4);
      }

      .cls-95 {
        fill: url(#_194-3);
      }

      .cls-35 {
        fill: url(#_491-4);
      }

      .cls-80 {
        fill: url(#_127);
        opacity: .61;
      }

      .cls-96 {
        fill: #150f3d;
      }

      .cls-97 {
        fill: url(#_20);
      }

      .cls-98 {
        fill: url(#_194-5);
      }

      .cls-99 {
        fill: url(#_64-2);
      }

      .cls-36 {
        fill: url(#_584-3);
      }

      .cls-100 {
        fill: url(#_194);
      }

      .cls-101 {
        fill: url(#_64-3);
      }

      .cls-37 {
        fill: url(#_584-2);
      }

      .cls-38 {
        fill: #7f6593;
      }

      .cls-40 {
        fill: url(#_491-9);
      }

      .cls-41 {
        fill: url(#_77);
      }

      .cls-42 {
        fill: url(#_584-7);
      }

      .cls-102 {
        fill: #39247d;
      }

      .cls-43 {
        fill: url(#_584-14);
      }

      .cls-67 {
        fill: url(#_370);
        opacity: .22;
      }

      .cls-52 {
        mix-blend-mode: overlay;
      }

      .cls-44 {
        fill: url(#_584-13);
      }

      .cls-103 {
        fill: #5770b1;
      }

      .cls-104 {
        fill: url(#_194-6);
      }

      .cls-45 {
        fill: url(#_109-2);
      }

      .cls-46 {
        fill: url(#_491-6);
      }

      .cls-65 {
        fill: #b771f0;
      }

      .cls-66 {
        fill: #3471c0;
      }

      .cls-105 {
        fill: #3f3fa6;
      }
    </style>
    <clipPath id="clippath">
      <rect class="cls-93" width="3575" height="1300"/>
    </clipPath>
    <linearGradient id="_77" data-name="  77" x1="1848" y1="381.31" x2="1848" y2="442.06" gradientUnits="userSpaceOnUse">
      <stop offset="0" stop-color="#ae429a"/>
      <stop offset="1" stop-color="#e08368"/>
    </linearGradient>
    <linearGradient id="_77-2" data-name="  77" x1="1684.06" y1="387.32" x2="1684.06" y2="445.18" xlink:href="#_77"/>
    <linearGradient id="_194" data-name="  194" x1="1726.34" y1="164.49" x2="1759.63" y2="164.49" gradientUnits="userSpaceOnUse">
      <stop offset="0" stop-color="#312461"/>
      <stop offset="1" stop-color="#503557"/>
    </linearGradient>
    <linearGradient id="_194-2" data-name="  194" x1="1790.35" y1="166.37" x2="1745.68" y2="156.97" xlink:href="#_194"/>
    <linearGradient id="_194-3" data-name="  194" x1="1710.39" y1="214.23" x2="1805.47" y2="214.23" xlink:href="#_194"/>
    <linearGradient id="_584" data-name="  584" x1="1710.39" y1="205.41" x2="1805.47" y2="205.41" gradientUnits="userSpaceOnUse">
      <stop offset="0" stop-color="#b66054"/>
      <stop offset="1" stop-color="#707380"/>
    </linearGradient>
    <radialGradient id="_64" data-name="  64" cx="1776.2" cy="289.98" fx="1776.2" fy="289.98" r="25.35" gradientUnits="userSpaceOnUse">
      <stop offset="0" stop-color="#f3d79b"/>
      <stop offset="1" stop-color="#f09976"/>
    </radialGradient>
    <linearGradient id="_491" data-name="  491" x1="1764.2" y1="348.4" x2="1798.94" y2="348.4" gradientUnits="userSpaceOnUse">
      <stop offset="0" stop-color="#fff"/>
      <stop offset="1" stop-color="#cf7c7d"/>
    </linearGradient>
    <linearGradient id="_584-2" data-name="  584" x1="1771.54" y1="413.51" x2="1807.32" y2="413.51" xlink:href="#_584"/>
    <linearGradient id="_584-3" data-name="  584" y1="427.1" x2="1851.7" y2="427.1" xlink:href="#_584"/>
    <linearGradient id="_584-4" data-name="  584" x1="1759.5" y1="443.5" x2="1809.39" y2="443.5" xlink:href="#_584"/>
    <linearGradient id="_491-2" data-name="  491" x1="1775.7" y1="455.73" x2="1793.44" y2="455.73" xlink:href="#_491"/>
    <radialGradient id="_64-2" data-name="  64" cx="1984" fx="1984" r="25.35" xlink:href="#_64"/>
    <linearGradient id="_491-3" data-name="  491" x1="1972" x2="2006.74" xlink:href="#_491"/>
    <linearGradient id="_584-5" data-name="  584" x1="1979.34" y1="413.51" x2="2015.12" y2="413.51" xlink:href="#_584"/>
    <linearGradient id="_584-6" data-name="  584" x1="1918.19" y1="427.1" x2="2059.5" y2="427.1" xlink:href="#_584"/>
    <linearGradient id="_584-7" data-name="  584" x1="1967.3" y1="443.5" x2="2017.19" y2="443.5" xlink:href="#_584"/>
    <linearGradient id="_491-4" data-name="  491" x1="2551.01" y1="471.29" x2="2581.49" y2="471.29" gradientTransform="translate(4489.6) rotate(-180) scale(1 -1)" xlink:href="#_491"/>
    <linearGradient id="_584-8" data-name="  584" x1="1983.5" y1="455.95" x2="1999.93" y2="455.95" xlink:href="#_584"/>
    <radialGradient id="_64-3" data-name="  64" cx="1535.23" fx="1535.23" r="25.35" xlink:href="#_64"/>
    <linearGradient id="_491-5" data-name="  491" x1="1523.22" x2="1557.96" xlink:href="#_491"/>
    <linearGradient id="_584-9" data-name="  584" x1="1530.57" y1="413.51" x2="1566.34" y2="413.51" xlink:href="#_584"/>
    <linearGradient id="_584-10" data-name="  584" x1="1469.41" y1="427.1" x2="1610.73" y2="427.1" xlink:href="#_584"/>
    <linearGradient id="_584-11" data-name="  584" x1="1518.52" y1="443.5" x2="1568.41" y2="443.5" xlink:href="#_584"/>
    <linearGradient id="_491-6" data-name="  491" x1="1598.72" y1="463.65" x2="1629.21" y2="463.65" xlink:href="#_491"/>
    <linearGradient id="_491-7" data-name="  491" x1="1536.83" y1="455.95" x2="1553.26" y2="455.95" xlink:href="#_491"/>
    <linearGradient id="_194-4" data-name="  194" x1="1397.16" y1="695.39" x2="1460.53" y2="695.39" xlink:href="#_194"/>
    <linearGradient id="_194-5" data-name="  194" x1="1402.08" y1="743.1" x2="1456.5" y2="743.1" xlink:href="#_194"/>
    <linearGradient id="_584-12" data-name="  584" x1="1402.08" y1="668.43" x2="1463.88" y2="668.43" xlink:href="#_584"/>
    <linearGradient id="_194-6" data-name="  194" x1="2893.16" y1="5677.76" x2="2856.07" y2="5662.93" gradientTransform="translate(-2835.95 -3971.67) rotate(-13.44)" xlink:href="#_194"/>
    <linearGradient id="_194-7" data-name="  194" x1="2822.37" y1="5712.41" x2="2947.87" y2="5712.41" gradientTransform="translate(-2835.95 -3971.67) rotate(-13.44)" xlink:href="#_194"/>
    <linearGradient id="_584-13" data-name="  584" x1="2846.21" y1="5774.89" x2="2881.44" y2="5774.89" gradientTransform="translate(-2835.95 -3971.67) rotate(-13.44)" xlink:href="#_584"/>
    <radialGradient id="_127" data-name="  127" cx="2778.06" cy="5822.26" fx="2778.06" fy="5822.26" r="58.73" gradientTransform="translate(-2835.95 -3971.67) rotate(-13.44)" gradientUnits="userSpaceOnUse">
      <stop offset=".03" stop-color="#c30"/>
      <stop offset=".12" stop-color="#c33000"/>
      <stop offset=".28" stop-color="#ac2b00"/>
      <stop offset=".47" stop-color="#872100"/>
      <stop offset=".69" stop-color="#521400"/>
      <stop offset=".94" stop-color="#100400"/>
      <stop offset="1" stop-color="#000"/>
    </radialGradient>
    <linearGradient id="_584-14" data-name="  584" x1="2883.25" y1="5694.04" x2="2933.86" y2="5694.04" gradientTransform="translate(-2835.95 -3971.67) rotate(-13.44)" xlink:href="#_584"/>
    <linearGradient id="_584-15" data-name="  584" x1="2871.13" y1="5732.79" x2="2890.64" y2="5732.79" gradientTransform="translate(-2835.95 -3971.67) rotate(-13.44)" xlink:href="#_584"/>
    <linearGradient id="_109" data-name="  109" x1="2035.9" y1="1007.93" x2="2035.9" y2="865.28" gradientTransform="translate(4221.8) rotate(-180) scale(1 -1)" gradientUnits="userSpaceOnUse">
      <stop offset="0" stop-color="#da999a"/>
      <stop offset="1" stop-color="#cf7c7d"/>
    </linearGradient>
    <linearGradient id="_109-2" data-name="  109" x1="1536" y1="865.28" x2="1536" y2="823.94" gradientTransform="matrix(1, 0, 0, 1, 0, 0)" xlink:href="#_109"/>
    <linearGradient id="_109-3" data-name="  109" x1="1607.48" y1="1103.03" x2="1607.48" y2="976.02" gradientTransform="matrix(1, 0, 0, 1, 0, 0)" xlink:href="#_109"/>
    <linearGradient id="_109-4" data-name="  109" x1="1479.07" y1="983.83" x2="1427.32" y2="983.83" gradientTransform="matrix(1, 0, 0, 1, 0, 0)" xlink:href="#_109"/>
    <linearGradient id="_109-5" data-name="  109" x1="2096.05" y1="976.06" x2="2051.49" y2="976.06" gradientTransform="matrix(1, 0, 0, 1, 0, 0)" xlink:href="#_109"/>
    <linearGradient id="_109-6" data-name="  109" x1="2047.49" y1="976.06" x2="2005.9" y2="976.06" gradientTransform="matrix(1, 0, 0, 1, 0, 0)" xlink:href="#_109"/>
    <linearGradient id="_194-8" data-name="  194" x1="2038.93" y1="689.02" x2="2152.36" y2="689.02" gradientTransform="translate(77.04) scale(.92 1)" xlink:href="#_194"/>
    <linearGradient id="_194-9" data-name="  194" x1="1942.66" y1="721.48" x2="2062.2" y2="721.48" xlink:href="#_194"/>
    <linearGradient id="_194-10" data-name="  194" x1="1998" y1="651.87" x2="1998" y2="604.37" xlink:href="#_194"/>
    <linearGradient id="_18" data-name="  18" x1="2003.51" y1="673.47" x2="2001.52" y2="687.73" gradientUnits="userSpaceOnUse">
      <stop offset="0" stop-color="#97c4c0"/>
      <stop offset=".99" stop-color="#90609a"/>
    </linearGradient>
    <linearGradient id="_491-8" data-name="  491" x1="1973.7" y1="829.97" x2="2311.16" y2="829.97" gradientTransform="translate(3726.28) rotate(-180) scale(1 -1)" xlink:href="#_491"/>
    <linearGradient id="_491-9" data-name="  491" x1="1950.73" y1="755.19" x2="2246.61" y2="755.19" gradientTransform="translate(3726.28) rotate(-180) scale(1 -1)" xlink:href="#_491"/>
    <radialGradient id="_24" data-name="  24" cx="1772.6" cy="664.36" fx="1772.6" fy="664.36" r="3.39" gradientTransform="translate(3726.28) rotate(-180) scale(1 -1)" gradientUnits="userSpaceOnUse">
      <stop offset="0" stop-color="#f3b89b"/>
      <stop offset="1" stop-color="#f09976"/>
    </radialGradient>
    <linearGradient id="_491-10" data-name="  491" x1="2079.43" y1="741.05" x2="2079.82" y2="771.56" gradientTransform="translate(3726.28) rotate(-180) scale(1 -1)" xlink:href="#_491"/>
    <linearGradient id="_20" data-name="  20" x1="1723.85" y1="687.61" x2="1738.38" y2="687.61" gradientTransform="translate(3726.28) rotate(-180) scale(1 -1)" gradientUnits="userSpaceOnUse">
      <stop offset="0" stop-color="#aa4144"/>
      <stop offset=".99" stop-color="#ce4a57"/>
    </linearGradient>
    <linearGradient id="_452" data-name="  452" x1="1749.05" y1="66.48" x2="1765.47" y2="66.48" gradientUnits="userSpaceOnUse">
      <stop offset="0" stop-color="#351252"/>
      <stop offset="1" stop-color="#1c1336"/>
    </linearGradient>
    <linearGradient id="_452-2" data-name="  452" x1="1724.58" y1="145.01" x2="1768.02" y2="145.01" xlink:href="#_452"/>
    <linearGradient id="_309" data-name="  309" x1="1724.58" y1="145.01" x2="1768.02" y2="145.01" gradientUnits="userSpaceOnUse">
      <stop offset="0" stop-color="#4f309e"/>
      <stop offset="1" stop-color="#000"/>
    </linearGradient>
    <linearGradient id="_584-16" data-name="  584" x1="1756.88" y1="148.27" x2="1768.12" y2="148.27" xlink:href="#_584"/>
    <linearGradient id="_584-17" data-name="  584" x1="1756.87" y1="131.74" x2="1765.47" y2="131.74" xlink:href="#_584"/>
    <radialGradient id="_351" data-name="  351" cx="2087.44" cy="695.21" fx="2087.44" fy="695.21" r="13.9" gradientTransform="translate(1102.99 -1272.42) rotate(45)" gradientUnits="userSpaceOnUse">
      <stop offset=".54" stop-color="#ed8a1d"/>
      <stop offset=".59" stop-color="#e8871c"/>
      <stop offset=".65" stop-color="#db7f1a"/>
      <stop offset=".71" stop-color="#c57318"/>
      <stop offset=".78" stop-color="#a76114"/>
      <stop offset=".84" stop-color="#804a0f"/>
      <stop offset=".91" stop-color="#502e09"/>
      <stop offset=".97" stop-color="#180e03"/>
      <stop offset="1" stop-color="#000"/>
    </radialGradient>
    <radialGradient id="_351-2" data-name="  351" cx="2128.8" cy="551.62" fx="2128.8" fy="551.62" gradientTransform="translate(1013.57 -1343.72) rotate(45)" xlink:href="#_351"/>
    <radialGradient id="_212" data-name="  212" cx="2076.39" cy="572.82" fx="2076.39" fy="572.82" r="13.9" gradientTransform="translate(1013.21 -1300.46) rotate(45)" gradientUnits="userSpaceOnUse">
      <stop offset=".62" stop-color="#ed8a1d"/>
      <stop offset=".63" stop-color="#dc801a"/>
      <stop offset=".65" stop-color="#a96214"/>
      <stop offset=".68" stop-color="#7b480f"/>
      <stop offset=".71" stop-color="#55310a"/>
      <stop offset=".74" stop-color="#361f06"/>
      <stop offset=".77" stop-color="#1e1103"/>
      <stop offset=".81" stop-color="#0d0701"/>
      <stop offset=".84" stop-color="#030100"/>
      <stop offset=".89" stop-color="#000"/>
    </radialGradient>
    <radialGradient id="_212-2" data-name="  212" cx="2076.39" cy="627.91" fx="2076.39" fy="627.91" r="6.95" gradientTransform="matrix(1, 0, 0, 1, 0, 0)" xlink:href="#_212"/>
    <radialGradient id="_212-3" data-name="  212" cx="2113.12" cy="655.49" fx="2113.12" fy="655.49" r="4.21" gradientTransform="matrix(1, 0, 0, 1, 0, 0)" xlink:href="#_212"/>
    <linearGradient id="_370" data-name="  370" x1="1787.5" y1="-345.81" x2="1787.5" y2="1277.27" gradientUnits="userSpaceOnUse">
      <stop offset="0" stop-color="#545153"/>
      <stop offset=".26" stop-color="#573f62"/>
      <stop offset=".73" stop-color="#5c2479"/>
      <stop offset="1" stop-color="#5f1a82"/>
    </linearGradient>
  </defs>
  <g class="cls-75">
    <g id="Layer_2" data-name="Layer 2">
      <g id="Pirate">
        <g class="cls-92">
          <g>
            <g>
              <g>
                <g>
                  <path class="cls-88" d="m1561.44,392.11s129.47-26.26,399.26.22c0,0,0,28.89-11.13,64.1,0,0-219.81-22.33-376.14-8.23l-11.99-56.09Z"/>
                  <path class="cls-96" d="m1726.24,463.48c173.8,7.62,223.33-7.05,223.33-7.05,0,0-255.07-25.86-376.14-8.23,0,0,18.81,9.4,152.81,15.28Z"/>
                  <path class="cls-103" d="m1616.48,450.67s146.15-10.19,301.71,7.84c0,0-133.61,9.8-301.71-7.84Z"/>
                  <polygon class="cls-68" points="1684.2 381.31 1690.53 442.05 1714.84 442.3 1714.84 381.31 1684.2 381.31"/>
                  <polygon class="cls-68" points="1725.8 381.31 1729.72 442.61 1785.36 445.18 1791.34 381.31 1725.8 381.31"/>
                  <path class="cls-41" d="m1949.57,391.26s19.43,51.82-25.5,50.78c-44.93-1.04-181.81-60.74-181.81-60.74l9.93.14s131.19,60.95,168.23,51.72c37.03-9.23,11.93-43.47,11.93-43.47l17.23,1.57Z"/>
                  <path class="cls-4" d="m1591.22,387.77c92.99-6.47,209.03,57.41,209.03,57.41l-27.69-1.57s-37.62-27.17-96.65-40.23c-59.04-13.06-108.04-12.41-108.04-12.41l23.35-3.2Z"/>
                  <polygon class="cls-7" points="1699.52 457.51 1699.52 447.9 1775.7 448.6 1777.78 461.22 1699.52 457.51"/>
                  <polygon class="cls-10" points="1949.57 456.43 1958.18 419.42 1900.03 427.1 1902.43 433.58 1916.75 433.82 1932.97 454.85 1949.57 456.43"/>
                  <polygon class="cls-10" points="1573.24 447.61 1568.41 419.42 1627.06 423.86 1624.66 430.34 1608.25 434.52 1601.95 444.88 1573.24 447.61"/>
                  <path class="cls-10" d="m1696.41,424.06v5.05l22.73,5.42,3.14,7.92,119.92,5.36,5.8-11.87,20.03-1.41,1.96-5.42s-61.52-10.11-173.58-5.05Z"/>
                </g>
                <g>
                  <path class="cls-100" d="m1759.63,141.29c-22.89,7.04-31.36,26.09-12.94,46.21l-10.04.45s-15.4-10.72-8.57-30.49,31.55-16.17,31.55-16.17Z"/>
                  <path class="cls-90" d="m1770.21,134.33c25.07,10.59,24.68,28.22,23.9,37.23-.78,9.01-11.83,20.38-11.83,20.38l-12.84-2.17s11.44-2.85,15.76-21.73c4.31-18.88-14.99-33.7-14.99-33.7Z"/>
                  <path class="cls-91" d="m1736.12,189.77c-26.64-13.37-21.16-52.68,14.63-57.26,44.92-5.74,51.2,49.63,20.9,61.13h-6.24s21.21-17.32,15.64-37.62c-5.57-20.3-37.17-17.31-46.71-5.22-15.01,19.02,9.09,39.47,9.09,39.47l-7.31-.5Z"/>
                  <path class="cls-95" d="m1805.47,214.79s-49.63-15.27-95.08-2.67c0,0,35.86,18.79,95.08,2.67Z"/>
                  <path class="cls-96" d="m1734.22,212.12c15.05,8.78,39.77,5.47,48.39,2.11,0,0-6.6-3.75-25.73-3.75s-22.66,1.64-22.66,1.64Z"/>
                  <path class="cls-91" d="m1714.84,190.76s43.61-8.36,87.5,0l3.13,24.03s-55.9-14.75-95.08-2.67l4.45-21.36Z"/>
                  <path class="cls-79" d="m1719.45,189.99h9.59v18.42l22.88-1.2-2.35-17.22,11.93-2.95s-24.1.1-42.04,2.95Z"/>
                  <path class="cls-29" d="m1710.39,212.12s35.38-9.8,78.49-.82l6.03-21.8,7.42,1.26,3.13,24.03s-19.62,6.78-46.9,6.53-48.18-9.2-48.18-9.2Z"/>
                  <path class="cls-85" d="m1573.43,390.12s79.92-59.7,170.04-179.28l5.58-.23s-104.75,129.56-163.52,177.37l-12.09,2.14Z"/>
                  <path class="cls-85" d="m1752.84,210.61l4.05-.13s-28.73,79.53-50.68,170.83l-6.69-.41s33.2-106.25,53.32-170.29Z"/>
                  <path class="cls-85" d="m1947.55,391.08s-79.05-58.78-169.17-178.36l-6.84-1.34s105.8,130.86,164.58,178.66l11.43,1.04Z"/>
                  <polygon class="cls-79" points="1724.62 147.14 1732.25 153.88 1738.26 147.14 1731.44 140.01 1724.62 147.14"/>
                </g>
                <g>
                  <g>
                    <path class="cls-91" d="m1778.72,362.84c-2.62-6.85-7.42-12.37-14.52-14.57l3.13-21.16c17.5-1.3,28.74,0,28.74,0l1.23,9.89h0s1.63,13.1,1.63,13.1c0,0-9.92-.52-12.8,12.01-.53,2.33-.87,4.88-.98,7.58-.47,11.5,3.14,25.56,12.89,35.43,2.2.32,4.15.76,5.67,1.34l3.59,10.68-45.81-.17s1.13-7.84,2.95-11.75c0,0,.27-.02.77-.07.49-.04,1.21-.1,2.11-.16,12.73-7.72,16.85-27.84,11.39-42.15Z"/>
                    <path class="cls-56" d="m1771.54,326.84l2.06-43.35s1.47-3.66,14.45,0l2.21,43.35h-18.72Z"/>
                    <path class="cls-53" d="m1780.9,282.01s-.51-6.61-6.26-10.27l3.13-1.31s3.64,4.87,3.13,11.58Z"/>
                    <polygon class="cls-79" points="1769.68 326.95 1768.37 347.35 1774.65 346.57 1776.54 326.65 1769.68 326.95"/>
                    <path class="cls-15" d="m1798.94,350.1s-9.92-.52-12.8,12.01c-.53,2.33-.87,4.88-.98,7.58-.71-10.92-4.13-9.33-6.44-6.86-2.62-6.85-7.42-12.37-14.52-14.57,12.01-3,28.6-.92,28.6-.92,0,0,1.71-14.45,1.77-20.24h1.5l2.87,22.99Z"/>
                    <path class="cls-79" d="m1798.05,405.12c-22.88.36-26.51,1.4-26.51,1.4l-2.9,10.55h-4.44l2.09-10.69-1.83-1.18,2.88-.24,30.72.14Z"/>
                    <path class="cls-37" d="m1804.87,409.88s.47,4.48-4.63,5.26c-5.09.79-28.7,2-28.7,2h35.77l-2.44-7.26Z"/>
                  </g>
                  <g>
                    <path class="cls-91" d="m1710.39,422.72l15.41,7.63,2.4,6.22c10.61.82,21.16,1.45,31.29,1.94,0,0,.26,3.38,4.96,9.99h37.09s4.44-3.2,7.84-8.35l-7.56-.25c22.06.41,36.81.19,36.81.19l.78-6.27,12.27-9.76c-93.78-7.02-141.31-1.34-141.31-1.34Z"/>
                    <path class="cls-36" d="m1839.43,433.82c-49.37-8.62-113.63-3.47-113.63-3.47l-15.41-7.63s77.18-6.07,141.31,1.34l-12.27,9.76Z"/>
                    <path class="cls-91" d="m1710.39,422.72v-2.17s79.14-9.53,141.31,1.08v2.42s-58.25-5.59-141.31-1.34Z"/>
                    <path class="cls-34" d="m1759.5,438.5l49.89,1.64s-3.59,5.39-7.84,8.35h-37.09s-4.38-5.51-4.96-9.99Z"/>
                    <path class="cls-91" d="m1775.7,448.6s.1,23.92,3.49,44.23c0,0,4.11,6.92,9.21.85,0,0,4.21-26.55,5.04-45.18l-17.74.1Z"/>
                    <polygon class="cls-79" points="1733.29 418.46 1733.29 421.76 1756.88 421.23 1758.57 417.08 1733.29 418.46"/>
                    <polygon class="cls-79" points="1738.65 429.58 1738.65 437.31 1750.92 438.06 1750.92 429.11 1738.65 429.58"/>
                    <path class="cls-22" d="m1775.76,452.04c6.16-3.59,17.15,4.69,16.58,10.93l1.09-14.47-17.74.1.06,3.44Z"/>
                  </g>
                </g>
                <g>
                  <g>
                    <path class="cls-91" d="m1986.52,362.84c-2.62-6.85-7.42-12.37-14.52-14.57l3.13-21.16c17.5-1.3,28.74,0,28.74,0l1.23,9.89h0s1.63,13.1,1.63,13.1c0,0-9.92-.52-12.8,12.01-.53,2.33-.87,4.88-.98,7.58-.47,11.5,3.14,25.56,12.89,35.43,2.2.32,4.15.76,5.67,1.34l3.59,10.68-45.81-.17s1.13-7.84,2.95-11.75c0,0,.27-.02.77-.07.49-.04,1.21-.1,2.11-.16,12.73-7.72,16.85-27.84,11.39-42.15Z"/>
                    <path class="cls-99" d="m1979.34,326.84l2.06-43.35s1.47-3.66,14.45,0l2.21,43.35h-18.72Z"/>
                    <path class="cls-53" d="m1988.7,282.01s-.51-6.61-6.26-10.27l3.13-1.31s3.64,4.87,3.13,11.58Z"/>
                    <polygon class="cls-79" points="1977.48 326.95 1976.17 347.35 1982.45 346.57 1984.34 326.65 1977.48 326.95"/>
                    <path class="cls-1" d="m2006.74,350.1s-9.92-.52-12.8,12.01c-.53,2.33-.87,4.88-.98,7.58-.71-10.92-4.13-9.33-6.44-6.86-2.62-6.85-7.42-12.37-14.52-14.57,12.01-3,28.6-.92,28.6-.92,0,0,1.71-14.45,1.77-20.24h1.5l2.87,22.99Z"/>
                    <path class="cls-79" d="m2005.85,405.12c-22.88.36-26.51,1.4-26.51,1.4l-2.9,10.55h-4.44l2.09-10.69-1.83-1.18,2.88-.24,30.72.14Z"/>
                    <path class="cls-3" d="m2012.67,409.88s.47,4.48-4.63,5.26c-5.09.79-28.7,2-28.7,2h35.77l-2.44-7.26Z"/>
                  </g>
                  <g>
                    <path class="cls-91" d="m1918.19,422.72l15.41,7.63,2.4,6.22c10.61.82,21.16,1.45,31.29,1.94,0,0,.26,3.38,4.96,9.99h37.09s4.44-3.2,7.84-8.35l-7.56-.25c22.06.41,36.81.19,36.81.19l.78-6.27,12.27-9.76c-93.78-7.02-141.31-1.34-141.31-1.34Z"/>
                    <path class="cls-33" d="m2047.23,433.82c-49.37-8.62-113.63-3.47-113.63-3.47l-15.41-7.63s77.18-6.07,141.31,1.34l-12.27,9.76Z"/>
                    <path class="cls-91" d="m1918.19,422.72v-2.17s79.14-9.53,141.31,1.08v2.42s-58.25-5.59-141.31-1.34Z"/>
                    <path class="cls-42" d="m1967.3,438.5l49.89,1.64s-3.59,5.39-7.84,8.35h-37.09s-4.38-5.51-4.96-9.99Z"/>
                    <polygon class="cls-79" points="1941.09 418.46 1941.09 421.76 1964.68 421.23 1966.37 417.08 1941.09 418.46"/>
                    <polygon class="cls-79" points="1946.45 429.58 1946.45 437.31 1958.72 438.06 1958.72 429.11 1946.45 429.58"/>
                  </g>
                  <g>
                    <path class="cls-91" d="m1908.11,457.57s12.89,15.81,30.48,27.46c0,0,0,0,.02,0,.23.16.48.32.72.48.04.02.08.05.12.08,10.06,6.53,21.6,11.61,33.11,11.61,17.3,0,23.87-31.21,26.3-42.64.78-3.66,1.08-6.07,1.08-6.07h-14.47s.2,7.35-1.96,14.91c0,0,0,.02,0,.03-2.28,8-6.64,23.87-17.21,23.87-9.32,0-21.5-7.81-31.1-15.34-8.97-7.05-15.69-13.87-15.69-13.87l-11.39-.52Z"/>
                    <path class="cls-35" d="m1908.11,457.57s12.89,15.81,30.48,27.46c-5.63-4.09-12.27-16.19-3.41-13.06-8.97-7.05-15.69-13.87-15.69-13.87l-11.39-.52Z"/>
                    <path class="cls-5" d="m1983.5,463.4c1.65-4.56,10.45-11.74,15.35-8.84.78-3.66,1.08-6.07,1.08-6.07h-14.47s.2,7.35-1.96,14.91Z"/>
                  </g>
                </g>
                <g>
                  <g>
                    <path class="cls-91" d="m1537.74,362.84c-2.62-6.85-7.42-12.37-14.52-14.57l3.13-21.16c17.5-1.3,28.74,0,28.74,0l1.23,9.89h0s1.63,13.1,1.63,13.1c0,0-9.92-.52-12.8,12.01-.53,2.33-.87,4.88-.98,7.58-.47,11.5,3.14,25.56,12.89,35.43,2.2.32,4.15.76,5.67,1.34l3.59,10.68-45.81-.17s1.13-7.84,2.95-11.75c0,0,.27-.02.77-.07.49-.04,1.21-.1,2.11-.16,12.73-7.72,16.85-27.84,11.39-42.15Z"/>
                    <path class="cls-101" d="m1530.57,326.84l2.06-43.35s1.47-3.66,14.45,0l2.21,43.35h-18.72Z"/>
                    <path class="cls-53" d="m1539.93,282.01s-.51-6.61-6.26-10.27l3.13-1.31s3.64,4.87,3.13,11.58Z"/>
                    <polygon class="cls-79" points="1528.7 326.95 1527.39 347.35 1533.67 346.57 1535.57 326.65 1528.7 326.95"/>
                    <path class="cls-27" d="m1557.96,350.1s-9.92-.52-12.8,12.01c-.53,2.33-.87,4.88-.98,7.58-.71-10.92-4.13-9.33-6.44-6.86-2.62-6.85-7.42-12.37-14.52-14.57,12.01-3,28.6-.92,28.6-.92,0,0,1.71-14.45,1.77-20.24h1.5l2.87,22.99Z"/>
                    <path class="cls-79" d="m1557.08,405.12c-22.88.36-26.51,1.4-26.51,1.4l-2.9,10.55h-4.44l2.09-10.69-1.83-1.18,2.88-.24,30.72.14Z"/>
                    <path class="cls-13" d="m1563.9,409.88s.47,4.48-4.63,5.26c-5.09.79-28.7,2-28.7,2h35.77l-2.44-7.26Z"/>
                  </g>
                  <g>
                    <path class="cls-91" d="m1469.41,422.72l15.41,7.63,2.4,6.22c10.61.82,21.16,1.45,31.29,1.94,0,0,.26,3.38,4.96,9.99h37.09s4.44-3.2,7.84-8.35l-7.56-.25c22.06.41,36.81.19,36.81.19l.78-6.27,12.27-9.76c-93.78-7.02-141.31-1.34-141.31-1.34Z"/>
                    <path class="cls-23" d="m1598.45,433.82c-49.37-8.62-113.63-3.47-113.63-3.47l-15.41-7.63s77.18-6.07,141.31,1.34l-12.27,9.76Z"/>
                    <path class="cls-91" d="m1469.41,422.72v-2.17s79.14-9.53,141.31,1.08v2.42s-58.25-5.59-141.31-1.34Z"/>
                    <path class="cls-11" d="m1518.52,438.5l49.89,1.64s-3.59,5.39-7.84,8.35h-37.09s-4.38-5.51-4.96-9.99Z"/>
                    <polygon class="cls-79" points="1492.31 418.46 1492.31 421.76 1515.91 421.23 1517.59 417.08 1492.31 418.46"/>
                    <polygon class="cls-79" points="1497.68 429.58 1497.68 437.31 1509.95 438.06 1509.95 429.11 1497.68 429.58"/>
                    <g>
                      <path class="cls-91" d="m1629.21,449.92s-12.89,15.81-30.48,27.46c0,0,0,0-.02,0-.23.16-.48.32-.72.48-.04.02-.08.05-.12.08-10.06,6.53-21.6,11.61-33.11,11.61-17.3,0-24.42-23.56-26.85-35-.78-3.66-1.08-6.07-1.08-6.07h14.47s-.2,7.35,1.96,14.91c0,0,0,.02,0,.03,2.28,8,7.19,16.23,17.76,16.23,9.32,0,21.5-7.81,31.1-15.34,8.97-7.05,15.69-13.87,15.69-13.87l11.39-.52Z"/>
                      <path class="cls-46" d="m1629.21,449.92s-12.89,15.81-30.48,27.46c5.63-4.09,12.27-16.19,3.41-13.06,8.97-7.05,15.69-13.87,15.69-13.87l11.39-.52Z"/>
                      <path class="cls-31" d="m1553.26,463.4c-1.65-4.56-10.45-11.74-15.35-8.84-.78-3.66-1.08-6.07-1.08-6.07h14.47s-.2,7.35,1.96,14.91Z"/>
                    </g>
                  </g>
                </g>
              </g>
              <path class="cls-54" d="m1752.58,689.07c-60.88,27.16-142.63,37.09-142.63,37.09-44.27.32-82.89-24.2-82.89-24.2-5.77,6.45-3.84,45.89-3.84,45.89h-37.34l-3.2-40.05,3.56-10.24-4.73-43,11.02-11.4-.22-5.53-128.48,1.29,13.05,15.65c-5.75,29.19-2.83,47.4-2.83,47.4l4.94,47.01-10.04,3.74-181.74,4.8,24.12,16.08,600.1,4.16,6.57-95.51-65.43,6.84Zm-279.04,84.68l-87.61-2.85c0-3.9-3.13-124.36-.92-124.36h88.53v127.21Z"/>
              <g>
                <path class="cls-91" d="m1465.24,686.41c0-3.46-16.72-36.9-16.72-36.9h-38.34s-16.72,33.44-16.72,36.9,10.67,16.43,29.98,22.49c0,0,1.15,1.73,0,4.32,0,0-25.44,7.21-23.39,35.75h58.6c2.06-28.54-23.39-35.75-23.39-35.75-1.15-2.59,0-4.32,0-4.32,19.31-6.05,29.98-19.03,29.98-22.49Z"/>
                <path class="cls-94" d="m1397.16,687.66s12.35,16.72,30.46,20.56l1.62,6.82,3.22-6.53s15.57-4.33,28.06-18.16c0,0-16.91.58-34.02-5.38-17.1-5.96-25.18-9.22-25.18-9.22l-4.18,11.92Z"/>
                <path class="cls-98" d="m1456.5,748.96s.19-5.77-1.92-11.72c0,0-17.1,5.53-34.4,6.41-17.3.89-17.49-2.57-17.49-2.57,0,0-1.14,4.24-.28,7.79l54.1.09Z"/>
                <path class="cls-20" d="m1402.08,666.11s34.97,1.34,61.8,16.06l-12.79-27.47h-43.48l-5.53,11.42Z"/>
                <path class="cls-105" d="m1474.2,748.89c.28-1.03,3.63-13.49,5.26-22.27,1.56-8.37.32-14.38-3.48-16.15,1.14-1.18,2.23-3.02,2.23-5.77,0-3.07-1.23-5.19-2.44-6.56,2.01-.52,4.85-1.67,6.67-4.12.36-.49.61-1.07.76-1.76,1.05-5.01-3.25-15.69-5.89-37.56h.04l.29-5.19,12.11-7.78c-24.08-.77-44.33-1.1-60.95-1.17-40.94-.18-59.84,1.17-59.84,1.17,4.04,4.32,11.63,7.78,11.63,7.78l-.1,5.19c-2.98,25.47-8.36,35.99-5.29,40.05,1.83,2.41,4.67,3.54,6.68,4.06-1.22,1.34-2.44,3.44-2.44,6.46,0,2.18.7,3.78,1.56,4.92l.03.05c.2.27.42.51.63.73-3.79,1.75-5.03,7.69-3.48,15.94,1.68,8.89,5.17,21.62,5.28,22.04-2.85.01-4.47.02-4.47.02l-3.79,10.84,56.46.12,54.63.12-6.57-11.07c-1.49-.03-3.36-.05-5.51-.07Zm-89.19.05c.15-.55,3.61-13.18,5.28-22.02,1.56-8.26.32-14.19-3.48-15.94,1.14-1.16,2.23-2.98,2.23-5.7,0-3.03-1.23-5.13-2.44-6.46,2.01-.52,4.85-1.65,6.68-4.06.49-.65.76-1.45.86-2.46v-.02c.55-5.33-3.65-16.18-6.15-37.56h36.71c-2.98,25.47-8.36,35.99-5.29,40.05,1.98,2.61,5.14,3.72,7.15,4.18-1.35,1.17-2.92,3.2-2.92,6.31,0,2.34.98,3.94,2.06,5,.2.2.41.39.62.55-4.14,1.48-5.54,7.55-3.92,16.13,1.6,8.47,4.84,20.42,5.24,21.9-17.28.03-34,.09-42.61.13Zm44.23-.13c.41-1.5,3.65-13.43,5.25-21.9,1.48-7.85.43-13.6-2.93-15.65h0c-.31-.2-.63-.35-.99-.48,1.28-1.02,2.67-2.77,2.67-5.55,0-3.11-1.57-5.14-2.92-6.31,2.01-.46,5.18-1.57,7.15-4.18.34-.46.58-.99.73-1.61h0c1.18-4.99-3.37-15.82-6.01-38.43h37.33c-2.81,23.22-7.48,33.83-5.63,38.43.13.33.29.63.5.9,1.83,2.44,4.66,3.59,6.68,4.12-1.22,1.36-2.45,3.49-2.45,6.56,0,2.74,1.08,4.58,2.22,5.77h0c-3.79,1.78-5.03,7.79-3.47,16.16,1.63,8.75,4.96,21.14,5.26,22.26-10.54-.09-27.09-.09-43.37-.06Z"/>
                <path class="cls-21" d="m1474.2,748.89c.28-1.03,3.63-13.49,5.26-22.27,1.56-8.37.32-14.38-3.48-16.15,1.14-1.18,2.23-3.02,2.23-5.77,0-3.07-1.23-5.19-2.44-6.56,2.01-.52,4.85-1.67,6.67-4.12.36-.49.61-1.07.76-1.76,1.05-5.01-3.25-15.69-5.89-37.56h.04l.29-5.19,12.11-7.78c-24.08-.77-44.33-1.1-60.95-1.17l.45,118.74,2.41.62,54.63.12-6.57-11.07c-1.49-.03-3.36-.05-5.51-.07Zm-44.95-.08c.41-1.5,3.65-13.43,5.25-21.9,1.48-7.85.43-13.6-2.93-15.65h0c-.31-.2-.63-.35-.99-.48,1.28-1.02,2.67-2.77,2.67-5.55,0-3.11-1.57-5.14-2.92-6.31,2.01-.46,5.18-1.57,7.15-4.18.34-.46.58-.99.73-1.61h0c1.18-4.99-3.37-15.82-6.01-38.43h37.33c-2.81,23.22-7.48,33.83-5.63,38.43.13.33.29.63.5.9,1.83,2.44,4.66,3.59,6.68,4.12-1.22,1.36-2.45,3.49-2.45,6.56,0,2.74,1.08,4.58,2.22,5.77h0c-3.79,1.78-5.03,7.79-3.47,16.16,1.63,8.75,4.96,21.14,5.26,22.26-10.54-.09-27.09-.09-43.37-.06Z"/>
                <path class="cls-10" d="m1477.41,653.64h0l.23-4.13h-97.05l-.08,4.13h0l-1.18,11.72c5.29-6.73,10.44,1.74,10.44,1.74l-1.91-12.4h36.44l-1.01,10.13s3.55-6.88,10.31,0l-1.5-10.13h37.34l-.94,7.47s5.28-6.99,10.1,1.66l-1.18-10.19Z"/>
                <path class="cls-79" d="m1376.88,641.09c37.39,4.79,76.93-.25,76.93-.25,0,0-29.38-.48-46.97-.33-17.59.15-29.96.58-29.96.58Z"/>
                <path class="cls-10" d="m1394.13,692.26v.02c-.1,1.01-.37,1.82-.86,2.46-1.83,2.41-4.67,3.54-6.68,4.06,1.22,1.34,2.44,3.44,2.44,6.46,0,2.72-1.08,4.53-2.23,5.7h-5.15l-.63-.73-.03-.05c-.86-1.15-1.56-2.74-1.56-4.92,0-3.03,1.23-5.13,2.44-6.46-2.01-.52-4.85-1.65-6.68-4.06,8.07,2.52,18.93-2.48,18.93-2.48Z"/>
                <path class="cls-10" d="m1438.2,693.12h0c-.14.63-.39,1.16-.73,1.62-1.97,2.61-5.14,3.72-7.15,4.18,1.35,1.17,2.92,3.2,2.92,6.31,0,2.78-1.39,4.53-2.67,5.55l-4.88-.55c-1.08-1.06-2.06-2.66-2.06-5,0-3.11,1.57-5.14,2.92-6.31-2.01-.46-5.17-1.57-7.15-4.18,11.34,1.37,18.79-1.62,18.79-1.62Z"/>
                <path class="cls-10" d="m1483.2,692.26c-.14.69-.39,1.27-.76,1.76-1.82,2.44-4.66,3.59-6.67,4.12,1.22,1.36,2.44,3.49,2.44,6.56,0,2.75-1.08,4.59-2.23,5.77h-5.17c-1.14-1.19-2.22-3.03-2.22-5.77,0-3.07,1.23-5.19,2.45-6.56-2.01-.52-4.85-1.67-6.68-4.12-.2-.27-.37-.57-.5-.9,11.26,2.99,19.31-.86,19.31-.86Z"/>
                <polygon class="cls-68" points="1378.99 748.96 1377.24 753.96 1482.68 753.96 1479.71 748.96 1378.99 748.96"/>
              </g>
              <g>
                <path class="cls-86" d="m1300.47,1017.09c-8.2,48.99-36.74,82.07-36.74,82.07,0,0-3.13-6.03-9.23-1.38-6.09,4.65-1.75,13.95-1.75,13.95,0,0-9.49,24.1-57.86,39.76-48.37,15.66-54.76,6.63-54.76,6.63l10.08-18.74h0s16.07-29.85,16.07-29.85l2.01-3.74s29.76-8.64,65.89-48.73c24.76-27.47,34.32-55.07,37.69-75.74h0c3.36-20.54.61-34.25.61-34.25l25.11,6.88,6.28,1.72s4.79,12.42-3.41,61.41Z"/>
                <path class="cls-104" d="m1242.13,840.33c17.68,40.3,26.87,78.78,26.87,78.78l28.31,8.91s5.48-5.55-3.98-34.64c-9.46-29.09-11.82-31.49-11.82-31.49,0,0,8.46-7.53,5.17-17.76-3.29-10.23-19.31-24.09-33-21.08-13.69,3.01-11.55,17.28-11.55,17.28Z"/>
                <path class="cls-71" d="m1360.3,905.77c2.95,14.12-14.44,42.43-14.44,42.43,0,0-16.19,19.12-58.84,7.29-42.66-11.84-40.28-.12-40.28-.12-9.61-8.29-11.79-29.81,9.19-57.27l7.37.38,2.83,8.63c13.47,12.03,53.7,26.14,70.84,21.62,5.66-1.49,8.65-4.1,10.11-6.93,2.97-5.73-.32-12.35-.32-12.35-20-18.1-55.29-21.68-55.29-21.68,0,0-3.25-9.35-5.83-16.35-.79-2.15-1.52-4.08-2.07-5.44l76.72,39.82Z"/>
                <path class="cls-77" d="m1246.75,826.4c-10.69,8.45,29.61,35.24,35.82,24.06,7.21-12.97-19.67-36.82-35.82-24.06Z"/>
                <path class="cls-86" d="m1300.47,1017.09c-8.2,48.99-36.74,82.07-36.74,82.07,0,0-3.13-6.03-9.23-1.38-6.09,4.65-1.75,13.95-1.75,13.95,0,0-9.49,24.1-57.86,39.76-48.37,15.66-54.76,6.63-54.76,6.63l10.08-18.74h0c63.55-11.77,116.46-57.18,135.7-115.86,13.51-41.21,12.86-61.22,11.7-69.57l6.28,1.72s4.79,12.42-3.41,61.41Z"/>
                <path class="cls-44" d="m1272.62,976.23c22.22,1.21,29.22,32.24,29.22,32.24,0,0,4.57-29.61,2.86-49.57l-31.1-6.72s-.46,6.69-.12,13.44c.34,6.75-.86,10.61-.86,10.61Z"/>
                <path class="cls-10" d="m1245.31,847.76l7.13,17.32s9.82-8.01,39.04,22.66l-3.69-10.74-42.48-29.24Z"/>
                <path class="cls-10" d="m1258.73,883.94c31.89,22.1,36.06,15.55,36.06,15.55l2.66,11.12s-25.23-17.79-36.24-18.98l-2.48-7.7Z"/>
                <polygon class="cls-64" points="1195.64 1124.52 1194.89 1151.49 1224.26 1139.26 1218.01 1113.1 1195.64 1124.52"/>
                <path class="cls-80" d="m1271.89,981.33c-2.7,60.16-66.11,116.43-105.6,128.22l2.01-3.74s29.76-8.64,65.89-48.73c24.76-27.47,34.32-55.07,37.69-75.74h0Z"/>
                <polygon class="cls-79" points="1205.09 1084.45 1205.95 1088.06 1226.82 1069.91 1224.5 1067.25 1205.09 1084.45"/>
                <polygon class="cls-79" points="1228.79 1062.88 1230.88 1065.73 1237.47 1058.38 1235.32 1055.81 1228.79 1062.88"/>
                <path class="cls-79" d="m1192.89,1097.02l-3.64,30.85s55.33-22.61,84.71-76.86l-21.03-13.66s-21.85,35.08-60.04,59.67Z"/>
                <path class="cls-91" d="m1347.09,921.78s-.16,12.8-30.11,15.22c-29.95,2.41-65.41-22.52-61.04-38.91l7.37.38,2.83,8.63c13.47,12.03,53.7,26.14,70.84,21.62,5.66-1.49,8.65-4.1,10.11-6.93Z"/>
                <path class="cls-43" d="m1346.77,909.42c-20-18.1-55.29-21.68-55.29-21.68,0,0-3.25-9.35-5.83-16.35,25.75,9.46,56.64,23.57,61.12,38.04Z"/>
                <path class="cls-10" d="m1284.61,839.7c0,35.11-42.47.63-42.47.63l3.18,7.43s24.3,21.21,28.29,30.74c7.96,18.99-4.6,30.89-4.6,30.89,0,0,11.36,8.46,29.71,14.23,0,0,1.71-7.67-7.24-35.88l5.88.85-6.11-18.67-7.67-3.98-2.07-4.06s3.41-1.98,5.26-10.68c1.85-8.7-2.17-11.5-2.17-11.5Z"/>
                <path class="cls-79" d="m1266,918.74c.62.56,9.92-4.5,9.92-4.5l8.66,4.8-6.97,8.02-11.61-8.32Z"/>
                <path class="cls-9" d="m1287.66,931.94c5.17,10.6,21.27,5.07,21.27,5.07l-21.27-5.07Z"/>
              </g>
              <g>
                <g>
                  <polygon class="cls-96" points="1647.67 1103.03 1691.7 1103.03 1691.7 812.51 1639.24 812.51 1647.67 1103.03"/>
                  <polygon class="cls-96" points="1904.59 1103.03 1860.55 1103.03 1860.55 812.51 1913.02 812.51 1904.59 1103.03"/>
                  <polygon class="cls-81" points="2234.9 822.48 2212.56 1103.03 1904.59 1103.03 1913.02 812.51 2234.9 822.48"/>
                  <polygon class="cls-88" points="1966.4 862.36 1964.82 1110.17 1904.59 1110.17 1911.57 862.44 1966.4 862.36"/>
                  <polygon class="cls-105" points="2261.38 823.77 2254.09 865.28 2164.93 865.28 2163.73 824.25 2261.38 823.77"/>
                  <polygon class="cls-105" points="1990.63 814.85 1976.87 862.85 1898.59 862.36 1893.98 814.85 1990.63 814.85"/>
                  <g>
                    <path class="cls-87" d="m1653.21,929.47s114.39-1.32,230.91,1.75l8.43-112.7-244.89-3.67,5.55,114.62Z"/>
                    <polygon class="cls-21" points="1670.13 838.61 1879.62 838.61 1874.32 916 1671.44 913.36 1670.13 838.61"/>
                    <polygon class="cls-88" points="1677.28 843.86 1873.58 843.86 1867.46 908.6 1678.57 905.96 1677.28 843.86"/>
                    <path class="cls-89" d="m1653.21,929.47l8.76,1.75,208.39,1.42,13.76-1.42c-169.88-8.49-230.91-1.75-230.91-1.75Z"/>
                    <polygon class="cls-21" points="1670.38 840.98 1879.45 840.98 1879.62 838.61 1670.13 838.61 1670.38 840.98"/>
                  </g>
                  <polygon class="cls-88" points="1898.59 862.36 1891.12 862.36 1886.79 815.12 1893.98 814.85 1898.59 862.36"/>
                  <polygon class="cls-96" points="2176.02 1149 2217.63 1152.17 2181.18 1131.56 2151.85 1131.56 2176.02 1149"/>
                  <polygon class="cls-21" points="2172.99 865.28 2160.83 865.28 2145.53 1103.03 2156.61 1103.56 2172.99 865.28"/>
                  <polygon class="cls-21" points="2126.49 1087.18 1987.01 1087.18 1993.36 864.86 2139.17 865.28 2126.49 1087.18"/>
                  <polygon class="cls-87" points="2130.72 871.54 1992.85 871.54 1986.9 1084.39 2121.59 1083.62 2130.72 871.54"/>
                  <polygon class="cls-88" points="2109.58 882.72 2015.54 882.72 2008.14 1067.64 2105.89 1067.64 2109.58 882.72"/>
                  <polygon class="cls-88" points="2099.02 893.28 2022.94 892.23 2015.54 1059.18 2099.02 1059.18 2099.02 893.28"/>
                  <polygon class="cls-21" points="2164.93 865.28 2154.63 865.28 2152.05 826.75 2163.73 826.91 2164.93 865.28"/>
                  <path class="cls-88" d="m1883.19,1122.05c2.58-.18,5.22-.35,7.93-.51v-18.51l347.91-4.76,4.21,18.17c4.46.03,6.88.06,6.88.06l3.96,15.06v20.61h-36.46l-36.46-20.61h-238.87l-33.75,20.61h-34.87v-20.61l9.51-9.51Z"/>
                  <polygon class="cls-96" points="1841.19 1122.05 1847.22 1122.05 1852.28 1103.03 1891.12 1103.03 1891.12 1122.05 1882.85 1122.39 1873.68 1131.56 1873.68 1152.17 1840.39 1152.17 1838.02 1131.56 1841.19 1122.05"/>
                  <polygon class="cls-88" points="2156.61 1103.56 2216.84 1103.03 2227.41 1007.93 2223.25 1000.4 2231.27 973.16 2243.25 865.28 2172.99 865.28 2156.61 1103.56"/>
                  <path class="cls-21" d="m2243.24,1116.45c-218.19-10.25-352.13,5.09-352.13,5.09l352.13-5.09Z"/>
                  <path class="cls-21" d="m2217.63,1098.57l-313.04,4.46s183.38-6.34,240.95-7.93h11.07l61.02,3.46Z"/>
                  <polygon class="cls-88" points="2099.02 893.28 2109.58 882.72 2015.54 882.72 2022.94 892.23 2099.02 893.28"/>
                  <polygon class="cls-88" points="2099.02 1059.18 2105.89 1067.64 2008.14 1067.64 2015.54 1059.18 2099.02 1059.18"/>
                  <path class="cls-79" d="m2099.02,893.28c-41.87,4.89-68.41,1.66-76.08-1.06l76.08,1.06Z"/>
                  <polygon class="cls-21" points="1993.36 864.86 2139.17 865.28 2138.81 871.54 2130.47 877.3 1992.81 884.02 1993.36 864.86"/>
                  <polygon class="cls-21" points="2243.26 865.28 2172.99 865.28 2160.83 865.28 2159.26 882.72 2172.46 878.36 2242.02 876.43 2243.26 865.28"/>
                  <path class="cls-58" d="m1944.74,862.85s-2.29,205.84-6.34,239.7v-124.74l-2.91-20.04,6.81-37.81,2.44-57.12Z"/>
                  <polygon class="cls-60" points="2136 826.05 2133.23 865.28 2130.72 865.28 2133.36 826.05 2136 826.05"/>
                  <polygon class="cls-103" points="1935.5 957.77 1938.4 977.82 1938.4 1013.08 1938.4 1102.55 1935.5 957.77"/>
                  <path class="cls-79" d="m1993.36,864.86s41.46-1.86,73.82-2.5c32.37-.65,66.05,2.92,66.05,2.92l-139.87-.42Z"/>
                  <polygon class="cls-12" points="2207.82 865.28 2194.12 1007.93 2184.74 1007.93 2186.2 975.17 2172.99 969.89 2169.29 996.31 2163.98 996.31 2172.99 865.28 2207.82 865.28"/>
                  <polygon class="cls-81" points="1317.36 822.48 1339.7 1103.03 1647.67 1103.03 1639.24 812.51 1317.36 822.48"/>
                  <polygon class="cls-45" points="1486.14 825 1488.37 854.71 1529.32 860 1531.43 846.02 1550.45 846.02 1550.45 864.5 1585.87 865.28 1585.87 823.94 1486.14 825"/>
                  <polygon class="cls-88" points="1585.85 862.36 1587.44 1110.17 1647.67 1110.17 1640.7 862.85 1585.85 862.36"/>
                  <polygon class="cls-105" points="1290.87 823.77 1298.17 865.28 1387.32 865.28 1388.52 824.25 1290.87 823.77"/>
                  <polygon class="cls-105" points="1561.63 814.85 1575.38 862.85 1653.66 862.36 1658.27 814.85 1561.63 814.85"/>
                  <polygon class="cls-88" points="1653.66 862.36 1661.14 862.36 1665.47 815.12 1658.27 814.85 1653.66 862.36"/>
                  <polygon class="cls-96" points="1376.23 1149 1334.62 1152.17 1371.08 1131.56 1400.4 1131.56 1376.23 1149"/>
                  <polygon class="cls-21" points="1379.27 865.28 1391.42 865.28 1406.72 1103.03 1395.65 1103.56 1379.27 865.28"/>
                  <polygon class="cls-21" points="1425.76 1087.18 1565.24 1087.18 1558.9 864.86 1413.08 865.28 1425.76 1087.18"/>
                  <polygon class="cls-87" points="1421.53 871.54 1559.4 871.54 1565.24 1087.18 1432.37 1085.55 1421.53 871.54"/>
                  <polygon class="cls-88" points="1442.67 882.72 1536.71 882.72 1544.11 1067.64 1446.37 1067.64 1442.67 882.72"/>
                  <polygon class="cls-88" points="1448.35 891.04 1529.32 892.23 1536.71 1059.18 1449.93 1059.18 1448.35 891.04"/>
                  <polygon class="cls-21" points="1387.32 865.28 1397.63 865.28 1400.2 826.75 1388.52 826.91 1387.32 865.28"/>
                  <path class="cls-88" d="m1669.06,1122.05c-2.58-.18-5.22-.35-7.93-.51v-18.51l-347.91-4.76-4.21,18.17c-4.46.03-6.88.06-6.88.06l-3.96,15.06v20.61h36.46l36.46-20.61h238.87l33.75,20.61h34.87v-20.61l-9.51-9.51Z"/>
                  <polygon class="cls-96" points="1711.07 1122.05 1705.04 1122.05 1699.97 1103.03 1661.14 1103.03 1661.14 1122.05 1669.4 1122.39 1678.57 1131.56 1678.57 1152.17 1711.86 1152.17 1714.24 1131.56 1711.07 1122.05"/>
                  <polygon class="cls-88" points="1395.65 1103.56 1335.41 1103.03 1329.57 1050.47 1330.13 1046.92 1326.96 1000.27 1323.15 992.63 1323.15 992.62 1309 865.28 1379.26 865.28 1395.65 1103.56"/>
                  <path class="cls-21" d="m1309.01,1116.45c218.19-10.25,352.13,5.09,352.13,5.09l-352.13-5.09Z"/>
                  <path class="cls-21" d="m1334.62,1098.57l313.04,4.46s-183.38-6.34-240.95-7.93h-11.07l-61.02,3.46Z"/>
                  <polygon class="cls-88" points="1448.35 891.04 1442.67 882.72 1536.71 882.72 1529.32 892.23 1448.35 891.04"/>
                  <polygon class="cls-88" points="1449.93 1059.18 1446.37 1067.64 1544.11 1067.64 1536.71 1059.18 1449.93 1059.18"/>
                  <path class="cls-79" d="m1450.73,891.04c41.87,4.89,70.92,3.91,78.59,1.19l-78.59-1.19Z"/>
                  <polygon class="cls-21" points="1558.9 864.86 1413.08 865.28 1413.71 876.23 1422.24 885.49 1559.41 882.72 1558.9 864.86"/>
                  <polygon class="cls-21" points="1309 865.28 1379.27 865.28 1391.42 865.28 1392.99 882.72 1379.8 878.36 1310.24 876.43 1309 865.28"/>
                  <polygon class="cls-58" points="1511.09 1100.98 1511.09 1087.18 1514.52 1087.18 1512.75 1101.01 1511.09 1100.98"/>
                  <polygon class="cls-87" points="1644.05 981.82 1639.24 1015.86 1646.08 1042.27 1653.66 1013.08 1644.05 981.82"/>
                  <path class="cls-79" d="m1558.9,864.86s-41.46-1.86-73.82-2.5c-32.37-.65-66.05,2.92-66.05,2.92l139.87-.42Z"/>
                  <polygon class="cls-19" points="1586.85 1019.03 1596.42 1019.03 1596.42 1087.18 1613.85 1087.18 1613.85 977.82 1628.1 976.02 1628.1 1102.36 1586.85 1103.03 1586.85 1019.03"/>
                  <path class="cls-21" d="m1998.37,821.7l-114.26,1.56v-.27s-330.75-1.29-330.75-1.29c-65.45,0-261.71,6.47-261.71,6.47l1.59,9.06,94.09-.48,11.59,9.27,173.1,5.1-3.98-13.89,88.61-3.12-2.99,28.25.14.18-13.1.31-54.85-.49.07,10.68,55.17,3.39,1.54,53.04,49.07,70.93v-68.98l-32.99-2.43,6.76-80.71,217.38-2.29h0s1.27,85.23,1.27,85.23l-24.09.2v68.98l49.07-70.93,1.54-53.04,55.77-5.78v-8.29l-54.84.08-12.98-.08-2.67-28.19,89.95-2.38-5.43,18.6,172.37-4.38,11.59-9.27,94.09.48,1.59-9.06s-196.26-6.47-261.71-6.47Z"/>
                  <g>
                    <path class="cls-105" d="m2320.53,792.21l-4.75,36.87c-64.15-1.78-129.31-3.11-194.17-4.07h-.13c-378.07-5.57-745.91,1.35-844.88,3.48-16.84.36-25.89.59-25.89.59l-21.47-36.71,539.75-3.29,551.56,3.13Z"/>
                    <path class="cls-81" d="m1794.95,759.26c-535.01-1.37-607.74-1.76-607.74-1.76l24.56,34.87s641.57-3.42,1121.81,0l32.89-37.25s-106.74,5.33-571.52,4.14Z"/>
                    <path class="cls-21" d="m1236.09,805.05l-6.87-12.68s633.22-11.89,1091.31-.16l-2.62,20.3s-800.43-23.17-1081.82-7.46Z"/>
                    <path class="cls-79" d="m1248.99,757.73l971.93,4.07s-287.95,11.04-589.1,6.54c-301.16-4.5-382.82-10.61-382.82-10.61Z"/>
                    <path class="cls-21" d="m2121.6,825.01h-.13c-378.07-5.57-745.91,1.35-844.88,3.48,20.41-2.4,114.8-11.41,392.48-13.31,320.97-2.2,452.53,9.84,452.53,9.84Z"/>
                    <polygon class="cls-61" points="2238.89 790.4 2113.66 788.5 2155.67 763.92 2279.31 760.16 2238.89 790.4"/>
                    <path class="cls-88" d="m1314.82,790.99s24.89-3.99,31.73-3.95,27.51,4.45,27.51,4.45l-59.23-.5Z"/>
                  </g>
                  <path class="cls-21" d="m1678.57,905.96l4.36,2.64,179.9,2.45,4.62-2.45s-102.5-3.17-188.88-2.64Z"/>
                  <path class="cls-87" d="m2030.72,823.9s16.67-5.86,30.26-6.81c13.59-.95,57.97,7.88,57.97,7.88l-88.23-1.07Z"/>
                  <g>
                    <path class="cls-87" d="m1813.36,905.2s28.25-48.89,42.16-51.4c0,0-17.03,25.85-42.16,51.4Z"/>
                    <path class="cls-103" d="m1855.52,853.8s-9.67,17.33-42.16,51.4c0,0,7.98-4.28,19.74-15.97,11.77-11.69,22.42-35.43,22.42-35.43Z"/>
                  </g>
                  <path class="cls-87" d="m1482.51,892.88v166.31h2.56v-84.01s4.88-9.31,4.09-17.4c-.79-8.09-4.09-22.75-4.09-22.75l-2.56-42.15Z"/>
                  <polygon class="cls-21" points="1446.37 1067.64 1449.93 1059.18 1536.71 1059.18 1529.32 892.23 1536.71 882.72 1544.11 901.74 1550.87 1077.6 1474.17 1074.18 1446.37 1067.64"/>
                  <polygon class="cls-25" points="1448.51 908.6 1482.51 908.48 1482.51 1059.18 1449.93 1059.18 1448.51 908.6"/>
                  <polygon class="cls-16" points="2099.02 893.28 2074.83 892.95 2069.74 1059.18 2099.02 1059.18 2099.02 893.28"/>
                  <polygon class="cls-26" points="2043.92 1059.18 2050.26 892.95 2034.09 894.48 2022.94 1059.18 2043.92 1059.18"/>
                  <polygon class="cls-6" points="2015.54 882.72 2008.14 895.81 2001.92 1077.6 2093.85 1077.6 2105.89 1067.64 2099.02 1059.18 2015.54 1059.18 2022.94 892.23 2015.54 882.72"/>
                </g>
                <path class="cls-21" d="m1832.55,760.82s-21.81,20.96-45.89,62.85h7.48l-32.99,57.74-319.15-28.91v-92.13l390.55.45Z"/>
                <path class="cls-55" d="m2139.49,761.52l-73.5-6.4s1.61-42.72,2.11-70.02l-10.9-6.78s-.93-10.53-14.12-23.74c-13.19-13.21-28.32-5.98-30.81-12.93-2.49-6.95,1.73-14.68,1.73-14.68,0,0,5.94-2.47,8.39-6.71,2.44-4.25,4.03-15.49-.03-17.67-4.07-2.18-5.43-6.21-5.43-6.21l3.51-32.76s-27.42-13.64-39.36-5.08l.15,35.81s-8.23,7.37-9.33,10.76c-1.41,4.35,1.62,18.23,1.62,18.23l7.2,5.91-1.39,14.61-15.69,16.28s-170.53,25.57-213.49,32.76l139.23,29.45,120.39-3.84,12.58,42.75,117.14.27Z"/>
                <g>
                  <path class="cls-57" d="m2045.13,758.51c-4.58,5-75.27,0-82.23,0s-17.03-30.57-12.28-69.48c3.67-30.07,19.63-32.84,28.44-37.16h0c2.59-1.27,4.56-2.67,5.43-4.94,2.31-6.06,2.71-15.69,2.68-22.31-.02-4.28-.23-7.31-.23-7.31h24.67s-.56,2.84-1.05,6.83c-.23,1.81-.44,3.86-.59,5.98-.4,5.91-.27,12.43,1.64,16.11,4.11,7.92,37.95,1.72,41.41,35.98,2.29,22.64-3.31,71.29-7.89,76.28Z"/>
                  <path class="cls-66" d="m1969.54,669.14c30.36,3.87,69.74-4.91,69.74-4.91l8.86,65.35-76.22,8.27-2.37-68.7Z"/>
                  <path class="cls-65" d="m2020.44,608.83c.03,5.82-2.26,12.4-2.26,12.4-2.36,1.31-4.95,2.26-7.62,2.92-8.18,2.02-17.21,1.38-23.39.48-4.52-.66-7.5-1.46-7.5-1.46-2.02-5.59-4.28-13.58-4.09-17.49.02-.51.09-.95.2-1.31.34-1.07,4.81-3.91,4.81-3.91,19.92-2.77,29.91.68,37.83,5.4,1.19.71,2.01,1.66,2.04,2.64,0,.11,0,.21,0,.32Z"/>
                  <path class="cls-72" d="m1979.09,602.95c16.72,7.52,37.84,4.76,37.84,4.76,0,0-10.06-4.77-17.97-5.34-14.46-1.03-19.87.58-19.87.58Z"/>
                  <path class="cls-70" d="m1984.49,560.23s.13,25.76,2.77,45.57c0,0,15.74,3.88,25.1,1.91,0,0,2.91-21.21,5.82-41.59,0,0-14.97-12.45-33.69-5.89Z"/>
                  <path class="cls-77" d="m1984.49,560.23c5.64,5.04,10.24,8.53,15.12,9.47l1.86-4.13,5.55,3.52c6.72-.31,11.15-2.97,11.15-2.97,0,0-8.72-6.69-18.19-7.51-9.87-.85-15.49,1.62-15.49,1.62Z"/>
                  <path class="cls-63" d="m2062.2,685.84c-.11,5.26-.32,10.34-.61,15.2,0,0-2.14,4-2.87,6.75-1.52,5.77,1.79,7.81,1.53,10.38-2.55,25.97-6.6,42.56-6.6,42.56h-97.41c-10.75-24.3-13.28-66.28-13.6-67.31l1.82-1,6.14-3.39c-.06.23-1.06,5.41,39.17,4.74,41.11-.69,63.24-11.54,63.24-11.54l9.18,3.62Z"/>
                  <path class="cls-59" d="m2062.2,685.84s-17.71,16.1-119.55,7.58l7.96-4.4c-.06.23-1.06,5.41,39.17,4.74,41.11-.69,63.24-11.54,63.24-11.54l9.18,3.62Z"/>
                  <path class="cls-62" d="m2020.44,608.83c.03,5.82-2.26,12.4-2.26,12.4-2.36,1.31-4.95,2.26-7.62,2.92-.23,1.81-.44,3.86-.59,5.98-11.96,20.41-30.9,21.74-30.9,21.74h0c2.59-1.27,4.56-2.67,5.43-4.94,2.31-6.06,2.71-15.69,2.68-22.31-4.52-.66-7.5-1.46-7.5-1.46-2.02-5.59-4.28-13.58-4.09-17.49.09-.45.15-.89.2-1.31,0,0,22.3,6.81,44.67,4.46Z"/>
                  <path class="cls-64" d="m1998,661.39c10.85,3.09,24.36,0,24.36-2.07s-11.7-8.03-16.45-7.46c-4.74.57-9.46,9.09-7.91,9.53Z"/>
                  <path class="cls-39" d="m1949.39,739.03c4.97,7.08,9.71,15.69,15.41,16.38,5.69.69,75.27-.69,79.7-2.07,4.43-1.38,12.71-11.24,12.71-11.24l-3.54,18.62h-97.41l-6.87-21.7Z"/>
                  <path class="cls-17" d="m1955.44,670.98c3.18,18.31,11.96,18.04,11.96,18.04l2.28-15.73.48,13.96s35.67,13.8,71.38-6.23l.37,2.72s9.6.47,10.6-5.13l.5,3.62s-21.77,9.56-50.59,10.99c-14.63.72-48.44,1.75-51.81-4.19,0,0,.98-4.74,2-10.37,1.03-5.64,2.82-7.67,2.82-7.67Z"/>
                  <path class="cls-38" d="m1947.96,699.62c-3.86,23.82,11.39,48.35,19.21,50.26,7.83,1.91,37.24-44.58,18.74-48.84-18.5-4.26-37.24-5.81-37.95-1.42Z"/>
                  <path class="cls-38" d="m1979.09,748.95c2.78,7.64,12.75-2.07,11.33-4.65-1.42-2.58-4.27-8.21-7.12-5.27-2.85,2.94-5.34,6.82-4.21,9.92Z"/>
                  <path class="cls-59" d="m2053.02,708.92c-77.46,3.8-82.12-3.13-103.63-.52,0,0,11.86,4.99,45.19,6.28,28.97,1.12,58.44-5.75,58.44-5.75Z"/>
                  <path class="cls-39" d="m2033.67,735.54c-.19,0-.39.01-.58.01.21,0,.41-.01.58-.01Z"/>
                  <path class="cls-14" d="m2039.04,760.13s-1.91.22-5.22.6h-77.56c-10.75-24.3-13.28-66.28-13.6-67.31l1.82-1,2.87,1.38c-2.94,1.17,0,14.86,0,14.86,0,0,16.98,3.87,70.83,8.01,0,0-21.35,8.52-48.63,12.91,0,0,.95,27.01,69.5,30.55Z"/>
                  <polygon class="cls-39" points="2001.47 565.57 2002.57 570.67 2004.7 588.88 2007.02 569.09 2001.47 565.57"/>
                </g>
                <g>
                  <g>
                    <path class="cls-102" d="m1412.94,799.26l2.18,14.35,15.25,16.36s219.32,24.7,318.01,15.43h0c1.41-.13,2.81-.26,4.19-.38,0,0,13.09-3.53,26.18-34.49l-15.05-5.43-11.12-8.31,27.48,2.47,4.58,3.88s7.2-33.82,12.43-39.81l83.76-2.51-77.87-12.9s-218.4,8.23-358.44,4.42l2.4,25.7.05.59-37.52,2.05,3.49,18.59Z"/>
                    <path class="cls-73" d="m1412.94,799.26l2.18,14.35,15.25,16.36s219.32,24.7,318.01,15.43h0c.05-.03.08-.05.08-.05,0,0-40.23,2.47-60.96-9.93,0,0,2.98-38.63,26.46-50.61,0,0-161.86-10.03-267-6.2-16.74.61-24.93.2-37.52,2.05l3.49,18.59Z"/>
                    <path class="cls-79" d="m1713.97,784.81s-14.42,1.85-21.67,23.5c0,0-155.68-8.48-279.36-9.06l-3.49-18.59s30.97-2.36,37.52-2.05c6.54.31,54.51-5.04,267,6.2Z"/>
                    <path class="cls-28" d="m1743.74,811.97s-5.33,10.12-29.78,18l-23.48-5.29s1.67-32.44,23.48-37.9c0,0,8.73-3.27,29.78,25.19Z"/>
                    <path class="cls-28" d="m1707.08,800.04c-1.04,5.17-3.37,10.66-2.34,15.04,2.35,10.07,9.23,14.89,9.23,14.89l-24.72-5.48s1.23-16.17,8.79-25.23l9.04.78Z"/>
                    <path class="cls-87" d="m1713.97,786.78c9.61-2.01,25.19,21.27,25.19,24.87s-15.71,9.55-27.16,9.36c0,0-6.54-9.16-5.56-17.11,0,0,2.74-3.45,14.61-.12,0,0-5.77-2.64-8.91-3.2-7.47-1.33-9.62.28-9.62.28,0,0,0,20.29,11.45,29.12,0,0,27.16-8.18,29.78-18,0,0-9.49-22.58-29.78-27.16,0,0-22.9,5.89-28.14,49.08,0,0,3.42,17.63,66.75,11.12,0,0,14.51-5.61,27.48-32.85l-1.31-1.63s-18.6,27.49-26.83,31.87c0,0-40.87,6.09-62.5-9.16,0,0,2.62-41.88,24.54-46.46Z"/>
                    <path class="cls-87" d="m1872.78,761.05c-44.08-6.56-72.87-10.48-72.87-10.48,0,0-6.98,8.38-19.85,48.69l4.58,3.88,12.43-39.81,75.71-2.28Z"/>
                    <polygon class="cls-88" points="1784.64 803.14 1755.94 799.3 1752.58 796.79 1780.06 799.26 1784.64 803.14"/>
                    <path class="cls-73" d="m1788.98,748.4l-20.37,43.61-1.85,6.05,13.3,1.19s12.43-39.53,19.85-48.69l72.87,10.48,8.06-.24-77.87-12.9-13.99.5Z"/>
                    <path class="cls-73" d="m1763.7,805.1s-7.54,18.19-23.12,30.54c0,0-20.08,6.63-38.61,3.75,0,0,22.47,7.59,49.96,3.01l5.06-1.84s13.94-12.64,21.77-30.03l-15.05-5.43Z"/>
                    <polygon class="cls-73" points="1460.07 752.69 1444.52 752.32 1446.97 778.62 1460.07 778 1460.07 752.69"/>
                    <path class="cls-24" d="m1612.32,752.7c3.05,10.08-42.54,9.4-63.91,9.4s-6.87,9.62-33.05,7.88c-39.11-2.6-12.98-16.74-12.98-16.74l109.94-.54Z"/>
                    <path class="cls-24" d="m1662.27,762.1c24.75-7.1,51.26-7.88,57.37,0,6.11,7.88-20.29,21.38-20.29,21.38l-63.7-2.38s-17.89-.87,1.96-4.25,22.79-2.07,15.16-6.87c-7.63-4.8,1.2-5.5,9.49-7.88Z"/>
                    <path class="cls-18" d="m1685.83,833.89c-1.85,20-128.8-31.63-252.51-19.28-11.25,1.12-18.19-1-18.19-1l15.25,16.36s217.26,24.7,322.2,15.05c0,0-35.46-.94-44.58-3.65-12.71-3.79-22.17-7.47-22.17-7.47Z"/>
                    <path class="cls-40" d="m1775.01,748.86c-94.22,25.83-295.33,4.15-295.33,4.15,0,0,162.76-.26,234.29-2.38,71.53-2.12,61.04-1.77,61.04-1.77Z"/>
                    <path class="cls-52" d="m1459.06,811.11s0,0,0,0c1.42-3.71,12.47-22.56,25.77-11.94,1.35,1.08,2.09,2.1,2.34,3.07,14.02-3.17,27.1.83,22.44,8.88-7.48,12.92-22.51,14.72-32.25,11.77-2.25.79-5.28,1.27-9.13,1.23-18.55-.17-19.62-10.61-9.18-12.99Z"/>
                    <path class="cls-52" d="m1437.9,804.11c-13.25,2.7-12.28-13.99,2.38-11.29,14.66,2.7,9.91,8.79-2.38,11.29Z"/>
                  </g>
                  <g>
                    <path class="cls-7" d="m1783.85,787.82s-159.31-6.3-252.91-15.67l-3.89-18.83,263.11-.63,75.42,8.79-68.51,1.83-8.43,26.98-4.8-2.48Z"/>
                    <path class="cls-73" d="m1781.7,754.13l22.02,2.04,5.74.53,1.97.18h.02l48.76,4.51h64.71s5.02-.82,12.47-3.21c0,0,.02,0,.02,0,10.6-3.41,26.11-9.99,39.18-21.91,5.3-4.84,10.2-10.56,14.2-17.3l-.4-1.49-.4-1.53s-1.47-5.69-2.39-11.86c-.81-5.48-1.17-11.35.32-13.96,1.38-2.42,3.76-3.69,6.02-4.33,2.27-.66,4.4-.71,5.24-.69.24,0,.37,0,.37,0h.32c-.69-4.41-2.39-8.29-5.15-11.51-6.37-7.46-18.38-11.36-36.47-9.91-4.03.32-8.38,1.05-13.11,2.22t-.02,0c-3.25.8-6.67,1.81-10.27,3.05-62.82,21.7-100.78,71.41-153.13,85.16Z"/>
                    <path class="cls-24" d="m1965.32,716.13c-5.25,3.39-43.89,38.55-49.14,32.72-22.98-25.58-25.76-41.06-31.13-47.8,0,0,26.77-22.02,51.88-31.4,0,0-10.32,7.79,7.12,7.79s6.12,2.91,6.08,9.25c-.07,10.48-7.81,10.17,4.28,14.13,12.09,3.96,19.19,9.96,10.91,15.31Z"/>
                    <path class="cls-10" d="m1781.7,754.13l78.49,7.26c65.68-9.97,104.05-59.6,98.04-97.7-6.81.55-14.59,2.24-23.39,5.27-62.82,21.7-100.78,71.41-153.13,85.16Z"/>
                    <path class="cls-84" d="m1958.39,663.49s-3.37.22-9.42,1.74c3.31-.59,6.47-1.17,9.42-1.74Z"/>
                    <path class="cls-74" d="m1593.11,726.66l168.96,47.71s53.25-10.18,104.71-59.15c36.65-34.87,67.42-46.31,82.19-50-66.15,11.77-198.8,27.67-198.8,27.67-17.51,7.54-34.39,13.73-50.44,18.67l26.64.8-38.49,2.67c-37.86,10.48-70.46,13.81-94.77,11.62Z"/>
                    <path class="cls-73" d="m1750.17,722.4s-85.19,11.45-142.66,4.26c-57.46-7.2-79.04-18.46-79.04-18.46,0,0-7.35,46.27,11.54,62.54,0,0,135.68-2.98,222.06,3.63,0,0-30.35-17.62-11.9-51.97Z"/>
                    <path class="cls-74" d="m1993.92,685.78c2.27-.66,4.4-.71,5.24-.69.24,0,.37,0,.37,0h.86c-.56-4.95-2.48-9.13-5.75-12.02,0,0,.02.17.06.52.03.37.07.94.1,1.7.07,2.17-.02,5.83-.87,10.49Z"/>
                    <path class="cls-74" d="m1908.26,758.78h21s3.1.22,8.12-.59c0,0,.02,0,.02,0,9.1-1.46,24.49-6.3,39.18-21.91,4.75-5.05,9.43-11.23,13.8-18.79l-.4-1.53s-1.47-5.69-2.39-11.86c-9.33,18.05-30.51,40-78.05,54.32-.42.13-.85.25-1.28.38Z"/>
                    <path class="cls-87" d="m1909.53,758.39l-98.1-1.51,29.32,4.65,84.14-.14h2.24s37.68.12,63.86-41.59l-.22-.84-.4-1.49-.4-1.53c-13.2,21.79-38.02,41.99-63.78,42.71l-16.66-.25Z"/>
                    <path class="cls-87" d="m1743.75,752.47c3.5,15.58,18.32,21.91,18.32,21.91,0,0,19.97-3.38,47.38-17.67,14.16-7.39,30.32-17.69,46.73-31.95,43.22-37.53,76.91-59,102.2-59.9,15.26-.54,29.39,2.23,36.4,10.44,2.27,2.66,3.8,5.91,4.37,9.8.24,0,.37,0,.37,0h2.9c-3.16-22.91-36.92-26.19-57.31-19.19t-.02,0c-25.89,8.89-51.77,23.32-91.39,56.43-19.26,16.09-36.17,26.76-49.99,33.82-25.38,12.97-40.35,13.81-40.35,13.81,0,0-11.85-1.68-16.64-20.42-3.53-13.77,2.73-25.84,3.38-27.05-.87,1.31-9.68,15.13-6.36,29.96Z"/>
                    <path class="cls-8" d="m1745.97,758.8c-35.45,14.53-62.79-9.78-136.49-10.9-73.7-1.12-78.53,13.63-78.53,13.63l9.06,9.22s140.46-2.07,222.06,3.63c0,0-9.06-5.28-11.68-8.9-2.62-3.63-4.42-6.67-4.42-6.67Z"/>
                    <path class="cls-79" d="m1740.36,723.59c-38.55,21.61-158.53,16.77-192.85-8.55,0,0,47.14,16.96,117.84,13.83,70.7-3.13,75.01-5.29,75.01-5.29Z"/>
                    <polygon class="cls-83" points="1699.73 711.57 1699.73 714.22 1726.37 712.37 1699.73 711.57"/>
                    <path class="cls-2" d="m1832.74,738.49s-20.78-2.4-11.8-10.06c8.98-7.66,30.87-4.51,30.87-4.51l-19.08,14.57Z"/>
                    <path class="cls-2" d="m1863.62,714.22c-6.75-1.65-9.92,8.13-9.92,8.13l9.92-8.13Z"/>
                    <path class="cls-2" d="m1843.67,718.5c-7.46,3.92-18.49,3.72-15.59-.31,2.91-4.03,21.4-2.74,15.59.31Z"/>
                    <path class="cls-47" d="m1883.29,682.19c18.45,4.13-110.95,37.52-125.61,36-14.66-1.52-16.64-19.19-6.74-21.85,9.91-2.66,105.8-20.1,132.35-14.15Z"/>
                    <path class="cls-97" d="m2002.43,685.1l-14.53,5.02s.09-3.65,6.02-4.33c5.93-.68,8.51-.68,8.51-.68Z"/>
                  </g>
                </g>
              </g>
              <path class="cls-10" d="m2099.02,761.52l2.56,63.45-37.69-.29-2.91,179.93-154.34,27.96-.97,40.68-1.07,29.79h-13.47v18.51h79.72l2.72,10.02h207.62l36.46,20.61h36.46v-20.61l-3.96-15.06-6.88-.06-4.21-18.17-21.4.29,25.62-233.29h10.83l5.99-37.11,55.69.91,4.76-36.86,13.06.16,32.89-37.25s-130.27,12.03-267.46,6.4Z"/>
              <path class="cls-82" d="m1761.5,0c-5.83,43.16,3.97,132.95,3.97,132.95,0,0-3.97-.86-8.59-.91,0,0-.09-51.56-7.84-132.05h12.45Z"/>
              <path class="cls-69" d="m1764.39,161.46c-4.27,5.72-30.17-8.45-39.77-33.84-.5-1.33,4.42,1.94,6.82,3.59.76.52,1.27.88,1.27.88,18.2,17.93,25.71,8.77,25.71,8.77l3.89.71,4.56.83h0c.12.36,3.72,10.74-2.48,19.04Z"/>
              <path class="cls-50" d="m1764.39,161.46c-4.27,5.72-30.17-8.45-39.77-33.84-.5-1.33,4.42,1.94,6.82,3.59,2.24,10.53,21.16,24.9,28.2,22.67,7.03-2.23,2.68-12.3,2.68-12.3l4.56.83h0c.12.36,3.72,10.74-2.48,19.04Z"/>
              <path class="cls-30" d="m1756.88,142.22s8.82,4.62,10.35,13.45c0,0,2.21-5.88-.37-13.25l-8.45-1.54-1.53,1.35Z"/>
              <path class="cls-32" d="m1756.87,130.53l8.38.32.22,2.1s-6.24-1.03-8.59-.91v-1.52Z"/>
            </g>
            <g>
              <circle class="cls-78" cx="2087.44" cy="695.21" r="13.9" transform="translate(119.81 1679.67) rotate(-45)"/>
              <circle class="cls-76" cx="2128.8" cy="551.62" r="13.9" transform="translate(233.45 1666.85) rotate(-45)"/>
              <circle class="cls-51" cx="2076.39" cy="572.82" r="13.9" transform="translate(203.12 1636.01) rotate(-45)"/>
              <path class="cls-48" d="m2083.34,627.91c0,3.84-3.11,6.95-6.95,6.95s-6.95-3.11-6.95-6.95,3.11-6.95,6.95-6.95,6.95,3.11,6.95,6.95Z"/>
              <circle class="cls-49" cx="2113.12" cy="655.49" r="4.21"/>
            </g>
            <rect class="cls-67" width="3575" height="1300"/>
          </g>
        </g>
      </g>
    </g>
  </g>
</svg>