<?xml version="1.0" encoding="UTF-8"?>
<svg id="Bg" xmlns="http://www.w3.org/2000/svg" xmlns:xlink="http://www.w3.org/1999/xlink" viewBox="0 0 1920 1080">
  <defs>
    <style>
      .cls-1 {
        fill: url(#_Áåçûìÿííûé_ãðàäèåíò_14-2);
      }

      .cls-1, .cls-2, .cls-3, .cls-4, .cls-5, .cls-6, .cls-7, .cls-8, .cls-9, .cls-10, .cls-11, .cls-12, .cls-13, .cls-14, .cls-15, .cls-16, .cls-17, .cls-18, .cls-19, .cls-20, .cls-21, .cls-22, .cls-23, .cls-24, .cls-25, .cls-26, .cls-27, .cls-28 {
        fill-rule: evenodd;
      }

      .cls-2 {
        fill: url(#_Áåçûìÿííûé_ãðàäèåíò_79-2);
      }

      .cls-3 {
        fill: url(#_Áåçûìÿííûé_ãðàäèåíò_14);
      }

      .cls-4 {
        fill: url(#_Áåçûìÿííûé_ãðàäèåíò_89);
      }

      .cls-5 {
        fill: url(#_Áåçûìÿííûé_ãðàäèåíò_173-3);
      }

      .cls-6 {
        fill: url(#_Áåçûìÿííûé_ãðàäèåíò_79);
      }

      .cls-7 {
        fill: url(#_Áåçûìÿííûé_ãðàäèåíò_163-3);
      }

      .cls-8 {
        fill: url(#_Áåçûìÿííûé_ãðàäèåíò_163-4);
      }

      .cls-9 {
        fill: url(#_Áåçûìÿííûé_ãðàäèåíò_12-4);
      }

      .cls-10 {
        fill: url(#_Áåçûìÿííûé_ãðàäèåíò_173);
      }

      .cls-11 {
        fill: url(#_Áåçûìÿííûé_ãðàäèåíò_75);
      }

      .cls-12 {
        fill: url(#_Áåçûìÿííûé_ãðàäèåíò_173-2);
      }

      .cls-29 {
        clip-path: url(#clippath-1);
      }

      .cls-13 {
        fill: url(#_Áåçûìÿííûé_ãðàäèåíò_187);
      }

      .cls-14 {
        fill: url(#_Áåçûìÿííûé_ãðàäèåíò_14-3);
      }

      .cls-15 {
        fill: url(#_Áåçûìÿííûé_ãðàäèåíò_159);
      }

      .cls-16 {
        fill: url(#_Áåçûìÿííûé_ãðàäèåíò_12-2);
      }

      .cls-17 {
        fill: url(#_Áåçûìÿííûé_ãðàäèåíò_12);
      }

      .cls-18 {
        fill: url(#_Áåçûìÿííûé_ãðàäèåíò_163-2);
      }

      .cls-18, .cls-19 {
        opacity: .5;
      }

      .cls-19 {
        fill: url(#_Áåçûìÿííûé_ãðàäèåíò_163);
      }

      .cls-30 {
        fill: none;
      }

      .cls-20 {
        fill: url(#_Áåçûìÿííûé_ãðàäèåíò_12-6);
      }

      .cls-21 {
        fill: url(#_Áåçûìÿííûé_ãðàäèåíò_12-3);
      }

      .cls-22 {
        fill: url(#_Áåçûìÿííûé_ãðàäèåíò_159-2);
      }

      .cls-23 {
        fill: url(#_Áåçûìÿííûé_ãðàäèåíò_12-5);
      }

      .cls-24 {
        fill: url(#_Áåçûìÿííûé_ãðàäèåíò_14-4);
      }

      .cls-25 {
        fill: url(#_Áåçûìÿííûé_ãðàäèåíò_159-3);
      }

      .cls-26 {
        fill: url(#_Áåçûìÿííûé_ãðàäèåíò_176-2);
      }

      .cls-27 {
        fill: url(#_Áåçûìÿííûé_ãðàäèåíò_176);
      }

      .cls-28 {
        fill: url(#_Áåçûìÿííûé_ãðàäèåíò_183);
      }
    </style>
    <clipPath id="clippath-1">
      <rect class="cls-30" x="-325.27" width="2266.9" height="1133.45"/>
    </clipPath>
    <linearGradient id="_Áåçûìÿííûé_ãðàäèåíò_173" data-name="Áåçûìÿííûé ãðàäèåíò 173" x1="1137.39" y1="336.76" x2="1137.39" y2="112.94" gradientUnits="userSpaceOnUse">
      <stop offset="0" stop-color="#c7b6ff"/>
      <stop offset=".19" stop-color="#cecbff"/>
      <stop offset=".4" stop-color="#d4dbff"/>
      <stop offset=".64" stop-color="#d7e4ff"/>
      <stop offset=".95" stop-color="#d9e8ff"/>
    </linearGradient>
    <linearGradient id="_Áåçûìÿííûé_ãðàäèåíò_14" data-name="Áåçûìÿííûé ãðàäèåíò 14" x1="975.07" y1="251.77" x2="975.07" y2="112.84" gradientUnits="userSpaceOnUse">
      <stop offset="0" stop-color="#ebe4ff"/>
      <stop offset=".17" stop-color="#f2eaff"/>
      <stop offset=".53" stop-color="#fbf2ff"/>
      <stop offset="1" stop-color="#fff5ff"/>
    </linearGradient>
    <linearGradient id="_Áåçûìÿííûé_ãðàäèåíò_14-2" data-name="Áåçûìÿííûé ãðàäèåíò 14" x1="1140.43" y1="273.63" x2="1140.43" y2="210.45" xlink:href="#_Áåçûìÿííûé_ãðàäèåíò_14"/>
    <linearGradient id="_Áåçûìÿííûé_ãðàäèåíò_14-3" data-name="Áåçûìÿííûé ãðàäèåíò 14" x1="1244.41" y1="221.62" x2="1244.41" y2="148.4" xlink:href="#_Áåçûìÿííûé_ãðàäèåíò_14"/>
    <linearGradient id="_Áåçûìÿííûé_ãðàäèåíò_14-4" data-name="Áåçûìÿííûé ãðàäèåíò 14" x1="1351.9" y1="286.24" x2="1351.9" y2="235.92" xlink:href="#_Áåçûìÿííûé_ãðàäèåíò_14"/>
    <linearGradient id="_Áåçûìÿííûé_ãðàäèåíò_79" data-name="Áåçûìÿííûé ãðàäèåíò 79" x1="1453.47" y1="246.51" x2="1453.47" y2="215.21" gradientUnits="userSpaceOnUse">
      <stop offset="0" stop-color="#f1e6ff"/>
      <stop offset=".07" stop-color="#f3e8ff"/>
      <stop offset=".47" stop-color="#fcf1ff"/>
      <stop offset="1" stop-color="#fff5ff"/>
    </linearGradient>
    <linearGradient id="_Áåçûìÿííûé_ãðàäèåíò_89" data-name="Áåçûìÿííûé ãðàäèåíò 89" x1="1438.43" y1="318.75" x2="1438.43" y2="293.39" gradientUnits="userSpaceOnUse">
      <stop offset="0" stop-color="#ebbdf0"/>
      <stop offset=".03" stop-color="#ecc1f1"/>
      <stop offset=".23" stop-color="#f4d8f7"/>
      <stop offset=".44" stop-color="#fae8fb"/>
      <stop offset=".68" stop-color="#fdf1fe"/>
      <stop offset="1" stop-color="#fff5ff"/>
    </linearGradient>
    <linearGradient id="_Áåçûìÿííûé_ãðàäèåíò_79-2" data-name="Áåçûìÿííûé ãðàäèåíò 79" x1="1038.18" y1="294.57" x2="1038.18" y2="269.44" xlink:href="#_Áåçûìÿííûé_ãðàäèåíò_79"/>
    <linearGradient id="_Áåçûìÿííûé_ãðàäèåíò_12" data-name="Áåçûìÿííûé ãðàäèåíò 12" x1="879.23" y1="284.48" x2="879.23" y2="261.02" gradientUnits="userSpaceOnUse">
      <stop offset="0" stop-color="#9f9fff"/>
      <stop offset=".05" stop-color="#a1a2fe"/>
      <stop offset=".3" stop-color="#acb2fb"/>
      <stop offset=".6" stop-color="#b2bcf9"/>
      <stop offset=".99" stop-color="#b5bff9"/>
    </linearGradient>
    <linearGradient id="_Áåçûìÿííûé_ãðàäèåíò_12-2" data-name="Áåçûìÿííûé ãðàäèåíò 12" x1="1244.58" y1="325.28" x2="1244.58" y2="286.1" xlink:href="#_Áåçûìÿííûé_ãðàäèåíò_12"/>
    <linearGradient id="_Áåçûìÿííûé_ãðàäèåíò_173-2" data-name="Áåçûìÿííûé ãðàäèåíò 173" x1="1491.76" y1="283.86" x2="1491.76" y2="-117.77" xlink:href="#_Áåçûìÿííûé_ãðàäèåíò_173"/>
    <linearGradient id="_Áåçûìÿííûé_ãðàäèåíò_12-3" data-name="Áåçûìÿííûé ãðàäèåíò 12" x1="1297.28" y1="245.47" x2="1297.28" y2="160.24" xlink:href="#_Áåçûìÿííûé_ãðàäèåíò_12"/>
    <linearGradient id="_Áåçûìÿííûé_ãðàäèåíò_12-4" data-name="Áåçûìÿííûé ãðàäèåíò 12" x1="1668.61" y1="285.05" x2="1668.61" y2="182.3" xlink:href="#_Áåçûìÿííûé_ãðàäèåíò_12"/>
    <linearGradient id="_Áåçûìÿííûé_ãðàäèåíò_75" data-name="Áåçûìÿííûé ãðàäèåíò 75" x1="1186.03" y1="125.27" x2="1186.03" y2="-19.18" gradientUnits="userSpaceOnUse">
      <stop offset="0" stop-color="#ebdcff"/>
      <stop offset=".24" stop-color="#f4e8ff"/>
      <stop offset=".57" stop-color="#fcf1ff"/>
      <stop offset="1" stop-color="#fff5ff"/>
    </linearGradient>
    <linearGradient id="_Áåçûìÿííûé_ãðàäèåíò_176" data-name="Áåçûìÿííûé ãðàäèåíò 176" x1="1469.41" y1="83.04" x2="1469.41" y2="-42.48" gradientUnits="userSpaceOnUse">
      <stop offset="0" stop-color="#ebebff"/>
      <stop offset=".17" stop-color="#f2eeff"/>
      <stop offset=".53" stop-color="#fbf3ff"/>
      <stop offset="1" stop-color="#fff5ff"/>
    </linearGradient>
    <linearGradient id="_Áåçûìÿííûé_ãðàäèåíò_163" data-name="Áåçûìÿííûé ãðàäèåíò 163" x1="1393.82" y1="172.04" x2="1381.18" y2="124.86" gradientUnits="userSpaceOnUse">
      <stop offset="0" stop-color="#cfc8ff"/>
      <stop offset=".18" stop-color="#e2d9ff"/>
      <stop offset=".41" stop-color="#f2e9ff"/>
      <stop offset=".66" stop-color="#fbf2ff"/>
      <stop offset="1" stop-color="#fff5ff"/>
    </linearGradient>
    <linearGradient id="_Áåçûìÿííûé_ãðàäèåíò_176-2" data-name="Áåçûìÿííûé ãðàäèåíò 176" x1="1550.07" y1="155.13" x2="1550.07" y2="128.81" xlink:href="#_Áåçûìÿííûé_ãðàäèåíò_176"/>
    <linearGradient id="_Áåçûìÿííûé_ãðàäèåíò_159" data-name="Áåçûìÿííûé ãðàäèåíò 159" x1="1674.01" y1="170.56" x2="1643.71" y2="57.47" gradientUnits="userSpaceOnUse">
      <stop offset="0" stop-color="#dcd7ff"/>
      <stop offset=".07" stop-color="#e2dcff"/>
      <stop offset=".33" stop-color="#f2eaff"/>
      <stop offset=".62" stop-color="#fbf2ff"/>
      <stop offset="1" stop-color="#fff5ff"/>
    </linearGradient>
    <linearGradient id="_Áåçûìÿííûé_ãðàäèåíò_159-2" data-name="Áåçûìÿííûé ãðàäèåíò 159" x1="1754.93" y1="249.4" x2="1738.67" y2="188.74" xlink:href="#_Áåçûìÿííûé_ãðàäèåíò_159"/>
    <linearGradient id="_Áåçûìÿííûé_ãðàäèåíò_159-3" data-name="Áåçûìÿííûé ãðàäèåíò 159" x1="1841.07" y1="217.44" x2="1823.02" y2="150.05" xlink:href="#_Áåçûìÿííûé_ãðàäèåíò_159"/>
    <linearGradient id="_Áåçûìÿííûé_ãðàäèåíò_163-2" data-name="Áåçûìÿííûé ãðàäèåíò 163" x1="1263.92" y1="190.84" x2="1240.14" y2="102.1" xlink:href="#_Áåçûìÿííûé_ãðàäèåíò_163"/>
    <linearGradient id="_Áåçûìÿííûé_ãðàäèåíò_173-3" data-name="Áåçûìÿííûé ãðàäèåíò 173" x1="750.91" y1="160.24" x2="750.91" y2="-40.47" xlink:href="#_Áåçûìÿííûé_ãðàäèåíò_173"/>
    <linearGradient id="_Áåçûìÿííûé_ãðàäèåíò_12-5" data-name="Áåçûìÿííûé ãðàäèåíò 12" x1="561.25" y1="108.53" x2="561.25" y2="53.22" xlink:href="#_Áåçûìÿííûé_ãðàäèåíò_12"/>
    <linearGradient id="_Áåçûìÿííûé_ãðàäèåíò_12-6" data-name="Áåçûìÿííûé ãðàäèåíò 12" x1="879.61" y1="160.24" x2="879.61" y2="80.87" xlink:href="#_Áåçûìÿííûé_ãðàäèåíò_12"/>
    <linearGradient id="_Áåçûìÿííûé_ãðàäèåíò_163-3" data-name="Áåçûìÿííûé ãðàäèåíò 163" x1="632.97" y1="123.69" x2="605.97" y2="22.93" xlink:href="#_Áåçûìÿííûé_ãðàäèåíò_163"/>
    <linearGradient id="_Áåçûìÿííûé_ãðàäèåíò_163-4" data-name="Áåçûìÿííûé ãðàäèåíò 163" x1="770.66" y1="116.22" x2="748.56" y2="33.74" xlink:href="#_Áåçûìÿííûé_ãðàäèåíò_163"/>
    <linearGradient id="_Áåçûìÿííûé_ãðàäèåíò_187" data-name="Áåçûìÿííûé ãðàäèåíò 187" x1="673.51" y1="39.69" x2="651.6" y2="-42.08" gradientUnits="userSpaceOnUse">
      <stop offset="0" stop-color="#ebe8ff"/>
      <stop offset=".17" stop-color="#f2ecff"/>
      <stop offset=".53" stop-color="#fbf3ff"/>
      <stop offset="1" stop-color="#fff5ff"/>
    </linearGradient>
    <linearGradient id="_Áåçûìÿííûé_ãðàäèåíò_183" data-name="Áåçûìÿííûé ãðàäèåíò 183" x1="899.9" y1="116.98" x2="892.18" y2="88.19" gradientUnits="userSpaceOnUse">
      <stop offset="0" stop-color="#ded9ff"/>
      <stop offset=".05" stop-color="#e2dcff"/>
      <stop offset=".32" stop-color="#f2eaff"/>
      <stop offset=".61" stop-color="#fbf2ff"/>
      <stop offset="1" stop-color="#fff5ff"/>
    </linearGradient>
    <clipPath id="clippath-2">
      <rect class="cls-30" x="0" width="2266.9" height="1133.45"/>
    </clipPath>
  </defs>
  <g class="cls-29">
    <g>
      <g>
        <path class="cls-10" d="m553.3,267.37s100.01,17.39,217.47,16.88l-34.26-16.65s116.11,13.52,239.42,16.66l-16.87,8.68s100.99,21.03,192.01,24.32c0,0,283.19,10.58,336.67.29,0,0,33.93-5.96,42.36-4.43,0,0,27.17,7.61,35.64,8.93,8.47,1.32,58.32,5.15,99.74,8.99,41.42,3.84,55.99,5.73,55.99,5.73l-49.6-9.31s1.79-7.93-7.41-13.04c0,0-14.06-.77-30.17,3.84l-4.86,1.02s-5.37-11.28-18.79-17.21c0,0-11.31-10.53-42.09-9.38,0,0-6.59,4.96-9.94,15.6,0,0-3.58-1.53-32.73-3.07,0,0,8.42-47.81-19.95-64.69,0,0-15.33-19.18-65.19-25.31,0,0-41.42,3.83-49.09,20.71,0,0-4.6-3.07-38.35,6.9,0,0-.77-28.38-14.57-45.25,0,0-16.11-40.65-115.82-49.09,0,0-45.25,25.31-54.46,65.2,0,0-15.09-5.62-31.06-2.56-15.98,3.07-21.09,15.07-21.09,15.07,0,0-11.25-89.73-66.48-113.25,0,0-86.93,2.05-132.95,55.23-46.02,53.18-42.19,74.66-42.19,74.66,0,0-40.15,15.85-63.92,17.13,0,0-9.73-12.02-44.88-13.04,0,0-25.95-3.44-33.1,16.62,0,0-19.52-13.25-63.41,0l-116.08,3.83Z"/>
        <path class="cls-3" d="m874.69,242.83s51.26,11.14,97.24,8.55c0,0,20.28.22,33.81-20.45,0,0-2.7-9.26-6.76-21.73,0,0,37.86-2.5,57.47-15.94,19.61-13.43,19.02-57.38,19.02-57.38l-25.64-22.94s-47.94-3.27-98.08,27.08c0,0-68.82,38.01-77.06,102.81Z"/>
        <path class="cls-1" d="m1116.3,226.2s-7.34,30.67-6.44,45.45c0,0,28.85,8.45,50.49-9.57l5.41-17.63s9.92-17.89,2.7-30.78c0,0-47.25-12.79-52.16,12.52Z"/>
        <path class="cls-14" d="m1222.92,148.48s-36.58,22.09-51.83,56.58c0,0,7.72,17.48,59.79,16.52,0,0,17.78-8.8,26.36-28.32,0,0,15.03-21.59,60.49-17.4,0,0-28.63-29.21-94.81-27.38Z"/>
        <path class="cls-24" d="m1353.31,242.83s-41.37,6.74-81.18,41.85c0,0,33.44,5.62,64.95-4.42l9.87-14.13s1.83,9.7,26.14,5.53c24.31-4.17,58.56-28.57,58.56-28.57l-40-7.16s-17.46.95-38.35,6.9Z"/>
        <path class="cls-6" d="m1397.32,229.03s22.47,8.81,48.71,14.96c26.24,6.15,63.59-.92,63.59-.92,0,0-8.77-21.56-68.87-27.87,0,0-24.39.14-43.43,13.82Z"/>
        <path class="cls-4" d="m1367.24,318.75s42.46-23.92,75.43-25.3c32.98-1.38,66.95,20.8,66.95,20.8,0,0-32.53,3.42-56.15,4.5,0,0,2.5-6.95-23.36-8.88-25.85-1.93-62.87,8.88-62.87,8.88Z"/>
        <path class="cls-2" d="m959.06,292.94s35.18-21.48,67.63-23.34c32.45-1.87,72.35,13.28,90.6,24.98l-41.83-9.9s-10.83-6.29-46.74,0c-35.91,6.29-69.66,8.26-69.66,8.26Z"/>
        <path class="cls-17" d="m975.93,284.26s27.28-14.82,46.03-14.66c0,0-98.48-7.38-154.84-8.51,0,0-73.01-.76-98.89,3.2-25.88,3.96-31.73,3.31-31.73,3.31,0,0,70.32,6.18,142.73,12.28,72.41,6.11,96.7,4.38,96.7,4.38Z"/>
        <path class="cls-16" d="m959.06,292.94s37.64-4.31,56.14-6.69c18.5-2.38,170.39,26.65,196.08,26.38,0,0,54.8-16.22,97.72-18.05,42.92-1.83,87.08,8.07,87.08,8.07l-28.84,16.11s124.02,3.92,162.87-5.63c0,0-48.46,11.65-113.32,10.24,0,0-277.19,13.38-457.73-30.42Z"/>
      </g>
      <g>
        <path class="cls-12" d="m1072.5,161.5s84.06,21.2,167.18,32.4c0,0,65.23.88,99.18,20.8,0,0,57.26,29.37,136.47,29.37,97.63,0,16.43-36.97,16.43-36.97,0,0,113.25,34.81,162.82,37.21,0,0,139.3,5.31,172.96,23.86l17.6,12.75s28.34,6.6,65.88,0c0,0-35.19,2.93-61.63-16.6,0,0,43.68-65.61,10.39-99.22,0,0-23.57-30.62-50.49-7.82,0,0-12.32,18.62-13.74,34.23,0,0-1.42-24-9.21-30,0,0-15.58-7.2-32.59,12,0,0-4.25-70.81-43.92-96.61,0,0-24.79-24.6-88.55-11.4,0,0-22.39,37.04-29.75,96.01,0,0-2.83-30-18.42-31.2,0,0,13.46-76.81-13.46-121.22,0,0-29.99-48.81-116.41-38.41,0,0-39.67,11.2-54.81,63.14,0,0,8.05-52.74-21.23-110.35,0,0-26.45-49.61-94.45-40.01,0,0-27.39,14.4-48.17,104.02,0,0-26.45-16-42.5,4.8,0,0-16.06,10.3-21.72,90.76,0,0-3.78,20.05-11.44,33.25-8.43,14.51-14.53,18.4-14.53,18.4,0,0-1.42-18.4-16.53-18.4,0,0-15.11,6.8-16.53,45.21h-28.81Z"/>
        <path class="cls-21" d="m1072.5,161.5s45.96-2.85,75.71,0l-7.78,4.97s99.06-5.99,195.4,5.1c0,0-5.32,7.81-12.88,19.45,0,0,62.31-3.12,128.45,14.41,66.14,17.53,70.66,30.48,70.66,30.48,0,0-16.44,18.34-106.95,4.2-90.51-14.14-117.83-39.81-117.83-39.81,0,0-34.3-5.26-113.84-15.3-79.54-10.03-110.94-23.51-110.94-23.51Z"/>
        <path class="cls-9" d="m1491.76,207.11s-25.99-16.08-61.64-24.81c0,0,178.18,21.03,222.53,39.32,0,0,15.35,5.1,16.95,14.3h27.81s15.97-21.51,47.92-19.15c31.95,2.36,57.45,12.28,65.01,25.27,0,0-3.66,6.61-13.93,9.09,0,0,19.77.58,41.32,9.95,21.56,9.37,19.36,16.61,19.36,16.61,0,0,32,5.85,50,3.87,0,0-18.18,8.25-61.96-.64,0,0-23.47-17.87-74.47-26.37-51.01-8.5-111.46-8.04-111.46-8.04,0,0,7.19,2.02-28.24-4.86-35.43-6.88-117.75-23.9-139.21-34.54Z"/>
        <path class="cls-11" d="m1143.09,125.27s16.15-8.39,27.99-24.68l11.84-17.55v8.34s24.79-2.83,38.96-38.25c14.17-35.42,2.69-65.65,2.69-65.65,0,0-23.52-17.8-42.5,4.8-18.98,22.6-19.94,97.96-38.98,132.99Z"/>
        <path class="cls-27" d="m1388.43,33.82l-12.82,49.23s96.34-3.73,123.97-24.61c0,0,2.07-10.63-7.82-24.61,0,0,50.05-2.51,71.44-18.16,0,0-31.03-61.99-113.21-57.95,0,0-38.13,10.04-61.57,76.11Z"/>
        <path class="cls-19" d="m1322.96,191.03s23.26-41.55,45.57-61.74c0,0,44.24-19.71,88.71-4.01,0,0-2.62,16.69-42.13,34.97h-25.02s-48.96,9.29-67.14,30.79Z"/>
        <path class="cls-26" d="m1573.11,130.3s-46.37-9.19-63.49,18.1c0,0,20.72,6.69,40.76,6.72,20.04.03,40.14,0,40.14,0,0,0-1.26-18.49-17.41-24.82Z"/>
        <path class="cls-15" d="m1591.53,161.5s24.94.01,55.4,16.31c0,0,45.27-82.8,62.21-84.3,16.94-1.5,29.48,19.43,29.48,19.43,0,0-12.8-39-60.04-49.4-47.23-10.41-57.3,1.95-57.3,1.95,0,0-27.07,37.91-29.75,96.01Z"/>
        <path class="cls-22" d="m1697.41,235.92s12.57-33.8,34.53-44.89c21.96-11.09,64.5,15.16,73.28,44.89,0,0-31.51-25.44-66.6-19.29-35.09,6.15-41.21,19.29-41.21,19.29Z"/>
        <path class="cls-25" d="m1795.55,191.51s5.34,23.16,29.9,30.11c0,0,32.87-40.95,38.96-39.32,6.1,1.63,7.77,19.63,7.77,19.63,0,0,4.32-51.76-44.82-52.94,0,0-17.11,3.42-22.14,9.92-7.87,10.15-9.67,32.59-9.67,32.59Z"/>
        <path class="cls-18" d="m1140.43,166.48s31.4-42.74,76.73-57.85c45.34-15.11,97.29-13.22,118.54-5.19,21.25,8.03,25.97,15.77,25.97,15.77,0,0-5.19-2.36-15.58-2.93-10.39-.57-32.11,33.39-34,38.84,0,0,9.92-6.05,19.84,0s3.9,16.46,3.9,16.46c0,0-124.58-12.41-195.4-5.1Z"/>
      </g>
      <g>
        <path class="cls-5" d="m432.55,55.67s124.54,4.22,257.01,52.86c0,0,5.17,2.13,12.15-7.08,0,0,57.27,14.88,99.78,21.96,42.5,7.08,78.83,8.5,78.83,8.5,0,0,29.55,4.96,54.35,11.33,24.79,6.38,134.6,17,134.6,17l-83.36-14.4s-4.19-19.73-18.42-25.03c0,0-15.11,2.83-17.95,8.5,0,0,4.72-21.72-2.36-33.53,0,0-18.42-17.56-42.5-10.9l-11.81,5.72s9.51-43.42-8.94-66.09c0,0-13.49-32.11-104.76-22.67,0,0-15.16,6.63-19.21,30.24,0,0-8.37-45.35-28.41-59.52,0,0-57.81-29.28-115.43,0,0,0-17.44,27.39-24,73.67,0,0-22.71-10.39-39.97,0,0,0-4.61,4.52,0,21.49,0,0-23.35-17.71-34.74-20.54-8.93-2.22-84.87,8.5-84.87,8.5Z"/>
        <path class="cls-23" d="m432.55,55.67s35.64-5.51,73.06,0c37.42,5.51,46.54,12.04,46.54,12.04l12.73,5.67s-10.24-4.22-14.69-16.4c0,0,40.42-6.51,93.79,13.33,53.37,19.84,45.57,38.22,45.57,38.22l-257.01-52.86Z"/>
        <path class="cls-20" d="m701.71,101.44s.22-6.23-11.75-20.57c0,0,99.96,4,135.85,20.57,0,0,5.93,12.26-11.81,16.66,0,0,28.81-2.74,58.56,0,29.75,2.74,64.58,18.85,66.71,21.07h-14.88s47.02,4.16,83.08,10.39c36.06,6.23,61.79,10.68,61.79,10.68,0,0-88.55-8.46-134.36-14.37l-6.61-4.96s-32.04-7.87-54.07-9.45c0,0-29.87,0-80.52-7.44-50.65-7.44-91.99-22.59-91.99-22.59Z"/>
        <path class="cls-7" d="m550.2,56.98s-1.06-14.24,6.26-20.38c0,0,16.77-8.74,42.03,3.54l5.9,11.33s12.69-4.03,44.16,1.74c48.41,8.88,41,55.3,41,55.3,0,0-16.68-33.91-73.12-46.42-37.91-8.41-66.24-5.12-66.24-5.12Z"/>
        <path class="cls-8" d="m689.96,80.87s21.89-32.39,46.55-43.33c24.66-10.93,68.13-1.42,78.05,4.96s13.46,21.96,13.46,21.96l-11.33-4.58s11.9,29.1,9.13,41.55c0,0-63.52-22.58-135.85-20.57Z"/>
        <path class="cls-13" d="m594.94,30.24s26.93,12.98,65.18,12.98c0,0,37.05-7.79,56.07-32.59,19.02-24.79,15.36-38.08,15.36-38.08,0,0-60.96-35.95-115.43,0,0,0-15.52,24.17-21.18,57.69Z"/>
        <path class="cls-28" d="m846.91,116.9s45.17-26.97,57.77-32.03c0,0,19.99-7.14,42.5,10.9,0,0-2.04,8.4-15.74,12.75,0,0-5.19-2.93-24.56,0-19.36,2.93-48.17,8.37-48.17,8.37h-11.8Z"/>
      </g>
    </g>
  </g>
</svg>