<?xml version="1.0" encoding="UTF-8"?>
<svg id="Bg" xmlns="http://www.w3.org/2000/svg" xmlns:xlink="http://www.w3.org/1999/xlink" viewBox="0 0 1920 1080">
  <defs>
    <style>
      .cls-1 {
        fill: #fff;
        opacity: 0;
      }

      .cls-2 {
        fill: url(#_Áåçûìÿííûé_ãðàäèåíò_209);
      }

      .cls-2, .cls-3, .cls-4, .cls-5, .cls-6, .cls-7, .cls-8 {
        fill-rule: evenodd;
      }

      .cls-3 {
        fill: url(#_Áåçûìÿííûé_ãðàäèåíò_173);
      }

      .cls-9 {
        clip-path: url(#clippath-1);
      }

      .cls-4 {
        fill: url(#_Áåçûìÿííûé_ãðàäèåíò_12-2);
      }

      .cls-5 {
        fill: url(#_Áåçûìÿííûé_ãðàäèåíò_12);
      }

      .cls-10 {
        fill: none;
      }

      .cls-6 {
        fill: url(#_Áåçûìÿííûé_ãðàäèåíò_12-3);
      }

      .cls-7 {
        fill: url(#_Áåçûìÿííûé_ãðàäèåíò_209-3);
      }

      .cls-8 {
        fill: url(#_Áåçûìÿííûé_ãðàäèåíò_209-2);
      }
    </style>
    <clipPath id="clippath-1">
      <rect class="cls-10" x="0" width="2266.9" height="1133.45"/>
    </clipPath>
    <linearGradient id="_Áåçûìÿííûé_ãðàäèåíò_173" data-name="Áåçûìÿííûé ãðàäèåíò 173" x1="212.69" y1="76.49" x2="212.69" y2="-80.57" gradientTransform="translate(115.1 186.3) rotate(-7.31)" gradientUnits="userSpaceOnUse">
      <stop offset="0" stop-color="#c7b6ff"/>
      <stop offset=".19" stop-color="#cecbff"/>
      <stop offset=".4" stop-color="#d4dbff"/>
      <stop offset=".64" stop-color="#d7e4ff"/>
      <stop offset=".95" stop-color="#d9e8ff"/>
    </linearGradient>
    <linearGradient id="_Áåçûìÿííûé_ãðàäèåíò_12" data-name="Áåçûìÿííûé ãðàäèåíò 12" x1="187.42" y1="160.38" x2="187.42" y2="131.24" gradientUnits="userSpaceOnUse">
      <stop offset="0" stop-color="#9f9fff"/>
      <stop offset=".05" stop-color="#a1a2fe"/>
      <stop offset=".3" stop-color="#acb2fb"/>
      <stop offset=".6" stop-color="#b2bcf9"/>
      <stop offset=".99" stop-color="#b5bff9"/>
    </linearGradient>
    <linearGradient id="_Áåçûìÿííûé_ãðàäèåíò_12-2" data-name="Áåçûìÿííûé ãðàäèåíò 12" x1="324.51" y1="198.81" x2="324.51" y2="173.71" xlink:href="#_Áåçûìÿííûé_ãðàäèåíò_12"/>
    <linearGradient id="_Áåçûìÿííûé_ãðàäèåíò_12-3" data-name="Áåçûìÿííûé ãðàäèåíò 12" x1="463.56" y1="206.88" x2="463.56" y2="167.78" xlink:href="#_Áåçûìÿííûé_ãðàäèåíò_12"/>
    <linearGradient id="_Áåçûìÿííûé_ãðàäèåíò_209" data-name="Áåçûìÿííûé ãðàäèåíò 209" x1="280.79" y1="115.74" x2="272.02" y2="83" gradientUnits="userSpaceOnUse">
      <stop offset="0" stop-color="#e8e5ff"/>
      <stop offset=".21" stop-color="#f2ecff"/>
      <stop offset=".55" stop-color="#fbf2ff"/>
      <stop offset="1" stop-color="#fff5ff"/>
    </linearGradient>
    <linearGradient id="_Áåçûìÿííûé_ãðàäèåíò_209-2" data-name="Áåçûìÿííûé ãðàäèåíò 209" x1="327.86" y1="208.61" x2="309.25" y2="139.16" xlink:href="#_Áåçûìÿííûé_ãðàäèåíò_209"/>
    <linearGradient id="_Áåçûìÿííûé_ãðàäèåíò_209-3" data-name="Áåçûìÿííûé ãðàäèåíò 209" x1="400.47" y1="160" x2="390.69" y2="123.51" xlink:href="#_Áåçûìÿííûé_ãðàäèåíò_209"/>
    <clipPath id="clippath-2">
      <rect class="cls-10" x="0" width="2266.9" height="1133.45"/>
    </clipPath>
  </defs>
  <rect class="cls-1" width="2266.9" height="1133.45"/>
  <g class="cls-9">
    <g>
      <path class="cls-3" d="m99.69,136.42s64.83-35.74,86.58-33.2c21.75,2.54,21.89,18.35,21.89,18.35,0,0,20.76-23.55,46.11-33.8,0,0,69.21-14.45,94.91,6.3,0,0,13.95,21.56,15.11,47.47,0,0,5.41-8.16,16.5-14.25,11.1-6.09,42.42-.59,52.48,15.26,10.06,15.85,5.29,41.22,5.29,41.22,0,0,14.21-3.73,21.01-2.7,6.8,1.03,17.64,16.75,17.64,16.75,0,0,65.66-28.72,78.43,9.06,0,0-113.08-10.3-166.78-16.73,0,0,5.08,6.01,1.11,8.67-3.97,2.65-115.52-9.46-125.82-17.42-10.31-7.96-10.55-21.02-10.55-21.02,0,0-36.67-3.21-80.71-11.58-34.91-6.64-73.2-12.38-73.2-12.38Z"/>
      <path class="cls-5" d="m99.69,136.42s10.39-3.68,55.73-5.1c45.34-1.42,119.01,17.71,119.72,21.25s-21.54,7.81-21.54,7.81c0,0-101.49-8.94-153.91-23.96Z"/>
      <path class="cls-4" d="m259.05,176.07s30.49-5.31,73.46,0c42.98,5.31,57.46,22.75,57.46,22.75,0,0-91.81-.99-125.82-17.42,0,0-2.91-1.7-5.1-5.33Z"/>
      <path class="cls-6" d="m388.86,190.15s-4.93-9.24-17.38-22.37c0,0,53.4,6.45,67.08,15.99,0,0,.75,2.98-9.35,6.38l126.43,16.73s-128.15-10.56-166.78-16.73Z"/>
      <path class="cls-2" d="m208.16,121.56s29.85.87,50.89,0c0,0,8.96-28.51,32.38-33.37,23.41-4.86,57.75,5.86,57.75,5.86,0,0-26.9-21.75-94.91-6.3,0,0-32.56,7.98-46.11,33.8Z"/>
      <path class="cls-8" d="m259.05,176.07s11.83-23.2,27.06-30.26c15.23-7.05,49.59-4.22,65.53,7.11,15.94,11.33,32.28,40.66,32.28,40.66,0,0-15.28-11.74-51.41-17.52-36.13-5.79-73.46,0-73.46,0Z"/>
      <path class="cls-7" d="m364.28,141.53l-5.09,11.28s11.57,3.54,34.48,5.43c22.91,1.89,38.96-10.39,38.96-10.39l4.12,2.14s1.4-12.51-25.45-22.2c-26.85-9.69-38.42,3.46-38.42,3.46,0,0-7.12,6.99-8.61,10.29Z"/>
    </g>
  </g>
</svg>