<?xml version="1.0" encoding="UTF-8"?>
<svg id="Bg" xmlns="http://www.w3.org/2000/svg" xmlns:xlink="http://www.w3.org/1999/xlink" viewBox="0 0 1920 1080">
  <defs>
    <style>
      .cls-1 {
        fill: url(#_Áåçûìÿííûé_ãðàäèåíò_193);
      }

      .cls-1, .cls-2, .cls-3, .cls-4, .cls-5 {
        fill-rule: evenodd;
      }

      .cls-6 {
        fill: #fff;
        opacity: 0;
      }

      .cls-7 {
        clip-path: url(#clippath-1);
      }

      .cls-2 {
        fill: url(#_Áåçûìÿííûé_ãðàäèåíò_193-2);
      }

      .cls-3 {
        fill: url(#_Áåçûìÿííûé_ãðàäèåíò_187);
      }

      .cls-4 {
        fill: url(#_Áåçûìÿííûé_ãðàäèåíò_202);
      }

      .cls-8 {
        fill: none;
      }

      .cls-5 {
        fill: url(#_Áåçûìÿííûé_ãðàäèåíò_183);
      }
    </style>
    <clipPath id="clippath-1">
      <rect class="cls-8" x="0" width="2266.9" height="1133.45"/>
    </clipPath>
    <linearGradient id="_Áåçûìÿííûé_ãðàäèåíò_202" data-name="Áåçûìÿííûé ãðàäèåíò 202" x1="1116.42" y1="484.61" x2="1133.65" y2="363" gradientTransform="translate(109.39 224.42) rotate(-8.07)" gradientUnits="userSpaceOnUse">
      <stop offset="0" stop-color="#e3daff"/>
      <stop offset=".43" stop-color="#eae5ff"/>
      <stop offset=".95" stop-color="#f7faff"/>
    </linearGradient>
    <linearGradient id="_Áåçûìÿííûé_ãðàäèåíò_193" data-name="Áåçûìÿííûé ãðàäèåíò 193" x1="978.11" y1="480.52" x2="956.08" y2="398.3" gradientTransform="translate(109.39 224.42) rotate(-8.07)" gradientUnits="userSpaceOnUse">
      <stop offset="0" stop-color="#e0dcff"/>
      <stop offset=".03" stop-color="#e2ddff"/>
      <stop offset=".3" stop-color="#f2eaff"/>
      <stop offset=".6" stop-color="#fbf2ff"/>
      <stop offset="1" stop-color="#fff5ff"/>
    </linearGradient>
    <linearGradient id="_Áåçûìÿííûé_ãðàäèåíò_193-2" data-name="Áåçûìÿííûé ãðàäèåíò 193" x1="1090.46" y1="474.43" x2="1072.43" y2="407.13" xlink:href="#_Áåçûìÿííûé_ãðàäèåíò_193"/>
    <linearGradient id="_Áåçûìÿííûé_ãðàäèåíò_187" data-name="Áåçûìÿííûé ãðàäèåíò 187" x1="1011.2" y1="411.98" x2="993.32" y2="345.26" gradientTransform="translate(109.39 224.42) rotate(-8.07)" gradientUnits="userSpaceOnUse">
      <stop offset="0" stop-color="#ebe8ff"/>
      <stop offset=".17" stop-color="#f2ecff"/>
      <stop offset=".53" stop-color="#fbf3ff"/>
      <stop offset="1" stop-color="#fff5ff"/>
    </linearGradient>
    <linearGradient id="_Áåçûìÿííûé_ãðàäèåíò_183" data-name="Áåçûìÿííûé ãðàäèåíò 183" x1="1195.92" y1="475.06" x2="1189.62" y2="451.56" gradientTransform="translate(109.39 224.42) rotate(-8.07)" gradientUnits="userSpaceOnUse">
      <stop offset="0" stop-color="#ded9ff"/>
      <stop offset=".05" stop-color="#e2dcff"/>
      <stop offset=".32" stop-color="#f2eaff"/>
      <stop offset=".61" stop-color="#fbf2ff"/>
      <stop offset="1" stop-color="#fff5ff"/>
    </linearGradient>
    <clipPath id="clippath-2">
      <rect class="cls-8" x="0" width="2266.9" height="1133.45"/>
    </clipPath>
  </defs>
  <rect class="cls-6" width="2266.9" height="1133.45"/>
  <g class="cls-7">
    <g>
      <path class="cls-4" d="m898.34,544.23s167.24-7.82,290.87,0c0,0,4.42,1.12,9.01-7.11,0,0,47.97,5.46,83.12,6.32,35.15.86,64.66-2.15,64.66-2.15,0,0,24.44.62,45.2,2.94,20.76,2.31,275.94,3.36,275.94,3.36l-228.92-14.59s-10.97-7.99-23.07-10.64c0,0-11.89,4.02-13.53,8.92,0,0,1.33-18.09-5.75-26.82,0,0-16.89-12.07-35.59-3.94l-8.88,5.97s2.71-36.17-14.79-52.37c0,0-14.58-24.4-87.23-6.33,0,0-11.49,7.09-12.06,26.63,0,0-11.96-35.68-29.76-44.83,0,0-50.06-17.04-93.26,13.21,0,0-10.95,24.13-10.95,62.27,0,0-19.54-5.8-32.29,4.57,0,0-3.21,4.18,2.46,17.36,0,0-20.89-11.64-30.42-12.62-7.46-.77-144.77,29.87-144.77,29.87Z"/>
      <path class="cls-1" d="m1070.72,518.54s-2.48-11.39,2.73-17.18c0,0,12.55-8.98,34.36-1.95l6.07,8.48s9.79-4.71,35.87-3.65c40.13,1.64,39.46,39.99,39.46,39.99,0,0-17.36-25.48-64.39-29.14-31.59-2.45-54.1,3.44-54.1,3.44Z"/>
      <path class="cls-2" d="m1186.37,521.84s13.98-28.68,32.65-40.33c18.67-11.66,54.88-8.94,63.62-4.93,8.74,4.02,13.39,16.2,13.39,16.2l-9.68-2.4s12.95,22.15,12.13,32.53c0,0-53.9-10.97-112.11-1.07Z"/>
      <path class="cls-3" d="m1103.81,491.81s23.24,7.4,54.14,3.03c0,0,29.04-10.54,41.57-32.74,12.53-22.21,8.05-32.52,8.05-32.52,0,0-53.37-22.07-93.26,13.21,0,0-9.77,21.3-10.51,49.03Z"/>
      <path class="cls-5" d="m1317.29,532.99s33.41-26.96,43.01-32.48c0,0,15.33-8.06,35.59,3.94,0,0-.69,7.02-11.26,12.1,0,0-4.53-1.77-19.84,2.81-15.31,4.58-37.96,12.28-37.96,12.28l-9.54,1.35Z"/>
    </g>
  </g>
</svg>