<?xml version="1.0" encoding="UTF-8"?>
<svg xmlns="http://www.w3.org/2000/svg" xmlns:xlink="http://www.w3.org/1999/xlink" viewBox="0 0 1920 1080">
  <defs>
    <style>
      .cls-1, .cls-2, .cls-3 {
        fill: #f1e3d8;
      }

      .cls-4 {
        fill: url(#linear-gradient-2);
      }

      .cls-5 {
        fill: url(#_4-3);
      }

      .cls-5, .cls-6, .cls-7, .cls-8, .cls-9, .cls-10, .cls-11, .cls-12, .cls-13, .cls-14, .cls-15, .cls-16, .cls-17, .cls-18, .cls-19, .cls-20, .cls-21, .cls-22, .cls-23, .cls-24, .cls-25, .cls-26, .cls-27, .cls-28, .cls-29, .cls-30, .cls-31, .cls-32, .cls-33, .cls-34, .cls-35, .cls-36, .cls-37, .cls-38, .cls-39, .cls-40, .cls-41, .cls-42, .cls-43, .cls-44, .cls-45, .cls-46, .cls-47, .cls-48, .cls-49, .cls-50, .cls-51, .cls-52, .cls-53, .cls-54, .cls-55, .cls-56, .cls-57, .cls-58, .cls-59, .cls-60, .cls-61, .cls-62, .cls-63, .cls-64, .cls-65, .cls-66, .cls-67, .cls-68, .cls-69, .cls-70, .cls-71 {
        mix-blend-mode: multiply;
      }

      .cls-5, .cls-6, .cls-9, .cls-17, .cls-36, .cls-39, .cls-41, .cls-44, .cls-47, .cls-57, .cls-59, .cls-61, .cls-66 {
        opacity: .6;
      }

      .cls-6 {
        fill: url(#_196-4);
      }

      .cls-72 {
        fill: url(#_721-2);
      }

      .cls-7 {
        fill: url(#_72-7);
      }

      .cls-7, .cls-8, .cls-73, .cls-74, .cls-75, .cls-11, .cls-13, .cls-76, .cls-77, .cls-78, .cls-15, .cls-79, .cls-17, .cls-18, .cls-19, .cls-80, .cls-21, .cls-25, .cls-27, .cls-81, .cls-28, .cls-29, .cls-30, .cls-32, .cls-82, .cls-34, .cls-83, .cls-2, .cls-35, .cls-36, .cls-84, .cls-37, .cls-85, .cls-47, .cls-86, .cls-49, .cls-87, .cls-88, .cls-51, .cls-52, .cls-89, .cls-61, .cls-90, .cls-91, .cls-63, .cls-65, .cls-66, .cls-92, .cls-93, .cls-94, .cls-95, .cls-70, .cls-96, .cls-71 {
        fill-rule: evenodd;
      }

      .cls-7, .cls-15, .cls-18, .cls-21, .cls-27, .cls-28, .cls-29, .cls-32, .cls-35, .cls-37, .cls-49, .cls-52, .cls-63, .cls-71 {
        opacity: .79;
      }

      .cls-97 {
        fill: #fff;
      }

      .cls-98 {
        fill: #953500;
      }

      .cls-98, .cls-10, .cls-11, .cls-13, .cls-16, .cls-23, .cls-30, .cls-31, .cls-3, .cls-99, .cls-55, .cls-100, .cls-101, .cls-64, .cls-65, .cls-102 {
        opacity: .5;
      }

      .cls-98, .cls-75, .cls-103, .cls-104, .cls-105, .cls-99, .cls-106, .cls-100, .cls-101, .cls-102, .cls-107 {
        mix-blend-mode: screen;
      }

      .cls-108 {
        fill: url(#_696);
      }

      .cls-8 {
        fill: url(#_610-2);
      }

      .cls-8, .cls-25, .cls-34 {
        opacity: .53;
      }

      .cls-109 {
        fill: url(#_660-2);
      }

      .cls-9 {
        fill: url(#_196-5);
      }

      .cls-110 {
        fill: url(#_721);
      }

      .cls-73 {
        fill: url(#_6);
      }

      .cls-10 {
        fill: #912774;
      }

      .cls-74 {
        fill: url(#_670);
      }

      .cls-75 {
        fill: url(#_2);
      }

      .cls-11 {
        fill: url(#_198-2);
      }

      .cls-111 {
        fill: url(#_374);
      }

      .cls-12 {
        fill: url(#linear-gradient-9);
      }

      .cls-12, .cls-20, .cls-22, .cls-24, .cls-84, .cls-42, .cls-43, .cls-45, .cls-50, .cls-53, .cls-54, .cls-58, .cls-62, .cls-67, .cls-69 {
        opacity: .3;
      }

      .cls-112 {
        fill: url(#_652);
      }

      .cls-13, .cls-36 {
        fill: #900477;
      }

      .cls-76 {
        fill: url(#_574);
      }

      .cls-113 {
        fill: url(#_421);
      }

      .cls-77 {
        fill: url(#_670-3);
      }

      .cls-78 {
        fill: url(#_674-2);
      }

      .cls-114 {
        fill: url(#linear-gradient-18);
      }

      .cls-115 {
        fill: url(#_3);
      }

      .cls-14 {
        fill: #992b87;
        opacity: .7;
      }

      .cls-15 {
        fill: url(#_72-6);
      }

      .cls-16 {
        fill: url(#_240-2);
      }

      .cls-116 {
        fill: url(#linear-gradient-20);
      }

      .cls-79 {
        fill: #4f0727;
      }

      .cls-117 {
        fill: url(#_443);
      }

      .cls-118 {
        isolation: isolate;
      }

      .cls-119 {
        fill: url(#_3-2);
      }

      .cls-17 {
        fill: url(#_196-3);
      }

      .cls-18 {
        fill: url(#_657);
      }

      .cls-19 {
        fill: url(#_240-3);
      }

      .cls-19, .cls-26 {
        opacity: .8;
      }

      .cls-80 {
        fill: url(#_654-2);
      }

      .cls-20 {
        fill: url(#linear-gradient-8);
      }

      .cls-120 {
        fill: url(#_660);
      }

      .cls-121 {
        fill: url(#_136);
      }

      .cls-21 {
        fill: url(#_72-2);
      }

      .cls-22 {
        fill: url(#linear-gradient-15);
      }

      .cls-23 {
        fill: url(#_255);
      }

      .cls-122 {
        fill: url(#_136-2);
      }

      .cls-123 {
        fill: url(#_473);
      }

      .cls-124 {
        fill: url(#_380);
      }

      .cls-24 {
        fill: url(#linear-gradient-7);
      }

      .cls-25 {
        fill: url(#_610);
      }

      .cls-125 {
        fill: #36092d;
      }

      .cls-26 {
        fill: url(#_240);
      }

      .cls-103 {
        fill: url(#_2-2);
      }

      .cls-104 {
        fill: url(#linear-gradient-4);
      }

      .cls-104, .cls-105, .cls-106 {
        opacity: .74;
      }

      .cls-27 {
        fill: url(#_72-9);
      }

      .cls-126 {
        fill: #742230;
      }

      .cls-81 {
        fill: url(#_65-2);
      }

      .cls-127 {
        fill: url(#_136-3);
      }

      .cls-128 {
        fill: url(#_8);
      }

      .cls-28 {
        fill: url(#_72-4);
      }

      .cls-29 {
        fill: url(#_72-8);
      }

      .cls-129, .cls-88 {
        fill: #ffef9b;
      }

      .cls-30 {
        fill: url(#_198);
      }

      .cls-130 {
        fill: url(#_246);
      }

      .cls-31 {
        fill: #b52222;
      }

      .cls-32 {
        fill: url(#_72);
      }

      .cls-33 {
        fill: url(#linear-gradient-23);
        opacity: .39;
      }

      .cls-131 {
        fill: url(#_473-3);
      }

      .cls-132 {
        fill: url(#_636-2);
      }

      .cls-133 {
        fill: url(#_136-4);
      }

      .cls-82 {
        fill: url(#_678);
      }

      .cls-34 {
        fill: url(#_610-3);
      }

      .cls-83 {
        fill: url(#_65);
      }

      .cls-134 {
        fill: #c04621;
      }

      .cls-35 {
        fill: url(#_72-13);
      }

      .cls-84 {
        fill: #ffecea;
      }

      .cls-84, .cls-3, .cls-85 {
        mix-blend-mode: soft-light;
      }

      .cls-37 {
        fill: url(#_72-11);
      }

      .cls-38 {
        fill: url(#_80-2);
        opacity: .58;
      }

      .cls-39 {
        fill: url(#_4-2);
      }

      .cls-40 {
        fill: url(#linear-gradient-16);
      }

      .cls-40, .cls-56, .cls-60 {
        opacity: .56;
      }

      .cls-41 {
        fill: url(#_4);
      }

      .cls-135 {
        fill: url(#_399);
      }

      .cls-43 {
        fill: #d463b8;
      }

      .cls-136 {
        fill: url(#_473-4);
      }

      .cls-105 {
        fill: url(#linear-gradient-17);
      }

      .cls-44 {
        fill: url(#_584);
      }

      .cls-137 {
        fill: url(#_363);
      }

      .cls-45 {
        fill: url(#linear-gradient-10);
      }

      .cls-138 {
        fill: #fff4c9;
      }

      .cls-139 {
        fill: url(#_636);
      }

      .cls-85 {
        fill: #aaa5ff;
      }

      .cls-99 {
        fill: url(#_186);
      }

      .cls-46 {
        fill: url(#_80);
      }

      .cls-46, .cls-51, .cls-68, .cls-70 {
        opacity: .4;
      }

      .cls-140 {
        fill: #dfd4ff;
      }

      .cls-141 {
        clip-path: url(#clippath);
      }

      .cls-47 {
        fill: url(#_196-2);
      }

      .cls-142 {
        fill: url(#_241);
      }

      .cls-48 {
        fill: #900040;
        opacity: .08;
      }

      .cls-86 {
        fill: url(#_674);
      }

      .cls-49 {
        fill: url(#_72-5);
      }

      .cls-87 {
        fill: #5e263c;
      }

      .cls-50 {
        fill: url(#linear-gradient-6);
      }

      .cls-143 {
        fill: url(#_106);
      }

      .cls-144 {
        fill: none;
      }

      .cls-51 {
        fill: #8d004a;
      }

      .cls-52 {
        fill: url(#_72-12);
      }

      .cls-53, .cls-55, .cls-65 {
        fill: #7c0377;
      }

      .cls-145 {
        fill: url(#_670-4);
      }

      .cls-89 {
        fill: url(#_670-2);
      }

      .cls-54 {
        fill: url(#linear-gradient-5);
      }

      .cls-146 {
        fill: url(#_473-2);
      }

      .cls-56 {
        fill: url(#linear-gradient-3);
      }

      .cls-147 {
        fill: url(#linear-gradient-22);
      }

      .cls-57 {
        fill: url(#_584-3);
      }

      .cls-58 {
        fill: url(#linear-gradient-11);
      }

      .cls-59 {
        fill: url(#_584-2);
      }

      .cls-60 {
        fill: url(#linear-gradient-21);
      }

      .cls-106 {
        fill: url(#linear-gradient-19);
      }

      .cls-100 {
        fill: url(#_186-4);
      }

      .cls-61 {
        fill: #880084;
      }

      .cls-90 {
        fill: url(#_243-2);
      }

      .cls-91 {
        fill: url(#_243);
      }

      .cls-62 {
        fill: url(#linear-gradient-14);
      }

      .cls-148 {
        fill: url(#linear-gradient);
      }

      .cls-149 {
        fill: url(#_420);
      }

      .cls-101 {
        fill: url(#_186-2);
      }

      .cls-150 {
        fill: #f88238;
      }

      .cls-63 {
        fill: url(#_72-3);
      }

      .cls-151 {
        fill: url(#_479);
      }

      .cls-64 {
        fill: url(#_255-2);
      }

      .cls-66 {
        fill: url(#_196);
      }

      .cls-152 {
        fill: url(#_696-2);
      }

      .cls-92 {
        fill: url(#_659-2);
      }

      .cls-93 {
        fill: url(#_654);
      }

      .cls-94 {
        fill: url(#_659);
      }

      .cls-67 {
        fill: url(#linear-gradient-12);
      }

      .cls-102 {
        fill: url(#_186-3);
      }

      .cls-95 {
        fill: #860341;
      }

      .cls-107 {
        fill: url(#_2-3);
      }

      .cls-68 {
        fill: #704786;
      }

      .cls-69 {
        fill: url(#linear-gradient-13);
      }

      .cls-70 {
        fill: #600456;
      }

      .cls-96 {
        fill: url(#_674-3);
      }

      .cls-71 {
        fill: url(#_72-10);
      }
    </style>
    <clipPath id="clippath">
      <rect class="cls-144" x="-683.15" width="2938.69" height="1068.61"/>
    </clipPath>
    <radialGradient id="_574" data-name="  574" cx="549.61" cy="521.05" fx="549.61" fy="521.05" r="56.31" gradientTransform="translate(-136.43)" gradientUnits="userSpaceOnUse">
      <stop offset="0" stop-color="#c9ccff"/>
      <stop offset=".98" stop-color="#aea9ff"/>
    </radialGradient>
    <linearGradient id="_72" data-name="  72" x1="505.1" y1="521.05" x2="594.12" y2="521.05" gradientTransform="translate(-136.43)" gradientUnits="userSpaceOnUse">
      <stop offset="0" stop-color="#935eb9"/>
      <stop offset="1" stop-color="#ffdec7"/>
    </linearGradient>
    <radialGradient id="_380" data-name="  380" cx="392.52" cy="957.94" fx="392.52" fy="957.94" r="51.62" gradientTransform="translate(-136.43)" gradientUnits="userSpaceOnUse">
      <stop offset="0" stop-color="#e16419"/>
      <stop offset="1" stop-color="#cf463e"/>
    </radialGradient>
    <linearGradient id="_196" data-name="  196" x1="370.35" y1="964.15" x2="387.08" y2="964.15" gradientTransform="translate(-136.43)" gradientUnits="userSpaceOnUse">
      <stop offset="0" stop-color="#a981c0"/>
      <stop offset="1" stop-color="#d6607c"/>
    </linearGradient>
    <linearGradient id="_196-2" data-name="  196" x1="378.47" y1="914.15" x2="406.66" y2="914.15" xlink:href="#_196"/>
    <linearGradient id="_196-3" data-name="  196" x1="370.05" y1="961.52" x2="378.37" y2="961.52" xlink:href="#_196"/>
    <linearGradient id="_2" data-name="  2" x1="385.99" y1="969.13" x2="411.24" y2="969.13" gradientTransform="translate(-136.43)" gradientUnits="userSpaceOnUse">
      <stop offset="0" stop-color="#5b0000"/>
      <stop offset="1" stop-color="#d7683d"/>
    </linearGradient>
    <radialGradient id="_678" data-name="  678" cx="478.85" cy="656.72" fx="478.85" fy="656.72" r="118.97" gradientTransform="translate(-136.43)" gradientUnits="userSpaceOnUse">
      <stop offset="0" stop-color="#871f42"/>
      <stop offset=".25" stop-color="#6c1d44"/>
      <stop offset=".5" stop-color="#571c45"/>
      <stop offset=".75" stop-color="#4b1c46"/>
      <stop offset="1" stop-color="#471c47"/>
    </radialGradient>
    <radialGradient id="_670" data-name="  670" cx="508.37" cy="968.46" fx="508.37" fy="968.46" r="60.73" gradientTransform="translate(-136.43)" gradientUnits="userSpaceOnUse">
      <stop offset=".02" stop-color="#bd6853"/>
      <stop offset=".99" stop-color="#7a3532"/>
    </radialGradient>
    <linearGradient id="_198" data-name="  198" x1="450.97" y1="1004.77" x2="480.78" y2="1004.77" gradientTransform="translate(-136.43)" gradientUnits="userSpaceOnUse">
      <stop offset=".01" stop-color="#be6888"/>
      <stop offset="1" stop-color="#8e81f4"/>
    </linearGradient>
    <linearGradient id="_198-2" data-name="  198" x1="465.09" y1="928.18" x2="496.48" y2="928.18" xlink:href="#_198"/>
    <radialGradient id="_670-2" data-name="  670" cx="483.55" cy="897.43" fx="483.55" fy="897.43" r="30.25" xlink:href="#_670"/>
    <radialGradient id="_243" data-name="  243" cx="363.62" cy="537.6" fx="363.62" fy="537.6" r="80.95" gradientTransform="translate(-136.43)" gradientUnits="userSpaceOnUse">
      <stop offset="0" stop-color="#ffeaf5"/>
      <stop offset=".94" stop-color="#cebee5"/>
    </radialGradient>
    <radialGradient id="_670-3" data-name="  670" cx="436.54" cy="493.81" fx="436.54" fy="493.81" r="92.46" xlink:href="#_670"/>
    <linearGradient id="_72-2" data-name="  72" x1="370.59" y1="471.73" x2="496.49" y2="471.73" xlink:href="#_72"/>
    <linearGradient id="_72-3" data-name="  72" x1="496.8" y1="491.3" x2="520.2" y2="491.3" xlink:href="#_72"/>
    <radialGradient id="_670-4" data-name="  670" cx="452.2" cy="455.62" fx="452.2" fy="455.62" r="84.88" xlink:href="#_670"/>
    <radialGradient id="_243-2" data-name="  243" cx="460.12" cy="473.84" fx="460.12" fy="473.84" r="68.63" xlink:href="#_243"/>
    <linearGradient id="_72-4" data-name="  72" x1="467.86" y1="485.56" x2="505.11" y2="485.56" xlink:href="#_72"/>
    <linearGradient id="_660" data-name="  660" x1="216.64" y1="206.63" x2="431.23" y2="206.63" gradientTransform="translate(-136.43)" gradientUnits="userSpaceOnUse">
      <stop offset="0" stop-color="#512eff"/>
      <stop offset="1" stop-color="#7c1acc"/>
    </linearGradient>
    <linearGradient id="_136" data-name="  136" x1="337.93" y1="273.36" x2="574.88" y2="273.36" gradientTransform="translate(-136.43)" gradientUnits="userSpaceOnUse">
      <stop offset="0" stop-color="#5b3255"/>
      <stop offset="1" stop-color="#39152f"/>
    </linearGradient>
    <linearGradient id="_443" data-name="  443" x1="338.32" y1="234.98" x2="574.88" y2="234.98" gradientTransform="translate(-136.43)" gradientUnits="userSpaceOnUse">
      <stop offset="0" stop-color="#ff921b"/>
      <stop offset="1" stop-color="#eb5d4e"/>
    </linearGradient>
    <linearGradient id="_186" data-name="  186" x1="425" y1="225.73" x2="484.54" y2="225.73" gradientTransform="translate(-136.43)" gradientUnits="userSpaceOnUse">
      <stop offset="0" stop-color="#d7683d"/>
      <stop offset="1" stop-color="#000"/>
    </linearGradient>
    <radialGradient id="_636" data-name="  636" cx="427.95" cy="322.74" fx="427.95" fy="322.74" r="15.79" gradientTransform="translate(-136.43)" gradientUnits="userSpaceOnUse">
      <stop offset="0" stop-color="#ff9061"/>
      <stop offset="1" stop-color="#ff846e"/>
    </radialGradient>
    <radialGradient id="_636-2" data-name="  636" cx="485.44" cy="330.97" fx="485.44" fy="330.97" r="51.89" xlink:href="#_636"/>
    <linearGradient id="_473" data-name="  473" x1="410.52" y1="402.7" x2="520.2" y2="402.7" gradientTransform="translate(-136.43)" gradientUnits="userSpaceOnUse">
      <stop offset="0" stop-color="#882231"/>
      <stop offset="1" stop-color="#402731"/>
    </linearGradient>
    <linearGradient id="_473-2" data-name="  473" x1="367.13" y1="394.67" x2="533.43" y2="394.67" xlink:href="#_473"/>
    <linearGradient id="_652" data-name="  652" x1="474.36" y1="334.3" x2="474.36" y2="372.95" gradientTransform="translate(-136.43)" gradientUnits="userSpaceOnUse">
      <stop offset="0" stop-color="#ff9061"/>
      <stop offset="1" stop-color="#f65768"/>
    </linearGradient>
    <linearGradient id="_80" data-name="  80" x1="466.46" y1="369.85" x2="466.46" y2="292.83" gradientTransform="translate(-136.43)" gradientUnits="userSpaceOnUse">
      <stop offset="0" stop-color="#ffdec7"/>
      <stop offset=".99" stop-color="#c238b9"/>
    </linearGradient>
    <linearGradient id="_80-2" data-name="  80" x1="410.82" y1="326.98" x2="428.32" y2="326.98" xlink:href="#_80"/>
    <linearGradient id="_473-3" data-name="  473" x1="489.34" y1="334.05" x2="507.05" y2="334.05" xlink:href="#_473"/>
    <linearGradient id="_473-4" data-name="  473" x1="452.08" y1="326.03" x2="476.33" y2="326.03" xlink:href="#_473"/>
    <radialGradient id="_246" data-name="  246" cx="470.06" cy="297.72" fx="470.06" fy="297.72" r="34.49" gradientTransform="translate(-136.43)" gradientUnits="userSpaceOnUse">
      <stop offset="0" stop-color="#4c3ea4"/>
      <stop offset=".96" stop-color="#453485"/>
    </radialGradient>
    <linearGradient id="_240" data-name="  240" x1="460.41" y1="367.9" x2="483.46" y2="367.9" gradientTransform="translate(-136.43)" gradientUnits="userSpaceOnUse">
      <stop offset="0" stop-color="#c238b9"/>
      <stop offset="1" stop-color="#fff"/>
    </linearGradient>
    <linearGradient id="_240-2" data-name="  240" x1="452.08" y1="326.41" x2="471.23" y2="326.41" xlink:href="#_240"/>
    <linearGradient id="_240-3" data-name="  240" x1="291.14" y1="355.91" x2="309.88" y2="355.91" gradientTransform="matrix(1, 0, 0, 1, 0, 0)" xlink:href="#_240"/>
    <radialGradient id="_674" data-name="  674" cx="595.63" cy="451.39" fx="595.63" fy="451.39" r="92.43" gradientTransform="translate(-136.43)" gradientUnits="userSpaceOnUse">
      <stop offset="0" stop-color="#453485"/>
      <stop offset="1" stop-color="#4c3ea4"/>
    </radialGradient>
    <linearGradient id="_610" data-name="  610" x1="414.3" y1="596.09" x2="415.93" y2="596.09" gradientTransform="translate(-136.43)" gradientUnits="userSpaceOnUse">
      <stop offset=".02" stop-color="#741e76"/>
      <stop offset=".05" stop-color="#7d2c7e"/>
      <stop offset=".19" stop-color="#9f63a0"/>
      <stop offset=".33" stop-color="#bc93bd"/>
      <stop offset=".47" stop-color="#d4bad5"/>
      <stop offset=".61" stop-color="#e7d8e7"/>
      <stop offset=".74" stop-color="#f4edf4"/>
      <stop offset=".87" stop-color="#fcfafc"/>
      <stop offset=".99" stop-color="#fff"/>
    </linearGradient>
    <linearGradient id="_610-2" data-name="  610" x1="340" y1="515.16" x2="520.2" y2="515.16" xlink:href="#_610"/>
    <linearGradient id="_420" data-name="  420" x1="768.12" y1="1959.66" x2="638.92" y2="2058.69" gradientTransform="translate(-27.53 -1321.73) rotate(12.76)" gradientUnits="userSpaceOnUse">
      <stop offset="0" stop-color="#907c7e"/>
      <stop offset="1" stop-color="#d9ccc5"/>
    </linearGradient>
    <linearGradient id="_8" data-name="  8" x1="458.44" y1="672.88" x2="435.67" y2="663.77" gradientTransform="translate(-136.43)" gradientUnits="userSpaceOnUse">
      <stop offset="0" stop-color="#5f123e"/>
      <stop offset="1" stop-color="#d2603b"/>
    </linearGradient>
    <linearGradient id="_106" data-name="  106" x1="728.03" y1="1901.62" x2="832.76" y2="1901.62" gradientTransform="translate(-27.53 -1321.73) rotate(12.76)" gradientUnits="userSpaceOnUse">
      <stop offset="0" stop-color="#907c7e"/>
      <stop offset="1" stop-color="#e5ccae"/>
    </linearGradient>
    <linearGradient id="_421" data-name="  421" x1="707.34" y1="2036.34" x2="666.34" y2="1952.01" gradientTransform="translate(-27.53 -1321.73) rotate(12.76)" gradientUnits="userSpaceOnUse">
      <stop offset="0" stop-color="#e5ccae"/>
      <stop offset="1" stop-color="#a39395"/>
    </linearGradient>
    <linearGradient id="_584" data-name="  584" x1="747.93" y1="1953.76" x2="777.33" y2="1953.76" gradientTransform="translate(-27.53 -1321.73) rotate(12.76)" gradientUnits="userSpaceOnUse">
      <stop offset="0" stop-color="#b66054"/>
      <stop offset="1" stop-color="#707380"/>
    </linearGradient>
    <linearGradient id="_4" data-name="  4" x1="750.68" y1="1858.64" x2="780.4" y2="1858.64" gradientTransform="translate(-27.53 -1321.73) rotate(12.76)" gradientUnits="userSpaceOnUse">
      <stop offset="0" stop-color="#b66054"/>
      <stop offset="1" stop-color="#bf777c"/>
    </linearGradient>
    <linearGradient id="_4-2" data-name="  4" x1="754.56" y1="1884.48" x2="780.81" y2="1884.48" xlink:href="#_4"/>
    <linearGradient id="_399" data-name="  399" x1="635.78" y1="1993.29" x2="746.35" y2="1993.29" gradientTransform="translate(-27.53 -1321.73) rotate(12.76)" gradientUnits="userSpaceOnUse">
      <stop offset="0" stop-color="#c1b6b7"/>
      <stop offset="1" stop-color="#e5ccae"/>
    </linearGradient>
    <linearGradient id="_363" data-name="  363" x1="748.4" y1="1902.98" x2="818.93" y2="1902.98" gradientTransform="translate(-27.53 -1321.73) rotate(12.76)" gradientUnits="userSpaceOnUse">
      <stop offset="0" stop-color="#e5ccae"/>
      <stop offset="1" stop-color="#aa9b9d"/>
    </linearGradient>
    <linearGradient id="_584-2" data-name="  584" x1="778.84" y1="1886.3" x2="821.07" y2="1886.3" xlink:href="#_584"/>
    <linearGradient id="_4-3" data-name="  4" x1="749.54" y1="1870.58" x2="785.22" y2="1870.58" xlink:href="#_4"/>
    <linearGradient id="_584-3" data-name="  584" x1="768.73" y1="1918.63" x2="785" y2="1918.63" xlink:href="#_584"/>
    <linearGradient id="_610-3" data-name="  610" x1="311.31" y1="576.71" y2="576.71" xlink:href="#_610"/>
    <linearGradient id="_72-5" data-name="  72" x1="487.47" y1="530.97" x2="487.47" y2="540.04" xlink:href="#_72"/>
    <radialGradient id="_654" data-name="  654" cx="488.4" cy="533.1" fx="488.4" fy="533.1" r="5.41" gradientTransform="translate(-136.43)" gradientUnits="userSpaceOnUse">
      <stop offset="0" stop-color="#5b3255"/>
      <stop offset="1" stop-color="#39152f"/>
    </radialGradient>
    <linearGradient id="_72-6" data-name="  72" x1="484.31" y1="535.41" x2="492.34" y2="535.41" xlink:href="#_72"/>
    <linearGradient id="_72-7" data-name="  72" x1="494.31" y1="549.77" x2="494.31" y2="558.84" xlink:href="#_72"/>
    <radialGradient id="_654-2" data-name="  654" cx="495.24" cy="551.9" fx="495.24" fy="551.9" r="5.41" xlink:href="#_654"/>
    <linearGradient id="_72-8" data-name="  72" x1="491.15" y1="554.21" x2="499.18" y2="554.21" xlink:href="#_72"/>
    <linearGradient id="_72-9" data-name="  72" x1="603.27" y1="402.7" x2="603.28" y2="402.7" xlink:href="#_72"/>
    <linearGradient id="_72-10" data-name="  72" x1="582.76" y1="415.84" x2="611.2" y2="415.84" xlink:href="#_72"/>
    <linearGradient id="_72-11" data-name="  72" x1="574.84" y1="450.17" x2="629.2" y2="450.17" xlink:href="#_72"/>
    <linearGradient id="_72-12" data-name="  72" x1="602.16" y1="415.55" x2="672.4" y2="415.55" xlink:href="#_72"/>
    <linearGradient id="_72-13" data-name="  72" x1="537.3" y1="517.16" x2="612.6" y2="517.16" xlink:href="#_72"/>
    <linearGradient id="_6" data-name="  6" x1="440.13" y1="597.61" x2="543.57" y2="597.61" gradientTransform="translate(-136.43)" gradientUnits="userSpaceOnUse">
      <stop offset="0" stop-color="#eb5d4e"/>
      <stop offset="1" stop-color="#ff921b"/>
    </linearGradient>
    <linearGradient id="_659" data-name="  659" x1="438.56" y1="587.48" x2="527.01" y2="587.48" gradientTransform="translate(-136.43)" gradientUnits="userSpaceOnUse">
      <stop offset=".01" stop-color="#680e38"/>
      <stop offset=".99" stop-color="#832e31"/>
    </linearGradient>
    <linearGradient id="_659-2" data-name="  659" x1="466.79" y1="599.4" x2="491.85" y2="599.4" xlink:href="#_659"/>
    <linearGradient id="_65" data-name="  65" x1="466.83" y1="583.69" x2="498.75" y2="583.69" gradientTransform="translate(-136.43)" gradientUnits="userSpaceOnUse">
      <stop offset="0" stop-color="#fb6b42"/>
      <stop offset=".56" stop-color="#ffdf36"/>
      <stop offset=".97" stop-color="#ffa036"/>
    </linearGradient>
    <radialGradient id="_674-2" data-name="  674" cx="384.72" cy="598.25" fx="384.72" fy="598.25" r="78.55" xlink:href="#_674"/>
    <linearGradient id="_657" data-name="  657" x1="322.56" y1="628.48" x2="483.52" y2="628.48" gradientTransform="translate(-136.43)" gradientUnits="userSpaceOnUse">
      <stop offset="0" stop-color="#ffdec7"/>
      <stop offset=".99" stop-color="#935eb9"/>
    </linearGradient>
    <linearGradient id="_65-2" data-name="  65" x1="465.8" y1="586.88" x2="482.96" y2="586.88" xlink:href="#_65"/>
    <radialGradient id="_674-3" data-name="  674" cx="494.89" cy="418.09" fx="494.89" fy="418.09" r="26.53" gradientTransform="matrix(1, 0, 0, 1, 0, 0)" xlink:href="#_674"/>
    <linearGradient id="_696" data-name="  696" x1="3190.7" y1="271.75" x2="3249.05" y2="271.75" gradientTransform="translate(-2999.24 20.61) rotate(3.02)" gradientUnits="userSpaceOnUse">
      <stop offset="0" stop-color="#3d069a"/>
      <stop offset="1" stop-color="#6509ba"/>
    </linearGradient>
    <linearGradient id="_696-2" data-name="  696" x1="3256.24" y1="181.03" x2="3283.45" y2="239.35" xlink:href="#_696"/>
    <linearGradient id="_241" data-name="  241" x1="3219.41" y1="188.45" x2="3298.15" y2="188.45" gradientTransform="translate(-2999.24 20.61) rotate(3.02)" gradientUnits="userSpaceOnUse">
      <stop offset="0" stop-color="#ffea34"/>
      <stop offset=".29" stop-color="#ffba00"/>
      <stop offset=".71" stop-color="#ffa400"/>
      <stop offset="1" stop-color="#ff8100"/>
    </linearGradient>
    <linearGradient id="_255" data-name="  255" x1="3231.76" y1="178.94" x2="3202.71" y2="247.14" gradientTransform="translate(-2999.24 20.61) rotate(3.02)" gradientUnits="userSpaceOnUse">
      <stop offset="0" stop-color="#e54136"/>
      <stop offset="1" stop-color="#fff"/>
    </linearGradient>
    <linearGradient id="_255-2" data-name="  255" x1="3244.34" y1="193.51" x2="3284.35" y2="178.54" xlink:href="#_255"/>
    <linearGradient id="_660-2" data-name="  660" x1="3226.16" y1="251.98" x2="3206.72" y2="185.88" gradientTransform="translate(-2999.24 20.61) rotate(3.02)" xlink:href="#_660"/>
    <linearGradient id="_3" data-name="  3" x1="3224.7" y1="135.07" x2="3287.27" y2="135.07" gradientTransform="translate(-2999.24 20.61) rotate(3.02)" gradientUnits="userSpaceOnUse">
      <stop offset="0" stop-color="#733f6b"/>
      <stop offset="1" stop-color="#59214a"/>
    </linearGradient>
    <linearGradient id="_721" data-name="  721" x1="3239" y1="114.64" x2="3297.62" y2="114.64" gradientTransform="translate(-2999.24 20.61) rotate(3.02)" gradientUnits="userSpaceOnUse">
      <stop offset="0" stop-color="#f8e1f2"/>
      <stop offset="1" stop-color="#e3c2d6"/>
    </linearGradient>
    <linearGradient id="_136-2" data-name="  136" x1="3253.39" y1="104.93" x2="3261.76" y2="104.93" gradientTransform="translate(-2999.24 20.61) rotate(3.02)" xlink:href="#_136"/>
    <linearGradient id="_136-3" data-name="  136" x1="7079.74" y1="-506.42" x2="7085.64" y2="-506.42" gradientTransform="translate(-5572.54 -3710.87) rotate(38.68) scale(1 1.01)" xlink:href="#_136"/>
    <linearGradient id="_136-4" data-name="  136" x1="2382.35" y1="-79.79" x2="2392.37" y2="-58.3" gradientTransform="translate(-2119.02 616.45) rotate(-5.24)" xlink:href="#_136"/>
    <linearGradient id="_374" data-name="  374" x1="3267.13" y1="132.92" x2="3260.09" y2="141.45" gradientTransform="translate(-2999.24 20.61) rotate(3.02)" gradientUnits="userSpaceOnUse">
      <stop offset="0" stop-color="#cf4e50"/>
      <stop offset="1" stop-color="#ed6319"/>
    </linearGradient>
    <linearGradient id="_3-2" data-name="  3" x1="2394.69" y1="-89.8" x2="2406.46" y2="-64.58" gradientTransform="translate(-2119.02 616.45) rotate(-5.24)" xlink:href="#_3"/>
    <linearGradient id="_186-2" data-name="  186" x1="2400.99" y1="-91.01" x2="2410.66" y2="-70.29" gradientTransform="translate(-2119.02 616.45) rotate(-5.24)" xlink:href="#_186"/>
    <linearGradient id="_721-2" data-name="  721" x1="2398.71" y1="-81.5" x2="2401.27" y2="-81.5" gradientTransform="translate(-2119.02 616.45) rotate(-5.24)" xlink:href="#_721"/>
    <linearGradient id="_479" data-name="  479" x1="3219.88" y1="75.94" x2="3247.13" y2="134.35" gradientTransform="translate(-2999.24 20.61) rotate(3.02)" gradientUnits="userSpaceOnUse">
      <stop offset="0" stop-color="#900745"/>
      <stop offset="1" stop-color="#d12c22"/>
    </linearGradient>
    <linearGradient id="_196-4" data-name="  196" x1="3244.43" y1="92.76" x2="3298.89" y2="92.76" gradientTransform="translate(-2999.24 20.61) rotate(3.02)" xlink:href="#_196"/>
    <linearGradient id="_196-5" data-name="  196" x1="3211" y1="100.98" x2="3246.11" y2="100.98" gradientTransform="translate(-2999.24 20.61) rotate(3.02)" xlink:href="#_196"/>
    <linearGradient id="_186-3" data-name="  186" x1="3191.91" y1="158.96" x2="3218.6" y2="199.61" gradientTransform="translate(-2999.24 20.61) rotate(3.02)" xlink:href="#_186"/>
    <linearGradient id="_2-2" data-name="  2" x1="3225" y1="71.79" x2="3235.38" y2="87.62" gradientTransform="translate(-2999.24 20.61) rotate(3.02)" xlink:href="#_2"/>
    <linearGradient id="_186-4" data-name="  186" x1="3255" y1="180.22" x2="3274.83" y2="210.43" gradientTransform="translate(-2999.24 20.61) rotate(3.02)" xlink:href="#_186"/>
    <linearGradient id="_2-3" data-name="  2" x1="3272.04" y1="78.01" x2="3284.68" y2="73.28" gradientTransform="translate(-2999.24 20.61) rotate(3.02)" xlink:href="#_2"/>
    <linearGradient id="linear-gradient" x1="409.91" y1="323.96" x2="446.57" y2="323.96" gradientTransform="translate(2.7 14.08) rotate(-.32)" gradientUnits="userSpaceOnUse">
      <stop offset="0" stop-color="#000"/>
      <stop offset=".23" stop-color="#2f0c29"/>
      <stop offset=".47" stop-color="#57164c"/>
      <stop offset=".68" stop-color="#741e65"/>
      <stop offset=".87" stop-color="#862375"/>
      <stop offset="1" stop-color="#8d257b"/>
    </linearGradient>
    <linearGradient id="linear-gradient-2" x1="443.86" y1="318.15" x2="515.04" y2="389.33" gradientTransform="translate(2.7 14.08) rotate(-.32)" gradientUnits="userSpaceOnUse">
      <stop offset="0" stop-color="#c45174"/>
      <stop offset="1" stop-color="#881547"/>
    </linearGradient>
    <linearGradient id="linear-gradient-3" x1="476.32" y1="351.31" x2="553.45" y2="421.5" gradientTransform="translate(2.7 14.08) rotate(-.32)" gradientUnits="userSpaceOnUse">
      <stop offset="0" stop-color="#6d6783"/>
      <stop offset=".05" stop-color="#7b768f"/>
      <stop offset=".2" stop-color="#a3a0b1"/>
      <stop offset=".36" stop-color="#c4c2cd"/>
      <stop offset=".51" stop-color="#dedce3"/>
      <stop offset=".67" stop-color="#f0eff2"/>
      <stop offset=".83" stop-color="#fbfbfb"/>
      <stop offset="1" stop-color="#fff"/>
    </linearGradient>
    <linearGradient id="linear-gradient-4" x1="467.49" y1="317.97" x2="489.23" y2="339.71" gradientTransform="translate(2.7 14.08) rotate(-.32)" gradientUnits="userSpaceOnUse">
      <stop offset="0" stop-color="#9a77f6"/>
      <stop offset=".09" stop-color="#9170e9"/>
      <stop offset=".26" stop-color="#7c60c7"/>
      <stop offset=".49" stop-color="#5a4590"/>
      <stop offset=".76" stop-color="#2b2144"/>
      <stop offset="1" stop-color="#000"/>
    </linearGradient>
    <linearGradient id="linear-gradient-5" x1="511.83" y1="345.13" x2="511.83" y2="335.31" gradientTransform="translate(2.7 14.08) rotate(-.32)" gradientUnits="userSpaceOnUse">
      <stop offset="0" stop-color="#fff"/>
      <stop offset=".1" stop-color="#faf8fa"/>
      <stop offset=".25" stop-color="#ece7ec"/>
      <stop offset=".41" stop-color="#d5c9d6"/>
      <stop offset=".6" stop-color="#b5a1b6"/>
      <stop offset=".79" stop-color="#8c6d8e"/>
      <stop offset="1" stop-color="#5b2e5e"/>
      <stop offset="1" stop-color="#5b2e5e"/>
    </linearGradient>
    <linearGradient id="linear-gradient-6" x1="512.48" y1="339.91" x2="512.48" y2="332.42" xlink:href="#linear-gradient-5"/>
    <linearGradient id="linear-gradient-7" x1="1207.47" y1="845.25" x2="1207.47" y2="841.77" gradientTransform="translate(-131.41 -939.96) rotate(28.43)" xlink:href="#linear-gradient-5"/>
    <linearGradient id="linear-gradient-8" x1="1208.82" y1="862.21" x2="1208.82" y2="851.62" gradientTransform="translate(-131.41 -939.96) rotate(28.43)" xlink:href="#linear-gradient-5"/>
    <linearGradient id="linear-gradient-9" x1="3075.37" y1="-332.23" x2="3075.37" y2="-335.71" gradientTransform="translate(1775.32 -2447.11) rotate(120.85)" xlink:href="#linear-gradient-5"/>
    <linearGradient id="linear-gradient-10" x1="3076.73" y1="-315.27" x2="3076.73" y2="-325.86" gradientTransform="translate(1775.32 -2447.11) rotate(120.85)" xlink:href="#linear-gradient-5"/>
    <linearGradient id="linear-gradient-11" x1="1205.14" y1="839.26" x2="1205.14" y2="828.67" gradientTransform="translate(-131.41 -939.96) rotate(28.43)" xlink:href="#linear-gradient-5"/>
    <linearGradient id="linear-gradient-12" x1="449.82" y1="383.31" x2="449.82" y2="374.75" xlink:href="#linear-gradient-5"/>
    <linearGradient id="linear-gradient-13" x1="502.79" y1="402.3" x2="502.79" y2="393.74" xlink:href="#linear-gradient-5"/>
    <linearGradient id="linear-gradient-14" x1="441.43" y1="350.11" x2="441.43" y2="345.86" xlink:href="#linear-gradient-5"/>
    <linearGradient id="linear-gradient-15" x1="445.55" y1="344.16" x2="445.55" y2="343.58" xlink:href="#linear-gradient-5"/>
    <linearGradient id="linear-gradient-16" x1="471.03" y1="313.71" x2="621.55" y2="313.71" xlink:href="#linear-gradient-3"/>
    <linearGradient id="linear-gradient-17" x1="443.39" y1="307.27" x2="504.89" y2="368.78" gradientTransform="translate(2.7 14.08) rotate(-.32)" gradientUnits="userSpaceOnUse">
      <stop offset="0" stop-color="#9a77f6"/>
      <stop offset=".02" stop-color="#9573ee"/>
      <stop offset=".39" stop-color="#564289"/>
      <stop offset=".68" stop-color="#271e3f"/>
      <stop offset=".89" stop-color="#0b0811"/>
      <stop offset="1" stop-color="#000"/>
    </linearGradient>
    <linearGradient id="linear-gradient-18" x1="420.45" y1="307.89" x2="567.67" y2="307.89" xlink:href="#linear-gradient-2"/>
    <linearGradient id="linear-gradient-19" x1="419.56" y1="302.13" x2="547.53" y2="302.13" gradientTransform="translate(2.7 14.08) rotate(-.32)" gradientUnits="userSpaceOnUse">
      <stop offset="0" stop-color="#f9ff6a"/>
      <stop offset=".03" stop-color="#e6ec62"/>
      <stop offset=".14" stop-color="#b1b54b"/>
      <stop offset=".26" stop-color="#818537"/>
      <stop offset=".37" stop-color="#595c26"/>
      <stop offset=".49" stop-color="#393a18"/>
      <stop offset=".61" stop-color="#20200d"/>
      <stop offset=".73" stop-color="#0e0e06"/>
      <stop offset=".85" stop-color="#030301"/>
      <stop offset="1" stop-color="#000"/>
    </linearGradient>
    <linearGradient id="linear-gradient-20" x1="438.36" y1="287.9" x2="456.81" y2="315.28" xlink:href="#linear-gradient"/>
    <linearGradient id="linear-gradient-21" x1="443.51" y1="296.79" x2="462.84" y2="340.65" xlink:href="#linear-gradient-3"/>
    <linearGradient id="linear-gradient-22" x1="383.64" y1="211.63" x2="485.97" y2="363.47" gradientTransform="translate(2.7 14.08) rotate(-.32)" gradientUnits="userSpaceOnUse">
      <stop offset="0" stop-color="#f4c29c"/>
      <stop offset=".2" stop-color="#e9ab8c"/>
      <stop offset=".53" stop-color="#da8d76"/>
      <stop offset=".8" stop-color="#d17a69"/>
      <stop offset="1" stop-color="#ce7465"/>
    </linearGradient>
    <linearGradient id="linear-gradient-23" x1="384.78" y1="210.86" x2="455.81" y2="316.27" gradientTransform="translate(2.7 14.08) rotate(-.32)" gradientUnits="userSpaceOnUse">
      <stop offset=".61" stop-color="#900040"/>
      <stop offset=".64" stop-color="#950b48"/>
      <stop offset=".7" stop-color="#a22b60"/>
      <stop offset=".79" stop-color="#b95e87"/>
      <stop offset=".89" stop-color="#d8a6bc"/>
      <stop offset="1" stop-color="#fff"/>
    </linearGradient>
  </defs>
  <g class="cls-118">
    <g id="Bg">
      <g>
        <g class="cls-141">
          <g>
            <path class="cls-88" d="m441.06,574.63s-12.22-.25-17.32,0c0,0-3.99,9.15-14.38,13.26,0,0,6.18,16.61,2.26,21.67-3.92,5.06-5.39,11.31-5.39,11.31,0,0,2.27,42.7,1.47,88.29s-9.94,85.9-8.2,97.5c1.74,11.6,3.2,22.12,2.18,22.12s-16.89,11.6-16.89,11.6l1.67-249,9.58-26.33,30.99-3.05,14.04,12.64Z"/>
            <path class="cls-88" d="m410.55,420.92c-16.68,15.14-17.71,23.21-17.71,23.21l12.33,9.1s-19.33,17.98-18.71,26.22c.62,8.24,2.45,20.36,8.02,26.76,5.56,6.4,8.5-7.29,8.5-7.29l10.2,36.49-37.99-16.99s-10.73-67.82-10.77-69.13,18.69-33.04,18.69-33.04l27.44,4.68Z"/>
            <path class="cls-88" d="m397.38,826.43c-5.46,3.56-6.47,7.19-7.99,14.34-1.51,7.16-1.7,12.64-1.32,13.96s8.51,8.69,7.75,10.02-12.47,9.03-12.47,9.03c0,0-3.59,51.51-4.54,51.38-.94-.12-18.9,1.55-20.03,4.21-1.13,2.66-9.11,51.62-8.62,54.83.49,3.21,24.59,18.68,47.22,23.42,22.63,4.74,30.52,9.27,30.52,9.27,0,0-91.64-4.31-91.92-4.52-.28-.22,0-84.19,0-84.19l42.82-102.94,18.57,1.19Z"/>
            <path class="cls-88" d="m298.16,877.7s-13.72,12.39-17.64,24.4c-3.92,12.01-27.03,125.3-27.03,125.3h-8.32l32.71-147.85,20.28-1.84Z"/>
            <g>
              <path class="cls-76" d="m457.68,503.21s-35.66,76.82-49.52,82.41c-13.86,5.6-24.39-6.72-24.39-6.72,0,0-14.49-57.73-15.07-77.76-.58-20.03,6.48-46.13,6.48-46.13,5.83,23.98,11.81,39.85,16.03,49.3,3.5,7.82,5.78,11.26,5.78,11.26h0s31.17-30.28,31.17-30.28l29.5,17.92Z"/>
              <path class="cls-32" d="m457.68,503.21s-35.66,76.82-49.52,82.41c-13.86,5.6-24.39-6.72-24.39-6.72,0,0-14.49-57.73-15.07-77.76-.58-20.03,6.48-46.13,6.48-46.13,5.83,23.98,11.81,39.85,16.03,49.3-7.45,6.44-7.71,39.96,0,52.26,0,0-1.76-18.93,3.17-20.67,0,0,2.9,15.55,2.42,36.57,0,0,8.47,2.16,20.21-4.73,0,0-18.3-26.38-20.01-52.17l31.17-30.27,29.5,17.92Z"/>
              <g>
                <path class="cls-124" d="m278.55,890.53c-.42,2.33-.84,4.61-1.25,6.87v.02c-.66,3.59-1.31,7.08-1.94,10.49-.75,4.01-1.48,7.91-2.19,11.68-1.01,5.34-1.99,10.43-2.94,15.3-.32,1.67-.65,3.31-.96,4.93-12.97,66.01-19.7,87.57-19.7,87.57h-13.34c-.48-3.87-.88-7.73-1.21-11.57-.52-5.84-.87-11.63-1.09-17.34h0c-.2-5.06-.29-10.03-.3-14.92-.02-15.96.9-30.94,2.19-44.09.51-5.2,1.08-10.1,1.66-14.67.59-4.49,1.19-8.65,1.78-12.43.44-2.8.87-5.4,1.29-7.76.03-.18.06-.35.09-.53.51-2.86.99-5.36,1.41-7.48h0c.38-1.97.72-3.6,1-4.87.45-2.12.72-3.25.72-3.25l5.44.32,29.35,1.73Z"/>
                <path class="cls-66" d="m235.01,1015.83c-.52-5.84-.87-11.63-1.09-17.34h0c2.47-2.69,5.24-6.31,8.32-11.14,10.78-16.94,7.1-44.66-.31-58.13-.59-1.09-2.22-2.62-4.47-4.4.59-4.49,1.19-8.65,1.78-12.43,4.81,7.25,9.21,14.88,10.31,19.92,2.69,12.32,1.31,86.6-14.55,83.53Z"/>
                <path class="cls-47" d="m270.22,934.9c-.32,1.67-.65,3.31-.96,4.93-7.69-9.59-17.43-23.71-27.22-43.22h0c.38-1.97.72-3.6,1-4.87.45-2.12.72-3.25.72-3.25l5.44.32c.15,6.48,1.82,15.14,6.88,26.17,4.25,9.26,9.29,15.6,14.14,19.93Z"/>
                <path class="cls-17" d="m239.16,975.03c-1.41,3.26-3.39,6.1-5.54,8.54-.02-15.96.9-30.94,2.19-44.09,7.58,12.43,7.42,26.18,3.36,35.55Z"/>
                <path class="cls-75" d="m274.81,910.85s-12.97,39.15-18.72,67.64c-5.76,28.49-6.53,48.91-6.53,48.91,0,0,8.94-37.02,13.9-58.94,4.96-21.92,11.35-57.61,11.35-57.61Z"/>
              </g>
              <path class="cls-82" d="m400.59,719.81c-.47,10.42-1.13,19.85-2.05,27.32-5,40.81-1.15,79.3-1.15,79.3-6.16,4.23-10.01,6.16-10.01,6.16-5.39,10.78-5,22.71-5,22.71,6.93,1.92,9.62,8.47,9.62,8.47,0,0,0,0-.02,0-24.25,15.01-57.73,11.54-57.73,11.54l-6.93-1.15s2.69-8.85,5-11.16c9.21-9.21,17.32-32.72,17.32-32.72,0,0-1.54-11.93-1.54-14.24,0-.62.42-1.02,1.04-1.28,1.66-.67,4.73-.26,4.73-.26,1.39-7.69,1.91-16.57,1.89-25.7v-.07c-.02-10.63-.79-21.6-1.79-31.49-.76-7.51-1.66-14.4-2.47-20.02l-.02-.09c-1.28-8.84-2.36-14.51-2.36-14.51-35.93,63.13-39.52,86.74-39.52,86.74,0,0,1.54,15.91,0,18.48-1.54,2.57-11.29,13.86-11.29,13.86-4.1,17.97,1.9,33.95-.15,36-2.05,2.06-16.58,10.78-16.58,10.78l-4.29,8.92v.02c-7.23,3.56-33.7-5.5-34.26-5.7h0l-1.84-9.41c-3.6-.72-5.71-.97-6.77-2.29-.45-.56-.71-1.32-.8-2.39-.41-4.71.53-18.11,3.1-25.66,3.55-10.42,8.62-20.3,13.71-28.77.04-.05.07-.1.09-.14,0-.02.02-.03.02-.05,0,0,0-.02.02-.03.02-.02.02-.02.02-.03,9.69-16.01,19.49-26.93,19.49-26.93,1.9-4.29,3.77-8.69,5.58-13.17,2.55-6.26,5.01-12.69,7.38-19.19,17.55-48.05,30.34-100.38,35.42-122.53.76-3.32,1.36-5.96,1.76-7.81.43-2.01.66-3.09.66-3.09,34.9-28.23,80.07-23.1,80.07-23.1,0,0,1.71,66.19-.39,112.68Z"/>
              <g>
                <path class="cls-74" d="m429.34,1017.76v4.87c-4.97,6.33-23.79,17.02-76.09,2.28-4.76-1.34-9.02-2.56-12.83-3.65-18.36-5.29-25.88-7.74-25.88-7.74,0,0,6.29-12.23,10.14-25.24h0c.93-3.15,1.72-6.34,2.25-9.41.97-5.67,1.44-15.94,1.72-27.1.48-19.96.34-42.75,1.27-47.2l30.12,5.77c-2.16,6.6-4.36,14.57-6.38,22.81-5.54,22.56-9.86,47.15-9.02,51.1,1.02,4.77,23.07,17.99,45.2,23.36.02,0,.04,0,.06.02,2.85.69,5.7,1.26,8.5,1.65,15.19,2.13,23.41,4.86,27.47,6.63,2.53,1.11,3.46,1.84,3.46,1.84Z"/>
                <path class="cls-30" d="m344.34,1017.24s-1.62,1.67-3.93,4.02c-18.36-5.29-25.88-7.74-25.88-7.74,0,0,6.29-12.23,10.14-25.24h0c-1.6,21,19.66,28.96,19.66,28.96Z"/>
                <path class="cls-11" d="m360.04,910.35c-2.16,6.6-4.36,14.57-6.38,22.81-14.58-4.4-24.72,17.97-25.01,18.61.48-19.96.34-42.75,1.27-47.2l30.12,5.77Z"/>
                <path class="cls-87" d="m433.57,1024.94s-5.64,5.14-22.71,8.22c-28.39,5.13-48.89.77-48.89.77,0,0-6.16-6.53-16.94-9.24-2.6-.65-6.31,5.82-9.24,5.39-12.19-1.79-24.64-3.7-24.64-3.7v-14.01c0-3.46,7.11-6.8,7.11-6.8l-2.27,5c12.1,6.17,34.95,7.19,34.95,7.19,39.77,23.87,78.4,3.16,78.4,3.16v-3.16l2.69-.52,1.54,7.7Z"/>
                <path class="cls-89" d="m379.69,869.69l-2.7,44.93-.39,6.51-8.85,1.92c2.69-16.94,0-31.57,0-31.57l-5.39,31.57c-16.94,6.54-47.81-4.23-47.81-4.23.95-2.7,1.86-5.25,2.74-7.64,10.9-29.6,16.97-35.86,16.97-35.86,30.41-3.08,45.44-5.63,45.44-5.63Z"/>
                <path class="cls-87" d="m376.99,914.62l-.39,6.51-8.85,1.92c2.69-16.94,0-31.57,0-31.57l-5.39,31.57c-16.94,6.54-47.81-4.23-47.81-4.23.95-2.7,1.86-5.25,2.74-7.64,27.84,9.2,42.38,4.69,42.38,4.69l5.39-29.77,7.31-1.79,1.41,29.84,3.22.47Z"/>
                <path class="cls-84" d="m389.94,1016.99c-6.05-4.3-8.47-9.24-.09-9.36.02,0,.04,0,.06.02,2.85.69,5.7,1.26,8.5,1.65,15.19,2.13,23.41,4.86,27.47,6.63,5.91,4.32-20.19,12.27-35.94,1.07Z"/>
                <path class="cls-51" d="m433.57,1024.94s-5.64,5.14-22.71,8.22c-28.39,5.13-48.89.77-48.89.77,0,0-6.16-6.53-16.94-9.24-2.6-.65-6.31,5.82-9.24,5.39-12.19-1.79-24.64-3.7-24.64-3.7v-14.01s12.33,8.92,29.26,8.89c0,0,6.15-3.6,13.08,1.45,6.93,5.06,17.62,9.59,30.95,9.63,13.32.05,46.81-5.6,47.58-15.1l1.54,7.7Z"/>
              </g>
              <g class="cls-42">
                <path class="cls-95" d="m390.58,594.3s6.29,52.87,2.7,124.73c-3.59,71.86-.79,109.27-.79,109.27,0,0-13.06,3.65-17.68,10.83-4.62,7.19,0,17.8,0,17.8,0,0,11.96,3.56,8.97,8.58-2.02,3.39-11.83,5.35-11.83,5.35l-3.94.61s11.2-4.11,11.69-6.8c.5-2.69-8.86-6.63-8.86-6.63,0,0-1.91-12.26.24-18.53.86-2.5,10.11-10.22,10.11-10.22,0,0,4.26-87.94,2.58-129.9-1.15-28.66,3.86-98.94,2.32-105.1h4.49Z"/>
                <path class="cls-95" d="m375.83,598.5s-.9,66.9-1.8,81.51c-.36,5.91-2.09,17.3-2.09,17.3,0,0,3.76,25.3,3.89,49.43.13,24.12-5.64,73.91-8.31,77.48-2.27,3.04-7.82,13.99-9.4,18.5-.46,1.31,4.2,18.07,4.2,18.07,0,0,4.01,5.47,3.76,7.05-.25,1.58-9.24,4.66-9.24,4.66l-6.67,1.28s7.73-2.99,9.9-5.6c2.17-2.61-2.31-5.75-2.31-5.75,0,0-5.39-17.14-4.5-20.22s7.57-17.97,9.11-21.81,4.32-70.57,0-117.15c0,0,.38-10.26,1.94-16.78,6.14-25.58,6.58-86.82,6.58-86.82l4.95-1.14Z"/>
                <path class="cls-95" d="m264.47,897.43s6.09-9.25,7.1-11.07c12.26-22.13,17.68-48.99,18.14-54.67,2.31-28.23,48.43-128.83,53.17-141.91,4.75-13.09,8.95-80.46,8.95-80.46l3.58-2.54s6.9,42.58-3.98,79.71c-1.51,5.14-53.38,123.41-53.38,147.27,0,4.4-16.17,25.92-21.94,56.2-.68,3.57-1.92,8.31-1.92,8.31l-9.72-.83Z"/>
                <path class="cls-95" d="m324.24,613.16s1.15,61.91-.77,68.84c-1.92,6.93-47.96,113.33-51.9,119.02-15.3,22.07-19.7,71.8-19.32,82,.22,5.72-2.69,11.16-2.69,11.16l11.93,3.24s-2.71-12.98-2.9-16.46c-2.5-44.93,9.02-56.98,19.01-70.07,3.66-4.79,26.24-65.21,45.87-101.88,12.05-22.52,15.53-39.27,13.82-53.9-1.71-14.63-4.17-45.56-4.17-45.56l-8.88,3.6Z"/>
              </g>
              <path class="cls-91" d="m279.49,625.56s-5.3,18.78-48.8,12.62c-43.5-6.16-55.82-43.89-55.82-43.89,1.52-18.33,11.81-61.25,28.63-101.78,0,0,0-.02.02-.04.02-.02.03-.06.05-.12,5.92-14.27,12.65-28.23,20.1-40.71,1.75-2.94,3.54-5.8,5.37-8.55,1.67-2.53,3.38-4.97,5.12-7.33,0,0,22.33,12.24,30.8,34.83,8.47,22.58-.77,56.42-.77,56.42-2.73,3.72-5,7.86-6.9,12.12v.02c-1.06,2.36-2,4.77-2.84,7.15-2.3,6.57-3.82,12.99-4.8,18.16-1.27,6.75-1.63,11.36-1.63,11.36,3.93,7.86,23.98,16.85,29.85,19.34,1.03.44,1.62.68,1.62.68-.21.39-.41.79-.58,1.19-5.26,11.56.58,28.53.58,28.53Z"/>
              <path class="cls-77" d="m382.55,545.73c.12,13.04.47,23.87,1.22,29.32l-73.39,19.25s-30.74-46.38-53.09-55.14v-.02c.07-.73,2.12-23.09-6.96-51.86-9.24-29.26-26.66-35.62-26.66-35.62l-6.81-14.98-.41-.9s1.12.12,2.82.25h.02c3.97.31,11.11.68,14.87-.25l51.22-42.44,61.64,6.18,36.75,55.5s-1.54,54.03-1.22,90.71Z"/>
              <path class="cls-21" d="m234.16,435.77s16.67,8.65,21.94,19.25l8.38-3.16s-3.22,10.77-5.6,19.63c0,0,11.26,30.74,45.43,43.67,34.18,12.93,55.75,8.99,55.75,8.99l-95.58-105.39-25.13,10.03-5.18,6.98Z"/>
              <path class="cls-63" d="m383.77,485.37c-13.34,30.39-21.42,33.05-21.42,33.05l-1.99-24.61,22.01-29.63,1.4,21.19Z"/>
              <path class="cls-145" d="m397,450.98c-2.43,13.37-43.49,62.09-43.49,62.09l8.25,13.95c-57.69-18.01-101.42-59.53-101.42-59.53,7.7-13.37,8.72-24.91,8.72-24.91-10.78-4.4-27.2-3.81-27.2-3.81-7.7-7.99-22.58-35.21-22.58-35.21,1.72-3.16,4.72-6.11,8.51-8.79,17.73-12.6,64.42-3.48,64.42-3.48,0,0,29.21-14.63,63.09-1.8,23.03,8.72,41.08,20.77,50.28,27.59,4.33,3.22,6.7,5.27,6.7,5.27-22.07,7.91-28.5,22.24-28.5,22.24,9.49,7.87,13.23,6.39,13.23,6.39Z"/>
              <path class="cls-90" d="m368.67,559.11l-1.61.74c-.39-26.81-11.65-44.09-11.65-44.09-25.1-34.99-62.66-110.23-74.31-124.26-1-1.2-1.81-1.96-2.4-2.19,0,0,14.47-5.64,41.27,5.1.45.18.96.43,1.52.75,8.94,4.98,31.41,25.77,31.41,25.77,0,0,12.67,22.04,12.67,23.62,0,16.18-6.19,35.96-6.14,44.99.29,18.05,9.22,69.58,9.22,69.58Z"/>
              <path class="cls-28" d="m368.67,559.11l-1.61.74c-.39-26.81-11.65-44.09-11.65-44.09-7.26-10.12-15.57-23.61-23.99-38.02v-.02l15.6,21.87c4.3-5.77,13.64-38.87,13.64-38.87,0,0-2.16-20.41-15.36-39.8l-3.2-9.66c6.03,5.24,10.8,9.66,10.8,9.66,0,0,12.67,22.04,12.67,23.62,0,16.18-6.19,35.96-6.14,44.99.29,18.05,9.22,69.58,9.22,69.58Z"/>
              <path class="cls-70" d="m264.47,388.21c-4.65,39.78,69.15,92.61,69.15,92.61l-7.26-11.81s17.48,9.81,26.54,6.63c9.06-3.18,12.68-23.99,12.68-23.99v-7.1s-2.59-6.66-2.59-6.66c0,0,26.11-15.18,27.43-31.01,0,0-40.41-24.18-63.17-20.01-22.77,4.17-35.04,4.42-35.04,4.42l-27.73-3.08Z"/>
              <g>
                <g>
                  <path class="cls-120" d="m294.8,265.76s-.85.17-2.46.35c-11.66,1.28-63.22,3.13-122.67-52.83-62.39-58.74-86.12-65.79-89.46-66.54,1.51.25,7.07,1.25,15.16,2.98,19.12,4.09,52.39,12.27,79.56,24.59,69.52,31.51,92.47,74.88,93.17,76.23l-11.99-33.09s27.63,29.27,38.69,48.31Z"/>
                  <path class="cls-10" d="m292.33,266.11c-11.66,1.28-63.22,3.13-122.67-52.83-62.39-58.74-86.12-65.79-89.46-66.54-.02,0-.05-.02-.06-.02-.09-.02-.17-.03-.22-.04-.02,0-.03,0-.04,0-.02,0-.04,0-.05,0-.02,0-.04,0-.04,0,0,0,4.76-.35,15.58,3.06,20.13,6.33,61.27,25.62,131.84,84.25l-30-11.81s16.68,18.79,53.13,31.55c14.38,5.04,28.29,8.54,42.01,12.4Z"/>
                  <path class="cls-121" d="m438.44,291.76s-.82,4.17-3.2,10.7c-8.25,22.64-35.17,73.54-111.27,76.62-83.18,3.36-122.02-50.6-122.47-94.98-.03-2.86.1-5.68.38-8.45.52-4.9,1.52-9.61,3.01-14.04,0,0,16.17,12.14,45.43,8,40.49-5.73,60.05-75.68,76.04-92.22,15.99-16.55,26.55-7.32,26.55-7.32,0,0-11.73,48.51,2.38,55.9,14.12,7.38,37.47-48.58,37.47-48.58,8.47,11.94,0,16.03-8.99,52.99-8.98,36.96,6.93,59.08,24.38,62.46,16.16,3.13,30.28-1.07,30.28-1.07Z"/>
                  <path class="cls-117" d="m438.44,291.76s-.82,4.17-3.2,10.7c0,0-17.52-.21-33.25-6.8-31.04-12.98-24.48-71.24-23.88-73.45-.36.94-5.97,14.98-22.83,19.23-17.45,4.4-17.36-51.36-17.36-51.36,0,0-15.23,23.1-29.09,47.74-13.29,23.62-42.15,63.53-106.95,37.83.52-4.9,1.52-9.61,3.01-14.04,0,0,16.17,12.14,45.43,8,40.49-5.73,60.05-75.68,76.04-92.22,15.99-16.55,26.55-7.32,26.55-7.32,0,0-11.73,48.51,2.38,55.9,14.12,7.38,37.47-48.58,37.47-48.58,8.47,11.94,0,16.03-8.99,52.99-8.98,36.96,6.93,59.08,24.38,62.46,16.16,3.13,30.28-1.07,30.28-1.07Z"/>
                  <path class="cls-99" d="m348.11,173.14c-39.27,13.09-59.54,105.16-59.54,105.16,0,0,17.65-7.37,38.94-15.59,21.29-8.23,20.61-89.57,20.61-89.57Z"/>
                  <path class="cls-68" d="m438.44,291.76s-.82,4.17-3.2,10.7c-8.25,22.64-35.17,73.54-111.27,76.62-83.18,3.36-122.02-50.6-122.47-94.98,15.71-4.69,54.72,19.04,54.72,19.04,35.31-35.53,87.34-36.62,87.34-36.62,0,0,7.89-32.93,15.18-36.33,22.72-10.59,34.02-52.8,34.02-52.8,8.47,11.94,0,16.03-8.99,52.99-8.98,36.96,6.93,59.08,24.38,62.46,16.16,3.13,30.28-1.07,30.28-1.07Z"/>
                </g>
                <path class="cls-129" d="m375.05,287.71s-.76,22.87,0,25.56c.77,2.69-5.04,8.63-4.44,10.19.59,1.56.98,6.46.98,6.46,0,0,4.41,1.26,3.46,2.99-.95,1.73-14.62,19.11-14.43,20.72.19,1.61,1.54,10.65,7.28,22.01,5.75,11.37,5.23,13.86,5.23,13.86l-20.22-36.96,12.68-67.18,9.46,2.35Z"/>
                <path class="cls-125" d="m291.34,362.89s-22.09-46.14-5.96-64.12c16.12-17.98,28.85-30.48,62.73-32.24,0,0,20.02,6.71,25.02,22.11l-81.79,74.25Z"/>
                <path class="cls-139" d="m298.06,323.79c-.77-.51-2.31-13.09-14.89-12.58-12.58.51-10.78,13.6-9.75,19.25,1.03,5.65,6.97,14.37,11.96,14.12,4.98-.26,8.83-7.7,8.83-7.7l3.85-13.09Z"/>
                <path class="cls-132" d="m368.38,330.98c-.5,2.07-1.51,3.8-2.79,5.63v.02c-2.29,3.23-5.44,6.76-8.15,13.07-.48,1.11-.94,2.31-1.38,3.6-4.36,12.83,4.3,35.54-4.43,43.24-8.73,7.7-35.09,9.48-43.56,1.26-4.57-4.43-9.3-16.6-12.55-27.95-2.78-9.67-4.49-18.75-4.13-21.94.31-2.78,1.32-10.16,2.43-18l.32-2.26.62-4.43.25-1.79.49-3.46.47-3.27c.76-5.34,1.32-9.13,1.32-9.13,5.4-4.08,10.68-7,15.76-9,31.37-12.4,55.33,10.02,55.33,10.02,0,0,.16,1.86.32,4.6h0c.35,5.78.72,15.44-.32,19.78Z"/>
                <path class="cls-123" d="m383.77,404.62c-5.05-5.63-10.89-8.46-13.42-9.51-.82-.33-1.29-.48-1.29-.48,1.46,12.06-5.3,31.82-5.3,31.82l-2-6.41v6.41c-2.52,8.98-15.19,31.05-15.19,31.05l-1.79-2.31c.55,2.79,1.04,8.54,1.36,13.2v.08c.28,3.88.44,6.99.44,6.99-25.89-16.05-29.79-49.28-29.79-49.28-.03.59-.03,1.22,0,1.89v.05c.11,2.69.66,5.96,1.42,9.33,2.01,8.99,5.46,18.64,5.75,19.47.02.04.02.05.02.05-16.66-7.14-27.47-18.29-33.29-25.78,0,0,0,0,0-.02-3.6-4.61-5.3-7.83-5.3-7.83-13.07-24.52-7.1-43.92-3.85-51.25l-7.15,14.04c-1.6-8.99,3.66-20.79,3.66-20.79,8.47-14.12,15.77-35.46,15.77-35.46,0,0-2.13,22.94,2.71,35.46,4.84,12.51,21.8,14.45,21.8,14.45-.02,11.12,11.88,19.93,11.88,19.93,3.4-5.64,3.7-13.34,3.7-13.34l4.2.77c2.3,2.31,5.47,10.01,5.47,10.01,11.9-18.48,9.34-30.03,9.34-30.03.18-9.24,4.83-18.15,4.83-18.15,0,0,4.23,16.35,9.36,26.1,5.05,9.6,16.31,28.9,16.67,29.5Z"/>
                <path class="cls-53" d="m383.77,404.62c-5.05-5.63-10.89-8.46-13.42-9.51-2.67-9.82-10.18-18.19-10.18-18.19-.26,12.57,3.59,49.53,3.59,49.53l-2-6.41v6.41c-5.08-13.86-10.92-30.76-12.11-31.78-1.19-1.03-8.42,6.9-8.25,8.52,1.27,12.35,3.38,52,3.38,52l1.36,13.2v.08c-7.35-37.47-10.96-43.32-12.5-46.65-1.54-3.33-17.67-37.26-17.98-33.36-.8,9.82.27,32.1,1.14,39.62v.05c.38,3.37.88,6.49,1.42,9.33,2.2,11.52,5.29,18.47,5.72,19.42-29.45-32.49-29.13-65.08-29.13-65.08-3.9-1.75-9.42,1.52-9.42,1.52,4.19,16.88,5.1,37.2,5.3,37.87-3.6-4.61-5.3-7.83-5.3-7.83-13.07-24.52-7.1-43.92-3.85-51.25l-7.15,14.04c-1.6-8.99,3.66-20.79,3.66-20.79,8.47-14.12,15.77-35.46,15.77-35.46,0,0-2.13,22.94,2.71,35.46,4.84,12.51,21.8,14.45,21.8,14.45-.02,11.12,11.88,19.93,11.88,19.93,3.4-5.64,3.7-13.34,3.7-13.34l4.2.77c2.3,2.31,5.47,10.01,5.47,10.01,11.9-18.48,9.34-30.03,9.34-30.03.18-9.24,4.83-18.15,4.83-18.15,0,0,4.23,16.35,9.36,26.1,5.05,9.6,16.31,28.9,16.67,29.5Z"/>
                <path class="cls-146" d="m326.37,362.89c-55.64,26.22-95.67,39.81-95.67,39.81,0,0,98-29.41,112.88-24.75,14.88,4.67,53.42,48.51,53.42,48.51-26.39-35.42-49.4-60.7-49.4-60.7l-21.23-2.87Z"/>
                <path class="cls-112" d="m351.86,338.18c-2.98,9.83-4.27,23.34-4.27,23.34,0,0,2.02,1.15,0,4.23,0,0-.2.33-.57.82-2.23,3.06-6.43,7.18-9.95,6.23-3.85-1.02-7.15-8.72-7.15-8.72,0,0-6.2-1.54-5.94-3.33.25-1.8,3.08-5.14,4.62-5.14s6-1.05,6-1.05c0,0,3.33-6.56,7.97-20.27,0,0,9.82,2.12,9.29,3.88Z"/>
                <path class="cls-46" d="m361.76,334.3l3.83,2.31v.02s-7.63,13.21-7.63,13.21c0,0-.18-.04-.52-.14-1-.32-4.95-2.79-7.21-5.11,0,0-.53-6.41-7.89-5.06-4.72.87-20.21,4.72-22.36,2.96-2.15-1.76-6-10.87-8.31-10.68-2.31.19-16.17,19.7-15.14,33.56.2,2.66-.21,4.02-1,4.48-2.78-9.67-4.49-18.75-4.13-21.94.31-2.78,1.32-10.16,2.43-18l.32-2.26.62-4.43.25-1.79.49-3.46.47-3.27s10.28-11.19,17.08-18.13c31.37-12.4,55.33,10.02,55.33,10.02,0,0,.16,1.86.32,4.6,0,0-23.11-18.72-48.03-7.68l-2.08,11.19s14.6,4.24,21.3,15.21c2.68,4.38,21.87,4.38,21.87,4.38Z"/>
                <path class="cls-38" d="m291.33,328.93s-6.84-14.79-16.94-7.67c0,0,7.07-1.1,10.99,2.86,0,0-7.91.34-7.24,4.8.67,4.46,5.39-2.05,9.53,0,4.14,2.05,3.66,5.71,3.66,5.71,0,0,1.26-1.32,0-5.71Z"/>
                <path class="cls-140" d="m335.96,329.32s0,10.76-10.08,10.6c-7.07-.11-9.1-14.23-9.1-14.23,0,0,11.05-6.38,19.18,3.62Z"/>
                <path class="cls-131" d="m370.61,332.16s-2.82,5-5.64,5.74c-2.83.74-12.06-.24-12.06-.24,0,0,3.8-7.09,8.7-7.66,4.9-.57,9,2.17,9,2.17Z"/>
                <path class="cls-125" d="m354.98,335.66c-7.3,5.01.39,15.55,2.98,14.17,2.59-1.38,7.36-10.03,7.63-13.22,0,0-7.9-2.8-10.61-.95Z"/>
                <path class="cls-126" d="m329.89,328.3c0,2.54-2.06,4.6-4.6,4.6s-4.6-2.06-4.6-4.6,2.06-4.6,4.6-4.6,4.6,2.06,4.6,4.6Z"/>
                <path class="cls-136" d="m339.9,328.93s-3.61,5.32-5.18,5.71c0,0-10.74-12.9-19.08-16.49,0,0,8.1-2.05,12.84.71,4.73,2.75,11.42,10.07,11.42,10.07Z"/>
                <path class="cls-125" d="m327.5,296.18s15.47,34.3,26.76,48.41l1.03-4.66s-17.46-12.18-21.82-42.21l-5.97-1.54Z"/>
                <path class="cls-130" d="m375.05,287.71l-1.02,18.38s.03,5.34-.74,6.89c-.77,1.56-4.23,7.53-4.23,7.53l-.35-9.31s-21.75-24.51-55.24-7.08c-15.21,7.91-18.73,19.34-18.73,19.34l-2.53-9.52c.08.15.88,1.18,1.24-12.66,0,0,10.39-27.66,38.68-29.2,1.3-.07,2.58-.1,3.83-.1h0c19.36.07,31.69,8.83,36.63,13.2l.03.03c1.62,1.43,2.43,2.38,2.43,2.38v.12Z"/>
                <path class="cls-55" d="m374.03,306.09s.03,5.34-.74,6.89c-.77,1.56-4.23,7.53-4.23,7.53l-.35-9.31s-21.75-24.51-55.24-7.08c-15.21,7.91-18.73,19.34-18.73,19.34l-2.53-9.52c.08.15.88,1.18,1.24-12.66,0,0,10.39-27.66,38.68-29.2,1.3-.07,2.58-.1,3.83-.1-26.92,1.38-34.81,20.85-34.81,20.85,0,0,7.31-6.12,18.82-5.98.58,0-11.31,4.67-19.59,12.57-.93.89-4.04,9.94-4.1,10.26.39-.41,11.6-10.67,31.23-13.49,24.66-3.54,42.54,10.28,43.11,10.55-11.86-19.44-23.85-28.68-23.85-28.68,19.63,8.28,23.85,16.75,23.85,16.75,0,0,2.13-2.83,1.98-9.62l.03.03c.17.18,1.05,1.08,2.43,2.5l-1.02,18.38Z"/>
                <path class="cls-26" d="m347.02,366.58c-2.23,3.06-6.3,9.31-9.82,8.36-3.85-1.02-7.28-10.86-7.28-10.86,0,0-6.2-1.54-5.94-3.33,12.96,3.85,11.42,9.3,15.85,9.88,3.33.44,6.05-2.56,7.19-4.05Z"/>
                <path class="cls-55" d="m323.98,383.14c9.85,4.27,15.85,4.62,20.47,2.31l-20.47-2.31Z"/>
                <path class="cls-55" d="m317.01,326.98s-3.69,8.65,6.97,12.55c0,0-5.51-2.29-6.97-12.55Z"/>
                <path class="cls-16" d="m315.64,318.15c.13,5.23.18,10.91,8.34,13.99,8.15,3.08,10.74,2.5,10.74,2.5,0,0,1.22-3.07-5.79-9.14-7-6.07-13.29-7.35-13.29-7.35Z"/>
                <path class="cls-97" d="m329.11,331.34c0,.51-.42.93-.93.93s-.93-.42-.93-.93.42-.93.93-.93.93.42.93.93Z"/>
                <path class="cls-55" d="m351.88,339.93s-3.27,12.9-3.78,17.25c0,0-1.75-5.17.52-11.18,2.27-6.01,3.26-6.07,3.26-6.07Z"/>
                <path class="cls-19" d="m297.11,326.03c6.78,5.13,12.77,59.77,12.77,59.77,0,0-21.24-17.63-18.49-37.88,2.75-20.26,5.72-21.89,5.72-21.89Z"/>
              </g>
              <path class="cls-86" d="m554.26,400.27s-22.72,19.36-32.34,31.37c-2.16,2.71-14.22,3.32-29.15,12.94h0c-6.31,4.07-13.12,9.74-19.93,17.85,0,0,3.6,7.38,3.33,8.15,0,0-5.39,6.68-6.41,8.47,0,0-2.69,68.27-11.93,91.75,0,0-6.54,7.7-28.1,1.92-13.01-3.48-22.1-24.35-26.75-43.82,0-.04,0-.08-.02-.11-.82-3.46-1.51-6.88-2.04-10.14-.02-.07-.02-.12-.03-.16,0-.03,0-.05,0-.06,0-.02,0-.02,0-.02-1.42-8.67-1.83-16.25-1.17-20.75,0,0,31.81-22.72,44.65-35.06h0c1.21-1.17,2.25-2.24,3.08-3.19,0,0-1.92-8.17,0-8.45,1.92-.28,6.16-2.97,6.16-2.97,0,0-16.05-7.93-15.14-10.12.45-1.08,3.83-4.67,7.88-8.91h0c4.2-4.41,9.13-9.52,12.27-13.26,3.35-4,6.24-9.05,8.25-13.01h0c1.68-3.33,2.73-5.89,2.91-6.41.38-1.15,6.8-.12,7.45,4.23.64,4.37-1.42,12.45-2.44,13.86-1.02,1.42-8.85,3.21-9.88,5.65,0,0,5.45.89,8.34,6.41h.02c.79-.15,26.12-4.71,31.3-10.39,0,0,11.13-20.71,27.2-19.25,2.12.19,4.23,3.66,4.23,3.66,0,0,7.54-2.91,13.09-3.46,1.92-.19,4.81.96,5.2,3.27Z"/>
              <path class="cls-51" d="m344.64,867.62s23.1-10.01,37.73-12.32c0,0-.38-11.93,5-22.71,0,0,3.85-1.92,10.01-6.16,0,0-14.63,8.08-29.87-2.2-1.19-23.09-4.13-71.72-9.01-98.99,0,0,1.76-12.29,22.32-43.94,0,0-21.19,31.81-28.38,24.51l-3.32,16.81s9.09,44.4,6.07,81.01l-1.32,10.87c-6.03-.64-5.77,1.54-5.77,1.54,0,2.31,1.54,14.24,1.54,14.24,0,0-8.12,23.51-17.32,32.72-2.31,2.31-5,11.16-5,11.16l6.93,1.15s33.48,3.46,57.73-11.54c-.64.16-25.62,6.44-47.34,3.84Z"/>
              <path class="cls-51" d="m298.16,877.7c-2.05,2.06-16.58,10.78-16.58,10.78l-22.6-1.99-17.8-4.17c-3.6-.72-5.71-.97-6.77-2.29-.45-.56-.71-1.32-.8-2.39-.41-4.71.53-18.11,3.1-25.66,3.55-10.42,8.62-20.3,13.71-28.77.04-.05.07-.1.09-.14.02-.03.04-.06.05-.08.02-.02.02-.02.02-.03,9.69-16.01,19.49-26.93,19.49-26.93,4.56-10.27,8.89-21.2,12.97-32.36-2.3,18.48-11.22,29.13-10.4,32.36,0,0,7.44,30.28,22.19,40.17,0,0,6.3-1.93,14.77-8.35-1.54,2.57-11.29,13.86-11.29,13.86-4.1,17.97,1.9,33.95-.15,36Z"/>
              <path class="cls-51" d="m400.59,719.81s-16.82-38.51-46.61,37.43l-2.47-20.02-.02-.09-1.98-16.04c2.62-14.06,8.87-62.23-22.19-78.02-2.84-1.45-5.81-2.05-8.84-1.95,1.59-6.91,2.43-10.89,2.43-10.89,34.9-28.23,80.07-23.1,80.07-23.1,0,0,1.71,66.19-.39,112.68Z"/>
              <path class="cls-65" d="m360.67,526.68c-.26-.61-.61-2.53-.61-2.53-29.27-8.85-90.1-56.66-90.1-56.66,6.16-9.79,4.43-24.87,4.43-24.87l-29.45-6.86s-16.81-16.86-17.15-41c-3.79,2.69-6.79,5.63-8.51,8.79,0,0,14.88,27.22,22.58,35.21,0,0,16.42-.58,27.2,3.81,0,0-1.02,11.53-8.72,24.91,0,0,42.74,41.15,100.33,59.19Z"/>
              <path class="cls-65" d="m383.77,444.59s6.43-14.34,28.5-22.24c0,0,2.61,1.79-1.72-1.43-19.96,8.02-26.77,23.67-26.77,23.67,2.75,5.68,9.51,7.43,9.51,7.43-4.58,15.47-18.1,33.91-32.92,52.3h0c4.48-5.2,33.57-39.38,36.63-53.33,0,0-3.74,1.48-13.23-6.39Z"/>
              <path class="cls-25" d="m277.87,595.16c1.03.44,1.62.68,1.62.68-.21.39-.41.79-.58,1.19l-1.04-1.87Z"/>
              <path class="cls-8" d="m383.77,575.05l-73.39,19.25s-30.74-46.38-53.09-55.14c-1.06,2.36-2,4.77-2.84,7.15-2.74-14.02-9.13-40.44-20.92-57.82-15.97-23.54-28.87,1.68-29.96,3.89,5.92-14.27,12.65-28.23,20.1-40.71l-6.81-14.98,2.41-.65h.02c3.49,2.06,6.74,4.46,9.75,7.08,12.83,11.15,21.25,26.42,24.37,37.63,3.85,13.86,10.78,46.29,10.78,46.29,0,0,7.18,7.02,39.51,25.77,28.97,16.79,64.4,11.1,78.86-7.06.12,13.04.47,23.87,1.22,29.32Z"/>
              <path class="cls-61" d="m275.67,782.85c2.55-6.26,5.01-12.69,7.38-19.19,17.55-48.05,30.34-100.38,35.42-122.53.76-3.32,1.36-5.96,1.76-7.81,10.13,6.78,20.97,15.81,22.64,24.25,3.07,15.54-1.91,87.36-67.21,125.28Z"/>
              <g>
                <path class="cls-149" d="m277.52,783.74c-24.19,33.66-57.75,47.92-57.75,47.92,0,0-.12-5.67-6.4-4.43-6.27,1.23-6.45,9.8-6.45,9.8,0,0-15.99,14.55-57.97,8.45-41.99-6.09-43.45-15.21-43.45-15.21l14.45-10.31h0s23.03-16.42,23.03-16.42l2.88-2.06s25.46,4.5,67.29-12.21c28.66-11.45,45.98-28.58,56.13-42.82h0c10.08-14.14,13.07-25.42,13.07-25.42l16.26,14.4,4.07,3.6s-.99,11.06-25.18,44.72Z"/>
                <path class="cls-128" d="m330.92,649.15c-1.31,8.87-10.42,11.39-10.42,11.39,0,0,.89,2.66-2.75,27.93-.26,1.81-.53,3.5-.82,5.08-3.67,20.48-8.96,22.32-8.96,22.32l-17.92-17.1s4.83-21.33,7.5-49.06h0c.61-6.34,1.1-13,1.4-19.83,0,0,3.66-11.48,15.01-8.69,11.36,2.79,18.25,19.07,16.95,27.94Z"/>
                <path class="cls-143" d="m363.33,722.43c-2.99,11.66-26.44,26.45-26.44,26.45,0,0-19.16,8.35-46.74-16.22-27.58-24.58-30.11-14.93-30.11-14.93-4.14-9.75,2.16-26.66,27.98-39.49l5.38,2.99-1.06,7.5c5.65,13.97,30.58,39.36,45.08,42.29,4.79.97,7.99.12,10.13-1.46,4.34-3.2,4.31-9.37,4.31-9.37-8.3-20.92-33.41-36.61-33.41-36.61,0,0,1.01-8.2,1.66-14.39.2-1.9.36-3.61.46-4.84l42.77,58.08Z"/>
                <path class="cls-98" d="m307.55,621.17c-11.12,2.38,9.19,37.29,17.96,31.21,10.18-7.05-1.16-34.81-17.96-31.21Z"/>
                <path class="cls-113" d="m277.52,783.74c-24.19,33.66-57.75,47.92-57.75,47.92,0,0-.12-5.67-6.4-4.43-6.27,1.23-6.45,9.8-6.45,9.8,0,0-15.99,14.55-57.97,8.45-41.99-6.09-43.45-15.21-43.45-15.21l14.45-10.31h0c51.92,14.6,108.26.1,144.28-36.76,25.3-25.88,32.18-41.1,34.39-47.78l4.07,3.6s-.99,11.06-25.18,44.72Z"/>
                <path class="cls-44" d="m271.72,742.88c16.19,9.09,10,34.9,10,34.9,0,0,14.33-20.49,20.4-36.06l-20.81-16.49s-2.81,4.83-5.04,10.01-4.55,7.63-4.55,7.63Z"/>
                <path class="cls-41" d="m298.61,636.63l-1.04,15.59s10.3-2.38,20.88,31.35l1.19-9.4-21.03-37.54Z"/>
                <path class="cls-39" d="m295.32,668.67c15.74,28.29,21.27,24.93,21.27,24.93l-2.11,9.31s-12.33-22.62-20.14-27.56l.98-6.67Z"/>
                <polygon class="cls-2" points="159.45 825.55 148.95 845.47 175.45 847.14 180.41 825.24 159.45 825.55"/>
                <path class="cls-135" d="m269.3,746.43c-24.18,44.05-92.39,62.82-126.3,57.1l2.88-2.06s25.46,4.5,67.29-12.21c28.66-11.45,45.98-28.58,56.13-42.82h0Z"/>
                <polygon class="cls-1" points="181.29 799.03 180.61 802.05 202.92 796.15 202.16 793.31 181.29 799.03"/>
                <polygon class="cls-1" points="206.99 791.62 207.5 794.52 215.14 791.44 214.47 788.73 206.99 791.62"/>
                <path class="cls-3" d="m167.52,803.95l-14.09,21.75s49.76,3.45,91.74-26.34l-10.71-17.97s-29.28,18.22-66.94,22.56Z"/>
                <path class="cls-137" d="m347.54,729.55s-4.84,9.52-28.15.3c-23.31-9.22-40.68-40.96-31.37-51.62l5.38,2.99-1.06,7.5c5.65,13.97,30.58,39.36,45.08,42.29,4.79.97,7.99.12,10.13-1.46Z"/>
                <path class="cls-59" d="m351.85,720.18c-8.3-20.92-33.41-36.61-33.41-36.61,0,0,1.01-8.2,1.66-14.39,15.8,16.57,33.72,38.51,31.75,51Z"/>
                <path class="cls-5" d="m331,645.07c-12.94,26.29-32.03-15.18-32.03-15.18l-.36,6.73s10.38,24.83,9.86,33.44c-1.04,17.15-14.82,21.44-14.82,21.44,0,0,5.39,10.52,17,21.6,0,0,4.11-5.11,7.8-29.53l4.09,2.8,2.3-16.23-4.27-5.8-.05-3.8s3.28-.23,7.87-6.06c4.59-5.84,2.62-9.41,2.62-9.41Z"/>
                <path class="cls-1" d="m287.94,697.4c.26.65,9.09.28,9.09.28l4.72,6.79-8.17,3.44-5.63-10.51Z"/>
                <path class="cls-57" d="m299.3,715.26c-.04,9.84,14.05,11.63,14.05,11.63l-14.05-11.63Z"/>
                <path class="cls-61" d="m330.92,649.15c-1.31,8.87-10.42,11.39-10.42,11.39,0,0,.89,2.66-2.75,27.93-.26,1.81-.53,3.5-.82,5.08-.23.02-.35.03-.35.03,0,0-10.06-6.52-19.03-43.87h0c.61-6.34,1.1-13,1.4-19.83,0,0,3.66-11.48,15.01-8.69,11.36,2.79,18.25,19.07,16.95,27.94Z"/>
              </g>
              <path class="cls-34" d="m279.49,625.56s-5.3,18.78-48.8,12.62c-43.5-6.16-55.82-43.89-55.82-43.89,10.61,10.61,24.01,15.13,24.42,15.26-.29-.5-11.37-19.46-7.53-45.66,0,0,8.1,21.16,7.54,18.86-.56-2.31,19.36-17.59,27.88-40.74,0,0,.82-17.39-4.57-26.43-5.23-8.77,16.2,20.88,27.04,48.88-1.27,6.75-1.63,11.36-1.63,11.36,3.93,7.86,23.98,16.85,29.85,19.34,1.03.44,1.62.68,1.62.68-.21.39-.41.79-.58,1.19-5.26,11.56.58,28.53.58,28.53Z"/>
              <g>
                <path class="cls-49" d="m347.08,530.19c-5.99,3.11-2.63,13.19,4.11,11.65,6.74-1.54,7.75-8.41,6.38-9.91-1.37-1.5-8.44-2.81-10.49-1.74Z"/>
                <path class="cls-93" d="m346.35,532.89c.03,7.82,11.39,6.87,11.22-.96-.11-5.12-11.24-5.97-11.22.96Z"/>
                <path class="cls-85" d="m348.3,530.39c-2.74,5.79,9.82,2.21,8.57.67-1.25-1.54-6.75-4.52-8.57-.67Z"/>
                <path class="cls-15" d="m347.91,535.49c1.12,3.65,8.01,1.44,7.99-.87-.02-2.31-8.58-1.05-7.99.87Z"/>
              </g>
              <g>
                <path class="cls-7" d="m353.92,548.99c-5.99,3.11-2.63,13.19,4.11,11.65,6.74-1.54,7.75-8.41,6.38-9.91s-8.44-2.81-10.49-1.74Z"/>
                <path class="cls-80" d="m353.19,551.69c.03,7.82,11.39,6.87,11.22-.96-.11-5.12-11.24-5.97-11.22.96Z"/>
                <path class="cls-85" d="m355.14,549.19c-2.74,5.79,9.82,2.21,8.57.67-1.25-1.54-6.75-4.52-8.57-.67Z"/>
                <path class="cls-29" d="m354.75,554.29c1.12,3.65,8.01,1.44,7.99-.87-.02-2.31-8.58-1.05-7.99.87Z"/>
              </g>
              <path class="cls-27" d="m466.85,402.7h0s0,0,0,0h0Z"/>
              <path class="cls-71" d="m474.76,414.39c-1.02,1.42-8.85,3.21-9.88,5.65,0,0-10.68,2.73-18.56,8.93,4.2-4.4,9.13-9.51,12.27-13.25,3.35-4,6.24-9.05,8.25-13.01-.09.35-2.35,8.62,0,9.63,2.39,1.02,5.47,3.33,7.92,2.05Z"/>
              <path class="cls-37" d="m492.76,444.59c-13,8.81-19.93,17.85-19.93,17.85,0,0,.02-15.38-25.41-11.46,1.92-.28,6.16-2.97,6.16-2.97,0,0-16.05-7.93-15.14-10.12,13.86,6.53,21.82,8.33,26.44,9.35,4.57,1.01,28.32-2.95,27.88-2.65Z"/>
              <path class="cls-52" d="m535.97,400.47c-12.57,9.18-22.07,25.99-22.07,25.99,0,0-5.9.25-21.13,1.79-14.52,1.47-25.99,5.74-27.04,6.13.62-.28,5-2.45,7.49-7.92h.02c.79-.15,26.12-4.71,31.3-10.39,0,0,11.13-20.71,27.2-19.25,2.12.19,4.23,3.66,4.23,3.66Z"/>
              <path class="cls-35" d="m476.17,470.59s-5.39,6.68-6.41,8.47c0,0-2.69,68.27-11.93,91.75,0,0-6.54,7.7-28.1,1.92-13.01-3.48-22.1-24.35-26.75-43.82,0-.04,0-.08-.02-.11-1.13-5.63-1.94-9.66-2.07-10.3,0-.05-.02-.08-.02-.08,0,0,18.49,40.21,39.58,45.47,0,0-16.13-30.95-13.81-59.58,0,0,2.83-11.35,7.7-18.94,0,0,7.39,77.36,7.18,57.55-.02-1.74,14.89-50.52,14.89-61.29s-12.07-19.02-12.07-19.02h0s3.08-3.19,3.08-3.19c13.12,0,28.74,11.16,28.74,11.16Z"/>
              <path class="cls-73" d="m382.85,560.89s-47.04,4.6-79.13,26.19c0,0,.78,4.14,0,7.22-.78,3.08,16.16,40.04,16.16,40.04,0,0,22.45-15.96,44.17-22.07,31.03-8.73,37.03-1.03,37.03-1.03v7.7s5.04-7.4,6.06-12.17l-11.68-31.88-3.93-1.14-3.01-3.8s-3.71-9.07-5.67-9.05Z"/>
              <path class="cls-13" d="m395.46,574.89s-19.86,4.78-37.36,16.72c0,0,20.97-2.69,36.29.77,0,0-18.17,3.54-35.11,4.66,0,0-13.47,5.74-30.99,17.86l3.68,7.63s26.08-20.56,58.62-18.41c8.73.58,16.56,2.65,16.56,2.65,0,0-1.03,4.28-6.06,12.17l-.21-3.66s-25.62-2.93-46.79,5.93c-21.17,8.86-35.63,15.76-35.63,15.76,0,0,1.07-1.62,1.43-2.64.37-1.02-15.98-31.95-15.91-38.24,0,0,31.01-17.1,52.99-25.6l28.88-5.45,5.7,8.7,3.93,1.14Z"/>
              <path class="cls-94" d="m382.67,553.75s5.99,6.23,7.91,15.43c0,0-40.74,13.95-78.05,48.66l1.45,3.37-5.38-3.05-6.47-14.41s24.06-20.24,45.42-33.33c21.35-13.09,35.12-16.68,35.12-16.68Z"/>
              <path class="cls-79" d="m390.58,569.18l-1.23,1.99s-36.79,15.97-65.66,39.87c-10.23,8.47-9.71,10.17-9.71,10.17l-5.38-3.05s8.69-11.16,36.71-28.49c28.02-17.32,45.28-20.5,45.28-20.5Z"/>
              <path class="cls-92" d="m335.22,578.5s-5.41,20.32-4.82,34.53c0,0,2.23,4.96,6.89,7.74,0,0,6.02-2.35,9.06-6.71,0,0-.06-19.52,9.06-31.57,0,0-16.39-6.17-20.19-3.98Z"/>
              <path class="cls-79" d="m330.4,613.03s5.28,6.06,7.3,6.32c0,0,6.18-4.52,7.61-7.92,0,0-2.38-18.65,10.09-28.3,2.61-2.02,12.6-5.77,12.6-5.77,0,0-10.64,4.08-16.96,16.43-6.33,12.35-4.68,20.27-4.68,20.27,0,0-2.36,4.9-9.06,6.71,0,0-4.84-2.01-6.89-7.74Z"/>
              <path class="cls-36" d="m328.23,583.46c-2.26,9.49,3.19,14.15,3.19,14.15l.49-3.31s4.13,8.05,8.78,8.57c4.65.51,4.96-1.86,4.96-1.86l1.74,2.01,2.2-7.82s-4.26,6.22-10.95-2.82c-6.7-9.05-6.45-11.75-6.45-11.75l-3.96,2.84Z"/>
              <path class="cls-83" d="m346.35,567.73c-8.82,0-15.95,7.14-15.95,15.96s7.14,15.95,15.95,15.95,15.96-7.15,15.96-15.95-7.15-15.96-15.96-15.96Zm0,25.02c-5,0-9.06-4.05-9.06-9.05s4.06-9.06,9.06-9.06,9.06,4.05,9.06,9.06-4.06,9.05-9.06,9.05Z"/>
              <path class="cls-65" d="m347.72,582.74c0,1.09-.83,2.12-1.92,2.12s-2.91-1.16-2.91-2.26.89-1.98,1.98-1.98,2.86,1.03,2.86,2.12Z"/>
              <circle class="cls-55" cx="378.93" cy="563.89" r="1.9"/>
              <path class="cls-88" d="m321.93,616.36s3.69,3.46,13.84,16.95c10.15,13.5,14.43,23.89,14.27,25.22-.15,1.32-10.65,27.52-11.41,29.32-.76,1.8-5.69-2.03-5.63-4.28.06-2.25-1.58-10.49-1.58-10.49,0,0-3.83,11.08-5.91,13.38-2.08,2.31-5.3,1.84-7.93,0,0,0-5.44-.41-6.56-3.64-1.12-3.23,10.91-66.46,10.91-66.46Z"/>
              <path class="cls-78" d="m347.08,658.46s-6.16,24.13-8.73,26.95c0,0-3.2-.89-4.49-4.49,0,0-1.92-8.08,2.83-19.5l-4.5-5.27s-.15,10.78-1.22,13.35c0,0-5.63,15.33-7.17,16.87,0,0-5.21,1.02-7.12-3.27l-1.73,1.54s-4-.02-5.15-4.06l.41-3.83s-1.42.55-3-.74c-1.29-1.03-1.34-3.55-1.15-4.13,4.33-13.96,3.3-19.83,3.3-19.83,0,0-12.32-16.62-12.32-27.82,0,0-2.6,7.98-7.19,10.11-1.92.89-4.3-4.8-6.81-3.62-22.74,10.66-66.63,31.78-81.22,42.63,0,0-10.97-11.47-14.57-34.84-.02-.12-.04-.25-.06-.37l-.16-1.15v-.02c-.69-5.05-1.04-10.62-.86-16.75,0,0,25.15,2.56,42.6-4.37,0,0-30.41-2.35-33.49-16.21,0,0,.65-2.49,2.19-6.23,4.6-11.16,17.04-33.52,43.36-34.84,0,0,15.4,24.09,35.93,31.7h13.86s3.08,3.5,3.08,7.61c0,0,26.18,18.47,28.23,18.47,2.06,0,21.04,25.92,25.15,42.09Z"/>
              <path class="cls-18" d="m347.08,658.46s-6.16,24.13-8.73,26.95c0,0-3.2-.89-4.49-4.49,0,0-1.92-8.08,2.83-19.5l-4.5-5.27s-.15,10.78-1.22,13.35c0,0-5.63,15.33-7.17,16.87,0,0-5.21,1.02-7.12-3.27l-1.73,1.54s-4-.02-5.15-4.06l.41-3.83s-1.42.55-3-.74c-1.29-1.03-1.34-3.55-1.15-4.13,4.33-13.96,3.3-19.83,3.3-19.83,0,0-12.32-16.62-12.32-27.82,0,0-2.6,7.98-7.19,10.11-1.92.89-4.3-4.8-6.81-3.62-22.74,10.66-66.63,31.78-81.22,42.63,0,0-10.97-11.47-14.57-34.84-.02-.12-.04-.25-.06-.37l-.16-1.15v-.02c-.69-5.05-1.04-10.62-.86-16.75,0,0,25.15,2.56,42.6-4.37,0,0-30.41-2.35-33.49-16.21,0,0,.65-2.49,2.19-6.23,10.93,6.53,22.73,12.68,33.22,16.15,7.66,2.53,0-39.07,0-39.07,0,0,17.36,43.59,20.9,45.11,15.33,6.61,27.1,10.18,29.52,6.92,8.1-10.9,9.51-32.25,9.51-32.25,0,0,3.08,3.5,3.08,7.61,0,0-5.27,20.26-3.73,32.01,0,0,8.26-10.96,9.33-16.74,0,0,8.06,23.87,13.23,33.88,0,0,9.12,7.99,20.56,6.05,0,0,4.23,7.38,6.93,7.01,2.69-.36,7.06-1.65,7.06-1.65Z"/>
              <path class="cls-65" d="m366.28,570.49c0,1.09-.89,1.98-1.98,1.98s-1.98-.89-1.98-1.98.89-1.98,1.98-1.98,1.98.89,1.98,1.98Z"/>
              <path class="cls-36" d="m337.32,582.99c.72-.89,6.1-7.84,11.88-4.96,5.78,2.87,5.91,8.01,5.91,8.01,0,0,1.99-7.24-.36-10.99-2.86-4.56-9.22-6.54-15.21-1.64-3.68,3.01-2.22,9.58-2.22,9.58Z"/>
              <path class="cls-81" d="m343.78,581.4s-10.63,3.46-14.41,9.24c0,0,.99,1.73,2.57,1.73,0,0,8.26-5.2,13.86-7.51,0,0,2.6-3.66-2.02-3.46Z"/>
              <path class="cls-96" d="m535.97,410.14s-16.97,8.38-21.99,12.33c0,0-20.73,2.03-39.24,8.8l-5.71,4.5s39.42-4.8,47.19-7.07,12.65-4.69,12.65-4.69l7.09-13.87Z"/>
            </g>
            <path class="cls-14" d="m215.66,466.14c11.11,12.45,34.17,19.26,34.17,19.26l.78-11.58s19.02,15.38,39.36,17.07l-7.32-13.76s28.08-5.46,37.32-18.25l-2.95-5.26s-27.61-17.1-33.41-30.27c-5.81-13.17-10.45-24.59-10.45-24.59,0,0-33.88,29.69-39,37.02h-17.71s3.73,9.73,7.21,15.88l-8.01,14.49Z"/>
            <path class="cls-88" d="m279.87,272.78s13.01,11.67,12.47,23.4c-.54,11.73-2.76,14.1-2.76,14.1,0,0-5.04,5.17-5.97,9.71-.93,4.54,1.93,11.22-.47,12.05-2.4.83-5.77,4.08-5.77,4.08l-1.33,11.9s3.41,9.76,9.34,20.78c11.12,20.7,10.46,56.82,10.46,56.82l-25.65-14.8s2.57,19.83,3.22,21.41c.65,1.57,24.8,1.29,26.69,16.17,0,0-12.6-12.75-24.07-11.26,0,0,11.42,4.09,12.05,11.26.52,5.92-.35,7.36-.35,7.36,0,0-3.77-10.88-10.91-15.99-7.15-5.11-8.76-6.16-8.76-6.16l-6.2-27.93s11.01-115.43,10.83-116.09c-.18-.67,7.17-16.8,7.17-16.8Z"/>
            <g>
              <path class="cls-108" d="m233.87,407.55s-33.56,72.73-47.9,95.5c0,0,0,0,0,0-.85,1.35-1.63,2.52-2.33,3.49-.88,1.22,2.95-21.75,3.06-22.37-3.14,11.93-12.36,42.38-12.36,42.38-1.83-28.65,2.64-55.97,2.64-55.97l-5.09,4.19c4.03-14.84,18.43-67.23,33.11-79.26l28.88,12.04Z"/>
              <path class="cls-10" d="m185.98,503.05c9.63-16.94,10.77-37.06,10.96-37.59l-7.53,9,9.3-37.87s-16.18,11.93-21.72,34l-5.09,4.19c4.03-14.84,18.43-67.23,33.11-79.26l28.88,12.04s-33.56,72.73-47.9,95.5Z"/>
              <path class="cls-152" d="m291.59,421.23s-2.06-.98-1.15-3.92c0,0-6.57,8.59-16.38,12.5-4.77,1.9-15.87,3.13-26,3.88-10.7.8-20.34,1.08-20.34,1.08,0,0,8.87-15.94,18.95-24.11,10.08-8.17,30.73-51.6,30.73-51.6,5.76,14.49,9.8,25.94,12.35,34.95,4.16,14.66,4.41,22.87,1.84,27.22Z"/>
              <path class="cls-10" d="m289.75,394.01c-2.82,18.43-29.71,33.72-41.69,39.69-10.7.8-20.34,1.08-20.34,1.08,0,0,8.87-15.94,18.95-24.11,10.08-8.17,30.73-51.6,30.73-51.6,5.76,14.49,9.8,25.94,12.35,34.95Z"/>
              <path class="cls-134" d="m247.52,414.13c8.46,10.76,19.68,14.95,22.02,14.45,2.34-.5-2.34-22.91-2.34-22.91l-19.68,8.46Z"/>
              <path class="cls-142" d="m247.42,417.98c-10.22,1.96-18.61,1.68-18.61,1.68,0,0,.83,3.46.46,6.63-.23,2.04-.96,3.97-2.72,4.78-4.49,2.09-21.59-12.18-21.59-12.18,0,0,0-.39-.02-1.09-.04-1.9-.1-6.15-.09-11.5.03-12.35.46-30.57,2.56-39.44,2.82-11.95,14.48-31.63,18.01-37.42.65-1.06,1.02-1.65,1.02-1.65,0,0,20.78,27.31,33.2,28.26,12.42.95,14.48-7.88,14.48-7.88,5.6,12.49,9.27,52.48,9.27,52.48,0,0-25.77,15.37-35.99,17.33Z"/>
              <path class="cls-23" d="m229.73,392.23c-8.77,21.56-17.37,27.51-24.77,25.56-2.08-.55-4-1.2-5.68-1.85-4.22-1.63-6.95-3.28-6.95-3.28l27.6-91.9,5.52,8.67,5.63,8.84c5.4,20.29,2.6,44.24-1.34,53.95Z"/>
              <path class="cls-64" d="m216.61,415.19c6.64,17.8,12.67,11.09,12.67,11.09h0c-.23,2.05-.96,3.97-2.72,4.79-4.49,2.09-21.59-12.18-21.59-12.18,0,0,0-.39-.02-1.09-2.08-.55-4-1.2-5.68-1.85,1.54-2.72,3.46-6.07,5.6-9.65,9.15-15.35,20.61-64.99,20.61-64.99,1.21,4.84,8.38,47.81,13.99,51.47,9.57,6.24,24.92,9.87,43.94,7.86,0,0-25.77,15.37-35.99,17.33-10.22,1.96-18.61,1.68-18.61,1.68,0,0-13.22-7.18-12.21-4.46Z"/>
              <path class="cls-109" d="m229.48,369.02c-1.01,9.35-7.52,33.98-18.51,44.24-10.99,10.26-11.09,8.33-11.09,8.33-5,10.83-14.65,19.02-14.65,19.02-2.12-3.76.46-13.87.46-13.87-8.72,18.94-18.25,26.5-18.25,26.5,0,0,3.19-11.5,10.03-39.39,1.17-4.78,2.45-10.04,3.85-15.82,9.5-39.42,22.09-65.6,28.23-73.06,6.12-7.44,10.57-4.4,10.37-4.2l7.86,13.64s.86,7.96,1.43,16.59c.45,6.75.72,13.92.28,18.02Z"/>
              <path class="cls-115" d="m233.45,288.86c-9.13,3.31-18.43,10.03-18.33,11.96.1,1.93,2.13,7.4,2.13,7.4l2.17-1.53s-2.13,12.65,3.31,20.88c5.44,8.23,18.35,24.51,23.26,28.74,8.78,7.57,16.05,9.29,16.05,9.29l-1.12-7.34,1.06,1.77s8.84-2.04,11.18-8.53c2.33-6.49,2.87-17.81,2.87-17.81l-31.47-17.24-2.1-24.29-9.01-3.31Z"/>
              <path class="cls-110" d="m284.5,312.4s-2.22,2.44-3.51,9.63c0,0,1.28,5.21,1.01,6.9,0,0-9.59,8.84-18.49,11.31,0,0-12.54.87-17.25-1.07-.87-.36-15.33-14.97-17-34.71-.15-1.79,12.31-5.29,12.31-5.29,0,0-4.77-8.19-8.11-10.32,0,0,6.2-9.9,11.56-12.15,5.36-2.25,8.11-2.94,8.11-2.94,15.11,1.27,29.51,15.39,33.51,25.05.52,1.26.87,2.44,1.02,3.5,1.28,9.27-3.15,10.08-3.15,10.08Z"/>
              <path class="cls-150" d="m227.95,429.98c-.23,4.8,2,6.37,2,6.37,0,0,18.66,5.22,23.2,7.32,7.55,3.5,4.17,9.21,4.17,9.21,0,0-2.35-1.98-9.21-6.96-4.04-2.93-9.87-3.31-9.87-3.31,0,0,5.33,3.93,7.52,8.84,3.19,7.14-.35,7.36-.35,7.36,0,0-6.58-10.54-11.55-14.58-4.97-4.04-9.83-5.21-9.83-5.21,0,0-7.11-1.3-12.63,1.42-3.01,1.48-7.3-.24-7.3-.24,0,0,2.98-3.3,15.64-4.61,4.44-.46,3.62-4.7,3.62-4.7l4.58-.9Z"/>
              <path class="cls-150" d="m270.27,426.92c-.23,4.8,2,6.37,2,6.37,0,0,18.66,5.22,23.2,7.32,7.55,3.5,4.17,9.21,4.17,9.21,0,0-2.35-1.98-9.21-6.96-4.04-2.93-9.87-3.31-9.87-3.31,0,0,5.33,3.93,7.52,8.84,3.19,7.14-.35,7.36-.35,7.36,0,0-6.58-10.54-11.55-14.58-4.97-4.04-9.83-5.21-9.83-5.21,0,0-7.11-1.3-12.63,1.42-3.01,1.48-7.3-.24-7.3-.24,0,0,2.98-3.3,15.64-4.61,4.44-.46,3.62-4.7,3.62-4.7l4.58-.9Z"/>
              <path class="cls-10" d="m284.5,312.4s-2.22,2.44-3.51,9.63c0,0-4.43.81-5.83-.88-1.4-1.69-1.02-7.86-1.02-7.86l-8.73-5.22s-8.37,1.99-13.99,1.95c-8.04-.05-9.46-10.32-9.85-10.84-9.31-12.28-8.11-10.32-8.11-10.32,0,0,4.48-6.09,9.5-10.97l43.67,20.93c.52,1.26.87,2.44,1.02,3.5,1.28,9.27-3.15,10.08-3.15,10.08Z"/>
              <path class="cls-10" d="m244.22,293.5c-5.33,6.15,3.15,16.38,11.06,12.52,7.92-3.86-3.82-20.87-11.06-12.52Z"/>
              <path class="cls-10" d="m277.12,310.84c-3.11,1.64-2.98,2.44-2.98,2.44,0,0-.84,7.03,2.49,7.95s6.34-2.15,7.87-8.84c.36-1.58-4.8-2.91-7.38-1.56Z"/>
              <path class="cls-138" d="m246.76,292.32c-4.61,2.33-5.16,9.57.93,12.78,6.08,3.21,9.92-.56,9.47-4.25-.46-3.7-4.52-11.49-10.39-8.53Z"/>
              <path class="cls-138" d="m274.66,313.74c-1.57,2.28-.17,6.84,2.62,7.63s5.38-2.55,6.08-5.26c1.76-6.87-6.2-6.01-8.7-2.37Z"/>
              <path class="cls-122" d="m252.42,297.31c-.12,2.58-2.09,4.57-4.4,4.43s-4.08-2.34-3.96-4.92c.12-2.58,2.09-4.57,4.4-4.43,2.31.14,4.08,2.34,3.96,4.92Z"/>
              <path class="cls-97" d="m253.29,298.87c-.04.83-.67,1.46-1.41,1.42-.74-.04-1.31-.75-1.27-1.58.04-.83.67-1.46,1.41-1.42.74.04,1.31.75,1.27,1.58Z"/>
              <path class="cls-127" d="m279.57,316.75c-1.13,1.57-3.02,1.97-4.23.88-1.21-1.09-1.28-3.24-.16-4.82,1.13-1.57,3.02-1.97,4.23-.88,1.21,1.09,1.28,3.24.16,4.82Z"/>
              <path class="cls-97" d="m281.34,315.61c-.03.64-.52,1.13-1.09,1.09s-1.01-.58-.98-1.21c.03-.64.52-1.13,1.09-1.09.57.03,1.01.58.98,1.21Z"/>
              <path class="cls-43" d="m243.31,295.85c7.05-2.82,13.84,6.43,13.84,6.43,0,0,1.47-4.24-3.18-8.9-4.65-4.66-8.96-1.01-9.75.12s-.9,2.35-.9,2.35Z"/>
              <path class="cls-43" d="m283.36,316.1c-1.58-2.8-6.34-3.52-9.31-1.02,0,0,.79-4.76,5.48-4.8,4.69-.04,5.09,1.61,4.97,2.11l-.85,1.3s.03.47-.07,1.27c-.1.8-.22,1.13-.22,1.13Z"/>
              <path class="cls-31" d="m240.13,299.6s-11.51-4.39-19.65,3.27c0,0,3.99,28.44,22.79,45.59l-2.68-8.86s6.48,3.34,16.14,13.04c0,0-.35-2.76-.92-6l7.91,9.37s.32-12.71-3.23-15.23c0,0-7.45.26-14.23-1.59,0,0-3.38-4.08-2.1-9.55,1.27-5.47,9.06-13.39,9.06-13.39,0,0,19.34,17.45,19.84,19.48l2.99-2.02s-.64,13.2-3.8,19.71c-3.16,6.51-6.36,9.21-6.36,9.21l-.47,9.9s-13.65-.15-24.34-12.33c-10.7-12.18-12.85-21.33-12.85-21.33,0,0-4.84,2.34-7.6-1.2-2.76-3.54-.7-16.89-.7-16.89,0,0-1.52-10.27-.48-14.09l-2.17,1.53-2.13-7.4s5.61-9.67,18.33-11.96l4.09-5.62s1.96-.44,7.25-3.33c0,0-6.32,5.4-6.35,9.25-.03,3.85,3.12,10.02,3.12,10.02l-1.44.42Z"/>
              <path class="cls-133" d="m244.15,329.62c-.43,4.99,4.8,9.43,4.8,9.43,0,0,5.44.94,9.24.55l1.6-13.24-11.42-8.48s-3.72,6.05-4.21,11.74Z"/>
              <path class="cls-111" d="m257.59,333.33c-.13,1.48-.34,3.11-.66,4.91,0,0-2.98-3.03-5.05-8.5-1.1-2.9-1.94-6.49-1.93-10.67l7.13,3.72s1.14,3.42.5,10.54Z"/>
              <path class="cls-10" d="m257.59,333.33c-.95-3.49-5.38-2.78-5.7-3.59h0c-1.1-2.9-1.94-6.49-1.93-10.67l7.13,3.72s1.14,3.42.5,10.54Z"/>
              <path class="cls-119" d="m248.01,313.64s4.54,1.68,6.65-.68c2.11-2.36,6.97-6.08,9.44-6.33s9.31,3.76,9.31,3.76c0,0,3.79,13.55-.02,18.44-3.81,4.89-11.53,8.9-11.53,8.9,0,0-1.33-6.85-3.28-9.59s-10.23-10.25-10.23-10.25c0,0-.45-.81-.35-4.25Z"/>
              <path class="cls-101" d="m261.25,307.72c4.15,25.78,13.38,20.3,13.61,17.29.23-3.01-1.45-14.63-1.45-14.63,0,0-7.34-4.4-9.31-3.76-1.97.64-2.85,1.1-2.85,1.1Z"/>
              <path class="cls-72" d="m261.84,311.03c4.06,2.38,2.87,9.85,2.87,9.85,0,0-1.94-1.58-2.43-4.42-.48-2.84-.45-5.43-.45-5.43Z"/>
              <path class="cls-10" d="m246.18,286.56c6.72,6.48,16.24,13.12,16.24,13.12,0,0-4.73-.17-6.26-2.14-1.53-1.97-5.87-6.87-10.21-6.09l.23-4.89Z"/>
              <path class="cls-10" d="m286.18,311.3c-4.28-1.62-10.42-2.92-10.42-2.92,0,0,.54,2.16-.59,4.43,0,0,3.34-2.56,6.38-1.65,2.66.8,2.02,4.39,2.02,4.39l.92-3.15c1.03-.24,1.69-1.1,1.69-1.1Z"/>
              <path class="cls-10" d="m229.48,369.02c-1.01,9.35-7.52,33.98-18.51,44.24-10.99,10.26-11.09,8.33-11.09,8.33-5,10.83-14.65,19.02-14.65,19.02-2.12-3.76.46-13.87.46-13.87-8.72,18.94-18.25,26.5-18.25,26.5,0,0,3.19-11.5,10.03-39.39,8.07-6.04,22.28-26.42,22.54-26.79l-11.99,32.65s13.4-6.11,26.53-23.63c12.94-17.27,14.61-44.32,14.66-45.08.45,6.75.72,13.92.28,18.02Z"/>
              <path class="cls-151" d="m258.74,262.98c-10.53,4.51-17.13,8.99-17.13,8.99,0,0-10.6-4.43-20.72-4.6-10.12-.17-20.02,3.31-20.02,3.31,0,0,11.4,4.8,28.51,5.11,0,0-23.22,8.25-27.08,13.15-3.86,4.9-30.22,46.09-30.22,46.09,0,0,50.31-34.64,63.86-54.58l3.23,2.54s3.16-.46,5.61-3.09c0,0,24.03,23.55,43.08,25.16,0,0,2.96-4.9.76-15.3-2.2-10.39-5.63-14.66-8.77-16.98-3.14-2.32-21.13-9.8-21.13-9.8Z"/>
              <path class="cls-6" d="m237.94,274.8l-.22,4.69s6.97-1.94,8.54-2.92-2.5-4.42-2.5-4.42l-2.14-.17s9.46-5.47,11.9-6.62c0,0-6.91,7.81-5.91,8.94,1,1.13,9.28,5.26,12.08,6.49,5.64,2.47,18.61,5.28,18.61,5.28,0,0-9-1.51-15.28-2.09-6.28-.58-12.93-6.96-12.93-6.96,0,0,4.37,8.08,16.64,15.27,12.27,7.18,18.37,7.76,18.37,7.76,0,0,.57-4.24-.96-8.18l3.35,5.97,1.09-6.56s2.69,6.47-.69,13.8c0,0-7.78,3.55-17.12-1.01-9.34-4.56-25.96-24.15-25.96-24.15l-5.61,3.09-3.23-2.54,1.99-5.66Z"/>
              <path class="cls-9" d="m202.85,301.82c17.59-29.98,35.09-27.03,35.09-27.03l-36.74,33.64s-.82-2.4,1.65-6.61Z"/>
              <path class="cls-102" d="m204.24,333.32c6.17,27.09-24.32,70.48-24.32,70.48,0,0,4.13-21.94,11.85-41.36,7.72-19.42,12.47-29.12,12.47-29.12Z"/>
              <path class="cls-103" d="m205.17,269.43c19.25,8.95,34.11,2.01,34.11,2.01,0,0-11.18-5.08-20.35-4.06-9.17,1.03-13.77,2.04-13.77,2.04Z"/>
              <path class="cls-100" d="m238.66,380.29c-3.92,22.35,28.33,23.59,29.05,17.53s-24.27-44.79-29.05-17.53Z"/>
              <path class="cls-107" d="m252.09,273.82c13.14,5.58,27.78-1.04,27.78-1.04,0,0-14.12-8.57-20.99-7.11-6.87,1.46-6.79,8.15-6.79,8.15Z"/>
              <path class="cls-97" d="m231.47,303.51c-5.67,5.05,7.11,13.03,7.83,7.17.71-5.86-1.73-12.6-7.83-7.17Z"/>
            </g>
          </g>
        </g>
        <g>
          <g>
            <path class="cls-148" d="m434.11,347.8s2.27.19,1.62-4.27l11.87-6.79,4.24-13.9s5.95.21,9.36-3.7c3.41-3.91,9.48,11.13,9.48,11.55,0,.42-7.72,13.85-7.72,13.85l-24.72,8.03-4.14-4.78Z"/>
            <path class="cls-4" d="m476.48,310.93c-5.89,1.64-11.08,3.74-15.68,6.17.78,3.73,1.6,8.67.55,8.85-1.1.19-6.12-1.74-9.51-3.11-7.6,5.88-12.82,12.99-16.11,20.68,3.09,5.87.75,5.51-1.62,4.27-9.41,28.5,5.48,62.92,24.66,72.02,29.95,14.21,64.6,11.48,84.11-28.37,19.51-39.85-23.45-92.45-66.39-80.51Z"/>
            <path class="cls-56" d="m458.77,419.81c29.95,14.21,64.6,11.48,84.11-28.37,8.23-16.82,5.31-35.9-4.02-51.45-1.78-3.05-3.77-6.21-7.68-10.42-1.45-1.62-2.97-3.16-4.57-4.63,4.04,9.2,11.4,31.6.79,55.59-13.86,31.34-83.93,45.98-96.12-11.7.82,22.47,12.89,44.05,27.48,50.97Z"/>
            <path class="cls-104" d="m455.81,349.36c.05-4.44,40.01-26.22,54.64-18.69,14.63,7.53-54.78,31.58-54.64,18.69Z"/>
            <g>
              <path class="cls-54" d="m510.36,342.99s6.88,7.79,12.11,9.76c0,0-7.26-7.79-12.11-9.76Z"/>
              <path class="cls-50" d="m513.65,340.92s4.95,6.7,6.8,7.46c0,0-4.49-6.06-6.8-7.46Z"/>
              <path class="cls-24" d="m531.84,374.74s-3.94.51-4.63,1.45c0,0,3.36-.07,4.63-1.45Z"/>
              <path class="cls-20" d="m525.05,379.32s-1.29,8.96,1.03,12.6c0,0-.29-9.15-1.03-12.6Z"/>
              <path class="cls-12" d="m487,367.31s-.34-3.96-1.25-4.68c0,0-.07,3.36,1.25,4.68Z"/>
              <path class="cls-45" d="m482.71,360.34s-8.9-1.67-12.64.5c0,0,9.15.1,12.64-.5Z"/>
              <path class="cls-58" d="m532.74,357.39s-1.29,8.96,1.03,12.6c0,0-.29-9.15-1.03-12.6Z"/>
              <path class="cls-67" d="m452.29,391.73c-3.01.77,5.33-8.55,5.33-8.55,0,0-4.1,8.24-5.33,8.55Z"/>
              <path class="cls-69" d="m505.36,410.42c-3.01.77,5.33-8.55,5.33-8.55,0,0-4.1,8.24-5.33,8.55Z"/>
              <path class="cls-62" d="m443.83,355.94s1.71,2.96,4.48,4.22c0,0-2.71-3.39-4.48-4.22Z"/>
              <path class="cls-22" d="m447.45,355.3s3.21.52,5.43-.03c0,0-3.35-.75-5.43.03Z"/>
            </g>
          </g>
          <path class="cls-40" d="m487.39,330.07c28.5-14.52-8.66-19.46-9.3-19.54-.54.13-1.07.25-1.61.4-1.02.28-1.99.6-2.97.91-4.67,1.48-8.91,3.25-12.72,5.26.78,3.73,1.6,8.67.55,8.85-1.1.19-6.12-1.74-9.51-3.11-3.45,2.67-6.38,5.6-8.9,8.72l-3.61,7.06s19.3,6.1,48.06-8.55Z"/>
          <path class="cls-105" d="m512.84,315.25c-5.57-2.88-11.54-4.83-17.72-5.62-3.46-.14-6.7-.22-9.77-.24-2.41.19-4.83.57-7.26,1.14.65.08,37.8,5.02,9.3,19.54-28.75,14.65-48.06,8.55-48.06,8.55l3.61-7.06c-3.02,3.75-5.42,7.76-7.22,11.96,3.09,5.87.75,5.51-1.62,4.27-1.4,4.23-2.2,8.59-2.59,12.97.11,4.05,2.71,35.92,56.54,30.19,27.91-2.97,40.56-21.81,41.28-40.61.53-13.83-5.38-27.64-16.5-35.09Z"/>
          <path class="cls-114" d="m424.91,326.28l14.43,12.34s29.25,3.39,43.15-19.17l-6.42-18.74s-22.86-7.12-51.15,25.57Z"/>
          <path class="cls-106" d="m458.54,320.62c20.78-10.38,17.51-19.91,17.51-19.91,0,0-22.86-7.12-51.15,25.57,0,0,12.86,4.72,33.64-5.66Z"/>
          <path class="cls-116" d="m435.74,321.64c-1.06-1.37,20.09-17.83,30.96-17.18,10.87.66-27.53,21.59-30.96,17.18Z"/>
          <path class="cls-60" d="m465.51,330.19c10.83-9.15,11.04-22.76,10.73-27.65-.13,3.26-2.39,10.44-17.69,18.08-20.78,10.38-33.64,5.66-33.64,5.66,0,0,27.21,15.23,40.6,3.91Z"/>
          <path class="cls-147" d="m450.93,309.75c-6.34-5.61-15.23-15.83-15.46-29.27,0,0-1.67,3.76-6.81,1.22,0,0,3.25,5.9-6.94,5.36,0,0,15.08,13.5,25.15,25.14,1.63,1.89,3.14,3.73,4.42,5.45,2.01-.96,4.02-2.01,5.94-3.08-.02-.02-2.77-1.71-6.3-4.83Z"/>
          <path class="cls-33" d="m450.93,309.75c-4.57-4.04-10.45-10.49-13.47-18.81.01.06.03.1.04.16,1.96,8.97,13.25,19.95,11.04,19.96-1.39,0-8.25-6.32-13.16-11.04,3.87,3.86,7.98,8.13,11.48,12.18,1.63,1.89,3.14,3.73,4.42,5.45,2.01-.96,4.02-2.01,5.94-3.08-.02-.02-2.77-1.71-6.3-4.83Z"/>
          <path class="cls-48" d="m450.85,310.98c-.45.59-2.8.49-5.04.02.36.4.72.81,1.06,1.21.36.42.69.82,1.03,1.23,1.83.15,3.72-.03,4.61-1.19.19-.25.3-.53.38-.83-.62-.5-1.27-1.04-1.96-1.66-.19-.16-.38-.35-.57-.52.59,1.04.6,1.59.49,1.74Z"/>
          <path class="cls-48" d="m449.4,315.24c.55.69,1.08,1.36,1.57,2.02,1.33-.18,2.53-.63,3.53-1.2.98-.57,1.74-1.19,2.32-1.73-.36-.24-.97-.65-1.75-1.23-1.23,1.06-3.24,2.31-5.67,2.14Z"/>
        </g>
      </g>
    </g>
  </g>
</svg>