<?xml version="1.0" encoding="UTF-8"?>
<svg xmlns="http://www.w3.org/2000/svg" xmlns:xlink="http://www.w3.org/1999/xlink" viewBox="0 0 3150 1400">
  <defs>
    <style>
      .cls-1 {
        fill: #0a1045;
      }

      .cls-1, .cls-2, .cls-3, .cls-4, .cls-5 {
        fill-rule: evenodd;
      }

      .cls-2, .cls-6 {
        fill: #0a001a;
      }

      .cls-7 {
        isolation: isolate;
      }

      .cls-3 {
        fill: #0a031f;
      }

      .cls-8 {
        fill: #005988;
        mix-blend-mode: multiply;
        opacity: .5;
      }

      .cls-4 {
        fill: #4faeff;
      }

      .cls-9 {
        clip-path: url(#clippath);
      }

      .cls-10 {
        fill: none;
      }

      .cls-5 {
        fill: url(#_Áåçûìÿííûé_ãðàäèåíò_335);
      }
    </style>
    <clipPath id="clippath">
      <rect class="cls-10" width="3150" height="1400"/>
    </clipPath>
    <linearGradient id="_Áåçûìÿííûé_ãðàäèåíò_335" data-name="Áåçûìÿííûé ãðàäèåíò 335" x1="568.04" y1="1326.37" x2="568.04" y2="1285.21" gradientUnits="userSpaceOnUse">
      <stop offset="0" stop-color="#11084e"/>
      <stop offset=".04" stop-color="#100748"/>
      <stop offset=".2" stop-color="#0f0334"/>
      <stop offset=".39" stop-color="#0e0125"/>
      <stop offset=".62" stop-color="#0e001d"/>
      <stop offset="1" stop-color="#0e001b"/>
    </linearGradient>
  </defs>
  <g class="cls-7">
    <g id="Layer_2" data-name="Layer 2">
      <g id="layer1">
        <g class="cls-9">
          <g>
            <path class="cls-8" d="m1081.15,1327.28l57.64-2.62c-24.59,9-52.96,11.35-74.97,15.45h-.03l-38.06-9.85-1.35.07,22.21,12.64c-43.17,6.23-79.55,4.69-104.99,1.6v-9.77l-3.34,9.34c-23.09-3.02-36.32-7.15-36.32-7.15,0,0-12.69,13.75-37.42,26.18h-.03l-38.75-17.33-14.25,2.31,29.52,24.73c-2.66.89-5.41,1.73-8.24,2.53l-29.77-27.26,20.45,29.63c-9.94,2.25-20.82,3.85-32.61,4.5-1.42.08-2.83.11-4.24.15l4.3,18.08-59.55-5.14-2.6-19.56c-30.33-7.78-53.11-20.23-62.83-26.13l-9.48.51c-22.35,18.65-35.34,6.13-38.64,2.09l-2.28.12c-.57.51-1.14,1-1.71,1.5l9.91,34.37-2.51,1.71-8.79-34.87c-10.43,9.08-20.6,17.01-30.49,23.87h0s-.34.24-.34.24c-.81.56-1.62,1.1-2.43,1.65l-2.46,1.67h0c-6.56,4.34-12.99,8.24-19.3,11.7h0s-.18.1-.18.1c-8.09,4.44-15.97,8.18-23.64,11.29l-.19.09h0c-2.24.9-4.46,1.77-6.66,2.57l-15.08-38.3c-.27.41-.56.84-.84,1.27l9.21,39.34c-17.1,5.5-32.99,7.82-47.63,7.97-7.09,7.22-15,14.57-23.71,21.79,7.85,31.43,17.17,69.48,26.33,108.56l.02.1h0c7.64,32.6,15.17,65.9,21.63,96.65.13-2.54.28-5.08.48-7.62l11.7,2.1-10.76-12.83c.45-4.62.99-9.16,1.56-13.6l5.52,3.82-4.87-8.76c3.68-26.48,8.56-47.3,8.56-47.3,0,0,16.86,57.35,11.56,79.64,5.92-10.21,11.9-22.54,16.77-36.81l8.07,13.23-6.35-18.44c3.23-10.21,5.86-21.3,7.54-33.3,0,0,20.65,40.24.79,80.07-10.14,20.32-23.8,27.93-34.76,30.49,8.1-.19,19.55.31,30.59,3.18l-3.91,11.62,6.77-10.82c5.72,1.73,11.22,4.13,16.01,7.49,3.91,2.74,7.37,5.8,10.34,9l-13.06,3.08h15.81c11.61,13.78,15.69,28.58,15.92,29.51-.6-.09-20.43-4.35-41.98-12.58l-9.8-22.57,4.99,20.69c-14.23-5.81-28.65-13.31-38.28-22.5,2.48,8.32,5.23,19.91,5.93,31.8l-11.36-.65,11.49,3.86c.17,6.46-.33,12.88-1.87,18.85-1.26,4.87-2.92,9.37-4.86,13.4l-6.55-12.68,4.65,16.44c-8.69,16.14-20.48,24.73-21.23,25.24-.09-.65-2.19-22.53-1.3-47.37l16.94-16.84-16.7,11.27c.27-4.81.66-9.67,1.2-14.46-1.76,1.28-3.68,2.42-5.77,3.33-27.65,12.12-75.1,12.12-75.1,12.12l37.08-22.23,13,1.51-10.82-2.81,21.05-12.61,15.44,3.55-9.57-7.06,21.02-12.61s.06-.03.08-.03h.02s-.07.02-.1.03c-8.92,3.39-22.15,5.46-38.75-.4-32.24-11.41-41.36-42.58-41.36-42.58l47.59,18.13,2.46,13.35v-12.39l37.25,14.18c.31-.31.62-.65.99-1.05-.09-1.25-.12-2.56-.18-3.84-7.63-38.16-17.51-82.11-27.51-124.6l-4.82-20.33c-6.96-29.18-13.81-57.06-19.82-81.18-8.56,6.84-17.85,13.52-27.93,19.81l-17.79-24.76,12.52,28c-2.32,1.39-4.67,2.74-7.08,4.04l-36.57-69.83,25.67,75.63c-20.49,10.24-43.63,18.6-69.47,23.76-3.69,64.41-6.58,144.75-4.82,223.25l3.16,72.93c0,.09.01.19.02.28l1.77-.25c4.39-14.39,13.49-42.03,26.13-68.6l7.37,8.82-4.59-14.55c9.8-19.64,21.5-38.08,34.56-49.36,0,0-1.98,44.27-25.38,86.3l-14.62,7.12,11.16-1.14c-6.4,10.49-14.25,20.69-23.81,29.89l22.84-3.22v14.28l5.27-15.02,34.84-4.9-3.23,8.45,4.65-8.66,26.09-3.67c-34.53,44.98-78.22,34.62-97.51,26.85l46.15,30.99-8.75,9.93,8.84,5.89,14.65-5.92,46.46,31.17s-71.81,10.11-90.85-7.99c-.26-.25-.51-.49-.76-.77l2.35-16.5-6.15,12.02c-11.02-14.77-17.34-40.05-20.14-53.86-4.62,10.02-16.03,31.14-33.65,40.11-8.41,4.25-20.94,7.49-33.51,9.87l4.76-8.14-8.56,8.82c-21.3,3.79-41.73,5.18-41.73,5.18,0,0,18.61-16.53,43.91-33.18l13.6,7.43,4.16-.68-8.19-12.86c16.26-9.99,34.45-19.3,51.9-24.23.09-.03.14-.03.2-.06-.03,0-.09.03-.11.03-12.32,2.68-37.45,6.84-61.76,2.99-13.12-2.07-25.98-13.04-36.8-25.71l19.35-1.39-22.41-2.31c-15.67-19.36-26.4-41.07-26.4-41.07l62.46,29.51,3.8,10.42.54-8.39,64.9,30.65.74.59,1.02.86v-.06c-.34-.25-.68-.52-1.02-.8-57.05-46.68-60.74-129.4-60.74-129.4,13.06,11.28,24.76,29.72,34.56,49.36l-4.59,14.55,7.37-8.82c10.31,21.69,18.27,44.09,23.24,59.42,0,0,0,0,0,0v-.03s-.02-.35-.02-.35c-1.16-19.44-1.95-39.31-2.43-59.31v-.06s0,0,0,0c-1.91-79.2.97-160.5,4.68-225.72-5.07.91-10.2,1.75-15.47,2.4-22.52,2.79-45.03,2.17-67.05-.88-16.57,24.82-37.53,49.37-63.72,69.46h0s-.22.17-.22.17c-1.94,1.48-3.9,2.94-5.89,4.37l-.32.24c14.88-4.6,30.4-6.85,43.4-7.91l-5.23,15.31,16.64-15.99c11.86-.44,19.71.03,19.71.03,0,0-13.72,17.9-28.91,29.85l-9.23-4.78,6.4,6.88c-8.27,6.01-16.7,9.84-23.45,7.71-12.15-3.83-23.19-12.05-29.92-17.86,4.33,7.48,12.93,20.77,26.35,34.89l-5.6,13.65c.47-.49,6.31-6.85,9.04-10.1,1.4,1.42,2.85,2.81,4.33,4.21l-9.06,7.19,11.1-3.42c10.98,9,31.65,22.35,46.84,29.2,0,0-40.83,12.28-71.61-18.24-16.1-15.91-19.4-32.57-18.91-44.82-7.66,11.56-20.22,27.42-35.01,33.87-2.79,1.22-5.55,2.18-8.29,2.89l3.19-14.25-9.61,15.69c-18.46,3.09-33.27-2.63-33.27-2.63,0,0,28.25-29.42,56.57-45.48-6.89-.78-13.92-3.34-19.8-9.09-22.2-21.65-43.13-67.96-43.13-67.96l34.5,26.23,10.51,8.02,3.3,2.49-.66,10.9,4-8.33,29.78,22.64s.04.01.05.04c-6.69-7.24-14.17-19.25-16.65-37.95-4.85-36.5,16.8-59.2,16.8-59.2l6.61,59.52-7.33-.23,7.8,4.34,4.02,36.16c.08-.05.15-.1.23-.14l21.71-15.37h0c23.21-18.52,42.11-40.6,57.35-63.03-.96-.15-1.92-.28-2.88-.44l-15.1-67.09,5.72,65.33c-2.49-.49-4.99-1.02-7.48-1.57l-4.67-68.94h-32.21l-6.35,56.36c-10.79-3.82-21.3-8.05-31.47-12.58l9.21-38.6-19.6,33.82c-19.83-9.35-38.1-19.57-54.27-29.53-9.12,1.51-17.51,2.82-25.1,3.95l-.94,2.08-29.7,4.09.78-2.07c-11.83,1.47-18.28,2.07-18.28,2.07l-.93-66.87,2.42-53.63,1135.18-4.16-53.73,2.9Z"/>
            <polygon class="cls-4" points="1136.37 1324.64 -.3 1329.34 -.14 1340.16 1136.37 1324.64"/>
            <g>
              <path class="cls-5" d="m-.3,1324.64h1136.67S281.35,1283.35-.3,1264.34v60.29Z"/>
              <path class="cls-2" d="m523.13,1298.14L-.3,1268.25s52.89-43.68,127.51-76.01l19.6,31.08-9.21-35.47c10.17-4.16,20.68-8.05,31.47-11.56l6.35,51.78h32.21l4.67-63.34c2.49-.51,4.99-.99,7.48-1.44l-5.72,60.03,15.1-61.64c24.7-3.8,50.11-4.87,75.52-1.98,34.31,3.91,64.22,13.09,90,24.93l-25.67,69.49,36.57-64.16c2.41,1.19,4.76,2.44,7.08,3.71l-12.52,25.72,17.79-22.75c72.49,41.56,105.18,101.5,105.18,101.5Z"/>
              <path class="cls-2" d="m1140.28,1324.38l-478.06-19.95s57.11-36.63,130.11-33c11.78.59,22.66,2.07,32.61,4.14l-20.45,27.22,29.77-25.04c2.83.74,5.58,1.5,8.24,2.32l-29.52,22.72,14.25,2.12,38.75-15.92h.03c24.73,11.42,37.42,24.05,37.42,24.05,0,0,13.23-3.8,36.32-6.57l3.34,8.58v-8.98c25.44-2.83,61.81-4.25,104.99,1.47l-23.57,12.32,40.76-9.69h.03c22.01,3.77,50.38,5.93,74.97,14.2Z"/>
              <polygon class="cls-2" points="-.3 1268.26 1136.37 1324.64 -.3 1276.22 -.3 1268.26"/>
              <g>
                <path class="cls-6" d="m330.33,1284.84c-.25-2.21-24.86-222.99-11.48-398.25l4.98.38c-13.34,174.79,11.22,395.11,11.46,397.32l-4.96.56Z"/>
                <path class="cls-3" d="m257.36,1004.83c13.06-10.37,24.76-27.31,34.56-45.35l-4.59-13.37,7.37,8.1c12.97-25.07,22.24-51.22,26.49-64.11,1.7-5.18,2.61-8.22,2.61-8.22-1.59,1.08-3.17,2.18-4.67,3.31-.34.23-.68.48-1.02.74-57.05,42.89-60.74,118.89-60.74,118.89Z"/>
                <path class="cls-3" d="m322.4,881.37c.09.37.99,3.31,2.58,8.19,4.25,12.89,13.51,39.04,26.49,64.11l7.37-8.1-4.59,13.37c9.8,18.05,21.5,34.99,34.56,45.35,0,0-1.98-40.68-25.38-79.29l-14.62-6.54,11.16,1.05c-8.13-12.24-18.56-24.08-31.9-34.11-.34-.26-.68-.51-1.02-.74-1.5-1.13-3.06-2.24-4.65-3.29Z"/>
                <path class="cls-3" d="m319.03,889.81l2.15.28,37.82,4.9v-13.12l5.27,13.8,34.84,4.5-3.23-7.76,4.65,7.96,26.09,3.37c-34.53-41.33-78.22-31.81-97.51-24.67l-.09.03c-2.89,1.08-5.24,2.1-6.91,2.89-.88.4-1.56.74-2.04.99-.06.03-.09.03-.11.06-.4.2-.65.34-.76.4l-.06.03-.03,1.67v.06l-.09,4.62Z"/>
                <path class="cls-2" d="m185.66,943.61l62.46-27.11,3.8-9.58.54,7.71,64.9-28.16.74-.54,1.02-.79,2.38-1.78c-.09-.03-.17-.03-.25-.06-.2-.06-.48-.14-.91-.25h-.03c-.06,0-.14-.03-.23-.06-.23-.03-.51-.11-.82-.17-1.3-.31-3.17-.74-5.47-1.19-.03,0-.09-.03-.11-.03-12.32-2.46-37.45-6.29-61.76-2.75-13.12,1.9-25.98,11.98-36.8,23.63l19.35,1.27-22.41,2.12c-15.67,17.79-26.4,37.73-26.4,37.73Z"/>
                <path class="cls-2" d="m319.15,883.47l.06-.03.99-.34.11-.06h.03l1.56-.54,3.91-1.39,3.23-2.01.09-.03,46.15-28.47-8.75-9.12,8.84-5.41,14.65,5.44,46.46-28.64s-71.81-9.29-90.85,7.34c-.25.23-.51.45-.76.71l2.35,15.16-6.15-11.05c-11.02,13.57-17.34,36.8-20.14,49.49v.03c-.91,4.05-1.44,7.03-1.64,8.27,0,.03-.03.06-.03.09-.06.37-.09.57-.09.57Z"/>
                <path class="cls-2" d="m265.72,846.87l4.16.62-8.19,11.81c16.26,9.18,34.45,17.73,51.9,22.27.09.03.14.03.2.06,1.81.45,3.63.91,5.44,1.27.23.06.48.11.74.14.06.03.14.03.23.06.34.06.71.14,1.05.2.08.03.17.03.25.06l.4-.85.23-.51,1.1-2.44s-.79-1.93-2.32-5.01v-.03c-4.62-9.21-16.03-28.61-33.65-36.86-8.41-3.91-20.93-6.88-33.51-9.06l4.76,7.48-8.56-8.1c-21.3-3.48-41.73-4.76-41.73-4.76,0,0,18.61,15.18,43.91,30.48l13.6-6.83Z"/>
              </g>
              <g>
                <path class="cls-2" d="m495.4,1000.9s.65.57,1.81,1.7c.31.28.62.59.99.96,4.56,4.5,14.05,14.7,23.68,30,5.92,9.38,11.9,20.71,16.77,33.82l8.07-12.15-6.35,16.94c3.23,9.38,5.86,19.58,7.54,30.59,0,0,20.65-36.97.79-73.57-10.14-18.67-23.8-25.67-34.76-28.02h-.03c-4.14-.91-7.9-1.13-10.94-1.1-.11,0-.25,0-.37.03h-.54c-1.39.06-2.61.17-3.6.28-1.95.23-3.09.51-3.09.51Z"/>
                <path class="cls-6" d="m430.4,1289.43l-4.8-1.36c.51-1.81,51.71-181.84,75.15-293.71l4.88,1.02c-23.47,112.06-74.72,292.25-75.23,294.06Z"/>
                <path class="cls-2" d="m499,996.11s.25.25.74.76l2.86,3.23h.03c.11.11.23.25.34.4,0,.03.03.03.03.03v.03h.03s4.33.51,10.91.62h.03c8.1.17,19.55-.28,30.59-2.92l-3.91-10.68,6.77,9.94c5.72-1.59,11.22-3.8,16.01-6.88,3.91-2.52,7.37-5.33,10.34-8.27l-13.06-2.83h15.81c11.61-12.66,15.69-26.26,15.92-27.11-.6.09-20.43,3.99-41.98,11.56l-9.8,20.74,4.99-19.01c-17.22,6.46-34.73,15.18-43.68,26.2-1.13,1.36-2.12,2.75-2.95,4.19Z"/>
                <path class="cls-2" d="m497.82,1000.08s.32-.17.95-.48l3.93-1.78v-.03c.15-.08.32-.14.49-.21.03,0,.04-.02.04-.02h.03s0-.02,0-.02c0,0,1.76-3.99,3.8-10.24v-.03c2.55-7.69,5.49-18.77,6.22-30.1l-11.36.59,11.49-3.55c.17-5.94-.33-11.84-1.87-17.32-1.26-4.48-2.92-8.61-4.86-12.32l-6.55,11.65,4.65-15.11c-8.69-14.83-20.48-22.73-21.23-23.19-.09.59-2.19,20.7-1.3,43.53l16.94,15.47-16.7-10.36c1.11,18.36,4.29,37.66,12.19,49.46.97,1.48,2,2.84,3.14,4.05Z"/>
                <path class="cls-2" d="m439.9,966.08l13-1.39-10.82,2.58,21.05,11.59,15.44-3.26-9.57,6.49,21.02,11.59s.06.03.09.03l8.33,4.59.28.14,3.37,1.67h.03l.85.4s.03.03.03.03v.03h.03s0-.17-.03-.48c-.06-1.13-.31-4.16-1.05-8.16-2.04-10.79-7.79-28.58-24.02-35.13-27.65-11.13-75.1-11.13-75.1-11.13l37.08,20.42Z"/>
                <path class="cls-3" d="m498.63,1036.4l11.7-1.93-10.76,11.78c.45,4.25.99,8.41,1.56,12.49l5.52-3.51-4.87,8.05c3.68,24.33,8.56,43.46,8.56,43.46,0,0,16.86-52.69,11.56-73.17-.09-.28-.14-.54-.23-.79-4.11-13.71-13.31-25.95-18.64-32.21h-.03v-.03s-.03,0-.03-.03c-.11-.14-.23-.28-.34-.4-1.02-1.19-1.87-2.15-2.49-2.8-.74-.79-1.13-1.19-1.13-1.19-.09.51-.14,1.05-.2,1.56-.03.25-.09.51-.09.76-.09.65-.17,1.3-.23,1.95-.06.59-.11,1.19-.17,1.81-.06.45-.09.91-.11,1.36-.79,10.25-.51,21.59.42,32.83Z"/>
                <path class="cls-3" d="m409.9,1033.17l47.59-16.66,2.46-12.27v11.39l37.25-13.03,1.1-.4,4.67-1.64v-.03s-.03,0-.03-.03c-.08-.06-.25-.2-.51-.4-.65-.51-1.87-1.39-3.65-2.44-2.15-1.27-5.1-2.75-8.78-3.99-8.92-3.12-22.15-5.01-38.75.37-32.24,10.48-41.36,39.12-41.36,39.12Z"/>
              </g>
              <g>
                <path class="cls-6" d="m288.15,1276.73c-.31-1.33-32.8-133.49-142.01-191.27l2.33-4.41c111.24,58.86,144.21,193.18,144.53,194.53l-4.86,1.15Z"/>
                <path class="cls-2" d="m193.05,1037.48l-11.1-3.15,9.06,6.61c-1.49,1.29-2.94,2.57-4.33,3.87-2.73-2.99-8.57-8.83-9.04-9.28l5.6,12.55c-13.42,12.97-22.02,25.19-26.35,32.06v.03c-2.3,3.61-3.41,5.75-3.41,5.75,0,0-.09-.2-.28-.58v-.03c-.17-.34-.4-.83-.66-1.53-.01-.04-.03-.08-.06-.13-.03-.08-.06-.19-.09-.27-.14-.35-.27-.73-.44-1.16-1.05-3.01-2.34-7.75-2.59-13.59v-.03c-.48-11.26,2.82-26.56,18.92-41.18,30.79-28.04,71.61-16.76,71.61-16.76-15.19,6.29-35.86,18.56-46.84,26.83Z"/>
                <path class="cls-2" d="m149.37,1068.6v.03c3.83,5.33,6.43,9.68,7.48,11.52h.03c.33.62.5.92.5.92l-1.29,5.84c-1.03.1-2.05.13-3.09.12-.28-.01-.56-.02-.84-.03h-.03c-1.22-.04-2.43-.14-3.68-.31-.36-.05-.71-.1-1.09-.16-7.66-1.18-16.04-4.48-24.42-8.83-28.32-14.76-56.57-41.79-56.57-41.79,0,0,14.8-5.25,33.27-2.42l9.61,14.42-3.19-13.09c2.74.65,5.5,1.54,8.29,2.66,14.8,5.92,27.36,20.5,35.01,31.12Z"/>
                <path class="cls-2" d="m153.5,1082.85h-.04s-.98.79-.98.79l-3,2.31-1.02.73h-.03s-6.94,4.85-6.94,4.85t-.05.04l-29.78,20.8-4-7.65.66,10.02-3.31,2.29-10.51,7.36-34.5,24.1s20.94-42.55,43.13-62.44c5.88-5.28,12.91-7.63,19.8-8.35,12.6-1.28,24.8,2.86,29,4.52,1,.4,1.55.64,1.55.64Z"/>
                <path class="cls-3" d="m210.26,1070.81l-6.4,6.32,9.23-4.39c15.18,10.98,28.91,27.42,28.91,27.42,0,0-7.85.43-19.71.02l-16.64-14.69,5.23,14.07c-17.33-1.3-39.1-4.53-57.91-12.24v.03c-.29-.14-.53-.22-.81-.36h-.03c-.72-.27-1.45-.6-2.15-.91,0,0,.91-.88,2.56-2.31.29-.27.59-.56.96-.86.93-.8,2.07-1.76,3.35-2.77h.03s0,.01.01-.01c6.73-5.34,17.77-12.88,29.92-16.41,6.74-1.96,15.18,1.56,23.45,7.09Z"/>
                <path class="cls-3" d="m153.5,1082.85v.06s-.29,2.38-.29,2.38l-.22,1.72-.04.33-4.24,34.98-7.8,3.99,7.33-.21-6.61,54.68s-21.66-20.86-16.8-54.4c2.49-17.18,9.97-28.21,16.65-34.87,2.09-2.07,4.13-3.71,5.87-5,2.19-1.57,3.96-2.6,5.02-3.15.58-.28.95-.45,1.07-.51h.04Z"/>
              </g>
              <path class="cls-2" d="m662.22,1304.43L-1.23,1271.54l.93-61.44s163.88,13.88,361.25,75.78c0,0,59.57-70.34,160.57-40.48l-11.16,43.82,17.88-41.7c27.28,9.12,57.48,25.55,90.23,52.52,0,0,14.79-21.3,43.77,4.39Z"/>
              <polygon class="cls-2" points="613.06 1299.54 622.72 1264.34 625.23 1265.91 614.67 1299.54 613.06 1299.54"/>
              <path class="cls-2" d="m167.56,1283.37s21.68-39.32,93.86,4l-93.86-4Z"/>
              <path class="cls-2" d="m283.14,1319.23s15.39-8.95,25.05,0h-25.05Z"/>
              <path class="cls-2" d="m317.33,1317.24s29.15-26.72,55.98-1.99l-55.98,1.99Z"/>
              <polygon class="cls-2" points="1064.25 1324.38 -.3 1324.64 -.3 1329.34 1064.25 1324.38"/>
              <path class="cls-1" d="m180.13,1272.13s-1.27,9.56,20.78,12.43c22.05,2.88,52.39-1.83,52.39-1.83,0,0-41.44-26.75-73.17-10.6Z"/>
              <path class="cls-1" d="m319.78,1315.26s43.23,1.42,51.14-2.07c0,0-19.43-18.9-51.14,2.07Z"/>
            </g>
          </g>
        </g>
      </g>
    </g>
  </g>
</svg>