<?xml version="1.0" encoding="UTF-8"?>
<svg id="Layer_2" data-name="Layer 2" xmlns="http://www.w3.org/2000/svg" xmlns:xlink="http://www.w3.org/1999/xlink" viewBox="0 0 3150 1400">
  <defs>
    <style>
      .cls-1 {
        opacity: .18;
      }

      .cls-2 {
        opacity: .31;
      }

      .cls-3 {
        fill: #fff;
      }

      .cls-3, .cls-4 {
        fill-rule: evenodd;
      }

      .cls-5 {
        clip-path: url(#clippath);
      }

      .cls-6 {
        fill: none;
      }

      .cls-4 {
        fill: #635eb0;
      }
    </style>
    <clipPath id="clippath">
      <rect class="cls-6" width="3150" height="1400"/>
    </clipPath>
  </defs>
  <g id="layer1">
    <g class="cls-5">
      <g>
        <path class="cls-3" d="m1422.43,782.24c0-85.02,68.92-153.93,153.93-153.93,72.26,0,132.89,49.78,149.47,116.91,2.93,11.85,4.48,24.25,4.48,37.02,0,5.64-.31,11.21-.89,16.7-8.33,77.17-73.67,137.25-153.05,137.25-85.02,0-153.93-68.92-153.93-153.95Z"/>
        <g class="cls-2">
          <path class="cls-4" d="m1473.54,840.41c6.83-.14,13.11,5,18.69,8.86,4.58,3.17,9.39,8.15,11.6,13.06.67,1.48.89,2.69,1.41,4.19.11.33,1.78,4.76,1.77,4.89-.07,2.6-2.18,5.69-4.11,7.69-5.56,5.73-14.06,1.61-19.63-1.85-5.27-3.27-10.37-6.97-14.81-11.19-2.15-2.04-5.09-3.9-6.61-6.48-2.01-3.41-1.42-7.56-1.37-11.69.09-6.31-8.16-13.57,1.82-14.96,3.92-.55,15.94,2.76,16.83,7.5h-5.59Z"/>
          <path class="cls-4" d="m1596.61,640.89c1.7-1.88,3.7-.58,5.62.03,1.85.59,3.47.92,5.57.91,4.09-.03,7.79-.03,11.65.93,3.68.92,7.2,1.45,10.72,2.33,1.4.35,2.74,1.14,4.16,1.43.88.18,1.87-.12,2.75.04.42.08.45.58.75.65.72.16,1.4.06,2.11.18,3.52.62,6.85,1.68,10,2.62,1.49.45,2.85.5,4.23,1.34,1.43.88,3.39,1.84,4.68,2.8,5.03,3.72,10.54,6.84,15.12,11.45,4.32,4.34,8.77,8.31,13.31,12.35,1.05.94,1.9,2.17,3,3.04,1.21.96,2.36,1.39,3.5,2.56,2.35,2.39,4.18,4.99,6.06,7.71,3.68,5.32,8.41,9.66,11.3,15.48,1.4,2.81,2.66,5.55,4.31,8.24,1.04,1.7,2.07,3.79,2.82,5.64.57,1.4,1.71,3.06,2.1,4.4.58,2.01.57,3.93,1.12,5.88.24.85.8,1.42,1.01,2.26.26,1.05-.31,2.29-.08,3.35.2.94.8,1.36,1.02,2.25.25,1.05-.31,2.29-.08,3.35.2.94.8,1.36,1.02,2.25.29,1.2-.39,2.63-.1,3.83.22.89.81,1.31,1.02,2.25.21.97-.03,2.3-.03,3.3-.02,2.4.83,4.24.95,6.53.11,2.09.44,5.01.01,7.03-.2.94-.81,1.36-1.02,2.25-.29,1.22.29,2.46-.11,3.7-2.52.66-1.72-4.68-1.71-5.98.02-2.41-.99-3.72-.93-6.06.07-2.89-1.14-3.28-2.85-5.39-.73-.91-2.43-2.69-2.8-3.89-.24-.79-.22-2.07-.42-2.85-.25-.97-.48-1.62-.46-2.8.04-2.27.16-3.42-1.62-4.89-1.23-1.01-3.33-2.27-4.86-2.62-2.12-.48-3.97-.44-6.15-.84-.98-.18-1.33-.8-2.25-1.02-1.18-.28-2.44.46-3.59-.14-1.09-.56-2.47-2.73-2.77-3.75-.59-2-.18-3.65.72-5.38.32-.62.57-1.27.94-1.86.43-.7,1.3-1.36,1.68-2.05,1.76-3.23-.78-8.48-1.47-11.21-.27-1.06-1.87-4.29-.99-5.25.89-.97,6.16-.14,7.17.45.58-1.18-.53-3.44-.88-4.69-.41-1.46-1.12-3.57-1.98-4.99-1.69-2.77-4.74-5.36-7.6-6.87-1.9-1-3.05-1.52-3.4,1.02-.16,1.15.18,1.79-.41,2.85-.42.76-1.19.85-1.48,1.78-.32,1.01.33,2.31.08,3.34-.18.76-.73,1.25-.89,1.91-.52,2.2.34,4.68-.03,6.91-.75,4.49-4.09,6.5-7.97,7.46-3.96.98-7.86,2.07-11.61,3.73-4.2,1.86-8.73,2.53-13.1,1.16-3.57-1.12-6.41-3.28-9.67-5.01-1.51-.8-2.87-1.15-4.34-1.72-1.71-.66-3.48-1.31-5.19-1.8-3.08-.89-6.63-1.39-9.47-3.09-2.67-1.59-6.28-3.71-8.18-6.29-1.81-2.47-3.55-7.57-2.24-10.68.99-2.35,4.54-4.39,6.22-6.36,2.87-3.36,2.1-5.6,0-9.06-.77-1.27-2.12-2.93-2.48-4.3-.49-1.82-.19-4.56-.09-6.45.09-1.79.65-2.97,1.62-4.45.91-1.39,3.05-2.26,3.79-3.65.67-1.27.05-1.91-.48-2.87-.15-.27-.61-.36-.76-.64-.35-.66-.13-1.28-.41-1.92-.92-2.14-2.77-1.81-4.68-2.31-1.98-.52-3.71-.3-5.62.44-1.13.44-1.5.79-2.75.98-1.37.21-2.02-.53-3.03-.74-2.3-.47-3.61,1.1-5.89,1.22-1.82.1-2.96-.71-4.39-2.13-1.18-1.18-2.84-3.15-2.64-4.92.21-1.81,2.52-2.96,3.8-4.64Z"/>
          <path class="cls-4" d="m1614.32,710.81c-.58.33-1.08.57-1.63.79-1.46-1.69-3.09-3.38-4.9-4.52-2.72-1.71-4.07-.63-4.69,2.29-.32,1.5.49,2.42.76,3.5.31,1.24.01,2.56,1.33,3.34,1.82,1.07,7.12.52,6.34-2.61l2.8-2.8Z"/>
          <path class="cls-4" d="m1703.83,831.09c.42-.71.99-.99,1.72-.86.4,1.58.36,4.3.06,5.91-.16.87-.74,1.3-.88,2.39-.11.9.02,1.71-.18,2.61-.25,1.16-1.2,2.98-1.45,4.14-.39,1.81-.44,2.78-1.17,4.43-.66,1.51-1.04,3.48-1.72,5.19-.62,1.56-1.35,2.71-2.21,4.13-1.72,2.83-3.14,5.58-4.89,8.42-3.1,5.03-6.59,10.03-11.26,13.96-1.6,1.34-3.41,2.35-5.08,3.52-.58.4-1.03,1.05-1.58,1.42-.54.36-1.42.52-1.92.88-1.46,1.06-5.64,5.31-7.55,4.29,1.32-3.46,3.59-6.93,5.25-10.32,1.92-3.92,5.52-3.75,8.39-6.53,4.49-4.36-2.99-6.17-5.59-7.88-2.54-1.67-2.58-4.06-2.57-6.8.01-2.56-.19-4.61-.93-6.99-.3-.97-.81-2.23-.98-3.26.03-.64.07-1.28.1-1.92-.06-.51-.32-.87-.78-1.09-.58-2.66.52-4.24,1.43-6.53.88-2.24,1.44-4.38,3.26-6.08,1.83-1.7,3.84-1.13,6.29-1.17,1.57-.02,2.29.37,3.73.73.93.23,2.29.79,3.01.93,1.11.22,2.2.18,3.31.41,1.16.25,1.24.92,2.8.51,1.61-.42,3.14-2.25,4.82-2.63,2.34-.53,5.02.57,7.35-.11.05-.26.11-.52-.77-1.71Z"/>
          <path class="cls-4" d="m1529.41,712.04c2.7.06,6.24-3.06,7.85-5.38,2.2-3.17-1.9-6.44-4.17-8.02-.84-.59-1.65-1.19-2.64-1.58-.59-.23-1.86-1.11-2.41-1.11-1.65,0-2.27,3.93-2.89,5.22-1.96,4.1,1.17,7.07,4.26,9.48v1.39Z"/>
          <path class="cls-4" d="m1516.19,705.78c.19-.15.38-.31.58-.46.9,1.98-.53,4.1-.68,5.96-1.33.07-4.12-2.42-4.13-3.76-.01-2.28,3.37-2.41,4.92-2.44l-.7.7Z"/>
          <path class="cls-4" d="m1491.82,796.27c.78,3.4,5.54-.39,6.79-1.56.85-.8,1.76-1.61,2.28-2.59.69-1.32.62-2.96.67-4.54.05-1.72.71-3.1.7-4.87-.01-1.84-.16-3.54-.67-5.26-.89-2.98-3.09-5.21-5.59-6.92-1.27-.87-2.79-1.51-4.19-2.26-1.81-.98-1.84-1.41-3.73-.44-2.15,1.11-4.46,2.18-6.18,3.92-2.01,2.05-3.96,3.97-5.39,6.44-1.84,3.15.12,5.59,1.76,8.36,1.92,3.25,4.79,5.99,7.46,8.87.71.77,1.83,2.35,2.75,2.82,1.79.91,3.68-.59,3.34-1.95Z"/>
          <path class="cls-4" d="m1492.52,808.8c.19.04.37.09.56.13.06.9,1.99,3.8.71,4.65-.95.63-2.45-1.29-3.01-1.97-.93-1.14-1.77-3.17-.55-4.41,1.18-1.2,3.46-.18,2.99,1.6h-.7Z"/>
          <path class="cls-4" d="m1523.15,656.35c.95,1.14,3.83,1.64,5.22,1.33,1.77-.4,3.15-1.02,4.87-1.31,3.46-.6,7.84-2.35,10.81-4.18,4.35-2.68,11.97-10.22,4.59-14.03-2.99-1.54-6.72-1.26-10.18-1.31-1.76-.02-2.73.73-4.53.69-1.93-.04-3.49.63-5.22,1.04-3.12.74-6.06,1.68-9.05,2.94-2.67,1.13-4.73,3.05-6.81,5.06-2.58,2.5-2.94,5.87-.33,8.53,1.54,1.57,2.9,1.22,5.04,1.22,2.09,0,4.18,0,5.57,0Z"/>
          <path class="cls-4" d="m1504.35,657.74c.31-.54.75-.75,1.3-.63.77,1.57-3.15,4.08-4.26,4.63-1.85.93-5.42,2.91-6.12-.15-.45-1.99,1.75-4.65,3.48-5.62,1.95-1.09,5.79-.06,6.29,2.46l-.7-.7Z"/>
          <path class="cls-4" d="m1446.58,789.31c.19-.04.38-.08.58-.12.82-2.79-.45-5.58-.59-8.23-.15-2.76.02-5.59.02-8.35s-.01-5.57,0-8.35c0-1.13.08-2.24-.16-3.33-.1-.47-.47-.86-.56-1.53-.12-.89.02-1.9.02-2.8,0-1.35.11-2.73-.15-4.02-.03-.13-.48-1.37-.54-1.55-.27-.79-.03-.87-.51-1.58-1.28-1.92-3.7-3.16-5.79-2.09-1.72.87-3.02,2.22-4.8,2.98-2.55,1.09-3.69,2.49-4.91,4.87-1,1.96-1.4,4.14-2.07,6.3-.19.6-.62.71-.75,1.32-.14.62.02,1.33-.12,1.97-.1.47-.48.86-.56,1.53.03.48.05.96.05,1.45-.05.38-.24.65-.58.81-.25,1.11-.07,2.18-.14,3.33-.09,1.48-.63,2.66-.69,4.18-.06,1.5-.73,2.62-.71,4.18.02,1.39,0,2.78,0,4.18,0,2.78.04,5.57,0,8.35-.02,1.42.43,2.18.69,3.47.28,1.39.36,2.86.66,4.23.21.94,1.06,2.02,1.28,2.9.34,1.4.55,2.1,1.37,3.35,1.5,2.28,2.4,3.25,4.87,4.33,2.36,1.03,5.54.63,7.69-1.04.72-.56,2.01-1.72,2.26-2.57.17-.56,0-1.37.12-1.97.15-.75.55-1.22.54-2.25-.04-2.69-.64-6.48-.03-9.08.3-1.27,1.16-2.79,1.6-4.14.54-1.68.53-3.07,1.92-.7Z"/>
          <path class="cls-4" d="m1450.06,824.81c1.83.57,2.79-3.56,2.78-4.88,0-1.11.36-2.41-.66-3.16-.67-.49-2.72-.6-3.55-.35-2.21.66-2.03,3.81-2.05,5.6-.02,2.01,1.67,4.65,4.17,4.18l-.7-1.39Z"/>
          <path class="cls-4" d="m1688.83,827.6c.04.19.09.37.13.56.71.06,1.09.62,1.67.77.75.19,1.6.07,2.38.06,1.69-.02,2.66.54,4.16.71.76.09,1.69.02,2.46,0,.92-.04,1.25-.41,1.89-.55,1.53-.33,2.72-.21,4.04-1.18,2.08-1.53,3.63-4.04,4.86-6.22,1.54-2.71,2.78-5.51,2.78-8.77,0-1.41.03-2.59-.77-3.75-.85-1.21-1.28-2.06-1.84-3.38-1.26-2.97-2.4-3.98-5.74-4-3.02-.02-5.83,1.72-8.35,3.11-1.2.66-2.16,1.61-3.22,2.38-.91.66-1.99,1.12-2.72,2.15-1.77,2.46-2.06,5.65-2.77,8.37-.37,1.45-.66,3.56-.29,5.16.07.31.42.34.48.56.15.54,0,1.1.14,1.6.22.79.96,1.51.72,2.42Z"/>
          <path class="cls-4" d="m1681.17,822.03c1.78.05-.63,4.99-2.61,4.73-1.69-.22-3.19-2.99-3.59-4.44-1.72-6.23,7.72-6.71,7.6-.98l-1.39.7Z"/>
          <path class="cls-4" d="m1658.2,810.89c.15-1.47,1.61-2.36,1.93-3.64.34-1.34-.24-2.43-1.04-3.52-.63-.86-1.83-2.19-2.99-1.95-1.15.24-1.85,1.82-2.75,2.5-1.83,1.38-5.08,2.78-2.81,5.56.91,1.11,2.45,1.56,3.83,1.76,2.04.29,2.98-.28,4.52-1.42l-.7.7Z"/>
          <path class="cls-4" d="m1706.23,748.94c2.57-.62,2.35,3.31,1.99,4.77-1.11.21-2.29.91-3.36.85-1.13-.06-3.14-.98-4.04-1.62-2.01-1.42-3.12-3.75-1.93-6.09.75-1.48,4.16-3.72,5.81-2.64,1.49.98,2.26,4.56,2.23,6.12l-.7-1.39Z"/>
          <path class="cls-4" d="m1509.92,898.6c.66,1.27,1.11,1.82.01,2.8-.9.8-2.19.87-3.34.53-1.62-.49-3.37-2.51-4.51-3.83-.61-.71-1.7-2.32-1.77-3.14-.09-1.03.4-1.91,1.06-2.8,1.12-1.52,2.88-2.8,4.2-4.16,2-2.06,3.24-.86,4.87,1.04,1.29,1.51,2.31,3.25,3.5,4.85.29.39,1.35,2.37,1.41,2.8.11.84-.32,1.87-.88,2.63-1.17,1.58-3.45,3.55-5.24,4.16l.7-4.87Z"/>
          <path class="cls-4" d="m1493.22,893.03c.19-.04.38-.08.58-.12.58-1.81-.16-2.99-1.93-3.4-1.59-.36-3.9.31-4.25,1.75-.34,1.4,1.07,2.76,2.11,3.52,1.63,1.2,3.13,1.43,3.5-1.06v-.7Z"/>
          <path class="cls-4" d="m1503.66,714.83c-.21-.68.63-2.63.85-3.33.3-.98.8-2.32,1.24-3.28.48-1.07.82-2.25,1.04-3.48.24-1.28.86-2.29,1.08-3.46.5-2.62-2.57-4.46-4.94-3.88-2.1.51-3.99,2.14-5.69,3.36-1.15.82-1.45.66-2.11,2.07-.56,1.2-.81,2.44-1.2,3.69-.39,1.26-.73,1.96-.72,3.44,0,1.38-.17,2.84.16,4.17,1.6,6.57,8.78,2.35,10.28-2.09v2.78Z"/>
          <path class="cls-4" d="m1482.77,669.58c.68,2.46-3.97,4.17-5.57,4.17-1.91,0-2.25-.21-2.96-1.91-.63-1.52-.83-2.57.16-4.01,1.46-2.1,5.54-3.33,7.96-2.38,2.92,1.15,1.64,5-.99,5.52l1.39-1.39Z"/>
          <path class="cls-4" d="m1512.71,719.7c.79.17,1.89,1.28,2.12,2.05.18.61-.07,1.32.12,1.97.15.52.47.86.56,1.53.08.67-.19,1.44-.05,2.1.16.76.63,1.33.77,2.09.24,1.34-.31,2.84-.07,4.18.22,1.24,1.44,2.69.59,4.04-.7,1.11-2.21.99-3.36.85-1.2-.15-2.23-.57-3.47-.87-1.45-.34-3.22-1.1-4.46-1.93-1.96-1.32-4.07-2.8-4.61-5.19-.51-2.23-.14-5.98.37-8.03.44-1.75,1.29-4.17,3.11-5.25,1.81-1.07,5.95-.46,7.68.37l.7,2.09Z"/>
          <path class="cls-4" d="m1496.7,721.09c0,.15,0,.31,0,.46.63-3.38-3.37-2.99-4.21-.5-.96,2.86,3.62,3.73,4.21.73v-.7Z"/>
          <path class="cls-4" d="m1447.74,742.09c-.96,2.02-1.48,3.86-.99,6.12.47,2.15,1.8,4.31,2.61,6.37.63,1.62.58,2.88.25,4.57-.41,2.1-.42,4.29,0,6.39.46,2.36,1.07,4.85,1.3,7.23.27,2.73.07,5.61.03,8.36-.07,5.63,2.72,9.93,7.74,12.39,1.59.78,3.04.83,4.77.84,1.84.01,2.51-.5,3.77-1.85,1.38-1.47,1.88-3.04,2.73-4.77.78-1.59,1.48-2.89,1.93-4.6.69-2.6-.53-6.54,1.23-8.79.54-.69,1.37-1.03,2.05-1.58.78-.62,1.44-1.4,2.15-2.1,1.72-1.68,1.81-3.27,2.76-5.38.77-1.71,1.55-3.44,2.86-4.8,1.81-1.89,4.29-3.01,5.95-4.95,1.27-1.49,1.54-2.95,1.56-4.89.01-1.21.21-2.61-.1-3.79-.36-1.36-.97-2.27-1-3.73-.03-1.58.02-2.76.55-4.22.72-1.98,1.24-3.75,1.1-5.89-.31-4.66-2.99-8.77-5.36-12.67-1.11-1.84-2.15-3.57-2.56-5.72-.45-2.38.33-4.92.94-7.23.63-2.4,2.11-4.09,3.42-6.12,1.27-1.97,2.72-4.28,4.57-5.75,2.09-1.65,3.83-2.72,6.45-3.13.92-.14,1.77-.48,2.7-.5,1.19-.03,2.25.48,3.42.6,4.71.49,8.73-2.51,13.33-2.72,1.93-.09,3.74.27,5.36,1.3,1.32.84,2.94,1.5,4.48,1.82,3.82.8,8.81-1.32,11.88,1.68,1.15,1.13,1.37,2.71,2.5,3.77,2.01,1.89,4.66,2.42,7.22,2.99,3.78.84,7.66,1.28,11.31,2.64,3.65,1.36,6.9,3.82,10.53,5.09,3.63,1.27,9.23.59,12.84-.35,2.22-.58,5.45-1.85,6.69-3.95.73-1.23,1.12-2.32,2.11-3.36,1-1.06,2.31-1.07,3.73-1.4,4.43-1.03,6.72-4.41,7.63-8.68.64-3.02.21-6.08.77-9.12.61-3.38,1.84-6.47,3.11-9.62.95-2.36,1.5-4.74,1.34-7.29-.14-2.32-.4-5.97-2.67-7.21-1.83-1-4.17-.96-6.17-.77-3.47.32-6.97,1.03-10.41,0-3.13-.94-4.48-3.15-5.99-5.89-2-3.64-2.96-7.61-5.03-11.25-1.59-2.77-3.69-5.19-7.11-5.36-2.26-.11-3.87,1.04-5.3,2.72-1.88,2.22-3.05,4.99-4.88,7.28-1.55,1.93-3.16,4.03-5.14,5.54-3.36,2.58-7.87,2.74-11.72,4.22-4.13,1.58-7.55,4.58-11.88,5.63-5.69,1.38-11.41.28-17.2.9-3.57.38-6.66,1.35-10.01,2.56-2.81,1.01-4.87,2.66-7.46,4.01-2.59,1.35-4.83,2.95-7.59,4-2.78,1.06-5.69,1.72-8.44,2.89-2.69,1.14-4.91,2.53-7.74,3.27-3.07.8-6.13,2.5-8.63,4.46-2.53,1.98-4.44,4.6-5.87,7.45-.88,1.77-1.43,3.71-2.37,5.44-.93,1.72-2.35,3.28-3.65,4.73-1.93,2.15-3.97,4.17-5.84,6.38-2.25,2.66-3.73,6.26-5.36,9.33-1.25,2.36-1.83,4.86-2.9,7.3-1.08,2.47-2.07,5-3.48,7.3-.79,1.28-1.93,3.24-2.04,4.79-.05.65.24,1.52.44,2.13.25.76.84,1.3,1.05,2.03.39,1.4.04,3.25,1.09,4.39.86.95,1.93.69,2.95.12,1.09-.62,1.94-1.28,3.2-1.57.71-.16,2.87-1.07,4.53-.05Z"/>
        </g>
        <g class="cls-1">
          <path class="cls-4" d="m1567.57,655.69c1.07-1.29-3.15,3.35-3.31,4.16-.07.37.17.99.18,1.41.03.87-.08,1.74-.35,2.58-.72,2.26-2.39,4.37-3.6,6.4-.52.87-1.15,1.34-1.76,2.09-.6.73-.91,1.43-1.61,2.11-2.01,1.96-3.99,3.91-5.75,6.12-3.17,3.98-3.35,8.88-.25,12.94.82,1.08,2.76,2.65,4.07,2.91.92.18,1.87.03,2.75-.21,1.65-.45,3.35-.58,4.99-1.01,2.05-.54,3.47-.14,5.42.56.97.35,2.06.59,2.96,1.08.91.49,1.65,1.01,2.68,1.29,2.09.57,4.09.05,6.08-.76,1.33-.54,2.68-1.21,3.94-1.9,1.64-.9,3.52-1.25,5.23-2.05,1.3-.61,2.61-1.52,3.77-2.37.96-.7,1.57-1.83,2.35-2.72,2.04-2.35,1.38-5.96,2.32-8.72.86-2.53,2.86-4.46,3.32-7.16.41-2.38-.83-4.73-2.33-6.51-1.7-2.02-4.46-3.01-7.04-3.06-2-.04-4.01.16-6,.07-1.45-.07-2.72-.77-4.01-1.36-1.49-.69-2.7-1.61-4.13-2.38-1.28-.68-2.27-1.67-3.56-2.31-1.25-.62-2.17-1.24-3.61-1.31-1.29-.06-1.98.63-2.78.12Z"/>
          <path class="cls-4" d="m1523.48,671.15c-.44-2-.99-3.89-3.28-4.29-1.18-.21-2.99-.14-4.17.11-2.01.42-3.34,1.77-5.02,2.81-1.78,1.09-5.48,2.17-5.16,4.85.28,2.33,2.89,3.57,4.56,4.85,1.89,1.44,3.05,3.28,5.74,2.92,2.75-.36,4.68-2.49,5.86-4.72.78-1.46,1.78-2.83,2.27-4.39.33-1.02.19-3.52-1.34-3.73l.53,1.6Z"/>
          <path class="cls-4" d="m1556.05,755.01c-.34-1.54-.77-3-2.54-3.32-.92-.16-2.31-.11-3.22.08-1.56.33-2.58,1.37-3.88,2.17-1.37.84-4.23,1.68-3.98,3.74.22,1.8,2.23,2.76,3.52,3.74,1.46,1.11,2.35,2.53,4.43,2.26,2.13-.28,3.61-1.93,4.53-3.64.6-1.13,1.37-2.18,1.76-3.39.25-.79.15-2.72-1.03-2.88l.41,1.24Z"/>
          <path class="cls-4" d="m1469.24,762.66c-.3-1.34-.67-2.62-2.21-2.89-.8-.14-2.01-.09-2.81.07-1.36.28-2.25,1.19-3.38,1.89-1.2.73-3.69,1.46-3.47,3.26.19,1.57,1.94,2.4,3.07,3.26,1.27.97,2.05,2.21,3.86,1.97,1.85-.24,3.15-1.68,3.95-3.18.52-.98,1.2-1.9,1.53-2.95.22-.69.13-2.37-.9-2.51l.36,1.08Z"/>
          <path class="cls-4" d="m1437.61,754.89c-.26-1.02-.82-1.79-1.67-2.32-.66.71-1.58,1-2.3,1.68-1.35,1.25-2.86,3.64-3.04,5.49-.12,1.28.08,2.75.09,4.04.02,1.9-.49,3.63-.57,5.51-.16,3.62-.36,6.8,2.83,9.1,2.06,1.48,4.22,1.47,6.06-.32,2.06-2.01,2.78-4.4,3.3-7.18.26-1.37.26-2.77.51-4.15.21-1.2.5-2.27.81-3.44.68-2.54.82-5.27-.67-7.49-1.46-2.17-2.7-3.58-5.34-.92Z"/>
          <path class="cls-4" d="m1631.24,664.86c-2.26.51-4.49,1.11-6.69,1.8-.02,2.17-1.19,4.02-.31,6.2,1.13,2.77,3.58,4.8,4.5,7.58,1.81,5.49-2.54,10.12-3.27,15.34-1.04,7.38,9.21,6.87,13.68,7.35,3.09.34,6.35.72,9.13,2.22,3.18,1.72,6.08,3.37,9.69,4.07,3.42.66,7.14-.69,10.09-2.45,3.23-1.92,5.93-5.46,7.18-9.01.79-2.25.17-5.26-.57-7.46-1.03-3.08-3.62-5.08-5.81-7.31-1.66-1.69-2.88-3.75-4.51-5.49-2.05-2.21-4.03-4.47-6.08-6.68-3.27-3.53-6.52-7.33-10.78-9.68-3.06-1.68-6.07-2.27-9.55-1.79-3.01.42-5.98,1.75-6.71,5.31Z"/>
        </g>
      </g>
    </g>
  </g>
</svg>