<?xml version="1.0" encoding="UTF-8"?>
<svg xmlns="http://www.w3.org/2000/svg" xmlns:xlink="http://www.w3.org/1999/xlink" viewBox="0 0 356.16 15.99">
  <defs>
    <style>
      .cls-1 {
        isolation: isolate;
      }

      .cls-2 {
        fill: url(#linear-gradient);
        mix-blend-mode: multiply;
        opacity: .7;
      }
    </style>
    <linearGradient id="linear-gradient" x1="178.08" y1="1.14" x2="178.08" y2="16.11" gradientUnits="userSpaceOnUse">
      <stop offset=".02" stop-color="#24655e"/>
      <stop offset=".97" stop-color="#eefffd"/>
    </linearGradient>
  </defs>
  <g class="cls-1">
    <g id="Layer_2" data-name="Layer 2">
      <g id="layer1">
        <path class="cls-2" d="m354.76,1.99c-5.43-.09-11.57.07-17.38.11.48-.11-.07-.28-1.66-.29-2.82-.01-5.24-.03-7.74.03-1.87,0-3.79,0-5.7,0,3.1-.06,6.19-.11,9.28-.15,2.05-.03,2.04-.32-.05-.33-5.25-.04-10.41,0-15.55.06-.31-.03-.75-.05-1.31-.05-2.27,0-4.55,0-6.82,0,.92-.11.45-.32-1.05-.36-6.18-.16-12.53-.13-18.84-.11-.08-.02-.17-.04-.3-.06.22,0,.45-.01.66-.02,1.96-.08,1.97-.35-.06-.42-4.02-.14-8.12-.2-12.24-.22-1.63-.04-3.3-.06-4.71-.08-1.88-.02-3.76-.03-5.64-.04-.22,0-.46-.02-.71-.02-16.69-.09-33.5,0-50.12.17-3.55.04-7.11.08-10.67.12-8.5.04-16.99.09-25.49.13-17.61.02-35.22.05-52.84.08-6.84-.03-13.98-.06-20.75.02-1.57,0-3.15,0-4.72,0-.18,0-.36,0-.56,0-.24,0-.48,0-.71,0-2.72,0-5.44,0-8.17,0-7-.27-15.2-.18-22.91-.04-5.29.05-10.58.12-15.86.18-7.77-.03-15.56-.06-23.28.01-.9,0-1.8-.01-2.69-.02.96-.03,1.91-.05,2.79-.07,8.18-.21,16.69-.07,24.89-.32,1.59-.05.88-.3-.72-.26C40.62.42,18.49-.07,10.05,1.32c-.07.01-.1.03-.13.04-.71.03-1.14.07-1.34.13-2.17,0-4.34.02-6.51.03-2.82.02-2.73.44.07.45,4.96.03,9.89,0,14.81-.03-.15.05-.12.11.09.16-.79.03-1.57.06-2.31.1-1.29.07-.87.27.33.31-.86.02-1.73.04-2.58.07-2.29.07-1.66.38.37.42-.51,0-1.01,0-1.5.01-2.6.03-2.62.45.06.43.27,0,.54,0,.81,0-.82.07-1.18.23.05.29,2.75.12,5.65.18,8.61.2-1.21.11-.87.37.89.4,3.76.07,7.54.1,11.32.11-1.14.08-1.41.23-.67.33-.31.02-.62.03-.92.06-.43.03-.64.07-.74.11-1.58.05-3.1.11-4.5.2-1.97.12-.87.4,1.15.42.4,0,.8,0,1.19,0-.29,0-.59.02-.89.03-1.77.06-1.58.3.05.36,6.23.23,12.92.14,19.47.11.13.1.81.19,2.08.19,3.18.01,6.34,0,9.5,0-3.47.24-12.03.17-15.1.22-.77.01-1.15.08-1.21.15-.81.13-.25.35,1.75.34,2.1,0,4.18-.02,6.24-.04.54,0,1.07,0,1.6-.01h.87c.23.02.49.04.82.05,1.96.05,3.93.09,5.91.13-.13,0-.26.01-.39.02-1.05.07-1.06.2-.32.29,3.01.37,7.82.42,12.68.44-.09.07.15.14.71.2-.96.03-1.84.08-2.5.14-.66.07-.72.21.04.27,2.12.17,4.5.25,6.99.27-1.94.07-3.78.17-5.37.34-1.08.11-.37.27.87.32,7.57.3,15.13.07,22.78,0-1.34.06-2.67.12-3.97.19-7.19-.02-14.13-.05-15-.05-2.29,0-2.38.32-.45.39,1.69.06,3.43.09,5.19.11.03.03.11.06.27.09-.03,0-.06,0-.09,0-1.22,0-1.82.09-1.86.19-2.37.04-4.71.08-6.97.18-2.17.09-1.73.39.5.42-.2.08.07.18.84.22,4.37.24,8.98.14,13.58.12-1.05.05-2.06.1-2.97.2-1.03.1-.36.26.82.3,1.17.05,2.33.07,3.48.08-.01.04.09.08.27.11-.14,0-.28,0-.42,0-1.62,0-3.18.01-4.61.03-2.54.03-2.6.43.06.42,1.88,0,3.78-.02,5.69-.04,1.07,0,2.14,0,3.22-.01-.81.03-1.61.06-2.39.11-1.57.09-1,.34.6.38-.04,0-.08,0-.12.01-1.14.11-.38.3.98.34-.65.08-1.16.17-1.4.28-.21.1.32.22,1.34.24,2.34.05,4.48.03,6.66-.02.32.01.66.02,1.06.01.9-.02,1.29-.05,2.13-.11,1.77-.12.57-.41-1.48-.35-1.54.05-2.99.09-4.49.1,2.03-.15,5.38-.2,7.23-.25,2.09-.05,1.56-.39-.56-.38-.75,0-1.49,0-2.24.01,1.42-.06,2.91-.11,4.51-.15.62-.01,1.01-.05,1.21-.09.9-.03,1.79-.06,2.65-.1,1.47-.07,1.12-.27.03-.35,1.02-.06,2-.13,2.91-.21,1.48-.13.09-.35-1.49-.36-1.2,0-2.39,0-3.57,0,2.79-.07,5.54-.16,8.07-.31.71-.04,1.01-.11,1-.18,1.09-.05,2.17-.1,3.23-.17.53-.03.82-.08.93-.14.17,0,.34,0,.51,0,2.77-.03,2.77-.45-.07-.45-2.28,0-4.56,0-6.84-.01-.03,0-.05,0-.08,0-.49-.04-1-.08-1.52-.11,1.63-.04,3.25-.08,4.84-.13.67-.02,1.07-.07,1.27-.12,1.53-.1,1.22-.39-1.05-.39-1.36,0-2.71,0-4.06.02.26-.07.18-.16-.45-.21-3.5-.28-7.65-.41-12.02-.46,1.52-.04,3.03-.09,4.5-.16,1.89-.08,1.97-.34-.06-.41-4.89-.16-10.01-.19-15.1-.23,3.71-.04,7.39-.11,10.98-.22,1.67-.05,2.25-.33.46-.41-6.33-.29-13.12-.36-19.95-.41-.74,0-1.47-.01-2.21-.02,0,0,0,0,0,0,7.44.02,15.15.06,22.54-.08,5.3.06,10.6.06,15.89.03.13.1.88.2,2.07.2,1.9,0,3.78,0,5.67,0-4.98.11-9.9.25-14.7.45-2.18.09-1.76.4.61.42,2.26.01,4.51.01,6.75,0-.83.11-.31.32,1.13.34,10.04.17,19.87-.03,29.71-.21-.32.02-.56.05-.71.09-2.13.03-4.25.06-6.36.09-7,.1-14.6.16-20.21.65-1.1.1-.51.33.94.35.83.01,1.66.02,2.48.03-.11,0-.21,0-.32,0-2.55.02-2.5.41.06.41,7.28,0,14.56.03,21.82.07-6.41.05-12.78.14-19.08.3-1.97.05-2.04.39.07.43,1.4.02,2.8.04,4.19.05-.58.02-1.16.03-1.73.05-2.41.08-1.68.41.63.43,8.43.07,16.84,0,25.28,0,2.93,0,5.9-.03,8.85-.04-7.97.07-16.09.06-23.8.31-1.84.06-2.11.39.06.42,4.41.07,8.82.07,13.24.04-2.98.05-5.91.13-8.75.26-.82.04-1.07.11-1.01.18-3.49.05-6.89.15-9.98.34-2.01.13-.86.4,1.16.42,2.51.03,5.01.03,7.5.03-1.53.07-3.01.15-4.42.26-.87.06-1.44.2-.72.3,2.46.35,7.28.4,11.65.39-.04.05.06.09.28.13,1.89.32,5.55.41,9.45.42-3.54.1-7.11.19-10.48.35-1.88.09-.78.39,1.06.38.26,0,.52,0,.79,0-.34.02-.7.03-1.04.05-1.65.09-1.03.32.44.38-1.24.14-.37.35,1.5.37,2.49.02,4.95,0,7.41-.02.43.03.97.04,1.59.02,1.17-.04,2.34-.06,3.52-.09,2.56-.04,5.12-.08,7.7-.09,2.68,0,2.62-.44-.06-.43-.49,0-.97,0-1.46,0,.29-.12-.34-.27-1.91-.27-1.8,0-3.6.01-5.39.03.59-.02,1.19-.04,1.78-.06,1.86-.06,1.79-.33.24-.4,2.08-.07,4.12-.14,6.1-.25,1.44-.08,1.13-.35-.52-.37-3.51-.05-12.24.1-16.01-.13.44-.03.9-.06,1.38-.08,7.55-.06,15.03-.23,22.6-.26,2.6,0,2.54-.42-.06-.42-7.11,0-16.03-.03-23.08.27-4.13.05-9.04.08-11.93-.03,9.19-.5,20.88-.31,30.58-.68,1.34-.05,1.72-.19,1.32-.3,2.2-.02,4.39-.04,6.54-.05,2.75,0,2.68-.45-.07-.44-2.54,0-5.09.01-7.64.02,4.43-.04,8.81-.12,12.98-.31,1.7-.08,1.12-.37-.57-.4-3.06-.07-6.11-.09-9.16-.1.83-.03,1.67-.06,2.49-.09,1.96-.08,2.01-.36-.07-.42-6.75-.22-13.87-.15-20.83-.11-1.67,0-3.35.02-5.03.03,1.61-.02,3.21-.04,4.82-.07,3.17-.05,6.36-.11,9.55-.16,5.61-.02,11.23-.04,16.86-.13h.03c.18,0,.37,0,.55,0,2.49-.04,1.56-.41-.62-.43-1.83-.01-3.68-.01-5.53,0-.08-.08-.54-.15-1.49-.16-5.53-.08-11.09-.14-16.65-.19,5.69-.08,11.56-.15,16.61.02,1.79.06,2.45-.23.72-.29-2.33-.09-4.76-.12-7.23-.13.45-.03.72-.09.78-.14,3.91-.05,7.8-.11,11.69-.18.07,0,.12,0,.18,0,1.76-.02,3.51-.05,5.26-.08.08,0,.16,0,.25.01,2.6.07,5.22.09,7.86.11-.27.01-.55.02-.82.03-1.29.06-1.13.24-.36.33.97.11,2.19.19,3.53.24-1.24.07-2.45.15-3.58.25-1.15.1-.48.33.95.35,1.21.02,2.43.03,3.65.04.18.06.64.12,1.4.13,1.6.03,3.21.05,4.81.07-.5.02-1.01.03-1.5.05-1.21.04-1.59.17-1.3.27-2.77.11-4.96.26-5.73.51-.97.31.47.47,2.85.53-.28.02-.56.04-.83.06-.95.08-.57.26.43.31,1.46.08,2.85.12,4.24.14.16.06.59.11,1.29.14.14,0,.26,0,.4.01.09.09.67.17,1.78.17,1.58,0,2.91-.04,4.3-.12.98-.06,1.06-.17.62-.25,1.66-.08,1.41-.38-.77-.37-.98,0-1.85.01-2.68.03-1.21.01-2.39.03-3.58.02,1.38-.06,2.84-.1,4.34-.13,1.55-.02,2.89-.04,3.68-.04,2.51-.01,2.45-.42-.06-.4-.73,0-1.45.01-2.17.02-1.23.01-2.46.03-3.69.04-2.99.03-8.53-.01-2.75-.23,5.42-.2,11.37-.19,16.8-.39,1.21-.04,1.59-.19,1.24-.3,1.09-.01,2.18-.03,3.28-.04,2.55-.03,2.63-.43-.06-.42-.29,0-.57,0-.86,0,1.62-.03,3.23-.07,4.84-.11,2.27-.06,1.66-.42-.6-.42-.74,0-1.47,0-2.21.01.58,0,1.16,0,1.75-.01.75,0,1.49,0,2.21-.01,2.59-.02,2.58-.43-.06-.42-1.43,0-2.85.01-4.28.03-6.91.03-14.34.03-21.08.21-1.61,0-3.15-.02-4.51-.07,9.73-.3,20.54-.08,30.47-.28,2.32-.05,1.62-.41-.6-.41h-22.75c-3.23,0-6.44.02-9.65.02,4.91-.1,10.07-.12,14.88-.16,8.1-.08,16.17-.18,24.02-.41,2.28-.07,1.64-.41-.6-.41-11.56-.05-23.13.14-34.65.13,2.75-.02,5.52-.04,8.25-.07,8.6-.08,16.97-.32,25.62-.34,1.81,0,2.32-.2,1.62-.32,2.74-.03,5.47-.07,8.19-.12,1.87-.04,1.77-.25.69-.36,1.18-.02,2.36-.05,3.53-.08,1.93-.05,1.97-.37-.06-.41-1.2-.02-2.41-.04-3.61-.06.34-.12-.54-.28-1.99-.3-10.16-.12-20.34-.11-30.55-.1-7.18.01-16.6.18-24.34.04,2.05-.03,4.06-.07,5.91-.15,5.65-.09,11.51-.1,17.03-.15,3.57-.03,7.15-.07,10.74-.1,8.5,0,16.99-.01,25.49-.07,2.71-.02,2.62-.42-.06-.44-5.5-.03-11.01-.02-16.52,0,1.68-.04,3.32-.09,4.9-.15,5.75-.1,11.61-.06,16.96-.33,1.6-.08,1.2-.37-.57-.4-1.11-.02-2.21-.03-3.31-.04,4.15-.02,8.3-.03,12.39-.1.27.02.58.03.96.03,1.89,0,3.77,0,5.65-.02-.29.09.07.21.89.27.44.03.91.06,1.37.09-2,.05-4,.1-6.02.17-2.3.07-1.77.43.63.43.49,0,.99,0,1.48,0-.12.01-.26.02-.38.03-1.22.11-.37.28.89.33-.16.01-.34.02-.49.04-.9.07-1.09.18-.63.27-2.75.14-5.26.31-7.36.55-.88.1-.59.24.35.31-1.92.09-3.74.2-5.39.35-.99.09-.54.25.44.32.14,0,.28.01.42.02-3.01.15-5.81.34-8.4.59-1.24.12-.18.33,1.37.33,5.21,0,5.52.02,9.05-.37,1.23-.14,2.56-.26,3.95-.37.47-.02.92-.03,1.41-.05.86-.02,1.26-.09,1.31-.16,2.86-.21,5.88-.39,8.83-.59.22-.01.34-.03.42-.05,1.62-.09.97-.38-1.01-.38h-5.87c1.99-.13,4.2-.23,6.53-.3,6.72.04,13.74-.21,20.14-.35,1.93-.04,1.64-.36-.07-.39,2.55-.07,5.03-.16,7.46-.25,2.86-.07,5.65-.16,8.32-.29,2.13-.1.69-.39-1.12-.4-1.01-.01-2.07-.01-3.15-.01.07-.04,0-.09-.15-.12,9.36,0,18.72-.02,27.88-.25,2.18-.05,1.47-.37-.56-.38-10.97-.06-21.9.09-32.81.24-1.16,0-2.32,0-3.48,0,4.28-.09,8.55-.18,12.83-.27,5.47-.1,10.97-.18,16.35-.29,9.8.08,19.87.12,29.16-.08,1.81-.04,1.79-.35-.06-.38Z"/>
      </g>
    </g>
  </g>
</svg>