<?xml version="1.0" encoding="UTF-8"?>
<svg xmlns="http://www.w3.org/2000/svg" xmlns:xlink="http://www.w3.org/1999/xlink" viewBox="0 0 3150 1400">
  <defs>
    <style>
      .cls-1 {
        isolation: isolate;
      }

      .cls-2 {
        fill: url(#_Áåçûìÿííûé_ãðàäèåíò_382-2);
      }

      .cls-2, .cls-3, .cls-4, .cls-5 {
        fill-rule: evenodd;
      }

      .cls-3 {
        fill: url(#_Áåçûìÿííûé_ãðàäèåíò_382-3);
      }

      .cls-4 {
        fill: url(#_Áåçûìÿííûé_ãðàäèåíò_382);
      }

      .cls-6 {
        clip-path: url(#clippath);
      }

      .cls-7 {
        fill: none;
      }

      .cls-5 {
        fill: #92c2c4;
        mix-blend-mode: multiply;
        opacity: .5;
      }
    </style>
    <clipPath id="clippath">
      <rect class="cls-7" width="3150" height="1400"/>
    </clipPath>
    <linearGradient id="_Áåçûìÿííûé_ãðàäèåíò_382" data-name="Áåçûìÿííûé ãðàäèåíò 382" x1="1638.37" y1="1286.53" x2="1638.37" y2="1040.47" gradientUnits="userSpaceOnUse">
      <stop offset="0" stop-color="#005489"/>
      <stop offset=".17" stop-color="#024378"/>
      <stop offset=".48" stop-color="#062a60"/>
      <stop offset=".77" stop-color="#081b51"/>
      <stop offset="1" stop-color="#09164c"/>
    </linearGradient>
    <linearGradient id="_Áåçûìÿííûé_ãðàäèåíò_382-2" data-name="Áåçûìÿííûé ãðàäèåíò 382" x1="2309.7" y1="1287.39" x2="2309.7" y2="1092.9" xlink:href="#_Áåçûìÿííûé_ãðàäèåíò_382"/>
    <linearGradient id="_Áåçûìÿííûé_ãðàäèåíò_382-3" data-name="Áåçûìÿííûé ãðàäèåíò 382" x1="2872.72" y1="1287.39" x2="2872.72" y2="1042.1" xlink:href="#_Áåçûìÿííûé_ãðàäèåíò_382"/>
  </defs>
  <g class="cls-1">
    <g id="Layer_2" data-name="Layer 2">
      <g id="layer1">
        <g class="cls-6">
          <g>
            <polygon class="cls-4" points="1956.95 1283.97 1965.96 1255.97 1944.87 1245 1941.65 1252.22 1967.83 1135.53 1710.35 1069.38 1689.25 1253.71 1689.25 1083.72 1587.81 1040.47 1582.79 1055.37 1587.81 1182.7 1576.26 1193.37 1554.67 1258.4 1501.44 1223.63 1458.25 1240.96 1466.28 1276.73 1458.25 1273.44 1425.61 1235.33 1352.79 1217.55 1333.71 1269.02 1333.71 1286.2 1311.11 1276.73 1292.53 1286.53 1984.21 1286.53 1973.83 1282.52 1956.95 1283.97"/>
            <polygon class="cls-2" points="2006.88 1287.18 2032.39 1207.07 2100.7 1190.82 2106.67 1198.04 2137.17 1123.16 2414.18 1092.9 2428.96 1117.44 2406.53 1275.93 2428.96 1161.92 2576.73 1146.14 2612.52 1163.62 2595.43 1287.39 2006.88 1287.18"/>
            <polygon class="cls-3" points="2595.43 1287.39 2634.32 1161.92 3150 1042.1 3150 1278.11 2595.43 1287.39"/>
            <polygon class="cls-5" points="2414.18 1092.9 2365.3 1218.13 2398.46 1212.91 2385.19 1287.41 2402.44 1286.95 2428.96 1117.44 2414.18 1092.9"/>
            <polygon class="cls-5" points="2100.7 1190.82 2060.25 1287.41 2096.06 1287.41 2106.67 1198.04 2100.7 1190.82"/>
            <polygon class="cls-5" points="2576.73 1146.14 2557.72 1218.14 2479.86 1285.86 2595.43 1287.39 2612.52 1163.62 2576.73 1146.14"/>
            <polygon class="cls-5" points="2827.25 1283.27 2886.54 1241.82 2962.96 1117.96 2886.54 1258.48 2962.96 1270.5 3105.38 1179.54 3137.39 1082.73 3150 1071.67 3150 1278.11 2827.25 1283.27"/>
            <polygon class="cls-5" points="2789.77 1144.55 2759.19 1177.47 2739.65 1237.12 2789.77 1144.55"/>
            <polygon class="cls-5" points="2365.3 1218.13 2289.26 1287.41 2305.17 1287.41 2365.3 1218.13"/>
            <polygon class="cls-5" points="1967.83 1135.53 1911.26 1121.51 1875.01 1286.2 1928.01 1288.2 1941.65 1252.22 1967.83 1135.53"/>
            <polygon class="cls-5" points="1965.96 1255.97 1958.75 1252.22 1951.05 1286.2 1955.47 1286.2 1965.96 1255.97"/>
            <polygon class="cls-5" points="1689.25 1083.72 1673.14 1076.85 1653.19 1224.19 1644.67 1288.21 1689.25 1288.21 1689.25 1083.72"/>
            <polygon class="cls-5" points="1458.25 1240.96 1470.48 1276.4 1628.31 1286.55 1470.48 1287.79 1458.25 1240.96"/>
            <polygon class="cls-5" points="1425.61 1235.33 1410.35 1281.73 1357.3 1279.05 1333.71 1269.02 1333.71 1286.2 1470.48 1287.79 1466.28 1276.73 1458.25 1273.44 1425.61 1235.33"/>
            <polygon class="cls-5" points="1587.81 1182.7 1651.96 1233.39 1652.81 1227.07 1587.81 1182.7"/>
            <polygon class="cls-5" points="1710.35 1131.27 1738.25 1288.88 1732.21 1288.21 1710.35 1131.27"/>
          </g>
        </g>
      </g>
    </g>
  </g>
</svg>