<?xml version="1.0" encoding="UTF-8"?>
<svg xmlns="http://www.w3.org/2000/svg" xmlns:xlink="http://www.w3.org/1999/xlink" viewBox="0 0 3150 1400">
  <defs>
    <style>
      .cls-1 {
        fill: #0a1045;
      }

      .cls-1, .cls-2, .cls-3, .cls-4, .cls-5 {
        fill-rule: evenodd;
      }

      .cls-2, .cls-6 {
        fill: #0a001a;
      }

      .cls-7 {
        isolation: isolate;
      }

      .cls-3 {
        fill: #0a031f;
      }

      .cls-8 {
        mix-blend-mode: multiply;
        opacity: .5;
      }

      .cls-4 {
        fill: url(#_Áåçûìÿííûé_ãðàäèåíò_337);
      }

      .cls-5 {
        fill: #4faeff;
      }

      .cls-9 {
        clip-path: url(#clippath);
      }

      .cls-10 {
        fill: none;
      }

      .cls-11 {
        fill: #005988;
      }
    </style>
    <clipPath id="clippath">
      <rect class="cls-10" width="3150" height="1400"/>
    </clipPath>
    <linearGradient id="_Áåçûìÿííûé_ãðàäèåíò_337" data-name="Áåçûìÿííûé ãðàäèåíò 337" x1="2443.68" y1="1327.01" x2="2443.68" y2="1265.46" gradientUnits="userSpaceOnUse">
      <stop offset="0" stop-color="#11084e"/>
      <stop offset=".04" stop-color="#100748"/>
      <stop offset=".2" stop-color="#0f0334"/>
      <stop offset=".39" stop-color="#0e0125"/>
      <stop offset=".62" stop-color="#0e001d"/>
      <stop offset="1" stop-color="#0e001b"/>
    </linearGradient>
  </defs>
  <g class="cls-7">
    <g id="Layer_2" data-name="Layer 2">
      <g id="layer1">
        <g class="cls-9">
          <g>
            <g class="cls-8">
              <path class="cls-11" d="m2398.39,1317.36l-58.45-2.6s13.78.37,58.45,2.6Z"/>
              <path class="cls-11" d="m3140.16,1374.91c-4.49.07-8.87.06-13.15-.01-15.09,27.08-32.6,46.59-51.68,59.97l-22.04-41.97,17.82,44.82c-4.48,2.92-9.07,5.49-13.68,7.75l-28.27-82.13,21.7,85.16c-19.49,8.26-40.09,11.43-61.03,10.86,1.46,21.41,2.68,44.64,3.38,68.69h0v.06c1.18,40.78.85,83.91-2.44,124.51,4.97-11.33,12.93-27.88,23.24-43.91l7.37,6.52-4.59-10.75c9.8-14.51,21.5-28.14,34.56-36.48,0,0-3.68,61.13-60.74,95.62-.34.2-.68.41-1.02.59v.05l1.02-.64.74-.43,64.9-22.65.54,6.2,3.8-7.7,62.46-21.8s-10.74,16.04-26.4,30.35l-22.41,1.71,19.35,1.03c-10.82,9.36-23.68,17.47-36.8,19-24.31,2.85-49.43-.23-61.76-2.21-.03,0-.09-.02-.11-.02.06.02.11.02.2.05,17.45,3.65,35.64,10.53,51.9,17.91l-8.19,9.5,4.16.5,13.6-5.49c25.3,12.3,43.91,24.52,43.91,24.52,0,0-20.42-1.03-41.73-3.83l-8.56-6.52,4.76,6.02c-12.58-1.75-25.1-4.15-33.51-7.29-17.62-6.63-29.04-22.24-33.65-29.64-2.8,10.21-9.12,28.89-20.14,39.8l-6.15-8.89,2.35,12.19c-.26.21-.51.39-.77.57-19.04,13.37-90.85,5.9-90.85,5.9l46.46-23.03,14.65,4.37,8.84-4.35-8.75-7.34,46.15-22.9c-19.29,5.74-62.97,13.4-97.51-19.84l26.09,2.71,4.65,6.4-3.23-6.24,34.84,3.62,5.27,11.1v-10.55l22.84,2.38c-9.55-6.8-17.4-14.34-23.81-22.09l11.16.84-14.62-5.26c-23.4-31.05-25.38-63.77-25.38-63.77,13.06,8.34,24.76,21.96,34.56,36.48l-4.59,10.75,7.37-6.52c12.63,19.64,21.74,40.06,26.13,50.69l1.77.18c3.3-36.18,4.13-74.67,3.54-111.91l-.57-23.98c-.72-22.76-1.9-44.72-3.28-65.03-19.31-1.07-38.86-5.18-58.03-11.36l13.97-44.15-8.41-4.65-45.64,32.88c-3.7-1.72-7.35-3.51-10.98-5.33-7.12,9.45-15.37,19.15-24.84,28.64h0s-.02.02-.02.02c-1.36,1.36-2.75,2.72-4.16,4.07l-.2.2h0c-1.47,1.4-2.97,2.8-4.5,4.19h0s-.39.36-.39.36c-1.66,1.51-3.34,3.01-5.07,4.49l-.07.06h0c-13.41,11.54-28.86,22.43-46.59,31.8,14.89-3.41,30.42-5.07,43.44-5.85l-5.23,11.31,9.69-1.24,6.95-10.57c11.86-.33,19.71.02,19.71.02,0,0-13.72,13.23-28.91,22.05l-9.23-3.53,6.4,5.09c-8.27,4.44-16.7,7.27-23.45,5.7-12.15-2.83-23.19-8.9-29.92-13.2,4.33,5.52,12.93,15.35,26.35,25.78l-5.6,10.09c.47-.36,6.31-5.06,9.04-7.46,1.4,1.05,2.85,2.07,4.33,3.11l-9.06,5.31,7.56,5.44,11.21-4.44c10.98,6.65,23.98,12.98,39.17,18.04,0,0-40.83,9.07-71.61-13.48-16.1-11.76-19.4-24.06-18.91-33.12-7.66,8.54-20.22,20.27-35.01,25.03-2.79.9-5.55,1.61-8.29,2.14l3.19-10.53-9.61,11.6c-18.46,2.28-33.27-1.94-33.27-1.94,0,0,28.25-21.74,56.57-33.61-6.89-.58-13.92-2.47-19.8-6.71-22.2-16-43.13-50.22-43.13-50.22l34.5,19.38-1.73,6.68,9.55,7.04,2.68-7.79,3.3,1.84-.66,8.06,4-6.15,29.78,16.73s.04.01.05.03c-6.68-5.35-14.17-14.23-16.65-28.04-4.85-26.98,16.8-43.75,16.8-43.75l6.61,43.98-7.33-.17,7.8,3.21,4.02,26.72c22.15-10.2,40.99-22.85,56.93-36.47l9.63-8.66c1.22-1.16,2.43-2.32,3.62-3.49l2.03-2.01c9.19-9.24,17.21-18.68,24.14-27.88-17.67-9.09-34.37-19.15-49.55-29.18l-1.77,6.96c-12.61-2.14-24.76-6.56-36.03-12.21l11.25-13.27c-.45-.33-.89-.66-1.33-.98l-12.7,12.82c-32.04-16.8-56.82-42.9-65.69-52.96-1.26-.08-2.54-.16-3.79-.23-.92,6.76-5.24,18.05-25.15-1.54,0,0,0,0,0,0l9.63,40.26h-7.57l-4.01-40.38c-.09,0-.18-.01-.27-.02-.38,6.46-3.25,26.68-23.55,35.82l.18,2.25-5.66,1.38v-1.55c-3.11.94-6.59,1.63-10.4,2.04-.4,5.82-.94,12.28-1.66,19.24h0s-.02.19-.02.19c-.46,4.37-.98,8.92-1.59,13.64v.03s0,0,0,0c-3.71,28.58-10.53,63.04-23.01,95.69h0s-.06.15-.06.15c-1.42,3.71-2.92,7.39-4.48,11.04l-.13.32h0c-8.99,20.84-20.5,40.52-35.23,56.96l32.87-9.25v9.16l2.46-9.87,47.59-13.4s-9.12,23.03-41.36,31.46c-16.6,4.33-29.83,2.8-38.75.3-.04,0-.07-.02-.1-.03h.02s.06.03.08.03l21.02,9.32-9.58,5.22,15.44-2.62,21.05,9.32-10.82,2.07,13-1.12,37.08,16.43s-47.45,0-75.1-8.95c-16.23-5.26-21.98-19.57-24.02-28.25-8.95,8.86-26.46,15.88-43.68,21.07l4.99-15.29-9.8,16.68c-21.56,6.08-41.39,9.23-41.98,9.3.23-.68,4.31-11.62,15.92-21.8h15.81l-13.06-2.28c2.97-2.37,6.43-4.62,10.34-6.65,4.79-2.48,10.28-4.26,16.01-5.54l6.77,8-3.91-8.59c11.05-2.12,22.49-2.48,30.59-2.35-10.96-1.89-24.62-7.52-34.76-22.53-19.86-29.44.79-59.17.79-59.17,1.67,8.86,4.31,17.06,7.54,24.61l-6.35,13.62,8.07-9.77c4.87,10.55,10.85,19.66,16.77,27.2-5.3-16.47,11.56-58.85,11.56-58.85,0,0,4.87,15.38,8.56,34.95l-4.87,6.47,5.52-2.83c.57,3.28,1.1,6.63,1.56,10.05l-10.76,9.48,11.7-1.55c.88,8.54,1.15,17.12.51,24.99,15.2-16.55,26.98-36.64,36.12-57.95l4.32-10.66c13.59-35.52,20.41-73.31,23.81-103.16l1.25-12.21c.39-4.22.7-8.2.96-11.94-12.3.47-27.97-1.87-48.01-8.62l19.13-21.78-37.43,14.86c-13.72-5.69-29.19-13.22-46.52-22.84h-.02s-.72-.41-.72-.41c-6.64-3.7-13.55-7.7-20.77-12.04-.87-.05-1.75-.1-2.61-.15l-41.85,32.03-9.3-2.55,50.85-29.49c-46.01-2.59-79.87-4.37-104.41-5.59l259.22,11.52h0l513.01-11.52-19.49,37.64v19.63s-3.89.3-10.97.28Z"/>
              <path class="cls-11" d="m2327.01,1342.97s0,0,0,0v.04c-.13,1.83-.28,3.66-.45,5.47v.16s-.02,0-.02,0c-1.51,15.81-4.87,30.26-12.13,29.16-.67.05-1.49-.27-2.43-.89-4.22-2.29-8.59-8.6-12.71-16.57-1.58-2.76-3.17-5.76-4.73-8.97,0,0,0,0,0,0l-.24-.5c-.33-.68-.65-1.36-.97-2.05l-.08-.18h0c-4.67-10.05-8.96-21.83-11.61-33.87h0c-1.28-4.13-2.01-6.7-2.01-6.7l47.95,2.16s.05,1.57.1,4.18h0l.05,1.9h-.02c.07,6.2.02,16.36-.69,26.66Z"/>
              <path class="cls-11" d="m2822.49,1301.54h90.48c-52.78,27.9-90.48,0-90.48,0Z"/>
              <path class="cls-11" d="m2778.21,1301.54h23.35s-13.96,9.93-23.35,0Z"/>
              <path class="cls-11" d="m2238.02,1339.05l-.12.1c-2.63,2.22-5.37,4.46-8.19,6.69l-.34.28s0,0-.01,0c-20.45,16.05-45.53,31.1-68.07,31.62-2.45.35-4.88.43-7.22.13-22.65-2.92-54.85-26.16-75.15-54.48l-.18-.24s0,0,0,0c-4.76-6.66-8.86-13.6-12.01-20.62h0c-1.18-2.03-1.81-3.21-1.81-3.21l205.58,8.32s-13.33,15.18-32.49,31.41c0,0,0,0,0,0Z"/>
              <path class="cls-11" d="m1943.77,1335.32l-.09.04c-2.05.87-4.19,1.75-6.39,2.63l-.26.11s0,0,0,0c-15.96,6.31-35.54,12.23-53.13,12.44-1.92.14-3.81.17-5.63.05-17.68-1.15-42.81-10.29-58.66-21.43l-.14-.09s0,0,0,0c-3.71-2.62-6.91-5.35-9.38-8.11h0c-.92-.8-1.41-1.26-1.41-1.26l160.46,3.27s-10.4,5.97-25.36,12.35c0,0,0,0,0,0Z"/>
            </g>
            <g>
              <g>
                <path class="cls-6" d="m2977.36,1249.45l-4.96-.56c.25-2.21,24.81-222.53,11.46-397.32l4.98-.38c13.38,175.26-11.23,396.05-11.48,398.25Z"/>
                <path class="cls-3" d="m3050.33,969.44c-13.06-10.37-24.76-27.31-34.56-45.35l4.59-13.37-7.37,8.1c-12.97-25.07-22.24-51.22-26.49-64.11-1.7-5.18-2.61-8.22-2.61-8.22,1.59,1.08,3.17,2.18,4.67,3.31.34.23.68.48,1.02.74,57.05,42.89,60.74,118.9,60.74,118.9Z"/>
                <path class="cls-3" d="m2985.29,845.99c-.08.37-.99,3.31-2.58,8.19-4.25,12.89-13.51,39.04-26.49,64.11l-7.37-8.1,4.59,13.37c-9.8,18.05-21.5,34.99-34.56,45.35,0,0,1.98-40.68,25.38-79.29l14.62-6.54-11.16,1.05c8.13-12.24,18.56-24.08,31.9-34.11.34-.26.68-.51,1.02-.74,1.5-1.13,3.06-2.24,4.65-3.29Z"/>
                <path class="cls-3" d="m2988.66,854.43l-2.15.28-37.82,4.9v-13.12l-5.27,13.8-34.84,4.5,3.23-7.76-4.65,7.96-26.09,3.37c34.53-41.33,78.22-31.81,97.51-24.67l.08.03c2.89,1.08,5.24,2.1,6.91,2.89.88.4,1.56.74,2.04.99.06.03.08.03.11.06.4.2.65.34.77.4l.06.03.03,1.67v.06l.09,4.62Z"/>
                <path class="cls-2" d="m3122.03,908.22l-62.46-27.11-3.8-9.57-.54,7.71-64.9-28.16-.74-.54-1.02-.79-2.38-1.78c.08-.03.17-.03.25-.06.2-.06.48-.14.91-.26h.03c.06,0,.14-.03.23-.06.23-.03.51-.11.82-.17,1.3-.31,3.17-.74,5.47-1.19.03,0,.08-.03.11-.03,12.32-2.46,37.45-6.29,61.76-2.75,13.12,1.9,25.98,11.98,36.8,23.63l-19.35,1.27,22.41,2.12c15.67,17.79,26.4,37.73,26.4,37.73Z"/>
                <path class="cls-2" d="m2988.55,848.08l-.06-.03-.99-.34-.11-.06h-.03l-1.56-.54-3.91-1.39-3.23-2.01-.08-.03-46.15-28.47,8.75-9.12-8.84-5.41-14.65,5.44-46.46-28.64s71.81-9.29,90.85,7.34c.26.23.51.45.77.71l-2.35,15.16,6.15-11.05c11.02,13.57,17.34,36.8,20.14,49.49v.03c.91,4.05,1.44,7.03,1.64,8.27,0,.03.03.06.03.09.06.37.08.57.08.57Z"/>
                <path class="cls-2" d="m3041.97,811.48l-4.16.62,8.19,11.81c-16.26,9.18-34.45,17.73-51.9,22.27-.08.03-.14.03-.2.06-1.81.45-3.63.91-5.44,1.27-.23.06-.48.11-.74.14-.06.03-.14.03-.23.06-.34.06-.71.14-1.05.2-.08.03-.17.03-.25.06l-.4-.85-.23-.51-1.1-2.44s.79-1.93,2.32-5.01v-.03c4.62-9.21,16.03-28.61,33.65-36.86,8.41-3.91,20.93-6.88,33.51-9.07l-4.76,7.48,8.56-8.1c21.3-3.48,41.73-4.76,41.73-4.76,0,0-18.61,15.18-43.91,30.48l-13.6-6.83Z"/>
              </g>
              <path class="cls-4" d="m3150.13,1324.41h-1412.91s909.1-60.29,1412.91-90.14v90.14Z"/>
              <path class="cls-2" d="m3150.13,1239.49l-811.18,44.8s121.31-4.06,811.18-60.38v15.58Z"/>
              <g>
                <path class="cls-2" d="m2514.55,962.67s-.65.57-1.81,1.7c-.31.28-.62.59-.99.96-4.56,4.5-14.05,14.7-23.68,30-5.92,9.38-11.9,20.71-16.77,33.82l-8.07-12.15,6.35,16.94c-3.23,9.38-5.86,19.58-7.54,30.59,0,0-20.65-36.97-.79-73.57,10.14-18.67,23.8-25.67,34.76-28.02h.03c4.14-.91,7.9-1.13,10.93-1.11.11,0,.25,0,.37.03h.54c1.39.06,2.61.17,3.6.28,1.95.23,3.09.51,3.09.51Z"/>
                <path class="cls-6" d="m2584.45,1250.56l-4.99-.08c.03-2,2.27-201.22-74.6-292.23l3.81-3.22c78.07,92.44,75.81,293.51,75.77,295.53Z"/>
                <path class="cls-2" d="m2510.96,957.88s-.25.26-.74.77l-2.86,3.23h-.03c-.11.11-.23.25-.34.4,0,.03-.03.03-.03.03v.03h-.03s-4.33.51-10.91.62h-.03c-8.1.17-19.55-.28-30.59-2.92l3.91-10.68-6.77,9.94c-5.72-1.59-11.22-3.8-16.01-6.88-3.91-2.52-7.37-5.33-10.34-8.27l13.06-2.83h-15.81c-11.61-12.66-15.69-26.26-15.92-27.11.6.08,20.43,3.99,41.98,11.56l9.8,20.74-4.99-19.01c17.22,6.46,34.73,15.18,43.68,26.2,1.13,1.36,2.12,2.75,2.95,4.19Z"/>
                <path class="cls-2" d="m2570.05,927.86l-16.96-3.55,14.77,4.74-21.05,11.59-15.44-3.26,9.58,6.49-21.02,11.59s-.06.03-.08.03l-8.33,4.59-.28.14-3.37,1.67h-.03l-.85.4s-.03.03-.03.03v.03h-.03s0-.17.03-.48c.06-1.13.31-4.16,1.05-8.16,2.04-10.79,7.79-28.58,24.02-35.13,27.65-11.13,75.1-11.13,75.1-11.13l-37.08,20.42Z"/>
                <path class="cls-3" d="m2511.32,998.17l-11.7-1.93,10.76,11.78c-.45,4.25-.99,8.41-1.56,12.49l-5.52-3.51,4.87,8.05c-3.68,24.33-8.56,43.46-8.56,43.46,0,0-16.86-52.69-11.56-73.17.08-.28.14-.54.23-.79,4.11-13.71,13.31-25.95,18.64-32.21h.03v-.03s.03,0,.03-.03c.11-.14.23-.28.34-.4,1.02-1.19,1.87-2.15,2.49-2.8.74-.79,1.13-1.19,1.13-1.19.09.51.14,1.05.2,1.56.03.26.08.51.08.76.09.65.17,1.3.23,1.95.06.6.11,1.19.17,1.81.06.45.09.91.11,1.36.79,10.26.51,21.59-.42,32.83Z"/>
                <path class="cls-3" d="m2600.05,994.94l-47.59-16.66-2.46-12.27v11.39l-37.25-13.03-1.1-.4-4.67-1.64v-.03s.03,0,.03-.03c.09-.06.25-.2.51-.4.65-.51,1.87-1.39,3.65-2.44,2.15-1.27,5.1-2.75,8.78-3.99,8.92-3.12,22.15-5.01,38.75.37,32.24,10.48,41.36,39.12,41.36,39.12Z"/>
              </g>
              <g>
                <path class="cls-6" d="m2909.55,1238.03c-.32-1.33-32.8-133.49-142.01-191.27l2.33-4.41c111.24,58.86,144.21,193.18,144.53,194.53l-4.85,1.15Z"/>
                <path class="cls-2" d="m2822.12,994.39l-11.21-5.52-7.56,6.76,9.06,6.61c-1.49,1.29-2.94,2.57-4.33,3.87-2.73-2.99-8.57-8.83-9.04-9.28l5.6,12.55c-13.42,12.97-22.02,25.19-26.35,32.06v.03c-2.3,3.61-3.41,5.75-3.41,5.75,0,0-.09-.2-.28-.58v-.03c-.17-.34-.4-.83-.66-1.53-.01-.04-.03-.08-.06-.13-.03-.08-.06-.19-.09-.27-.14-.35-.27-.73-.44-1.16-1.05-3.01-2.34-7.75-2.59-13.59v-.03c-.48-11.26,2.82-26.56,18.92-41.18,30.79-28.04,71.61-16.76,71.61-16.76-15.19,6.29-28.19,14.17-39.17,22.43Z"/>
                <path class="cls-2" d="m2770.77,1029.89v.03c3.83,5.33,6.43,9.68,7.48,11.52h.03c.33.62.5.92.5.92l-1.29,5.84c-1.03.1-2.05.13-3.09.12-.28-.01-.56-.02-.84-.03h-.03c-1.22-.04-2.43-.14-3.68-.31-.36-.05-.71-.1-1.09-.16-7.66-1.18-16.04-4.48-24.42-8.83-28.32-14.76-56.57-41.79-56.57-41.79,0,0,14.8-5.25,33.27-2.42l9.61,14.42-3.19-13.09c2.74.65,5.5,1.54,8.29,2.66,14.8,5.92,27.36,20.5,35.01,31.12Z"/>
                <path class="cls-2" d="m2774.9,1044.15h-.04s-.98.79-.98.79l-3,2.31-1.02.73h-.03s-6.94,4.85-6.94,4.85t-.05.04l-29.78,20.8-4-7.65.66,10.02-3.31,2.29-2.68-9.69-9.55,8.75,1.73,8.3-34.5,24.1s20.94-42.55,43.13-62.44c5.88-5.28,12.91-7.63,19.8-8.35,12.6-1.28,24.8,2.86,29,4.52,1,.4,1.55.64,1.55.64Z"/>
                <path class="cls-3" d="m2831.66,1032.1l-6.4,6.32,9.23-4.39c15.18,10.98,28.91,27.42,28.91,27.42,0,0-7.85.43-19.71.02l-6.95-13.14-9.69-1.55,5.23,14.07c-17.33-1.3-39.1-4.53-57.91-12.24v.03c-.29-.14-.53-.22-.81-.36h-.03c-.72-.27-1.45-.6-2.15-.91,0,0,.91-.88,2.56-2.31.29-.27.59-.56.96-.85.93-.8,2.07-1.76,3.35-2.77h.03s0,.01.01-.01c6.73-5.34,17.77-12.88,29.92-16.41,6.74-1.96,15.17,1.56,23.45,7.09Z"/>
                <path class="cls-3" d="m2774.9,1044.15v.06s-.29,2.38-.29,2.38l-.22,1.72-.04.33-4.24,34.98-7.8,3.99,7.33-.21-6.61,54.68s-21.66-20.86-16.8-54.4c2.49-17.18,9.97-28.21,16.65-34.87,2.09-2.07,4.13-3.71,5.87-5,2.19-1.57,3.96-2.6,5.02-3.15.58-.28.95-.45,1.07-.51h.04Z"/>
              </g>
              <path class="cls-2" d="m3138.15,1240.15l-396.83,21.27s64.62-76.52,144.36-122.66l45.64,40.88,8.41-5.78-13.97-54.9c41.67-16.71,85.1-21.47,124.08-.93l-21.7,105.89,28.27-102.12c4.62,2.8,9.21,6.01,13.68,9.63l-17.82,55.72,22.04-52.18c24.45,21.3,46.32,55.04,63.82,105.18Z"/>
              <path class="cls-2" d="m2711.12,1263.64l-207.99,11.45c27.05-20.37,50.06-34.96,69.6-45.04l41.5,20.48-23.2-29.09c94.36-39.55,92.52,41.95,92.52,41.95,28.64-36.97,27.56.25,27.56.25Z"/>
              <path class="cls-2" d="m3150.13,1209.87v29.63l-439.01,24.14s28.87-44.7,69.24-71.02l27.71,34.79-24.93-36.57c11.27-7.03,23.43-12.52,36.03-15.18l11.98,58.64,43.2,2.24,5.18-55.01c5.78,1.78,11.59,3.82,17.37,6.03l-11.27,39.86,20.34-36.18c49.15,20.59,93.57,52.18,93.57,52.18,85.55-39.77,150.59-33.54,150.59-33.54Z"/>
              <polygon class="cls-2" points="2503.13 1275.08 2460.26 1234.27 2450.95 1237.45 2503.13 1275.08"/>
              <polygon class="cls-2" points="2683.56 1263.38 2687.78 1210.6 2695.35 1210.6 2685.15 1263.64 2683.56 1263.38"/>
              <path class="cls-2" d="m1808.67,1319.69s94.97-45.05,160.46-.5l-160.46.5Z"/>
              <path class="cls-2" d="m1973.96,1319.69s18.25-12.92,30.06,0h-30.06Z"/>
              <path class="cls-2" d="m2063.93,1303.51s34.77-81.57,84.75-96.15c49.98-14.57,120.83,85.8,120.83,85.8l-205.58,10.35Z"/>
              <path class="cls-2" d="m2278.63,1292.63s19.11-83.78,34.78-86.71c15.67-2.93,13.17,84.02,13.17,84.02l-47.95,2.68Z"/>
              <path class="cls-2" d="m2821.49,1300.74s37.7-34.69,90.48,0h-90.48Z"/>
              <path class="cls-2" d="m2800.56,1300.74s-13.96-12.35-23.35,0h23.35Z"/>
              <polygon class="cls-2" points="3150.13 1319.19 1746.36 1323.81 3150.13 1324.41 3150.13 1319.19"/>
              <path class="cls-1" d="m2065.74,1299.52s85.45-.32,120.42-20.17c34.97-19.86-5.04-77.99-33.08-73.5-28.04,4.49-70.71,47.69-87.34,93.67Z"/>
              <path class="cls-1" d="m2280.64,1284.3s23.04,4.49,35.96-15.04c12.92-19.53,3.09-62.72-3.18-63.34-6.27-.62-25.57,37.66-32.77,78.38Z"/>
              <path class="cls-1" d="m1815.36,1316.82s121.6,4.39,142.86-4.1c0,0-51.76-34.35-142.86,4.1Z"/>
            </g>
            <polygon class="cls-5" points="3150.13 1324.41 1737.22 1324.41 1684.25 1324.41 3150.13 1329.85 3150.13 1324.41"/>
          </g>
        </g>
      </g>
    </g>
  </g>
</svg>