<?xml version="1.0" encoding="UTF-8"?>
<svg id="Layer_2" data-name="Layer 2" xmlns="http://www.w3.org/2000/svg" viewBox="0 0 351.2 182.17">
  <g id="layer1">
    <g>
      <path d="m16.35,149.43c1.16.2,3.01.54,3.21,1.12.86,2.52,4.82,4.72,1.55,7.81-.27.25-.12.84-.05,1.27.82,5.79,5.39,10.08,12.31,11.55,1.51.32,3.05.55,4.54.81.1,1.81-.48,3.33-1.58,4.43,2.78.39,5.55.76,8.32,1.11,2.38.23,4.76.45,7.15.6,8.06.54,16.11,1.08,24.17,1.59,1.8.03,3.63.18,5.59.34,10.83.65,21.67,1.22,32.52,1.61,20.76.73,41.52.62,62.28-.03,35.73-1.13,71.54-2.59,107.09-5.9-.54-.42-1.02-.91-1.41-1.4-.22-.28.83-1.46,1.57-1.98,1.35-.95,2.82-1.82,4.38-2.53,4.72-2.13,9.49-4.17,14.25-6.23.27-.12.59-.16,1.27-.35-1.51-.42-2.24-.62-3.7-1.03,5.65-2.5,10.68-4.76,15.78-6.91.43-.18,1.31.37,1.97.58-.34.47-.68.95-.87,1.2,3.48,1.11,1.59,4.8,4.19,7.16-.83-2.95-1.21-5.46-2.27-7.76-.92-1.99.07-2.78,1.99-3.25,8.65-2.12,17.32-4.16,25.98-6.26,1.45-.35,2.85-.84,4.28-1.26l-.46-1.27c-1.79.33-3.62.57-5.38,1-2.08.51-3.4.39-4.45-1.54-1.28-2.35-2.88-4.68-4.89-6.66-10-9.84-19.48-20.13-30.43-29.21-24.37-20.2-49.51-39.77-74.32-59.62-3.1-2.49-5.41-5.27-3.55-9.36-2.75-.23-5.34-.48-7.94-.65-3.15-.2-3.47-.59-2.32-3.4,2.83.67,5.67,1.35,9.37,2.23-1.52-4.02-2.8-7.37-4.05-10.73-.27-.72-.85-1.59-.59-2.18.72-1.66-.3-2.12-1.9-2.15-3.52-.06-4.46-1.66-4.06-4.23.11-.68.19-1.44-.07-2.06-.3-.7-1.01-1.27-1.54-1.9-.62.64-1.67,1.24-1.78,1.94-.26,1.67-.08,3.38-.08,5.38h-6.52c.86,1.08,2.12,1.95,1.96,2.56-1.11,4.09-2.49,8.14-3.89,12.18-.13.36-1.01.52-1.5.83-.51.32-.97.69-1.44,1.04.56.4,1.17.76,1.68,1.2.66.58,1.83,1.27,1.76,1.83-.33,2.82-.8,5.65-1.58,8.42-1.01,3.56-2.35,7.06-3.43,10.21,3.43-.69,7.04-1.46,10.68-2.12,1.76-.32,3,.31,2.8,1.92-.14,1.09,1.06,2.98-1.65,2.91-1.03-.03-2.02-1-3.02-1.53.84,1.29-.61,1.53-2.41,1.39-2.94-.23-5.87-.54-8.81-.7-.71-.04-1.46.38-2.19.6.34.45.72.89,1.03,1.36.39.61,1.09,1.27,1.02,1.86-.36,2.83-.63,5.7-1.49,8.45-1.45,4.65-3.31,9.21-5.05,13.96.76-.17,1.53-.39,2.32-.5,4.76-.61,9.52-1.22,14.29-1.75.84-.09,1.73.26,2.6.28,1.04.02,2.85-.35,2.98-.09.45.88.6,2.05.25,2.94-.17.43-1.73.71-2.65.7-6.64-.09-13.29-.31-19.93-.42-1.26-.02-2.52.31-3.78.49.03.33.07.66.1.99.74.1,1.5.36,2.21.29,2.73-.29,3,1.01,2.72,2.69-.2,1.19-.39,2.38-.72,3.55-1.87,6.68-3.07,13.65-11.08,18.02.42.21.9.67,1.37.66,2.29-.05,2.63,1.14,2.5,2.56-.29,3.18-.31,6.42-1.07,9.53-.92,3.78-2.5,7.46-3.79,11.18-.21-.08-.42-.15-.63-.23-3.87-8.95-7.73-17.9-11.62-26.9,1.45-.18,3.1-.38,4.75-.58.03-.27.05-.54.08-.81-.88-.2-1.75-.54-2.64-.58-8.42-.39-16.84-.81-25.27-1.03-2.85-.07-2.93-1.36-2.93-3.06,0-1.76.56-3,3.09-2.55,6.87,1.22,13.73,2.5,20.59,3.77.84.15,1.67.4,3.64.88-2.21-8.62-4.22-16.46-6.22-24.28,1.29-.14,3.01-.33,4.74-.52.08-.22.16-.45.24-.67-3.69-.91-3.54-3.33-4.05-5.67-1.31-6.08-2.16-12.27-5.61-17.91-.21-.35-.42-.94-.21-1.18,2.27-2.64-.71-2.22-2.16-2.37-4.67-.49-9.37-.84-14.18-1.25-.08-.61-.15-1.1-.22-1.6-.54-4.05-.13-4.4,4.57-3.15,3.77,1,7.41,2.3,11,3.43,1.54-1.05-1.51-3.96,1.5-3.68-.29-.31-1.27-.93-1.53-1.71-1.72-5.06-3.34-10.15-4.87-15.25-.39-1.3-.36-2.69-.6-4.8-1.55-.15-4.07-.48-6.61-.63-3.95-.23-4.34-.63-3.13-4.11,3.01.85,6.01,1.7,9.85,2.78-1.56-4.58-2.92-8.53-4.24-12.5-.24-.71-.65-1.6-.34-2.17.94-1.74,0-2.29-1.85-2.29-3.77,0-4.89-1.68-4.48-4.48.09-.59.19-1.3-.11-1.8-.45-.72-1.25-1.28-1.9-1.91-.53.64-1.43,1.24-1.52,1.92-.22,1.67-.07,3.37-.07,5.29-1.55-.14-2.48-.29-3.4-.29-.77,0-1.54.19-2.32.3.37.5.83.98,1.08,1.52.29.6.7,1.33.54,1.89-1.42,4.74-2.95,9.46-4.44,14.18,0,0,.02,0,.03,0,0,0,.02,0,.03,0,2.34-1.61,4.8-2.98,8.44-2.66.09.85.26,1.67.21,2.49-.02.35-.52,1-.73.98-2.65-.21-5.28-.52-7.92-.81-.03.02-.05.03-.07.05,0-.01,0-.03.01-.04-.86.34-1.71.67-2.57,1,1.04.6,2.08,1.21,3.47,2.02.16,7.61-2.45,15.16-5.37,22.68,2.95-.88,5.51-1.64,8.2-2.44.83,4.9.59,5.15-4.47,4.87-1.57-.09-3.14-.41-4.71-.45-1-.02-2,.29-2.24.33.4,1.98,1.15,3.5.91,4.9-1.03,6.14-2.16,12.29-5.82,17.87-.41.63-.44,1.42-.72,2.41,1.21-.19,2-.35,2.81-.45,5.71-.69,11.41-1.4,17.13-2.03,3.4-.37,2.54,1.8,2.73,3.3.24,1.91-1.18,2.03-3,1.98-6.75-.15-13.5-.24-20.24-.29-.9,0-1.8.28-2.7.43.59.89,1.23,1.32,1.81,1.29,2.83-.18,3.16.95,2.65,2.88-.64,2.43-.67,5.01-1.64,7.34-1.87,4.51-4.21,8.89-6.3,13.21,8.56-2.47,17.77-2.91,27.05-3.11,2.99-.06,2.72,1.45,2.83,3.06.13,1.84-.49,2.71-3,2.57-3.35-.18-6.71-.39-10.08-.49-5.59-.16-11.18-.46-16.77-.63-1.2-.04-2.41.25-3.62.39l-.52.8c5.74.47,4.33,3.73,4.09,6.19-.47,4.81-1.04,9.65-2.21,14.36-2.52,10.14-7.43,19.63-12.57,29.03-.66,1.2-1.14,2.47-1.91,4.18,13.04-4.45,26.1-5.68,39.24-6.3,8.49-.41,8.47-.11,7.96,6.91-.11,1.55-.76,2.17-2.69,2.06-3.27-.19-6.55-.31-9.82-.37-12.99-.22-25.98-.43-38.97-.59-2.09-.03-2.97-.84-3.47-2.39-.23-.71-1.08-1.83-1.68-1.84-3.23-.06-3.04-1.88-3.05-3.6-.07-8.31-.07-16.63-.18-24.94-.24-19.93-.51-39.85-.78-59.78-.12-8.62-.29-17.24-.43-25.86-.02-1.21-.17-2.45.05-3.63.12-.65.9-1.22,1.25-1.66-1.97-.33-1.35-2.08-1.37-3.38-.11-6.83-.05-13.66-.21-20.49-.02-.76-1.09-1.51-1.67-2.26-.61.73-1.56,1.4-1.75,2.2-.63,2.61-.47,5.41-1.52,7.87-4.14,9.7-9.73,18.87-17.54,26.91-3.82,3.93-8.78,7.15-13.42,10.5-.89.65-2.69.47-4.07.65-.73.09-1.47.13-2.2.19.44.49.76,1.24,1.33,1.42,2.92.9,3.24,2.69,3.37,4.97.6,10.13-2.21,19.76-6.12,29.23-6.96,16.83-17.45,32.22-29.13,47.09-.67.85-2.39,1.15-3.5,1.65-.16-.09.08.08.35.21,4.95,2.4,10.65,1.71,15.96,2.66Zm200.93-36.77c.15-.47,1.18-1.16,1.66-1.09,7.11,1.08,14.2,2.27,21.29,3.45.25.04.46.27,1.19.72-3.1,0-5.66.05-8.22-.01-4.42-.11-8.84-.31-13.27-.44-2.15-.06-3.18-.91-2.65-2.64Zm.33-27.52c5.67,1.18,11.15,2.32,16.62,3.47-.05.38-.1.76-.16,1.14-1.15,0-2.31.03-3.46,0-3.36-.1-6.72-.25-10.09-.32-3.72-.08-3.9-.26-2.93-4.28Zm24.72,1.5c-4.36-3.22-5.01-7.3-5.59-11.64,10.54,8.35,19.3,17.79,25.65,28.77-2.21-1.81-4.46-3.58-6.61-5.44-4.49-3.9-8.62-8.11-13.45-11.69Zm.47,2.96c-3.51.1-4.07-.74-3.62-5.08,1.37,1.93,2.37,3.32,3.62,5.08Zm86.24,52.8l11.63,2.8c0,.38,0,.75.01,1.13-2.71.59-5.41,1.27-8.15,1.72-.49.08-1.41-.62-1.77-1.14-.87-1.22-1.52-2.55-2.26-3.83.18-.22.36-.45.54-.68Zm.93,5.41l.11.8c-3.23.74-6.56,1.3-9.68,2.28-4.17,1.31-7.41,1.11-9.57-2.53-.66-1.11-1.83-2.02-3.35-3.65,8.4.03,15.75.24,22.5,3.1Zm-48.43,1.47c8.61.32,17.21.71,25.8,1.22,1.64.1,3.21.89,4.82,1.37-.03.3-.06.61-.09.91-4.87.89-9.7,2.01-14.62,2.63-14.65,1.83-29.3,3.63-44.01,5.12-9.49.96-19.06,1.37-28.59,2.02-.11,0-.21,0-.31.01-2.13.07-4.26.14-6.39.21-.1-2.75-.29-5.5-.18-8.24.01-.35,1.64-.99,2.47-.94,10.7.69,21.4,1.46,32.09,2.26,1.86.14,3.7.48,5.77.76v-5.31c-.41-.58-1.01-1.13-1.2-1.75-3.13-10.51-7.21-20.73-13.91-30.14-.24-.34-.32-.77-.54-1.35,1.8-.2,3.37-.38,4.4-.5-.94-2.48-1.8-4.75-2.67-7-2.18-5.67-4.37-11.33-6.56-16.99-.19-.48-.39-.95-.71-1.76,2.42-.09,4.56-.17,7.02-.26,10.28,18.91,14.68,38.78,14.7,59.39,5.08-.45,10.16-.94,15.25-1.34,2.47-.2,4.98-.41,7.46-.32Zm-64.36-91.51c5,1.3,9.96,2.58,15.6,4.03-1.07-4.4-2.07-8.56-3.08-12.75,7.52,2.11,41.74,37.72,45.28,47.98-1.51-1.01-3.02-2.02-4.54-3.02-11.2-7.36-22.41-14.7-33.56-22.1-1.26-.84-2.39-1.96-3.16-3.12-1.41-2.11-1.29-2.17.72-4.45-3.35-.33-6.37-.64-9.39-.93-1.36-.13-2.73-.21-4.08-.34-4.95-.49-5.08-.66-3.79-5.32Zm-5.02-20c-2.5-.16-5.01-.33-7.52-.49-.02-.28-.05-.55-.07-.83,1.39-.5,2.73-1.13,4.18-1.47,3.68-.88,3.93-.65,3.42,2.79Zm-2.03,73.86c.52,2.01.33,1.56-1.97,2.21-6,1.69-11.98-.06-17.94.39-1.2.09-2.45-.26-4.02-.45,3.91-1.85,16.73-2.91,23.93-2.14Zm-61.86,44.04c5.67.17,11.34.6,16.98,1.07.94.08,1.78.97,2.18,1.21,4.92.24,9.61.46,14.54.7-.2-2.31,1.81-3.16,4.28-3.36,7.5-.62,15.01-1.13,22.81-1.71.11,1.79.21,3.25.3,4.71.05,0,.1,0,.15,0,0-1.04-.18-2.1.07-3.09.15-.58.99-1.48,1.5-1.47.96.02,2.7.54,2.73.94.23,2.74.13,5.5.07,8.25,0,.2-.58.4-1.66,1.09-.13-2.26-.22-3.98-.31-5.69,0,.09,0,.18,0,.27-.39,6.64,1.57,4.62-8.5,5.46-.12-.82-.25-1.65-.26-1.71-.34.35-1.1,1.14-1.86,1.92-.6-.63-1.2-1.26-1.29-1.35-.63.37-1.56,1.35-2.65,1.48-2.91.34-5.88.39-8.83.41-.84,0-1.99-.31-2.49-.81-1.76-1.75-3.95-1.96-6.52-1.92-8.96.15-17.93.05-26.89.28-2.05.05-4.05,1.06-6.1,1.57-1.35.34-2.86.96-4.08.72-.65-.13-1.11-1.82-1.18-2.82-.45-6.24-.4-6.35,7.04-6.13Zm-7.89-79.69c7.74.3,14.45,2.01,20.96,4.53-.2.34-.28.6-.36.6-6.2-.02-12.41,0-18.6-.18-.69-.02-1.63-1.06-1.91-1.77-.33-.85-.08-1.85-.08-3.19Zm-4.33-22.17c-1.72-.43-3.85-.52-4.11-1.13-.48-1.16-.23-2.75.41-3.9.34-.62,2.13-.7,3.7-1.15v6.18Zm-62.14,105.12c-7.66,0-15.23.17-22.78-.05-7.37-.21-14.71-.95-22.07-1.19-2.75-.09-4.28-.84-5.11-2.93-.57-1.44-1.42-2.81-2.42-4.73,3.84.35,7.03.62,10.21.94,13.04,1.32,26.06,2.75,39.11,3.93,3.32.3,3.88,1.48,3.06,4.03Zm-.39-63.41c.18,8.92.35,17.83.47,26.75.01.93-.32,1.87-.5,2.8,0,3.26.01,6.51.01,9.77.33,3.65.66,7.3.98,10.95-2.09-2-2.89-7.72-2.02-10.16-.19-3.13-.37-6.26-.56-9.39-.16-.31-.46-.63-.45-.95.29-10.52.61-21.04.93-31.56.28,0,.55-.02.84-.03.1.6.3,1.2.31,1.81Zm-.61-61.15v35.22c-2.11-3.34-2.63-27.98,0-35.22Zm-4.65,41.38c-9.49-4.06-18.63-7.98-28.05-12.02,6.32-1.86,27.23,6.95,28.05,12.02Zm-1.87,73.84c2.27.25,4.35.33,6.3.78.65.15.98,1.23,1.46,1.89-.81.34-1.67,1.03-2.42.96-7.64-.68-15.25-1.51-22.88-2.25-13.47-1.31-26.94-2.58-40.41-3.88-1-.1-1.99-.33-2.98-.5,15.68-3.44,60.1-.4,60.94,3Z"/>
      <path d="m220.01,24.89c-3.83,3.33-9.56,4.67-14.85,5.63-5.55,1-11.22,1.43-16.87,1.89-7.77.63-15.39.88-23.19.38-8.3-.53-16.52-1.63-24.78-2.39-.17-.01-.21.23-.03.25,8.26.95,16.5,2.06,24.82,2.63,8.01.55,15.85.23,23.83-.4,5.77-.46,11.55-.95,17.21-2.01,4.98-.93,10.82-2.33,14.28-5.64.24-.23-.16-.56-.42-.34Z"/>
      <path d="m214.24,13.46c-2.75,3.98-7.93,6.4-12.79,8.36-5.1,2.06-10.48,3.59-15.83,5.13-7.37,2.13-14.69,3.86-22.42,4.89-8.21,1.1-16.51,1.64-24.76,2.51-.17.02-.13.26.04.25,8.3-.69,16.63-1.22,24.87-2.29,7.94-1.03,15.46-2.86,23.03-5.04,5.47-1.57,10.94-3.18,16.14-5.31,4.57-1.87,9.84-4.38,12.23-8.26.17-.28-.32-.52-.51-.25Z"/>
      <path d="m141.4,148.92c-8.27-2.88-15.9-6.63-23.01-11.14-3.59-2.28-7-4.73-10.28-7.3-3.1-2.43-5.79-5.15-8.81-7.64-6.18-5.08-11.58-10.75-16.2-16.82-2.35-3.09-4.48-6.29-6.47-9.55-1.77-2.91-2.87-5.95-4.25-8.99-1.66-3.65-3.68-7.45-7.07-10.26-.15-.13-.38.07-.23.2,2.75,2.36,4.5,5.4,5.97,8.39.69,1.39,1.3,2.8,1.89,4.22.51,1.23.86,2.6,1.53,3.78,3.73,6.57,8.05,12.9,13.25,18.76,2.43,2.74,5.07,5.36,7.85,7.87,2.87,2.58,5.73,5.18,8.68,7.7,6.14,5.26,12.99,9.99,20.35,14.06,5.16,2.86,10.69,5.46,16.62,7.09.28.08.46-.29.19-.39Z"/>
      <path d="m139.11,124.79c-2.18,4.21-7.82,6.42-12.68,8.05-5.7,1.9-11.7,3.13-17.65,4.38-7.1,1.49-14.02,3.46-21.09,5.03-9.98,2.21-20.18,3.71-30.54,3.66-.81,0-1.62-.02-2.42-.04-.18,0-.17.21,0,.22,9.96.62,19.92-.72,29.57-2.65,7.7-1.54,15.17-3.72,22.83-5.35,5.83-1.24,11.7-2.4,17.37-4.07,4.92-1.45,10.39-3.34,13.71-6.81.64-.67,1.13-1.42,1.46-2.23.11-.26-.42-.44-.56-.19Z"/>
      <path d="m123.64,161.42c-.11-3.86-.66-7.7-1.23-11.54-.02-.17-.35-.17-.32,0,.46,3.68.79,7.38.91,11.08.07,1.97.02,3.95-.14,5.92-.15,1.89-.64,3.74-.88,5.62-.03.26.45.27.53.05,1.39-3.45,1.23-7.55,1.13-11.14Z"/>
      <path d="m131.1,174.7c-2.16-4.01-2.28-7.99-1.91-12.3.34-3.93.89-7.9-.04-11.8-.06-.26-.54-.14-.48.12.94,4.3.08,8.66-.28,12.97-.3,3.7-.38,8.04,2.14,11.3.23.31.73.03.57-.28Z"/>
      <path d="m115.69,163.64c.42-4.06,1.15-8.11,1.1-12.2,0-.27-.5-.26-.51,0-.1,4.08-.84,8.14-1.32,12.2-.24,1.99-.41,3.99-.42,6-.01,1.71-.02,3.66.76,5.27.11.23.6.21.57-.07-.18-1.75-.53-3.45-.55-5.21-.03-2,.16-4.01.37-6Z"/>
      <path d="m235.33,91.87c-7.78,2.25-15.81.88-23.28-1.52-3.65-1.17-7.16-2.63-10.62-4.13-3.21-1.39-6.5-2.55-9.81-3.76-13.36-4.87-27.48-10.61-35.92-20.82-.13-.16-.46,0-.32.16,8.44,10.31,22.56,16.11,35.97,21.05,3.46,1.27,6.87,2.52,10.22,3.99,3.51,1.55,7.09,3,10.8,4.21,7.26,2.38,15.64,3.79,23.16,1.39.43-.14.24-.7-.2-.57Z"/>
      <path d="m182.1,95.3c-2.37-1.42-4.99-2.55-7.34-4.01-2.18-1.36-4.22-2.86-6.19-4.43-4.16-3.33-7.84-7.08-11.22-10.95-.08-.09-.25,0-.18.09,3.33,3.97,6.88,7.76,11.02,11.19,2.04,1.7,4.25,3.27,6.56,4.72,2.19,1.38,4.61,2.89,7.19,3.73.25.08.34-.22.16-.33Z"/>
      <path d="m269.45,159.84c-3.84,3.72-9.74,4.85-15.45,5.1-6.68.29-13.42-.6-19.93-1.75-5.64-1-11.62-2.06-16.98-3.86-3.87-1.3-7.32-3.2-10.7-5.19.09-3.67.25-7.35.41-11.02.37-8.55.54-17.09,1.04-25.64.25-4.33.48-8.66.68-12.99,2.69.81,5.5,1.31,8.33,1.17,2.49-.13,4.73-.93,6.43-2.43.26-.23-.14-.53-.41-.33-4.08,2.95-9.55,2.29-14.28.87,0,0-.02,0-.04-.01.18-3.89.33-7.78.43-11.67.16-6.14.16-12.23.72-18.35.7-.68,1.38-1.38,2.02-2.1,1.92-2.17,3.53-4.52,5.09-6.88,3.05-4.6,5.97-9.11,10.28-13.03.25-.23-.14-.53-.41-.33-1.23.94-2.32,1.98-3.33,3.09,1.12-1.85,1.83-3.86,1.96-6.04.02-.36-.62-.33-.66,0-.83,7.1-7.21,12.13-14.19,15.93.04-1.21.05-2.42,0-3.63-.12-3.15-.59-6.46-2.46-9.26-.1-.16-.39-.01-.29.14,2.46,3.83,2.59,8.54,2.28,12.99-1.74.94-3.52,1.8-5.25,2.6-4.23,1.95-8.82,3.44-12.96,5.5-4.93,2.46-10.58,5.59-16.51,6.01.37-.74.81-1.46,1.35-2.14.12-.15-.16-.27-.29-.13-.64.72-1.16,1.49-1.59,2.31-.06,0-.12,0-.18,0-.14,0-.14.18,0,.18.03,0,.05,0,.08,0-.72,1.41-1.18,2.91-1.56,4.39,0,0,0,0,0,.01-1.29-.86-2.57-1.73-3.83-2.62-3.5-2.46-7.03-5-10-7.9-.33-.32-.66-.63-.98-.94.48-.15.91-.37,1.27-.68.2-.17-.08-.48-.32-.33-.42.25-.9.45-1.41.59-1.41-1.27-2.97-2.37-5.09-2.83-.13-.03-.19.14-.05.17,1.95.48,3.44,1.53,4.78,2.75-2.41.56-5.53.16-7.73.08-4.44-.18-8.89-.11-13.34-.38-1.68-.1-3.35-.26-5.02-.44-.02-.35-.04-.7-.06-1.05-.06-1.68-.05-3.35.02-5.03.36-.58.72-1.15,1.06-1.72,5.36,1.44,11,2.34,16.5,2.14.53-.02.5-.64-.01-.66-4.17-.19-8.21-.5-12.29-1.31-1.27-.25-2.54-.54-3.78-.87.4-.68.79-1.35,1.17-2.03.19-.34-.42-.63-.62-.29-.43.71-.87,1.42-1.3,2.13-.18-.05-.36-.1-.54-.15.44-4.84,1.49-9.64,3.27-14.28.06-.17-.26-.24-.33-.07-1.93,4.62-3.05,9.36-3.55,14.17-.58-.17-1.15-.34-1.73-.52.6-4.8,1.16-9.72-.11-14.44-.04-.17-.36-.09-.31.08,1.14,4.64.56,9.47-.11,14.2-1.46-.46-2.9-.96-4.33-1.49-3.08-1.15-6.06-2.45-8.96-3.87,2.06-3.15,4.09-6.32,6.15-9.47,3.15-4.82,6.66-9.48,9.88-14.27,3.83-2.66,7.46-5.54,11.09-8.35.33-.26-.17-.64-.5-.4-3.24,2.3-6.32,4.75-9.5,7.1,2.51-3.83,5.24-8.02,6.25-12.29.08-.33-.53-.46-.62-.13-.77,2.74-2.22,5.36-3.66,7.9-1.08,1.9-2.24,3.78-3.48,5.62-1.45,1.03-2.92,2.05-4.45,3-6.21,3.87-13.12,6.23-20.42,8.37-2.84.83-5.71,1.62-8.59,2.37-4.05-2.9-7.85-6.05-11.37-9.38-.38-.36-.76-.73-1.14-1.1,5.09-.56,10.11-1.77,14.97-3.05,4.66-1.23,9.21-2.71,13.89-3.88,6.37-1.6,12.96-3.9,18.15-7.38,1.9-1.27,3.79-2.74,4.78-4.62.16-.3-.33-.54-.55-.25-3.74,4.99-10.58,7.83-16.98,9.98-2.84.96-5.84,1.5-8.71,2.38-2,.62-3.99,1.23-6,1.82-5.69,1.67-11.49,3.17-17.43,4.09-.82.13-1.72.26-2.65.38-.86-.85-1.69-1.72-2.51-2.61.04-.02.09-.03.13-.05-.11-.12-.22-.25-.32-.38-.05.02-.1.04-.15.06-3.49-3.86-6.51-8.03-8.63-12.49-.1-.21-.52-.12-.42.1.57,1.37,1.24,2.71,1.99,4.01,0,3.47,1.01,6.83,2.19,10.15-1.09.27-2.21.47-3.35.53-.52-.22-1.01-.49-1.45-.8-.32-.23-.6-.5-.85-.78-.19-.21-.62,0-.43.22,1.52,1.87,4.12,2.59,6.8,2.81,1.09,3.01,2.19,6.02,3.21,9.05.53,1.59,1.11,3.17,1.72,4.73-3.69.8-7.4,1.58-11.14,2.23-1.82.32-3.66.49-5.51.45-1-.02-1.96-.18-2.93-.38-.8-.17-1-.87-.3-1.26.4-.22.43-.27.8-.54.09-.06-.04-.16-.13-.1-.74.52-1.8.73-2,1.58-.01.06,0,.13.08.16,2.89,1.19,6.03,1.13,9.15.71,3.97-.52,7.92-1.45,11.81-2.27.12-.03.24-.05.35-.08,1.95,4.88,4.3,9.64,7.18,14.21-2.33-.61-4.63-1.28-6.88-2.07-3.68-1.28-7.18-2.76-10.07-5.04-1.65-1.31-3.17-2.71-4.75-4.08-.06-.05-.17.02-.12.08,1.28,1.43,2.78,2.75,4.29,4.02,2.57,2.17,5.6,3.56,8.93,4.85,2.91,1.13,5.92,2.05,8.98,2.83,1.93,3,4.11,5.89,6.37,8.74-5.62-1.31-11.06-3.25-16.13-5.6-5.42-2.51-10.99-5.76-14.21-10.24-.05-.06-.17,0-.12.06,2.88,4.47,8.11,7.65,13.29,10.19,5.49,2.71,11.51,4.8,17.69,6.22.77.98,1.56,1.95,2.35,2.93-2.49,2.79-5.23,5.46-7.8,8.2-2.94,3.14-5.87,6.29-8.85,9.41-4.47,4.7-9.04,9.34-13.83,13.82-4.32,4.04-8.99,7.77-13.57,11.61-3.4,2.85-6.86,5.66-10.6,8.22-3.8,2.59-8.63,5.67-13.81,5.76-.1,0-.1.13,0,.13,5.94-.07,11.42-3.84,15.72-6.81,5.11-3.54,9.84-7.57,14.56-11.47,13.51-11.15,24.77-23.96,36.52-36.33.67-.71,1.33-1.42,1.97-2.14,1.15,1.43,2.29,2.86,3.42,4.3,2.46,3.16,4.99,6.29,7.76,9.27-2.59,2.88-5.26,5.7-8.04,8.47-12.69,12.61-27.97,23.5-43.93,33.24-4.01,2.45-7.92,5.03-12.18,7.19-1.76.89-3.82,1.9-5.99,2.64-.24-.78-.57-1.54-1.03-2.28-.14-.23-.53-.02-.4.2.41.74.7,1.49.91,2.26-2.42.77-4.95,1.18-7.35.69-.11-.02-.15.11-.04.14,2.42.54,4.98.22,7.47-.51.86,3.62-.35,7.43-1.94,10.86-1.03,2.2-2.32,4.32-3.64,6.42-1.02,1.61-2.36,3.23-3.06,4.96-.1.24.31.33.47.15.19-.22.37-.45.54-.68.05.03.11.05.19.05,2.63-.08,5.48-1.56,7.65-2.65.19-.1.38-.2.57-.3-.44,1-.9,2-1.39,2.99-1.43.56-2.88,1.08-4.35,1.58-1.83.62-3.76,1.08-5.53,1.78-.39.15-.09.62.29.54,3.09-.6,6.18-1.77,9.1-2.94-.23.43-.46.86-.69,1.28-.6,1.06-1.25,2.11-2.06,3.08-.31.37-1.04,1.26-1.7,1.22-.28-.02-.3.32-.06.38,1.78.44,3.22-2.41,3.78-3.32.61-.99,1.16-2,1.68-3.03.34-.14.69-.28,1.03-.42,3.58-1.45,7.01-3.14,10.23-5.07,6.33-3.79,11.61-8.64,15.85-14.02.14-.18-.2-.33-.34-.16-4.51,5.32-9.82,10.07-16.25,13.87-3,1.77-6.2,3.29-9.5,4.64-.19.07-.38.14-.56.22.49-1.03.95-2.07,1.38-3.12,2.41-1.33,4.67-2.86,6.82-4.46,4.88-3.6,9.6-7.79,12.73-12.56.11-.17-.2-.32-.32-.15-3.18,4.44-7.64,8.35-12.23,11.82-2.09,1.57-4.3,3.04-6.62,4.38.23-.6.46-1.19.69-1.79,1.4-3.71,2.57-7.5,3.29-11.35.08-.44.18-.92.27-1.41,1.25-.17,2.49-.54,3.59-.95,3.48-1.28,6.8-2.91,10.11-4.46,8.68-4.09,17.27-8.3,25.7-12.72,4.08-2.15,8.28-4.26,12.09-6.72,3.53-2.28,6.89-4.74,10.1-7.32,4.16-3.33,8.03-6.88,11.81-10.51-.15,2.6-.49,5.18-.61,7.78-.12,2.77,0,5.97,1.67,8.46.15.22.56.06.48-.17-1.02-2.95-1.57-5.68-1.45-8.75.1-2.63.51-5.25.52-7.89.61-.59,1.21-1.18,1.82-1.77,1.4.88,2.87,1.69,4.4,2.43-.49,1.9-.68,3.87-.7,5.8-.08-.03-.21,0-.21.09-.03,4.2-.87,8.48.94,12.52.07.16.37.08.3-.07-1.63-3.45-1.18-7.16-1.01-10.79.02.4.03.8.06,1.2.25,4.26,1.05,9.41,4.3,12.9.28.3.88.02.63-.31-2.77-3.61-3.67-8.08-4.02-12.26-.24-2.81-.25-5.87.4-8.77,1.65.75,3.36,1.4,5.13,1.93.12.03.22,0,.28-.06-.18,1.74-.32,3.48-.31,5.24.02,3.16.5,7.41,3.67,9.61.29.2.8-.08.55-.36-2.83-2.98-3.5-6.26-3.52-9.98-.02-3.65.62-7.28.58-10.94,0-.23-.43-.22-.43,0-.05,2.03-.28,4.05-.49,6.07-.03-.02-.05-.04-.09-.05-1.81-.65-3.54-1.37-5.19-2.17.35-1.3.83-2.55,1.49-3.73.16-.28-.34-.52-.52-.24-.71,1.15-1.23,2.38-1.62,3.64-1.4-.7-2.75-1.43-4.05-2.24,1.07-1.05,2.15-2.1,3.21-3.15.54-.52,1.09-1.03,1.64-1.54.28.23.61.42,1,.53.33.1.53-.33.23-.47-.29-.13-.54-.31-.74-.53,1.61-1.46,3.28-2.87,4.92-4.31.02.2.04.4.05.6-.02.2.18.3.37.29.19,0,.39-.09.38-.3.02-.4,0-.81-.07-1.23.24-.21.48-.42.71-.63,2.62-2.37,5.39-5.15,5.92-8.44.05-.29-.47-.41-.54-.11-.81,3.33-3.33,6.03-6.2,8.53-.19-.94-.47-1.89-.63-2.76-.32-1.78-.61-3.57-.88-5.35-.14-.93-.27-1.87-.38-2.8,5.76.61,11.58.74,17.01-1.2.38-.13.21-.64-.18-.51-5.53,1.77-11.21,1.71-16.89,1.13-.24-2-.41-4.01-.52-6.03.71.08,1.41.15,2.11.22,4.73.41,9.47.47,14.21.54,3.3.06,6.69.5,9.95-.09.08-.02.16-.04.24-.06,1.22,1.16,2.33,2.42,3.58,3.46,3.48,2.9,7.18,5.63,11,8.22.15.1.3.2.45.3-.66,2.79-1.02,5.64-1.43,8.47-.96,6.59-3.04,13.05-5.07,19.47-1.21,3.84-2.58,7.65-4.13,11.41-.73,1.79-1.53,3.56-2.36,5.32-.47.99-.96,1.97-1.47,2.95-.44.85-1.1,1.72-1.41,2.61-1.93,5.45-4.79,11.51-9.8,15.56-.7.57-1.49,1.06-2.34,1.46-.36.17-.03.58.32.44,2.69-1.07,4.55-3.1,6.14-5.11,1.95-2.47,3.43-5.2,4.71-7.94.57-1.22,1.08-2.45,1.54-3.7.66-1.79,1.79-3.5,2.65-5.23,1.79-3.66,3.32-7.41,4.71-11.18,1.39-3.79,2.59-7.62,3.7-11.47.9-3.14,1.96-6.29,2.64-9.47.95-4.37,1.15-8.88,2.11-13.25,2.67,1.75,5.48,3.36,8.05,5.21,1.61,1.15,3.24,2.29,4.89,3.4-1.33.78-2.7,1.51-4.13,2.16-.14-.03-.32.04-.32.19-.31,10.44-4.79,20.09-7.5,30.17-2.17,8.08-4.53,17-12.41,22.73-.22.16.09.48.33.33,8.15-5.04,10.54-14.5,12.62-22.19.56-2.05,1.08-4.1,1.68-6.14.78-2.64,1.87-5.23,2.73-7.86,1.82-5.54,3.15-11.23,3.06-16.99,1.52-.6,2.96-1.32,4.35-2.12.09.06.18.12.27.19,1.32.89,2.67,1.76,4.03,2.61-1.31,2.05-1.91,4.48-2.36,6.67-.42,2.03-.64,4.08-.96,6.12-.43,2.73-1.18,5.43-1.72,8.15-.62,3.15-1.23,6.29-1.96,9.42-.75,3.19-1.53,6.48-3.1,9.47-2.69,5.13-7.19,9.54-9.58,14.77-.13.28.42.45.58.19,2.95-4.83,6.73-9.31,9.47-14.23,3.01-5.42,3.82-11.76,4.95-17.6.91-4.74,1.92-9.44,2.62-14.2.39-2.68.88-5.92,2.46-8.51,3.32,2.06,6.76,3.98,10.38,5.66,1.01.46,2.07.93,3.15,1.36-.51,4.18-1.04,8.36-1.54,12.54-1.01,8.37-1.91,16.73-2.63,25.12-.27,3.18-.53,6.36-.8,9.55-1.13-.62-2.28-1.21-3.46-1.77-1.85-.86-3.8-1.54-5.84-2.01-.11-.02-.14.1-.05.13,3.36.96,6.4,2.42,9.31,4.06-.08.91-.15,1.83-.23,2.74-.17,2.06-.34,4.12-.51,6.18-.13,1.64-.41,3.32-.3,4.96.04.63.52,6.27-.57,5.96-.3-.09-.5.32-.21.43,1.56.57,1.64-1.59,1.67-2.33.11-2.34-.25-4.63-.06-6.96.28-3.53.58-7.06.86-10.59,1.69.97,3.34,1.99,5,3-.05,1.92-.08,3.85-.09,5.77,0,2.07.1,4.23-.79,6.19-.08.18.27.29.38.12.83-1.24,1-2.62,1.09-4.02.14-2.13.05-4.27.08-6.41,0-.41.02-.83.03-1.24,1.55.93,3.1,1.84,4.7,2.67,5.29,2.75,11.24,4.04,17.24,5.32,6.27,1.34,12.67,2.4,19.14,2.81,5.73.36,11.85.21,17.15-1.8,2.12-.8,3.96-2,5.34-3.54.21-.24-.27-.53-.5-.31Zm-138.29-82.5c-1.16-.13-2.33-.27-3.49-.42.07-.61.15-1.22.22-1.83.17-1.36.27-2.71.37-4.07.8.11,1.6.21,2.4.3.09,2.01.27,4.02.5,6.03Zm-.51-6.58c-.78-.09-1.56-.19-2.34-.29.02-.38.06-.75.08-1.13.76-1.14,1.51-2.29,2.24-3.44-.04.98-.05,1.97-.04,2.95,0,.64.03,1.28.06,1.92Zm-1.83-6.55c.08-.71.17-1.42.26-2.14.58.18,1.16.35,1.75.52-.05.56-.09,1.13-.12,1.69-.72,1.13-1.46,2.26-2.2,3.37.08-1.15.18-2.3.31-3.45Zm-4.44-3.75c1.35.5,2.74.98,4.15,1.44-.17,1.19-.34,2.37-.48,3.54-.14,1.13-.24,2.27-.33,3.4-.32.47-.63.95-.95,1.42-6.1-.89-12.12-2.11-18.22-3.09-.3-.05-.61-.1-.92-.15,2.56-3.48,4.97-7.04,7.32-10.63,3.05,1.49,6.19,2.86,9.43,4.07Zm2.96,10.44c.07,0,.14.02.21.03-.13,1.78-.27,3.56-.49,5.34-.02.19-.04.37-.07.56-1.07-.14-2.15-.29-3.22-.43-.11-.02-.23-.03-.34-.05,1.35-1.8,2.65-3.61,3.91-5.45Zm-4.86,5.33c-6.75-.84-13.57-1.22-20.28-2.28,1.78-2.12,3.46-4.28,5.09-6.47,6.37,1.08,12.7,2.37,19.11,3.3-1.28,1.84-2.58,3.65-3.93,5.46Zm-15.62-32.98c7.19-2.1,13.88-4.48,20.02-8.25,1.01-.62,1.99-1.26,2.97-1.92-.1.14-.19.28-.29.42-4.98,6.86-9.53,13.9-14.11,20.94-.23.35-.46.7-.69,1.05-4.02-1.99-7.89-4.19-11.63-6.5-1.72-1.06-3.39-2.18-5.03-3.33,2.94-.76,5.86-1.57,8.76-2.41Zm-33.23-9.6c1.09-.07,2.15-.23,3.19-.46,0,0,0,0,0,0,.16.43.31.86.47,1.3-1.3-.13-2.55-.39-3.67-.84Zm3.69-.57s.04-.01.06-.02c-.03-.03-.05-.05-.07-.08-.02-.02-.04-.05-.05-.08h0s0,0,0,0c-.04-.07-.07-.15-.08-.23-1.13-3.03-2.08-6.11-2.3-9.28,1.63,2.76,3.62,5.37,5.83,7.87.27.14.47.37.51.63,0,0,.02,0,.03-.01.75.83,1.53,1.65,2.32,2.46-1.85.21-3.81.33-5.68.2-.19-.49-.38-.97-.56-1.46Zm2.03,5.25c-.41-1.09-.85-2.19-1.28-3.29,1.46.08,2.93.03,4.25-.05.58-.04,1.16-.09,1.74-.14.27.27.53.53.8.8,3.57,3.51,7.51,6.8,11.7,9.82-4.44,1.14-8.92,2.19-13.41,3.16-1.31-3.41-2.5-6.86-3.8-10.3Zm8.64,20.9c-1.86-3.3-3.32-6.68-4.65-10.09,4.64-.99,9.25-2.06,13.82-3.24,1.88,1.34,3.81,2.63,5.79,3.85,3.67,2.27,7.46,4.41,11.4,6.35-2.39,3.64-4.83,7.26-7.41,10.8-5.43-.88-10.86-1.83-16.15-3.14-.99-1.48-1.93-2.99-2.8-4.54Zm3.21,5.14c4.96,1.22,10.06,2.12,15.12,2.95.1.01.19.03.29.05-1.61,2.19-3.29,4.36-5.04,6.48-.91-.15-1.83-.31-2.74-.49-.37-.07-.74-.16-1.1-.24-2.27-2.88-4.49-5.76-6.52-8.75Zm7.04,9.4c.97.21,1.95.4,2.93.57-.15.17-.28.35-.43.52-.28.34-.57.67-.87,1-.54-.7-1.09-1.4-1.64-2.09Zm2.79,3.55c-.28-.35-.55-.7-.83-1.06.53-.61,1.06-1.21,1.58-1.83,6.69,1.12,13.54,1.51,20.3,2.31-3.37,4.5-6.95,8.88-10.76,13.15-3.73-4.02-6.99-8.33-10.29-12.58Zm-54.75,67.61c-1.34.15-2.67.03-3.86-.6-.15-.08-.27.11-.13.19,1.18.71,2.54.88,3.92.75-.12.54-.24,1.04-.34,1.5-.73,3.48-1.86,6.92-3.13,10.29-.4,1.08-.83,2.14-1.28,3.21-.23.12-.44.25-.67.37-1.3.69-2.66,1.31-4.06,1.86-1.2.46-2.47.72-3.7,1.1.98-1.38,1.79-2.89,2.65-4.28,1.34-2.15,2.58-4.36,3.6-6.63,1.48-3.3,2.45-6.99,1.53-10.43,1.86-.6,3.67-1.41,5.36-2.25.68,1.42.44,3.26.1,4.92Zm74.14-43.61c-.15-.03-.34.04-.35.21,0,.05,0,.09,0,.13-3.6,3.46-7.3,6.84-11.2,10.06-3.26,2.7-6.69,5.25-10.27,7.64-3.89,2.6-8.21,4.79-12.41,7.03-8.4,4.46-16.99,8.68-25.64,12.81-2.84,1.35-5.7,2.7-8.6,3.96-1.54.67-3.41,1.44-5.28,1.72.28-1.67.41-3.5-.32-4.96,1.23-.63,2.4-1.26,3.45-1.84,2.72-1.5,5.26-3.19,7.92-4.76,3.93-2.33,7.77-4.76,11.55-7.25,7.85-5.17,15.39-10.67,22.6-16.44,6.79-5.43,12.87-11.52,18.57-17.73.31-.33.61-.67.92-1.01,1.66,1.76,3.41,3.46,5.3,5.07,1.63,1.39,3.38,2.71,5.25,3.92-.49.48-.99.95-1.48,1.43Zm6.32-6.24c-1.41,1.43-2.84,2.86-4.29,4.28-2.91-1.84-5.58-3.95-8.06-6.31-.9-.86-1.76-1.74-2.6-2.63,3.95-4.38,7.72-8.89,11.23-13.54.18.02.37.04.55.07,1.1.14,2.21.29,3.32.45-.46,3.72-.85,7.46-.76,11.2.03,1.45-.04,4.3,1.2,5.91-.21.19-.41.38-.61.58Zm4.72-15.22c.26,1.95.58,3.89.91,5.83.22,1.26.58,2.56.78,3.85-1.76,1.5-3.6,2.94-5.23,4.42-.32-.57-.49-1.23-.62-1.78-.43-1.79-.43-3.66-.41-5.47.04-3.08.35-6.16.71-9.23,1.2.16,2.41.31,3.62.45.08.64.15,1.29.24,1.93Zm77.21-2.12c-.3,3.29-.19,6.6-.25,9.9-.09,5.3-.29,10.61-.54,15.92-.78-.25-1.56-.52-2.33-.81.67-5.43,1.35-10.86,1.99-16.29.39-3.25.6-6.47.69-9.74.02-.52.02-1.04.03-1.56.25-.24.51-.49.76-.73-.12,1.1-.24,2.21-.34,3.32Zm1.75-12.55c3.65-1.94,7.23-4.25,9.97-6.99-1.23,1.72-2.34,3.48-3.46,5.2-1.46,2.24-2.95,4.46-4.64,6.59-.78.98-1.63,1.9-2.51,2.8.02-.18.03-.36.05-.54.25-2.35.48-4.7.59-7.06Zm-23.42,27.37c-2.14-1.44-4.24-2.91-6.33-4.4-1.67-1.19-3.62-2.18-5.38-3.3-.58-.37-1.14-.75-1.71-1.13.3-1.27.67-2.52,1.15-3.75.13-.34.28-.67.43-.99,6-.17,11.63-3.13,16.61-5.57,4.52-2.21,9.48-3.83,14.07-5.95,1.34-.62,2.72-1.29,4.1-2-.1,1.19-.22,2.36-.32,3.48-.14,1.51-.32,3.01-.48,4.52-.29.29-.58.57-.88.85-.05-2.16-.32-4.31-1.26-6.35-.04-.09-.21-.05-.17.04.96,2.1,1.16,4.35,1.14,6.6-.4.38-.8.76-1.19,1.15-6.04,5.78-12.16,12.21-19.75,16.81Zm5.51,3.54c-.22-.14-.44-.28-.66-.41.72-1.02,1.62-1.91,2.79-2.61.2-.12,0-.39-.2-.27-1.25.69-2.22,1.61-2.97,2.64-1.37-.85-2.72-1.72-4.04-2.61,2.68-1.62,5.13-3.52,7.45-5.42,4.18-3.41,7.99-7.1,11.82-10.77.41-.4.83-.79,1.24-1.18-.04,1.18-.13,2.35-.19,3.5-.21,4-.72,7.95-1.22,11.94-.48,3.89-.96,7.78-1.43,11.67-4.47-1.74-8.64-4.08-12.58-6.47Zm13.77,42.44c-.19,4.78-.43,9.55-.58,14.33,0,.29-.01.58-.02.87-1.66-.98-3.3-1.96-4.98-2.9.39-4.8.78-9.6,1.18-14.4.92-11.01,2.22-22,3.58-32.99.78.3,1.58.59,2.38.84-.13,2.86-.28,5.73-.44,8.6-.24,4.28-.5,8.56-.76,12.84-.26,4.26-.19,8.54-.36,12.81ZM72.07,32.07c1.83.96,4.16.58,6.13.17,2.79-.58,5.59-1.43,8.33-2.16,6.52-1.73,12.75-4.13,18.71-6.89,6.36-2.94,12.69-5.96,18.75-9.3,2.75-1.51,5.47-3.11,8.05-4.8,1.3-.86,2.52-1.76,3.59-2.82.78-.78,1.47-1.3,1.6-2.35.05-.41-.81-.49-.87-.09-.18,1.17-1.52,2.09-2.46,2.91-1.13.98-2.46,1.81-3.78,2.61-2.64,1.62-5.3,3.21-8.06,4.7-5.6,3.04-11.46,5.76-17.28,8.51-5.54,2.62-11.35,4.84-17.37,6.6-2.55.74-5.13,1.4-7.68,2.15-2.39.7-5.13,1.43-7.61.64-.09-.03-.13.09-.06.12h0Z"/>
      <path d="m220.97,41.17c-5.73,2.66-10.65,6.37-16.23,9.24-5.53,2.84-11.84,4.48-18.07,5.96-9.24,2.18-19.54,3.94-29.44,3.47,3.53-1.04,7.09-2.05,10.63-3.07,3.73-1.07,7.43-2.19,10.99-3.59,3.26-1.28,6.23-2.95,9.38-4.37,5.51-2.48,11.16-4.78,16.24-7.84,4.62-2.78,9.03-6.43,10.31-11.17.08-.3-.47-.42-.56-.12-3.15,9.7-16.54,14.3-26.3,18.7-3,1.35-5.82,2.93-8.88,4.19-3.64,1.51-7.49,2.66-11.33,3.78-3.72,1.09-7.41,2.24-11.14,3.3-.15.04-.3.09-.45.13-3.09-.2-6.14-.62-9.1-1.33-.25-.06-.34.25-.1.31,2.6.68,5.29,1.12,8.01,1.38-3.22,1.01-6.35,2.17-9.86,2.26-.16,0-.16.21,0,.21,3.84-.03,7.32-1.32,10.86-2.39,10.02.75,20.55-1,29.97-3.11,6.28-1.4,12.67-3.03,18.31-5.74,6-2.88,11.17-6.76,17.14-9.66.43-.21.03-.74-.4-.54Z"/>
      <path d="m156.23,127.98c-2.2,4.72-4.25,9.47-7.24,13.9-3.16,4.68-7.39,8.56-12.33,12.01-9.96,6.94-21.77,13.19-34.4,16.21-.09.02-.05.14.05.12,12.69-3.01,24.23-8.91,34.34-15.79,5.04-3.43,9.28-7.31,12.58-11.97,3.19-4.51,5.47-9.46,7.54-14.37.12-.28-.41-.37-.53-.11Z"/>
      <path d="m159.96,140.45c-4.17,9.12-13.44,16.63-23.7,21.31-4.99,2.28-10.28,3.95-15.58,5.65-4.95,1.6-10.01,3.38-13.77,6.56-.15.13.08.31.24.19,4.39-3.33,10.03-5.13,15.54-6.84,5.2-1.62,10.33-3.36,15.15-5.64,5.1-2.41,9.7-5.58,13.69-9.12,3.86-3.42,7.4-7.48,9.1-11.97.13-.35-.52-.48-.66-.14Z"/>
      <path d="m210.18,151.64s-.09-.05-.09,0c-.06,1.91-.27,3.88-.57,5.77-.26,1.68-.7,3.29-.75,4.99-.06,1.8.1,3.61.25,5.41.12,1.51-.05,3.24.42,4.7.07.23.48.21.55,0,.4-1.33.01-2.9-.1-4.26-.15-1.8-.3-3.61-.31-5.42,0-1.82.47-3.55.72-5.35.28-1.99-.06-3.86-.12-5.84Z"/>
      <path d="m212.45,160.21c-.12-2.85-.08-5.73-.39-8.57-.03-.3-.45-.16-.46.02-.3,2.83-.04,5.73.06,8.57.09,2.67-.14,5.48.4,8.11.03.17.37.16.4,0,.52-2.63.1-5.47,0-8.12Z"/>
      <path d="m205.3,166.5c-.01-.05-.05-.09-.1-.11-.86-2.69-.62-5.49-.56-8.26.04-1.74.37-4.36-1.52-5.58-.23-.15-.54.1-.33.27,1.82,1.45,1.05,4.67,1.02,6.55-.03,2.66-.48,5.56.9,8.05.21.37.82.07.74-.27-.05-.22-.1-.44-.16-.65Z"/>
      <path d="m134.01,173.29c-.25-6.68.58-13.96-2.37-20.29-.06-.14-.32-.08-.27.06,1.13,3.51,1.52,7.08,1.65,10.69.12,3.35-.36,6.9.22,10.22.06.36.62.44.78.08.08-.16.15-.32.23-.48.06-.13-.07-.32-.24-.29Z"/>
      <path d="m350.77,143.82c-2.84,1.24-5.59,2.69-8.37,4.02-2.99,1.43-5.88,2.96-8.65,4.66-5.02,3.07-9.21,7.09-13.08,11.1-.25.26.18.62.46.36,4.22-3.95,8.3-8.01,13.46-11.18,2.62-1.61,5.38-3.05,8.2-4.41,2.78-1.34,5.8-2.55,8.32-4.2.26-.17-.08-.47-.34-.35Z"/>
      <path d="m334.46,148.02c-3.25,1.82-6.42,3.93-9.07,6.3-1.25,1.11-2.36,2.33-3.49,3.52-.91.96-1.94,2.08-2.33,3.26-.05.16.23.25.32.11,1.5-2.37,3.81-4.52,5.98-6.51,2.57-2.36,5.77-4.42,8.95-6.19.37-.21.01-.7-.36-.49Z"/>
      <path d="m325.65,150.69c-1.24-.25-3.15,1.92-3.77,2.53-.77.76-1.47,1.59-2.1,2.43-.12.16-1.51,2.57-1.48,2.58-.03,0-.05.02-.05.04,0,.04,0,.09.01.13.01.15.26.22.36.07,1.07-1.57,2.07-3.09,3.42-4.52.66-.71,1.39-1.35,2.18-1.96.29-.23,1.37-.68,1.55-1.06.05-.1.01-.22-.13-.25Z"/>
      <path d="m317.93,156.76c-.93-.77-2.18-.84-3.44-.9-1.94-.09-3.92.13-5.85.28-.08,0-.08.09,0,.1,2.46.15,6.91-.65,8.78.94.33.27.83-.15.51-.43Z"/>
      <path d="m320.46,160.19c-1.34-.38-2.28-.97-3.71-1.18-1.28-.19-2.6-.31-3.9-.4-3.19-.21-6.42.13-9.61.2-.18,0-.18.23,0,.23,3.01.03,6.01-.13,9.01.04,1.44.09,2.88.31,4.3.51,1.39.2,2.4.87,3.71,1.18.46.11.63-.46.18-.58Z"/>
      <path d="m321.53,163.69c-1.43-.57-2.87-.55-4.43-.58-1.99-.03-3.97-.23-5.96-.26-4.38-.09-8.74-.45-13.12-.19-.26.01-.25.34,0,.33,3.8-.11,7.56.27,11.34.47,1.87.1,3.75.06,5.62.22,1.99.16,4.3-.09,6.13.63.49.19.92-.42.42-.61Z"/>
    </g>
  </g>
</svg>