<?xml version="1.0" encoding="UTF-8"?>
<svg xmlns="http://www.w3.org/2000/svg" xmlns:xlink="http://www.w3.org/1999/xlink" viewBox="0 0 3150 1400">
  <defs>
    <style>
      .cls-1 {
        isolation: isolate;
      }

      .cls-2 {
        fill: url(#linear-gradient);
        mix-blend-mode: multiply;
        opacity: .7;
      }
    </style>
    <linearGradient id="linear-gradient" x1="1533.41" y1="1288.61" x2="1533.41" y2="1313.17" gradientUnits="userSpaceOnUse">
      <stop offset=".02" stop-color="#24655e"/>
      <stop offset=".97" stop-color="#eefffd"/>
    </linearGradient>
  </defs>
  <g class="cls-1">
    <g id="layer1">
      <g>
        <path d="m1263.5,1237.62c1.98.35,5.17.93,5.51,1.94,1.47,4.36,8.26,8.15,2.65,13.49-.45.43-.2,1.46-.09,2.19,1.41,10,9.24,17.41,21.11,19.95,2.59.55,5.23.95,7.78,1.41.17,3.13-.82,5.74-2.7,7.65,4.76.67,9.51,1.32,14.27,1.91,4.07.4,8.16.77,12.26,1.04,13.81.93,27.62,1.87,41.44,2.75,3.09.05,6.22.31,9.59.59,18.57,1.13,37.16,2.11,55.76,2.78,35.59,1.26,71.18,1.08,106.77-.06,61.26-1.95,122.65-4.47,183.59-10.19-.93-.73-1.75-1.57-2.42-2.42-.38-.49,1.43-2.53,2.69-3.42,2.32-1.64,4.83-3.15,7.51-4.37,8.08-3.68,16.28-7.2,24.44-10.76.46-.2,1-.28,2.18-.6-2.59-.73-3.83-1.07-6.34-1.78,9.69-4.32,18.31-8.22,27.05-11.93.73-.31,2.24.63,3.39.99-.59.82-1.17,1.63-1.49,2.08,5.96,1.92,2.72,8.3,7.18,12.37-1.42-5.1-2.08-9.43-3.89-13.4-1.57-3.44.12-4.81,3.41-5.62,14.83-3.66,29.7-7.18,44.54-10.81,2.48-.61,4.89-1.45,7.33-2.18l-.79-2.19c-3.08.57-6.21.99-9.22,1.73-3.56.88-5.83.68-7.63-2.66-2.19-4.06-4.94-8.09-8.38-11.5-17.14-17-33.39-34.77-52.17-50.46-41.78-34.9-84.88-68.7-127.41-102.98-5.32-4.29-9.27-9.11-6.08-16.16-4.72-.39-9.16-.83-13.61-1.11-5.4-.34-5.96-1.03-3.97-5.87,4.85,1.16,9.72,2.33,16.06,3.84-2.61-6.94-4.8-12.73-6.94-18.53-.46-1.25-1.46-2.74-1.02-3.77,1.23-2.87-.52-3.67-3.26-3.71-6.04-.11-7.65-2.87-6.95-7.3.18-1.18.33-2.49-.12-3.56-.51-1.2-1.73-2.2-2.65-3.28-1.06,1.11-2.86,2.14-3.04,3.34-.45,2.88-.14,5.85-.14,9.29h-11.17c1.48,1.87,3.64,3.38,3.35,4.43-1.9,7.07-4.27,14.06-6.67,21.04-.22.63-1.74.9-2.58,1.43-.88.55-1.66,1.2-2.48,1.8.97.68,2.01,1.31,2.88,2.07,1.14,1,3.13,2.19,3.02,3.16-.56,4.87-1.37,9.77-2.71,14.54-1.72,6.16-4.03,12.2-5.87,17.64,5.88-1.19,12.07-2.53,18.31-3.66,3.02-.55,5.14.53,4.79,3.32-.24,1.89,1.81,5.14-2.83,5.02-1.76-.05-3.46-1.72-5.18-2.65,1.44,2.22-1.04,2.65-4.14,2.41-5.04-.4-10.06-.93-15.11-1.21-1.22-.06-2.5.66-3.76,1.03.59.78,1.24,1.54,1.76,2.35.67,1.05,1.87,2.2,1.74,3.22-.61,4.89-1.09,9.85-2.55,14.59-2.49,8.03-5.68,15.9-8.66,24.12,1.31-.29,2.62-.68,3.97-.86,8.16-1.05,16.32-2.11,24.5-3.03,1.43-.16,2.97.46,4.46.49,1.78.04,4.88-.6,5.11-.15.77,1.53,1.04,3.54.44,5.09-.3.74-2.96,1.23-4.54,1.2-11.39-.16-22.78-.54-34.16-.72-2.16-.03-4.32.54-6.48.84.06.57.12,1.14.17,1.71,1.27.18,2.58.63,3.78.5,4.68-.5,5.14,1.75,4.67,4.65-.34,2.05-.67,4.11-1.23,6.13-3.2,11.55-5.26,23.58-18.99,31.13.72.37,1.55,1.15,2.35,1.14,3.92-.08,4.5,1.97,4.29,4.43-.49,5.5-.53,11.09-1.83,16.47-1.58,6.53-4.28,12.88-6.5,19.31-.37-.13-.72-.26-1.08-.39-6.63-15.46-13.25-30.92-19.91-46.47,2.48-.3,5.31-.65,8.15-1,.05-.47.09-.93.14-1.4-1.51-.35-3-.94-4.53-1.01-14.44-.67-28.88-1.4-43.33-1.78-4.88-.13-5.03-2.35-5.03-5.28,0-3.03.97-5.18,5.29-4.4,11.78,2.11,23.54,4.31,35.3,6.51,1.45.27,2.86.69,6.24,1.51-3.78-14.89-7.23-28.44-10.66-41.95,2.21-.24,5.17-.57,8.12-.89.14-.39.28-.77.41-1.16-6.32-1.56-6.07-5.76-6.94-9.8-2.24-10.5-3.7-21.2-9.63-30.93-.37-.6-.72-1.63-.37-2.04,3.89-4.56-1.21-3.83-3.7-4.1-8.01-.85-16.06-1.45-24.32-2.16-.14-1.05-.26-1.91-.37-2.76-.92-6.99-.22-7.6,7.83-5.45,6.46,1.73,12.71,3.97,18.86,5.93,2.64-1.81-2.6-6.83,2.57-6.35-.5-.54-2.17-1.6-2.62-2.96-2.95-8.74-5.73-17.52-8.36-26.34-.67-2.25-.61-4.65-1.04-8.3-2.67-.26-6.99-.83-11.33-1.09-6.77-.39-7.45-1.08-5.37-7.1,5.17,1.47,10.31,2.93,16.89,4.8-2.67-7.9-5.01-14.74-7.27-21.59-.4-1.23-1.11-2.76-.58-3.76,1.6-3,.01-3.96-3.18-3.96-6.47,0-8.38-2.91-7.68-7.73.15-1.03.33-2.25-.19-3.1-.77-1.24-2.14-2.21-3.25-3.3-.91,1.1-2.46,2.14-2.61,3.31-.38,2.88-.12,5.82-.12,9.13-2.67-.24-4.25-.51-5.84-.5-1.32,0-2.64.33-3.97.52.63.87,1.42,1.69,1.86,2.63.49,1.04,1.21,2.29.92,3.27-2.43,8.19-5.06,16.34-7.62,24.5.01,0,.03-.01.04-.02.01,0,.03,0,.05,0,4.01-2.78,8.23-5.14,14.48-4.59.15,1.47.44,2.89.37,4.3-.03.6-.89,1.72-1.26,1.69-4.54-.37-9.06-.9-13.58-1.4-.05.03-.08.06-.12.08,0-.02.01-.05.02-.07-1.47.58-2.93,1.16-4.4,1.73,1.78,1.04,3.56,2.08,5.95,3.49.28,13.14-4.19,26.18-9.21,39.18,5.06-1.52,9.44-2.83,14.05-4.22,1.42,8.47,1,8.9-7.66,8.41-2.7-.15-5.38-.71-8.08-.77-1.71-.04-3.43.5-3.84.57.69,3.43,1.97,6.04,1.56,8.47-1.77,10.6-3.71,21.22-9.98,30.86-.7,1.08-.75,2.45-1.24,4.17,2.08-.34,3.43-.6,4.81-.77,9.79-1.18,19.57-2.42,29.38-3.51,5.84-.64,4.36,3.11,4.68,5.69.41,3.29-2.02,3.5-5.14,3.43-11.57-.27-23.14-.41-34.71-.51-1.54-.02-3.09.48-4.63.74,1.02,1.53,2.1,2.28,3.1,2.22,4.85-.31,5.42,1.64,4.55,4.98-1.1,4.2-1.15,8.66-2.81,12.68-3.21,7.8-7.22,15.36-10.8,22.81,14.67-4.26,30.47-5.03,46.37-5.37,5.13-.11,4.66,2.51,4.85,5.28.22,3.17-.85,4.67-5.14,4.44-5.75-.31-11.5-.68-17.27-.84-9.59-.27-19.16-.8-28.74-1.09-2.06-.06-4.14.44-6.2.67l-.89,1.38c9.84.8,7.43,6.44,7.02,10.7-.8,8.31-1.79,16.66-3.8,24.81-4.32,17.51-12.74,33.9-21.54,50.14-1.13,2.08-1.95,4.26-3.28,7.22,22.35-7.68,44.75-9.81,67.28-10.89,14.56-.7,14.53-.2,13.65,11.93-.19,2.68-1.31,3.75-4.62,3.56-5.6-.33-11.23-.53-16.84-.63-22.28-.38-44.54-.74-66.81-1.02-3.57-.05-5.09-1.46-5.96-4.13-.4-1.23-1.86-3.15-2.88-3.18-5.54-.11-5.21-3.24-5.24-6.22-.13-14.36-.13-28.72-.3-43.09-.41-34.42-.87-68.84-1.35-103.26-.2-14.89-.5-29.78-.74-44.66-.03-2.09-.29-4.23.09-6.27.21-1.13,1.54-2.11,2.14-2.87-3.37-.56-2.32-3.59-2.36-5.84-.19-11.8-.08-23.6-.35-35.4-.03-1.32-1.87-2.6-2.86-3.9-1.04,1.26-2.67,2.42-3,3.8-1.07,4.51-.8,9.34-2.61,13.6-7.09,16.75-16.68,32.59-30.07,46.49-6.55,6.8-15.05,12.34-23,18.14-1.53,1.12-4.61.81-6.99,1.12-1.25.16-2.52.22-3.78.33.75.85,1.3,2.15,2.29,2.46,5,1.55,5.55,4.65,5.78,8.58,1.03,17.5-3.78,34.14-10.49,50.48-11.93,29.08-29.91,55.65-49.94,81.33-1.15,1.47-4.09,1.98-6,2.85-.27-.16.13.13.6.36,8.48,4.15,18.26,2.96,27.36,4.59Zm344.48-63.29c.25-.81,2.03-2,2.85-1.87,12.19,1.87,24.34,3.92,36.49,5.96.43.07.79.47,2.03,1.24-5.31,0-9.71.09-14.09-.02-7.58-.19-15.16-.54-22.75-.76-3.69-.11-5.45-1.57-4.54-4.55Zm.57-47.54c9.73,2.04,19.12,4.01,28.5,5.99-.09.66-.18,1.32-.27,1.97-1.97,0-3.96.05-5.93,0-5.76-.17-11.52-.43-17.29-.56-6.38-.14-6.69-.45-5.01-7.39Zm42.39,2.59c-7.48-5.57-8.59-12.6-9.59-20.11,18.07,14.43,33.09,30.73,43.98,49.7-3.78-3.13-7.65-6.19-11.33-9.4-7.69-6.73-14.78-14.01-23.07-20.18Zm.8,5.12c-6.02.17-6.98-1.28-6.2-8.78,2.35,3.33,4.06,5.74,6.2,8.78Zm147.85,91.19l19.94,4.84c.01.65.02,1.3.02,1.95-4.65,1.03-9.27,2.19-13.98,2.97-.84.14-2.41-1.08-3.03-1.97-1.49-2.11-2.61-4.4-3.87-6.62.3-.39.61-.78.92-1.17Zm1.59,9.35l.19,1.39c-5.55,1.29-11.24,2.25-16.59,3.94-7.15,2.26-12.7,1.92-16.41-4.38-1.14-1.92-3.14-3.48-5.74-6.3,14.41.06,26.99.41,38.57,5.35Zm-82.89,2.53c14.76.55,29.51,1.22,44.24,2.11,2.81.17,5.51,1.55,8.26,2.37-.05.53-.1,1.05-.15,1.57-8.35,1.54-16.62,3.47-25.06,4.54-25.11,3.17-50.24,6.27-75.45,8.85-16.26,1.67-32.68,2.36-49.02,3.49-.18.02-.36.02-.54.02-3.65.13-7.31.25-10.96.37-.17-4.75-.5-9.5-.31-14.23.02-.61,2.81-1.72,4.23-1.63,18.34,1.19,36.68,2.53,55.01,3.91,3.19.24,6.34.84,9.9,1.32v-9.17c-.7-1.01-1.74-1.94-2.06-3.03-5.37-18.16-12.36-35.81-23.84-52.06-.42-.59-.54-1.33-.93-2.33,3.09-.35,5.77-.66,7.54-.86-1.62-4.29-3.08-8.2-4.57-12.1-3.74-9.79-7.5-19.57-11.25-29.35-.32-.83-.66-1.65-1.21-3.05,4.15-.16,7.82-.29,12.03-.44,17.62,32.67,25.16,66.98,25.21,102.58,8.71-.78,17.42-1.62,26.15-2.32,4.24-.34,8.54-.71,12.79-.55Zm-110.47-158.07c8.57,2.24,17.07,4.45,26.74,6.97-1.83-7.6-3.55-14.79-5.29-22.01,12.89,3.65,71.56,65.16,77.62,82.88-2.59-1.74-5.17-3.48-7.78-5.21-19.19-12.71-38.43-25.38-57.54-38.17-2.17-1.45-4.09-3.38-5.42-5.4-2.42-3.65-2.21-3.74,1.24-7.68-5.75-.57-10.92-1.11-16.1-1.6-2.33-.23-4.67-.36-7-.59-8.49-.84-8.71-1.13-6.5-9.19Zm-8.61-34.55c-4.29-.28-8.59-.57-12.9-.85-.04-.48-.08-.95-.12-1.43,2.38-.86,4.69-1.94,7.16-2.54,6.3-1.51,6.74-1.12,5.87,4.81Zm-3.48,127.58c.9,3.48.57,2.69-3.38,3.81-10.29,2.93-20.54-.1-30.76.67-2.06.16-4.2-.45-6.89-.78,6.7-3.2,28.69-5.03,41.03-3.7Zm-106.05,76.06c9.73.29,19.43,1.03,29.12,1.85,1.61.13,3.05,1.68,3.74,2.09,8.44.41,16.48.8,24.93,1.21-.34-4,3.11-5.46,7.34-5.81,12.86-1.07,25.74-1.96,39.1-2.95.19,3.09.35,5.62.51,8.14.09,0,.17,0,.26-.01,0-1.79-.31-3.63.12-5.35.25-1,1.7-2.55,2.58-2.54,1.65.03,4.62.94,4.68,1.62.4,4.74.23,9.5.12,14.25,0,.35-1,.68-2.85,1.89-.22-3.91-.38-6.87-.54-9.84,0,.15,0,.3,0,.46-.67,11.47,2.7,7.98-14.58,9.43-.21-1.42-.43-2.85-.45-2.95-.58.61-1.89,1.96-3.19,3.32-1.03-1.08-2.06-2.17-2.21-2.34-1.07.64-2.68,2.33-4.55,2.55-4.99.59-10.08.68-15.15.71-1.45,0-3.41-.54-4.27-1.41-3.02-3.03-6.78-3.39-11.17-3.32-15.37.25-30.75.08-46.11.48-3.51.09-6.95,1.83-10.46,2.71-2.32.59-4.9,1.66-6.99,1.25-1.11-.23-1.9-3.14-2.03-4.88-.78-10.78-.69-10.97,12.06-10.58Zm-13.53-137.64c13.27.52,24.78,3.47,35.94,7.83-.34.58-.48,1.04-.63,1.04-10.63-.03-21.27,0-31.89-.31-1.18-.03-2.8-1.83-3.28-3.05-.57-1.47-.14-3.2-.14-5.51Zm-7.68-38.29c-2.95-.75-6.6-.9-7.04-1.96-.83-2.01-.39-4.75.7-6.74.59-1.07,3.65-1.21,6.34-1.98v10.68Zm-106.29,181.57c-13.14,0-26.11.29-39.05-.08-12.63-.37-25.22-1.64-37.84-2.05-4.71-.16-7.34-1.46-8.77-5.07-.98-2.49-2.44-4.86-4.15-8.17,6.58.61,12.05,1.07,17.5,1.63,22.35,2.28,44.67,4.75,67.06,6.78,5.7.52,6.65,2.55,5.25,6.96Zm-.67-109.53c.3,15.4.6,30.8.8,46.21.02,1.61-.55,3.22-.85,4.84,0,5.63.02,11.25.02,16.87.56,6.3,1.12,12.61,1.68,18.91-3.58-3.46-4.96-13.33-3.46-17.54-.32-5.4-.64-10.81-.95-16.21-.27-.54-.79-1.1-.78-1.64.5-18.17,1.05-36.34,1.59-54.51.48-.02.95-.03,1.43-.05.18,1.04.51,2.08.53,3.12Zm-.99-105.62v60.84c-3.62-5.77-4.51-48.32,0-60.84Zm-8.04,71.48c-16.27-7.02-31.94-13.78-48.09-20.76,10.83-3.21,46.68,12,48.09,20.76Zm-3.2,127.55c3.9.44,7.45.58,10.79,1.35,1.12.26,1.68,2.13,2.51,3.27-1.39.58-2.86,1.77-4.15,1.66-13.09-1.18-26.15-2.61-39.23-3.89-23.09-2.26-46.19-4.45-69.28-6.7-1.72-.17-3.41-.57-5.11-.87,26.89-5.95,103.04-.69,104.48,5.18Z"/>
        <path d="m1612.64,1022.72c-6.57,5.75-16.39,8.07-25.46,9.72-9.52,1.73-19.24,2.48-28.92,3.27-13.32,1.09-26.38,1.52-39.76.65-14.22-.92-28.32-2.82-42.48-4.13-.3-.03-.35.4-.06.43,14.16,1.63,28.29,3.55,42.55,4.54,13.74.95,27.17.4,40.86-.69,9.89-.79,19.8-1.65,29.51-3.46,8.54-1.6,18.56-4.03,24.49-9.74.42-.41-.28-.97-.73-.58Z"/>
        <path d="m1602.75,1002.98c-4.72,6.87-13.59,11.06-21.92,14.44-8.74,3.55-17.97,6.19-27.15,8.86-12.63,3.68-25.19,6.66-38.44,8.45-14.07,1.9-28.31,2.83-42.45,4.34-.3.03-.23.45.06.43,14.23-1.2,28.5-2.11,42.64-3.96,13.62-1.78,26.51-4.95,39.48-8.71,9.38-2.72,18.75-5.49,27.67-9.17,7.83-3.23,16.86-7.56,20.96-14.27.3-.48-.54-.9-.87-.42Z"/>
        <path d="m1477.88,1236.95c-14.18-4.98-27.27-11.45-39.45-19.24-6.15-3.93-12.01-8.17-17.63-12.61-5.32-4.19-9.93-8.9-15.11-13.19-10.59-8.77-19.84-18.56-27.78-29.06-4.04-5.34-7.69-10.87-11.09-16.49-3.04-5.02-4.92-10.28-7.29-15.52-2.84-6.3-6.31-12.87-12.12-17.71-.26-.22-.65.12-.4.34,4.71,4.08,7.71,9.32,10.24,14.49,1.18,2.4,2.23,4.84,3.24,7.3.88,2.13,1.48,4.5,2.63,6.54,6.39,11.34,13.8,22.28,22.72,32.41,4.17,4.73,8.7,9.26,13.46,13.59,4.91,4.46,9.83,8.95,14.88,13.31,10.53,9.08,22.28,17.25,34.89,24.28,8.85,4.94,18.33,9.43,28.49,12.24.48.13.79-.51.33-.67Z"/>
        <path d="m1473.95,1195.29c-3.74,7.27-13.4,11.09-21.75,13.9-9.77,3.29-20.05,5.41-30.25,7.57-12.16,2.58-24.04,5.98-36.16,8.69-17.12,3.81-34.59,6.4-52.36,6.32-1.38,0-2.77-.04-4.16-.07-.3,0-.28.36,0,.38,17.08,1.06,34.14-1.25,50.69-4.58,13.21-2.66,26.01-6.42,39.14-9.24,10-2.14,20.05-4.14,29.78-7.03,8.43-2.5,17.82-5.76,23.5-11.76,1.1-1.16,1.93-2.46,2.51-3.86.19-.46-.72-.76-.95-.32Z"/>
        <path d="m1447.43,1258.55c-.19-6.67-1.14-13.31-2.1-19.93-.04-.29-.59-.29-.55,0,.78,6.36,1.36,12.75,1.57,19.15.12,3.41.03,6.82-.24,10.23-.27,3.27-1.1,6.46-1.51,9.71-.06.45.77.47.91.09,2.38-5.96,2.1-13.05,1.93-19.25Z"/>
        <path d="m1460.21,1281.5c-3.7-6.93-3.9-13.79-3.27-21.25.58-6.78,1.53-13.64-.07-20.38-.11-.45-.93-.24-.83.21,1.61,7.42.13,14.96-.48,22.4-.52,6.4-.65,13.88,3.67,19.51.4.53,1.26.05.97-.49Z"/>
        <path d="m1433.81,1262.38c.73-7.01,1.97-14.01,1.89-21.07,0-.46-.86-.45-.87.01-.17,7.05-1.44,14.07-2.26,21.08-.41,3.45-.7,6.9-.72,10.36-.02,2.96-.04,6.32,1.31,9.1.2.4,1.02.37.97-.12-.31-3.02-.91-5.95-.95-9-.05-3.45.27-6.92.63-10.36Z"/>
        <path d="m1638.92,1138.41c-13.34,3.89-27.11,1.52-39.91-2.62-6.26-2.02-12.28-4.53-18.2-7.13-5.5-2.4-11.14-4.41-16.82-6.49-22.9-8.4-47.12-18.33-61.59-35.95-.23-.28-.78-.01-.55.27,14.46,17.8,38.67,27.83,61.67,36.36,5.93,2.2,11.79,4.35,17.52,6.89,6.02,2.67,12.16,5.18,18.51,7.27,12.44,4.11,26.82,6.55,39.71,2.39.74-.23.42-1.2-.35-.98Z"/>
        <path d="m1547.66,1144.34c-4.06-2.46-8.55-4.4-12.58-6.93-3.74-2.35-7.24-4.94-10.61-7.65-7.14-5.75-13.44-12.24-19.24-18.92-.14-.15-.44,0-.31.15,5.71,6.85,11.8,13.4,18.89,19.33,3.5,2.93,7.28,5.64,11.24,8.15,3.76,2.38,7.91,4.99,12.33,6.44.43.14.58-.38.28-.57Z"/>
        <path d="m1697.41,1255.83c-6.59,6.43-16.71,8.38-26.48,8.81-11.45.5-23.01-1.04-34.17-3.03-9.67-1.72-19.93-3.56-29.11-6.66-6.64-2.24-12.54-5.52-18.35-8.96.16-6.35.43-12.69.7-19.04.64-14.77.92-29.52,1.78-44.28.43-7.48.83-14.96,1.17-22.44,4.62,1.4,9.44,2.27,14.28,2.02,4.26-.22,8.1-1.61,11.02-4.19.44-.39-.23-.91-.71-.57-7,5.1-16.38,3.95-24.48,1.5-.02,0-.04-.02-.07-.02.31-6.72.56-13.44.74-20.15.27-10.61.28-21.12,1.23-31.69,1.19-1.18,2.36-2.38,3.46-3.63,3.3-3.75,6.06-7.81,8.73-11.88,5.23-7.95,10.24-15.74,17.62-22.5.42-.39-.24-.92-.71-.57-2.1,1.62-3.98,3.42-5.71,5.33,1.92-3.19,3.13-6.66,3.37-10.44.04-.62-1.07-.58-1.14.01-1.42,12.26-12.35,20.94-24.33,27.52.07-2.09.09-4.17.01-6.27-.21-5.43-1-11.16-4.22-15.99-.18-.27-.67-.03-.49.25,4.22,6.62,4.44,14.76,3.92,22.44-2.99,1.62-6.04,3.11-9.01,4.48-7.25,3.37-15.12,5.94-22.22,9.5-8.45,4.25-18.15,9.65-28.31,10.38.64-1.28,1.39-2.52,2.31-3.7.21-.26-.28-.47-.49-.23-1.1,1.24-1.98,2.58-2.72,3.99-.1,0-.2.01-.3.02-.24.01-.23.31,0,.31.05,0,.09,0,.13,0-1.23,2.43-2.02,5.03-2.67,7.59,0,0,0,.01,0,.02-2.21-1.49-4.4-2.99-6.57-4.52-5.99-4.25-12.05-8.64-17.15-13.65-.56-.55-1.12-1.09-1.69-1.63.82-.25,1.56-.63,2.18-1.18.35-.3-.14-.84-.55-.57-.72.44-1.54.77-2.41,1.02-2.42-2.19-5.09-4.09-8.73-4.9-.23-.05-.32.24-.09.3,3.34.83,5.9,2.65,8.2,4.75-4.13.97-9.48.28-13.26.13-7.62-.31-15.24-.19-22.86-.65-2.89-.18-5.75-.45-8.6-.76-.03-.61-.07-1.21-.09-1.82-.1-2.9-.09-5.79.04-8.68.61-.99,1.24-1.98,1.82-2.97,9.19,2.48,18.86,4.04,28.29,3.69.9-.03.86-1.1-.02-1.14-7.15-.33-14.08-.87-21.06-2.26-2.18-.43-4.35-.94-6.48-1.5.68-1.17,1.35-2.34,2.01-3.51.33-.59-.72-1.09-1.07-.5-.74,1.23-1.49,2.45-2.23,3.67-.31-.08-.61-.17-.92-.26.76-8.36,2.56-16.64,5.6-24.66.11-.29-.44-.41-.56-.12-3.31,7.98-5.23,16.17-6.08,24.48-.99-.29-1.98-.59-2.96-.89,1.04-8.3,1.99-16.8-.19-24.94-.07-.3-.61-.16-.54.13,1.96,8.01.96,16.35-.2,24.52-2.5-.8-4.98-1.66-7.42-2.57-5.28-1.98-10.39-4.24-15.37-6.68,3.54-5.44,7.01-10.91,10.55-16.35,5.4-8.33,11.42-16.37,16.93-24.65,6.56-4.6,12.79-9.56,19.02-14.41.57-.44-.28-1.1-.86-.69-5.56,3.97-10.83,8.21-16.28,12.26,4.3-6.61,8.98-13.85,10.72-21.24.14-.57-.9-.8-1.06-.23-1.32,4.74-3.8,9.26-6.28,13.64-1.86,3.29-3.84,6.53-5.97,9.71-2.48,1.79-5.01,3.53-7.64,5.19-10.65,6.69-22.49,10.76-35,14.45-4.87,1.44-9.79,2.8-14.73,4.09-6.95-5.01-13.45-10.45-19.49-16.2-.65-.63-1.31-1.26-1.95-1.89,8.73-.96,17.34-3.05,25.67-5.27,7.99-2.13,15.79-4.68,23.81-6.71,10.92-2.76,22.22-6.73,31.12-12.74,3.25-2.19,6.5-4.74,8.19-7.97.28-.52-.57-.94-.94-.44-6.41,8.62-18.13,13.52-29.12,17.23-4.88,1.65-10.02,2.59-14.93,4.11-3.42,1.06-6.84,2.13-10.28,3.15-9.75,2.89-19.7,5.48-29.89,7.07-1.41.22-2.95.45-4.55.66-1.47-1.47-2.9-2.98-4.29-4.51.07-.03.15-.06.23-.09-.19-.21-.38-.42-.54-.65-.08.04-.17.07-.26.11-5.98-6.67-11.17-13.86-14.79-21.57-.17-.37-.88-.21-.73.18.97,2.37,2.13,4.68,3.41,6.93-.01,6,1.73,11.8,3.76,17.52-1.87.47-3.78.8-5.74.92-.88-.39-1.72-.84-2.49-1.39-.56-.4-1.03-.86-1.46-1.35-.32-.37-1.07-.02-.74.38,2.6,3.23,7.06,4.47,11.67,4.85,1.87,5.2,3.76,10.4,5.51,15.64.92,2.75,1.9,5.47,2.96,8.18-6.33,1.37-12.69,2.73-19.09,3.86-3.11.55-6.27.84-9.45.78-1.71-.03-3.36-.31-5.01-.65-1.37-.29-1.71-1.5-.51-2.18.68-.38.74-.46,1.38-.93.15-.11-.08-.28-.22-.18-1.27.89-3.09,1.26-3.43,2.72-.02.1.02.22.14.27,4.95,2.06,10.33,1.95,15.69,1.23,6.81-.9,13.58-2.51,20.25-3.92.21-.04.4-.09.6-.13,3.34,8.43,7.37,16.66,12.3,24.55-3.99-1.05-7.93-2.22-11.8-3.57-6.3-2.2-12.31-4.76-17.26-8.71-2.83-2.26-5.44-4.69-8.15-7.04-.1-.09-.28.03-.2.13,2.2,2.48,4.76,4.75,7.35,6.95,4.41,3.76,9.6,6.15,15.31,8.38,4.99,1.94,10.15,3.54,15.4,4.9,3.32,5.18,7.05,10.18,10.91,15.1-9.63-2.26-18.96-5.62-27.65-9.67-9.28-4.33-18.85-9.95-24.37-17.68-.08-.11-.29-.01-.21.11,4.93,7.72,13.91,13.21,22.78,17.6,9.42,4.67,19.73,8.29,30.32,10.75,1.33,1.69,2.67,3.38,4.02,5.05-4.28,4.82-8.97,9.44-13.37,14.17-5.04,5.43-10.07,10.86-15.17,16.26-7.67,8.11-15.5,16.13-23.7,23.87-7.4,6.99-15.41,13.42-23.27,20.05-5.84,4.93-11.75,9.78-18.17,14.2-6.51,4.48-14.8,9.79-23.67,9.95-.17,0-.17.23,0,.22,10.18-.12,19.59-6.63,26.95-11.77,8.77-6.12,16.87-13.08,24.96-19.8,23.17-19.26,42.46-41.39,62.61-62.75,1.15-1.22,2.27-2.46,3.38-3.7,1.97,2.47,3.93,4.94,5.86,7.42,4.22,5.45,8.55,10.87,13.3,16.01-4.43,4.97-9.02,9.85-13.79,14.63-21.75,21.79-47.95,40.59-75.32,57.41-6.88,4.23-13.58,8.69-20.89,12.42-3.02,1.55-6.56,3.28-10.27,4.56-.41-1.34-.98-2.66-1.76-3.95-.24-.4-.92-.04-.69.35.7,1.28,1.21,2.58,1.56,3.9-4.15,1.33-8.49,2.03-12.59,1.19-.19-.04-.26.2-.07.24,4.15.94,8.54.39,12.8-.88,1.47,6.25-.59,12.83-3.33,18.76-1.76,3.81-3.97,7.47-6.23,11.09-1.74,2.78-4.05,5.58-5.25,8.56-.17.41.53.57.8.27.32-.39.63-.78.93-1.18.08.05.2.08.33.08,4.51-.13,9.39-2.69,13.11-4.58.33-.17.65-.34.98-.52-.75,1.74-1.54,3.46-2.38,5.16-2.46.96-4.94,1.87-7.45,2.73-3.13,1.07-6.45,1.86-9.49,3.08-.67.27-.16,1.06.5.94,5.29-1.04,10.59-3.05,15.6-5.08-.39.74-.78,1.48-1.19,2.21-1.02,1.83-2.14,3.65-3.53,5.33-.54.65-1.79,2.18-2.91,2.1-.48-.03-.52.56-.1.66,3.05.77,5.52-4.16,6.48-5.73,1.05-1.71,1.99-3.46,2.88-5.23.59-.24,1.18-.48,1.76-.72,6.14-2.5,12.01-5.43,17.53-8.76,10.85-6.55,19.9-14.92,27.18-24.21.24-.31-.35-.57-.59-.28-7.73,9.2-16.83,17.4-27.85,23.96-5.14,3.06-10.63,5.68-16.29,8.02-.32.13-.65.25-.97.37.84-1.78,1.63-3.58,2.37-5.4,4.13-2.3,8-4.94,11.7-7.7,8.36-6.22,16.45-13.46,21.83-21.69.2-.3-.35-.55-.55-.26-5.45,7.67-13.09,14.41-20.97,20.42-3.57,2.72-7.36,5.26-11.35,7.57.4-1.03.79-2.06,1.18-3.09,2.4-6.42,4.41-12.96,5.65-19.61.14-.76.3-1.58.46-2.43,2.14-.29,4.27-.94,6.16-1.64,5.96-2.2,11.67-5.03,17.33-7.71,14.88-7.06,29.61-14.33,44.06-21.98,7-3.71,14.19-7.36,20.73-11.61,6.06-3.94,11.81-8.19,17.32-12.64,7.13-5.75,13.77-11.89,20.24-18.15-.26,4.49-.85,8.95-1.05,13.45-.21,4.78,0,10.32,2.86,14.62.25.38.95.1.81-.3-1.74-5.09-2.69-9.8-2.49-15.12.16-4.55.87-9.08.88-13.62,1.04-1.02,2.08-2.03,3.12-3.05,2.41,1.52,4.92,2.93,7.54,4.19-.84,3.27-1.17,6.68-1.21,10.02-.14-.06-.36-.01-.36.16-.06,7.25-1.49,14.64,1.61,21.62.12.27.64.14.52-.12-2.79-5.97-2.02-12.37-1.74-18.64.03.69.06,1.39.1,2.07.43,7.35,1.79,16.26,7.37,22.29.48.51,1.51.04,1.07-.54-4.75-6.23-6.29-13.95-6.89-21.17-.41-4.86-.42-10.15.69-15.15,2.83,1.3,5.76,2.43,8.8,3.33.2.06.37,0,.49-.11-.3,3.01-.56,6.02-.54,9.04.03,5.45.86,12.79,6.29,16.6.49.34,1.38-.14.94-.62-4.86-5.14-6-10.81-6.03-17.24-.03-6.31,1.07-12.58,1-18.89,0-.4-.74-.39-.74.01-.09,3.5-.49,6.99-.84,10.48-.05-.04-.09-.07-.15-.09-3.11-1.12-6.07-2.36-8.91-3.74.59-2.24,1.41-4.41,2.56-6.45.27-.49-.59-.9-.89-.41-1.22,1.99-2.11,4.11-2.77,6.29-2.4-1.2-4.72-2.48-6.95-3.87,1.84-1.81,3.68-3.63,5.51-5.45.92-.9,1.86-1.78,2.81-2.66.49.4,1.04.72,1.72.92.57.17.91-.57.39-.8-.5-.22-.92-.54-1.26-.91,2.77-2.52,5.62-4.96,8.44-7.44.03.35.06.69.08,1.03-.03.35.3.51.63.5.33.01.67-.16.65-.52.03-.69-.02-1.4-.12-2.13.4-.36.81-.72,1.22-1.09,4.48-4.1,9.24-8.9,10.15-14.57.08-.49-.81-.7-.93-.19-1.38,5.76-5.71,10.41-10.62,14.74-.32-1.62-.81-3.26-1.08-4.77-.55-3.08-1.04-6.16-1.5-9.24-.24-1.61-.46-3.23-.65-4.84,9.87,1.06,19.85,1.27,29.15-2.08.65-.23.37-1.11-.32-.89-9.47,3.06-19.21,2.95-28.95,1.95-.4-3.46-.7-6.93-.89-10.41,1.21.14,2.41.27,3.62.38,8.11.71,16.23.8,24.37.94,5.66.1,11.48.86,17.06-.15.14-.03.27-.06.41-.1,2.09,2.01,4,4.18,6.15,5.98,5.97,5,12.31,9.72,18.86,14.2.25.18.52.34.77.51-1.14,4.83-1.74,9.75-2.45,14.63-1.65,11.38-5.22,22.55-8.7,33.62-2.08,6.63-4.43,13.21-7.08,19.71-1.26,3.09-2.62,6.15-4.05,9.19-.8,1.71-1.65,3.4-2.52,5.09-.76,1.47-1.88,2.98-2.41,4.5-3.3,9.42-8.21,19.87-16.81,26.88-1.2.98-2.55,1.84-4.02,2.52-.61.29-.06,1.01.55.76,4.61-1.86,7.8-5.36,10.52-8.83,3.35-4.27,5.88-8.99,8.08-13.72.98-2.1,1.85-4.23,2.64-6.39,1.14-3.08,3.08-6.04,4.54-9.04,3.07-6.32,5.69-12.79,8.07-19.31,2.38-6.54,4.45-13.17,6.34-19.81,1.55-5.43,3.35-10.86,4.53-16.35,1.62-7.55,1.97-15.33,3.62-22.89,4.58,3.02,9.39,5.81,13.8,9,2.76,1.99,5.55,3.95,8.38,5.87-2.28,1.35-4.64,2.6-7.08,3.73-.25-.04-.54.06-.55.34-.53,18.04-8.21,34.71-12.86,52.12-3.72,13.95-7.76,29.37-21.27,39.26-.37.28.16.83.56.57,13.97-8.7,18.06-25.04,21.63-38.33.95-3.54,1.86-7.09,2.88-10.61,1.33-4.57,3.21-9.04,4.69-13.58,3.12-9.57,5.39-19.39,5.24-29.34,2.61-1.04,5.08-2.29,7.45-3.67.15.11.31.21.46.32,2.27,1.53,4.58,3.04,6.92,4.51-2.25,3.54-3.28,7.74-4.04,11.52-.71,3.5-1.1,7.05-1.64,10.56-.73,4.71-2.02,9.38-2.94,14.07-1.07,5.43-2.1,10.87-3.35,16.28-1.28,5.52-2.63,11.19-5.32,16.36-4.61,8.86-12.32,16.48-16.43,25.52-.22.48.72.79,1,.33,5.06-8.35,11.53-16.09,16.23-24.58,5.17-9.37,6.55-20.32,8.48-30.4,1.56-8.19,3.3-16.3,4.49-24.53.67-4.63,1.51-10.22,4.22-14.7,5.69,3.55,11.59,6.88,17.8,9.77,1.74.8,3.55,1.6,5.4,2.35-.88,7.22-1.78,14.44-2.63,21.66-1.73,14.46-3.28,28.9-4.5,43.39-.46,5.49-.91,10.99-1.37,16.49-1.94-1.07-3.91-2.1-5.93-3.05-3.16-1.48-6.51-2.67-10-3.47-.19-.04-.24.18-.08.22,5.77,1.65,10.97,4.18,15.95,7.02-.13,1.58-.26,3.15-.39,4.73-.29,3.56-.58,7.11-.87,10.67-.23,2.84-.7,5.73-.51,8.57.07,1.1.9,10.84-.98,10.29-.52-.16-.86.55-.36.74,2.67.99,2.81-2.75,2.87-4.02.18-4.04-.44-7.99-.11-12.03.48-6.1.99-12.2,1.48-18.29,2.9,1.68,5.73,3.44,8.57,5.18-.08,3.32-.14,6.64-.15,9.96,0,3.57.17,7.3-1.35,10.7-.14.32.46.5.65.22,1.42-2.15,1.71-4.52,1.86-6.94.23-3.68.09-7.38.14-11.07.02-.71.04-1.43.05-2.14,2.65,1.61,5.32,3.18,8.06,4.62,9.07,4.76,19.27,6.98,29.55,9.19,10.76,2.32,21.72,4.14,32.81,4.85,9.83.63,20.32.36,29.41-3.1,3.63-1.38,6.79-3.45,9.15-6.11.37-.41-.46-.91-.85-.53Zm-237.09-142.5c-2-.22-3.99-.47-5.98-.73.12-1.05.25-2.11.38-3.16.28-2.34.47-4.68.64-7.03,1.37.18,2.74.36,4.11.52.16,3.47.46,6.95.85,10.41Zm-.88-11.37c-1.34-.16-2.68-.32-4.01-.5.04-.65.09-1.3.14-1.95,1.31-1.97,2.59-3.95,3.84-5.95-.06,1.7-.08,3.39-.07,5.09.01,1.11.06,2.21.1,3.31Zm-3.13-11.32c.14-1.22.3-2.45.45-3.69.99.31,1.99.61,2.99.9-.09.97-.16,1.95-.21,2.93-1.24,1.95-2.5,3.9-3.77,5.82.14-1.99.31-3.97.53-5.96Zm-7.61-6.47c2.31.87,4.69,1.7,7.12,2.48-.29,2.05-.58,4.09-.83,6.11-.23,1.96-.41,3.92-.56,5.87-.55.82-1.08,1.64-1.63,2.45-10.46-1.53-20.77-3.64-31.24-5.34-.52-.08-1.04-.17-1.57-.25,4.39-6.01,8.52-12.16,12.55-18.36,5.24,2.57,10.61,4.94,16.17,7.03Zm5.08,18.03c.12.02.24.03.36.05-.23,3.07-.46,6.15-.85,9.23-.04.32-.07.64-.12.96-1.84-.24-3.68-.5-5.52-.75-.19-.03-.39-.05-.58-.08,2.31-3.1,4.55-6.24,6.71-9.41Zm-8.33,9.21c-11.58-1.46-23.27-2.11-34.76-3.95,3.04-3.66,5.94-7.39,8.73-11.18,10.92,1.86,21.78,4.1,32.77,5.7-2.19,3.17-4.43,6.31-6.73,9.43Zm-26.77-56.97c12.32-3.62,23.8-7.73,34.33-14.25,1.73-1.07,3.41-2.18,5.09-3.31-.17.24-.33.48-.5.72-8.55,11.85-16.35,24-24.19,36.17-.39.61-.78,1.21-1.17,1.81-6.89-3.43-13.53-7.23-19.94-11.23-2.95-1.84-5.82-3.77-8.62-5.76,5.03-1.32,10.04-2.7,15.01-4.16Zm-56.98-16.58c1.87-.12,3.69-.4,5.48-.79,0,0,0,0,0,0,.27.75.53,1.49.8,2.24-2.24-.22-4.37-.67-6.28-1.45Zm6.33-.99s.07-.02.1-.03c-.05-.05-.09-.09-.13-.14-.04-.04-.06-.09-.09-.14h0s0,0,0,0c-.08-.13-.12-.26-.14-.4-1.93-5.24-3.56-10.56-3.94-16.02,2.8,4.77,6.21,9.28,9.99,13.59.46.24.8.63.88,1.1.01,0,.04-.01.05-.02,1.29,1.44,2.62,2.85,3.97,4.24-3.16.36-6.53.57-9.73.35-.33-.84-.64-1.68-.96-2.52Zm3.49,9.07c-.71-1.89-1.46-3.78-2.19-5.69,2.51.14,5.02.06,7.29-.08.99-.06,1.99-.15,2.98-.25.46.46.91.92,1.38,1.37,6.13,6.07,12.87,11.74,20.07,16.97-7.62,1.97-15.29,3.78-23,5.46-2.25-5.89-4.28-11.84-6.52-17.79Zm14.82,36.1c-3.18-5.7-5.69-11.53-7.97-17.43,7.95-1.7,15.85-3.56,23.7-5.59,3.23,2.31,6.52,4.54,9.92,6.66,6.29,3.92,12.79,7.62,19.55,10.97-4.09,6.29-8.27,12.54-12.71,18.66-9.3-1.52-18.62-3.15-27.68-5.43-1.7-2.56-3.32-5.17-4.81-7.84Zm5.51,8.87c8.51,2.11,17.24,3.65,25.92,5.1.16.02.33.05.5.08-2.77,3.79-5.64,7.53-8.65,11.2-1.57-.26-3.14-.54-4.7-.85-.64-.13-1.27-.28-1.89-.41-3.88-4.97-7.7-9.95-11.18-15.11Zm12.07,16.24c1.67.36,3.34.69,5.02.99-.25.29-.48.6-.73.89-.48.58-.98,1.16-1.49,1.73-.93-1.2-1.87-2.42-2.81-3.61Zm4.78,6.14c-.47-.61-.94-1.22-1.42-1.82.91-1.05,1.82-2.1,2.71-3.15,11.48,1.94,23.21,2.61,34.8,4-5.78,7.77-11.92,15.34-18.45,22.71-6.39-6.94-11.98-14.39-17.64-21.73Zm-93.86,116.78c-2.3.26-4.58.05-6.62-1.03-.25-.13-.46.19-.22.33,2.02,1.23,4.36,1.51,6.72,1.29-.2.92-.41,1.8-.58,2.6-1.25,6.02-3.19,11.95-5.36,17.78-.69,1.86-1.43,3.7-2.19,5.54-.39.21-.76.44-1.15.65-2.23,1.19-4.56,2.27-6.96,3.21-2.06.8-4.24,1.24-6.34,1.9,1.67-2.39,3.06-4.99,4.55-7.39,2.3-3.72,4.43-7.52,6.18-11.44,2.53-5.69,4.2-12.07,2.62-18.02,3.19-1.03,6.3-2.43,9.19-3.89,1.17,2.45.76,5.63.17,8.49Zm127.11-75.33c-.26-.05-.58.07-.59.36,0,.08,0,.16,0,.23-6.17,5.97-12.52,11.82-19.19,17.38-5.58,4.66-11.46,9.07-17.61,13.2-6.67,4.49-14.07,8.28-21.28,12.14-14.41,7.7-29.12,15-43.96,22.13-4.87,2.34-9.77,4.66-14.74,6.84-2.64,1.16-5.84,2.49-9.05,2.97.47-2.88.7-6.05-.54-8.56,2.11-1.08,4.11-2.18,5.92-3.19,4.67-2.59,9.03-5.51,13.57-8.22,6.73-4.02,13.32-8.21,19.8-12.52,13.46-8.94,26.38-18.44,38.74-28.39,11.64-9.38,22.07-19.91,31.84-30.63.53-.57,1.05-1.16,1.58-1.74,2.85,3.04,5.85,5.97,9.09,8.75,2.79,2.4,5.8,4.69,8.99,6.77-.84.83-1.69,1.65-2.54,2.47Zm10.84-10.78c-2.43,2.47-4.87,4.94-7.35,7.39-4.98-3.19-9.56-6.82-13.81-10.89-1.54-1.48-3.02-3.01-4.46-4.55,6.78-7.56,13.24-15.36,19.26-23.39.32.04.64.08.95.12,1.88.24,3.78.51,5.7.77-.79,6.42-1.46,12.89-1.3,19.35.05,2.51-.07,7.43,2.05,10.21-.35.33-.7.66-1.04,1.01Zm8.09-26.29c.45,3.36.99,6.72,1.55,10.07.37,2.18.99,4.43,1.33,6.65-3.02,2.59-6.18,5.08-8.96,7.64-.55-.99-.84-2.13-1.07-3.07-.74-3.09-.74-6.31-.7-9.45.06-5.33.6-10.65,1.22-15.95,2.06.27,4.13.54,6.21.78.14,1.11.26,2.22.41,3.33Zm132.37-3.66c-.51,5.69-.33,11.4-.43,17.1-.16,9.16-.5,18.33-.93,27.49-1.35-.44-2.68-.91-4-1.41,1.15-9.39,2.31-18.76,3.42-28.14.66-5.62,1.02-11.18,1.18-16.82.03-.89.04-1.79.05-2.7.44-.42.87-.84,1.3-1.26-.21,1.91-.42,3.82-.59,5.73Zm3-21.68c6.26-3.35,12.39-7.34,17.1-12.08-2.1,2.96-4.02,6.02-5.94,8.98-2.51,3.86-5.06,7.7-7.96,11.38-1.33,1.69-2.79,3.28-4.31,4.84.03-.31.06-.62.09-.94.42-4.05.82-8.12,1.02-12.19Zm-40.15,47.27c-3.67-2.48-7.28-5.03-10.86-7.61-2.87-2.06-6.21-3.77-9.22-5.71-.99-.64-1.96-1.3-2.94-1.95.51-2.19,1.15-4.35,1.97-6.48.23-.58.47-1.15.74-1.72,10.28-.29,19.94-5.4,28.48-9.62,7.75-3.81,16.25-6.62,24.11-10.28,2.3-1.07,4.67-2.22,7.02-3.46-.16,2.06-.37,4.08-.55,6.02-.25,2.6-.54,5.2-.83,7.8-.5.49-1,.99-1.5,1.47-.08-3.73-.55-7.44-2.17-10.97-.07-.15-.36-.08-.3.07,1.65,3.62,2,7.51,1.95,11.4-.68.66-1.37,1.32-2.05,1.98-10.36,9.98-20.84,21.1-33.86,29.04Zm9.45,6.12c-.38-.24-.75-.48-1.14-.71,1.23-1.76,2.77-3.31,4.78-4.51.34-.21.01-.67-.35-.47-2.15,1.2-3.8,2.77-5.1,4.56-2.34-1.47-4.66-2.97-6.93-4.5,4.59-2.79,8.79-6.08,12.77-9.37,7.16-5.89,13.7-12.26,20.26-18.6.71-.68,1.42-1.36,2.13-2.04-.07,2.04-.22,4.06-.32,6.04-.36,6.9-1.23,13.74-2.09,20.62-.83,6.72-1.64,13.44-2.46,20.16-7.66-3.01-14.81-7.05-21.57-11.17Zm23.61,73.3c-.32,8.25-.74,16.5-.99,24.76-.02.5-.02,1.01-.04,1.51-2.84-1.69-5.66-3.38-8.54-5.01.67-8.29,1.33-16.58,2.02-24.87,1.58-19.02,3.81-38.01,6.13-56.98,1.34.52,2.7,1.01,4.08,1.46-.23,4.95-.49,9.9-.76,14.85-.4,7.39-.85,14.78-1.3,22.17-.44,7.36-.32,14.75-.61,22.12Zm-230.1-183.88c3.13,1.65,7.13,1,10.52.29,4.79-1.01,9.58-2.47,14.28-3.73,11.19-2.99,21.86-7.13,32.08-11.9,10.9-5.09,21.76-10.29,32.15-16.06,4.71-2.61,9.37-5.37,13.8-8.3,2.23-1.48,4.32-3.05,6.16-4.87,1.34-1.34,2.53-2.24,2.74-4.05.08-.71-1.39-.85-1.49-.15-.31,2.01-2.6,3.62-4.22,5.03-1.95,1.69-4.22,3.12-6.47,4.51-4.53,2.8-9.09,5.54-13.82,8.12-9.61,5.25-19.64,9.95-29.62,14.69-9.5,4.52-19.46,8.37-29.79,11.4-4.37,1.28-8.8,2.42-13.16,3.71-4.1,1.21-8.8,2.47-13.04,1.1-.15-.05-.23.15-.1.21h0Z"/>
        <path d="m1614.3,1050.85c-9.83,4.6-18.25,11-27.82,15.96-9.48,4.91-20.29,7.75-30.98,10.29-15.84,3.77-33.49,6.81-50.47,6,6.06-1.8,12.15-3.54,18.23-5.3,6.39-1.84,12.74-3.79,18.85-6.2,5.59-2.21,10.68-5.1,16.08-7.55,9.45-4.29,19.13-8.26,27.84-13.55,7.92-4.8,15.48-11.11,17.67-19.29.14-.52-.8-.72-.97-.21-5.4,16.76-28.36,24.7-45.09,32.29-5.14,2.33-9.98,5.06-15.23,7.24-6.24,2.6-12.85,4.59-19.42,6.53-6.37,1.88-12.7,3.88-19.09,5.69-.26.07-.52.15-.78.23-5.3-.34-10.52-1.08-15.6-2.3-.42-.1-.58.44-.17.54,4.46,1.18,9.07,1.94,13.74,2.38-5.51,1.74-10.89,3.75-16.91,3.91-.28,0-.28.36,0,.36,6.58-.06,12.56-2.28,18.62-4.12,17.17,1.3,35.23-1.73,51.38-5.37,10.77-2.42,21.72-5.24,31.39-9.91,10.28-4.98,19.15-11.68,29.39-16.69.74-.36.05-1.28-.68-.94Z"/>
        <path d="m1503.3,1200.79c-3.76,8.15-7.29,16.35-12.42,24.01-5.42,8.08-12.67,14.79-21.14,20.75-17.07,11.99-37.33,22.78-58.98,28.01-.16.04-.09.25.08.21,21.75-5.19,41.55-15.4,58.88-27.27,8.64-5.93,15.92-12.63,21.56-20.68,5.46-7.79,9.37-16.35,12.93-24.83.2-.48-.7-.65-.91-.19Z"/>
        <path d="m1509.71,1222.33c-7.15,15.75-23.05,28.72-40.62,36.81-8.56,3.93-17.63,6.81-26.72,9.77-8.48,2.76-17.17,5.83-23.61,11.33-.26.22.14.54.41.33,7.52-5.76,17.19-8.86,26.63-11.82,8.91-2.8,17.7-5.8,25.97-9.74,8.75-4.17,16.63-9.64,23.47-15.75,6.61-5.91,12.69-12.92,15.6-20.67.23-.61-.88-.82-1.14-.24Z"/>
        <path d="m1595.8,1241.66c0-.08-.15-.08-.15,0-.1,3.3-.47,6.69-.97,9.96-.44,2.9-1.19,5.68-1.29,8.62-.1,3.12.17,6.24.43,9.35.2,2.61-.08,5.59.71,8.12.12.39.83.37.94-.02.68-2.29.02-5.01-.17-7.35-.26-3.12-.52-6.23-.53-9.36,0-3.14.81-6.13,1.24-9.23.47-3.44-.11-6.66-.21-10.1Z"/>
        <path d="m1599.69,1256.46c-.21-4.92-.13-9.9-.67-14.81-.05-.52-.77-.28-.78.03-.51,4.89-.07,9.9.09,14.8.15,4.61-.23,9.47.68,14.01.06.29.63.27.69,0,.9-4.54.18-9.44,0-14.02Z"/>
        <path d="m1587.42,1267.33c-.02-.09-.09-.15-.17-.19-1.47-4.65-1.06-9.49-.96-14.28.07-3,.64-7.52-2.61-9.63-.39-.26-.93.17-.56.47,3.12,2.5,1.8,8.06,1.76,11.31-.05,4.59-.83,9.6,1.55,13.91.35.64,1.41.13,1.28-.46-.09-.38-.18-.76-.28-1.13Z"/>
        <path d="m1465.21,1279.06c-.43-11.54,1-24.12-4.06-35.05-.11-.24-.54-.14-.46.11,1.94,6.06,2.61,12.23,2.82,18.47.21,5.79-.61,11.92.38,17.66.11.63,1.07.75,1.33.13.13-.28.26-.55.39-.82.11-.23-.12-.56-.41-.5Z"/>
        <path d="m1836.83,1228.15c-4.87,2.14-9.58,4.65-14.35,6.94-5.13,2.46-10.07,5.12-14.83,8.05-8.61,5.31-15.78,12.24-22.42,19.17-.43.45.32,1.08.79.63,7.24-6.82,14.24-13.83,23.08-19.3,4.5-2.78,9.22-5.27,14.06-7.61,4.76-2.31,9.94-4.4,14.26-7.26.44-.3-.14-.81-.59-.61Z"/>
        <path d="m1808.86,1235.4c-5.57,3.14-11,6.78-15.56,10.88-2.14,1.92-4.05,4.02-5.99,6.08-1.56,1.66-3.32,3.59-3.99,5.63-.09.27.39.44.56.19,2.58-4.09,6.54-7.81,10.25-11.24,4.41-4.07,9.89-7.64,15.35-10.69.63-.36.02-1.21-.62-.85Z"/>
        <path d="m1793.77,1240.03c-2.13-.44-5.4,3.32-6.46,4.37-1.33,1.31-2.51,2.75-3.61,4.2-.21.27-2.6,4.45-2.53,4.46-.05,0-.08.03-.08.06,0,.08.01.15.02.23.02.26.45.37.61.13,1.83-2.72,3.54-5.33,5.86-7.8,1.13-1.22,2.39-2.34,3.74-3.38.5-.39,2.34-1.18,2.66-1.83.09-.17.02-.38-.22-.44Z"/>
        <path d="m1780.52,1250.51c-1.6-1.32-3.74-1.46-5.9-1.55-3.33-.15-6.72.22-10.03.49-.13.01-.13.16,0,.17,4.22.27,11.84-1.12,15.06,1.63.56.47,1.43-.27.87-.73Z"/>
        <path d="m1784.86,1256.43c-2.3-.65-3.91-1.67-6.36-2.04-2.2-.33-4.46-.54-6.69-.69-5.47-.37-11,.22-16.47.34-.31,0-.31.4,0,.4,5.15.06,10.3-.22,15.45.08,2.47.15,4.94.53,7.38.88,2.38.34,4.12,1.51,6.36,2.04.79.19,1.08-.8.32-1.01Z"/>
        <path d="m1786.69,1262.47c-2.46-.99-4.92-.96-7.6-1-3.41-.05-6.81-.39-10.22-.46-7.5-.16-14.99-.78-22.5-.32-.44.03-.44.58,0,.56,6.52-.19,12.96.47,19.45.81,3.21.17,6.43.11,9.64.37,3.41.28,7.36-.16,10.5,1.09.85.34,1.57-.72.72-1.06Z"/>
      </g>
      <path class="cls-2" d="m1836.32,1289.99c-9.32-.15-19.83.12-29.8.17.83-.19-.13-.46-2.85-.46-4.83-.02-8.98-.05-13.26.04-3.21.01-6.5.01-9.77,0,5.31-.09,10.61-.17,15.9-.24,3.52-.04,3.51-.52-.08-.54-9-.07-17.85-.01-26.65.1-.53-.05-1.28-.08-2.25-.08-3.9,0-7.8,0-11.7,0,1.58-.17.76-.53-1.8-.59-10.6-.26-21.48-.21-32.29-.19-.13-.03-.3-.06-.51-.09.37-.01.77-.02,1.14-.03,3.35-.13,3.37-.57-.11-.68-6.89-.23-13.92-.32-20.99-.36-2.79-.07-5.66-.1-8.08-.13-3.22-.04-6.45-.06-9.67-.07-.38-.02-.78-.03-1.22-.03-28.62-.15-57.44,0-85.92.28-6.08.06-12.19.13-18.29.2-14.57.07-29.13.14-43.7.21-30.2.03-60.39.08-90.59.13-11.73-.05-23.96-.1-35.57.04-2.7,0-5.39,0-8.09,0-.31,0-.61-.01-.97-.01-.41,0-.81,0-1.22.01-4.67,0-9.33,0-14,0-12-.44-26.06-.29-39.28-.07-9.08.08-18.14.19-27.19.29-13.33-.04-26.67-.1-39.91.02-1.54-.01-3.08-.02-4.62-.04,1.65-.04,3.27-.08,4.78-.12,14.03-.34,28.62-.11,42.67-.52,2.72-.08,1.5-.49-1.23-.42-21.47.6-59.41-.19-73.88,2.07-.12.02-.17.04-.22.07-1.22.04-1.95.12-2.29.21-3.72.01-7.44.03-11.16.05-4.83.03-4.67.71.12.73,8.5.04,16.96.01,25.38-.05-.27.09-.21.18.15.27-1.36.05-2.7.1-3.96.17-2.21.12-1.5.43.57.5-1.47.04-2.96.07-4.43.11-3.92.11-2.85.61.63.68-.87,0-1.73.02-2.58.02-4.46.05-4.49.72.11.7.47,0,.93,0,1.39-.01-1.41.11-2.03.38.09.47,4.72.2,9.69.29,14.77.33-2.08.17-1.49.6,1.53.65,6.45.11,12.93.16,19.41.18-1.95.12-2.42.37-1.16.53-.52.03-1.07.05-1.57.09-.75.05-1.09.12-1.27.19-2.7.08-5.31.18-7.72.33-3.38.2-1.49.64,1.98.67.68,0,1.37.01,2.05.02-.5.02-1.02.03-1.52.04-3.03.1-2.7.48.09.58,10.68.38,22.16.22,33.38.18.23.16,1.39.31,3.56.32,5.45.02,10.88,0,16.29-.02-5.96.39-20.63.28-25.88.36-1.32.02-1.97.13-2.08.24-1.38.22-.42.57,3,.56,3.6,0,7.16-.03,10.7-.07.92,0,1.83-.01,2.74-.02h.78c.4.03.85.06,1.42.08,3.37.08,6.78.15,10.19.21-.22.01-.46.02-.67.03-1.81.11-1.83.33-.55.48,5.2.61,13.5.69,21.87.73-.15.11.26.24,1.23.33-1.66.06-3.17.13-4.31.24-1.13.11-1.24.34.07.44,3.66.29,7.76.41,12.05.44-3.35.12-6.51.29-9.27.56-1.86.18-.64.45,1.5.53,13.06.5,26.1.12,39.29,0-2.31.1-4.6.2-6.85.32-12.4-.03-24.37-.08-25.88-.08-3.95-.02-4.11.53-.77.65,2.92.1,5.92.15,8.94.18.06.05.19.1.47.15-.05,0-.11,0-.16,0-2.11,0-3.14.15-3.21.31-4.09.06-8.13.14-12.02.29-3.74.14-2.99.64.85.69-.34.14.13.3,1.44.37,7.53.39,15.49.22,23.43.19-1.81.08-3.56.17-5.12.32-1.77.17-.62.43,1.42.5,2.01.07,4.01.11,6.01.13-.02.06.16.13.47.18-.24,0-.48,0-.72,0-2.79,0-5.48.02-7.96.05-4.38.05-4.48.71.11.7,3.25,0,6.53-.04,9.81-.07,1.84,0,3.69-.01,5.55-.02-1.39.05-2.77.1-4.12.18-2.7.15-1.73.57,1.04.62-.07,0-.14.01-.21.02-1.97.18-.65.5,1.69.55-1.12.13-2,.28-2.41.46-.36.16.55.36,2.31.39,4.04.08,7.73.05,11.49-.03.54.02,1.14.03,1.83.02,1.55-.03,2.22-.09,3.67-.18,3.05-.19.98-.68-2.55-.58-2.66.08-5.16.14-7.75.16,3.49-.24,9.28-.33,12.47-.41,3.61-.09,2.69-.65-.96-.64-1.29,0-2.58.01-3.87.02,2.45-.1,5.01-.18,7.77-.24,1.06-.02,1.74-.08,2.09-.15,1.55-.04,3.08-.09,4.57-.16,2.53-.12,1.92-.44.06-.58,1.77-.09,3.45-.21,5.02-.34,2.55-.22.15-.57-2.57-.59-2.07-.01-4.11,0-6.15,0,4.82-.12,9.56-.26,13.92-.5,1.22-.07,1.74-.18,1.73-.3,1.89-.08,3.75-.17,5.57-.27.52-.03.91-.07,1.18-.12l1.28-.12c4.8-.04,4.81-.75-.1-.75-3.93,0-7.87,0-11.79-.02-.05,0-.08-.01-.14-.01-.85-.07-1.72-.13-2.62-.19,2.81-.06,5.6-.13,8.36-.22,1.15-.04,1.84-.11,2.19-.2,2.63-.17,2.1-.65-1.8-.64-2.35,0-4.68.01-7.01.03.45-.12.31-.27-.77-.35-6.04-.46-13.19-.67-20.74-.75,2.62-.07,5.22-.15,7.77-.26,3.27-.13,3.39-.57-.11-.68-8.44-.27-17.27-.31-26.06-.38,6.39-.07,12.74-.18,18.95-.37,2.88-.09,3.87-.55.79-.68-10.92-.49-22.62-.59-34.42-.68-1.27-.01-2.54-.02-3.81-.04,0,0,0,0,.01,0,12.83.04,26.14.1,38.88-.12,9.14.1,18.28.09,27.41.05.23.17,1.51.33,3.56.33,3.27,0,6.52,0,9.78,0-8.59.19-17.08.42-25.36.74-3.75.15-3.03.67,1.05.69,3.9.02,7.77.02,11.64,0-1.42.18-.54.52,1.94.56,17.32.28,34.27-.06,51.25-.35-.55.04-.96.09-1.22.14-3.67.05-7.33.1-10.96.15-12.08.16-25.18.26-34.86,1.07-1.9.16-.88.54,1.63.58,1.43.02,2.86.03,4.28.04-.19,0-.37,0-.55,0-4.4.03-4.32.67.11.68,12.57.01,25.11.05,37.63.11-11.05.09-22.04.24-32.91.5-3.41.08-3.51.65.12.7,2.41.04,4.82.06,7.24.08-1,.03-2,.05-2.98.08-4.16.13-2.89.68,1.08.71,14.54.12,29.05.01,43.61,0,5.06,0,10.17-.05,15.27-.07-13.75.12-27.75.09-41.05.52-3.17.1-3.63.64.11.7,7.61.11,15.22.11,22.83.07-5.13.08-10.19.21-15.09.42-1.41.06-1.85.17-1.74.29-6.02.09-11.88.24-17.21.57-3.47.21-1.48.65,2,.69,4.33.05,8.63.05,12.94.05-2.63.11-5.19.25-7.62.43-1.51.11-2.48.33-1.23.5,4.25.58,12.55.66,20.1.64-.06.08.1.15.48.21,3.26.53,9.58.67,16.3.7-6.11.16-12.27.32-18.08.57-3.25.14-1.34.64,1.83.63.46,0,.9,0,1.36,0-.59.03-1.21.05-1.8.09-2.84.15-1.78.53.76.63-2.14.22-.64.58,2.59.6,4.29.04,8.54.01,12.78-.03.75.04,1.67.06,2.74.03,2.02-.06,4.04-.11,6.08-.15,4.41-.06,8.82-.12,13.28-.14,4.62-.02,4.52-.73-.11-.71-.84,0-1.68,0-2.52.01.49-.2-.59-.44-3.29-.44-3.1,0-6.21.02-9.3.06,1.02-.03,2.05-.06,3.08-.1,3.21-.1,3.09-.54.42-.65,3.58-.11,7.12-.24,10.52-.41,2.49-.13,1.95-.57-.9-.61-6.05-.09-21.12.16-27.62-.22.76-.05,1.56-.09,2.39-.13,13.03-.1,25.93-.39,38.98-.43,4.48-.01,4.38-.7-.11-.69-12.27,0-27.65-.06-39.81.44-7.13.08-15.6.14-20.58-.05,15.86-.83,36.01-.51,52.76-1.13,2.32-.09,2.96-.31,2.28-.49,3.8-.04,7.57-.07,11.28-.08,4.74,0,4.63-.74-.12-.73-4.39,0-8.77.02-13.17.03,7.65-.06,15.19-.19,22.39-.51,2.93-.13,1.92-.6-.98-.66-5.27-.11-10.54-.15-15.8-.16,1.44-.04,2.87-.09,4.3-.15,3.38-.13,3.46-.59-.12-.7-11.65-.37-23.92-.24-35.94-.18-2.87.02-5.78.03-8.68.04,2.77-.03,5.54-.07,8.31-.11,5.47-.08,10.97-.18,16.48-.27,9.69-.03,19.37-.06,29.09-.22h-.86c.32,0,.64,0,.96-.01,4.31-.07,2.71-.68-1.08-.71-3.18-.02-6.38-.02-9.58,0-.14-.13-.93-.25-2.59-.27-9.58-.13-19.2-.23-28.83-.32,9.86-.13,20.02-.24,28.77.03,3.1.1,4.24-.38,1.25-.48-4.03-.14-8.25-.2-12.53-.21.78-.06,1.24-.14,1.35-.23,6.77-.09,13.52-.19,20.25-.3.12,0,.2,0,.32-.01,3.05-.03,6.08-.08,9.11-.13.15,0,.27.02.44.02,4.51.11,9.05.16,13.61.18-.47.02-.95.04-1.42.06-2.23.1-1.96.4-.63.55,1.68.19,3.8.31,6.12.4-2.15.12-4.24.25-6.2.41-1.99.16-.83.55,1.65.58,2.1.03,4.21.05,6.32.07.3.11,1.11.2,2.43.22,2.77.05,5.55.09,8.33.12-.86.03-1.75.05-2.61.08-2.1.07-2.75.28-2.24.45-4.8.18-8.59.43-9.93.85-1.69.52.81.77,4.93.89-.49.03-.98.07-1.44.11-1.65.14-.99.42.75.52,2.53.13,4.94.2,7.34.23.28.1,1.03.19,2.24.23.24,0,.46.01.69.02.15.15,1.16.28,3.08.28,2.74,0,5.05-.06,7.45-.19,1.7-.09,1.84-.28,1.07-.42,2.87-.13,2.44-.62-1.33-.62-1.7,0-3.2.02-4.65.04-2.09.02-4.15.04-6.21.03,2.39-.1,4.93-.17,7.51-.21,2.69-.03,5.01-.06,6.38-.07,4.34-.02,4.25-.69-.11-.67-1.27,0-2.52.02-3.76.03-2.14.02-4.27.05-6.4.07-5.17.05-14.78-.02-4.76-.38,9.38-.34,19.7-.32,29.1-.64,2.09-.07,2.75-.31,2.14-.49,1.89-.02,3.78-.05,5.67-.07,4.42-.06,4.55-.71-.11-.7-.5,0-.99,0-1.49,0,2.8-.06,5.59-.12,8.38-.18,3.94-.1,2.87-.69-1.05-.69-1.28,0-2.55.01-3.83.02,1,0,2.02-.01,3.03-.02,1.3,0,2.59-.01,3.84-.02,4.49-.04,4.47-.71-.11-.7-2.47,0-4.94.02-7.41.04-11.97.05-24.85.05-36.51.35-2.78,0-5.46-.04-7.81-.11,16.86-.49,35.58-.12,52.77-.47,4.01-.08,2.81-.69-1.04-.69h-39.4c-5.51,0-10.99.03-16.46.03,8.38-.16,17.18-.19,25.39-.26,13.81-.13,27.59-.29,40.97-.66,3.89-.11,2.79-.66-1.03-.68-19.72-.08-39.46.22-59.11.21,4.7-.04,9.41-.06,14.07-.11,14.66-.13,28.95-.52,43.71-.56,3.09,0,3.95-.33,2.77-.53,4.68-.05,9.34-.11,13.97-.2,3.19-.06,3.02-.4,1.17-.58,2.01-.04,4.02-.08,6.02-.13,3.29-.09,3.35-.61-.11-.68-2.06-.04-4.11-.07-6.17-.1.59-.2-.93-.46-3.4-.49-17.34-.2-34.7-.19-52.12-.16-12.25.02-28.32.29-41.53.06,3.5-.04,6.92-.11,10.07-.24,9.64-.14,19.63-.16,29.06-.25,6.09-.06,12.2-.11,18.33-.16,14.5-.01,28.98-.02,43.48-.12,4.62-.03,4.47-.68-.11-.71-9.38-.05-18.78-.04-28.18.01,2.87-.07,5.67-.15,8.36-.24,9.82-.17,19.81-.1,28.94-.54,2.73-.13,2.05-.61-.97-.66-1.89-.03-3.77-.05-5.65-.07,7.07-.03,14.16-.04,21.13-.16.47.03.99.05,1.63.04,3.23,0,6.44-.02,9.64-.04-.49.15.13.34,1.53.44.76.05,1.56.1,2.35.15-3.41.08-6.83.17-10.27.27-3.93.12-3.03.7,1.08.71.83,0,1.68,0,2.53,0-.21.02-.44.03-.64.05-2.08.19-.63.46,1.51.53-.28.02-.57.04-.84.06-1.54.11-1.87.3-1.07.44-4.68.22-8.97.51-12.56.9-1.49.16-1,.4.59.5-3.27.15-6.38.33-9.2.57-1.68.15-.92.41.75.52.24.02.48.02.72.03-5.14.25-9.92.56-14.32.96-2.12.19-.31.54,2.34.54,8.9,0,9.42.03,15.45-.6,2.09-.22,4.36-.42,6.73-.61.81-.03,1.57-.05,2.4-.08,1.46-.04,2.15-.15,2.24-.27,4.88-.34,10.03-.64,15.06-.96.38-.02.59-.06.72-.09,2.76-.14,1.66-.61-1.73-.61h-9.74c3.42-.21,7.2-.37,11.19-.5,11.53.07,23.56-.34,34.53-.57,3.31-.07,2.81-.58-.12-.63,4.37-.12,8.62-.26,12.79-.41,4.9-.11,9.68-.26,14.27-.47,3.64-.16,1.18-.63-1.92-.66-1.74-.02-3.55-.02-5.4-.02.12-.07.01-.14-.25-.2,16.04-.01,32.09-.04,47.79-.4,3.73-.09,2.53-.61-.96-.62-18.81-.09-37.55.15-56.26.39-1.99,0-3.98,0-5.96,0,7.33-.15,14.67-.3,22-.45,9.38-.16,18.8-.3,28.04-.47,16.8.14,34.07.2,49.99-.13,3.1-.07,3.06-.57-.09-.62Z"/>
    </g>
  </g>
</svg>